<svg height="809" viewBox="0 0 1042 809" width="1042" xmlns="http://www.w3.org/2000/svg"><mask id="a" fill="#fff"><path d="M330.924 15.717l-19.398 95.538L.172 832.365l1093.408-3.84v-717.27H685.416L652.86.05z" fill-rule="evenodd"/></mask><mask id="b" fill="#fff"><path d="M330.924 15.717l-19.398 95.538L.172 832.365l1093.408-3.84v-717.27H685.416L652.86.05z" fill-rule="evenodd"/></mask><mask id="c" fill="#fff"><path d="M330.924 15.717l-19.398 95.538L.172 832.365l1093.408-3.84v-717.27H685.416L652.86.05z" fill-rule="evenodd"/></mask><mask id="d" fill="#fff"><path d="M330.924 15.717l-19.398 95.538L.172 832.365l1093.408-3.84v-717.27H685.416L652.86.05z" fill-rule="evenodd"/></mask><mask id="e" fill="#fff"><path d="M330.924 15.717l-19.398 95.538L.172 832.365l1093.408-3.84v-717.27H685.416L652.86.05z" fill-rule="evenodd"/></mask><mask id="f" fill="#fff"><path d="M330.924 15.717l-19.398 95.538L.172 832.365l1093.408-3.84v-717.27H685.416L652.86.05z" fill-rule="evenodd"/></mask><mask id="g" fill="#fff"><path d="M330.924 15.717l-19.398 95.538L.172 832.365l1093.408-3.84v-717.27H685.416L652.86.05" fill-rule="evenodd"/></mask><mask id="h" fill="#fff"><path d="M330.924 15.717l-19.398 95.538L.172 832.365l1093.408-3.84v-717.27H685.416L652.86.05" fill-rule="evenodd"/></mask><mask id="i" fill="#fff"><path d="M330.924 15.717l-19.398 95.538L.172 832.365l1093.408-3.84v-717.27H685.416L652.86.05z" fill-rule="evenodd"/></mask><mask id="j" fill="#fff"><path d="M330.924 15.717l-19.398 95.538L.172 832.365l1093.408-3.84v-717.27H685.416L652.86.05" fill-rule="evenodd"/></mask><mask id="k" fill="#fff"><path d="M330.924 15.717l-19.398 95.538L.172 832.365l1093.408-3.84v-717.27H685.416L652.86.05z" fill-rule="evenodd"/></mask><mask id="l" fill="#fff"><path d="M330.924 15.717l-19.398 95.538L.172 832.365l1093.408-3.84v-717.27H685.416L652.86.05z" fill-rule="evenodd"/></mask><mask id="m" fill="#fff"><path d="M330.924 15.717l-19.398 95.538L.172 832.365l1093.408-3.84v-717.27H685.416L652.86.05" fill-rule="evenodd"/></mask><mask id="n" fill="#fff"><path d="M330.924 15.717l-19.398 95.538L.172 832.365l1093.408-3.84v-717.27H685.416L652.86.05" fill-rule="evenodd"/></mask><mask id="o" fill="#fff"><path d="M330.924 15.717l-19.398 95.538L.172 832.365l1093.408-3.84v-717.27H685.416L652.86.05" fill-rule="evenodd"/></mask><mask id="p" fill="#fff"><path d="M330.924 15.717l-19.398 95.538L.172 832.365l1093.408-3.84v-717.27H685.416L652.86.05" fill-rule="evenodd"/></mask><mask id="q" fill="#fff"><path d="M330.924 15.717l-19.398 95.538L.172 832.365l1093.408-3.84v-717.27H685.416L652.86.05" fill-rule="evenodd"/></mask><mask id="r" fill="#fff"><path d="M330.924 15.717l-19.398 95.538L.172 832.365l1093.408-3.84v-717.27H685.416L652.86.05" fill-rule="evenodd"/></mask><mask id="s" fill="#fff"><path d="M330.924 15.717l-19.398 95.538L.172 832.365l1093.408-3.84v-717.27H685.416L652.86.05z" fill-rule="evenodd"/></mask><mask id="t" fill="#fff"><path d="M330.924 15.717l-19.398 95.538L.172 832.365l1093.408-3.84v-717.27H685.416L652.86.05" fill-rule="evenodd"/></mask><mask id="u" fill="#fff"><path d="M330.924 15.717l-19.398 95.538L.172 832.365l1093.408-3.84v-717.27H685.416L652.86.05z" fill-rule="evenodd"/></mask><mask id="v" fill="#fff"><path d="M330.924 15.717l-19.398 95.538L.172 832.365l1093.408-3.84v-717.27H685.416L652.86.05" fill-rule="evenodd"/></mask><mask id="w" fill="#fff"><path d="M330.924 15.717l-19.398 95.538L.172 832.365l1093.408-3.84v-717.27H685.416L652.86.05" fill-rule="evenodd"/></mask><mask id="x" fill="#fff"><path d="M330.924 15.717l-19.398 95.538L.172 832.365l1093.408-3.84v-717.27H685.416L652.86.05" fill-rule="evenodd"/></mask><mask id="y" fill="#fff"><path d="M330.924 15.717l-19.398 95.538L.172 832.365l1093.408-3.84v-717.27H685.416L652.86.05" fill-rule="evenodd"/></mask><mask id="z" fill="#fff"><path d="M330.924 15.717l-19.398 95.538L.172 832.365l1093.408-3.84v-717.27H685.416L652.86.05z" fill-rule="evenodd"/></mask><mask id="A" fill="#fff"><path d="M330.924 15.717l-19.398 95.538L.172 832.365l1093.408-3.84v-717.27H685.416L652.86.05" fill-rule="evenodd"/></mask><mask id="B" fill="#fff"><path d="M330.924 15.717l-19.398 95.538L.172 832.365l1093.408-3.84v-717.27H685.416L652.86.05" fill-rule="evenodd"/></mask><mask id="C" fill="#fff"><path d="M330.924 15.717l-19.398 95.538L.172 832.365l1093.408-3.84v-717.27H685.416L652.86.05" fill-rule="evenodd"/></mask><mask id="D" fill="#fff"><path d="M330.924 15.717l-19.398 95.538L.172 832.365l1093.408-3.84v-717.27H685.416L652.86.05" fill-rule="evenodd"/></mask><mask id="E" fill="#fff"><path d="M330.924 15.717l-19.398 95.538L.172 832.365l1093.408-3.84v-717.27H685.416L652.86.05" fill-rule="evenodd"/></mask><mask id="F" fill="#fff"><path d="M330.924 15.717l-19.398 95.538L.172 832.365l1093.408-3.84v-717.27H685.416L652.86.05" fill-rule="evenodd"/></mask><mask id="G" fill="#fff"><path d="M330.924 15.717l-19.398 95.538L.172 832.365l1093.408-3.84v-717.27H685.416L652.86.05" fill-rule="evenodd"/></mask><mask id="H" fill="#fff"><path d="M330.924 15.717l-19.398 95.538L.172 832.365l1093.408-3.84v-717.27H685.416L652.86.05" fill-rule="evenodd"/></mask><mask id="I" fill="#fff"><path d="M330.924 15.717l-19.398 95.538L.172 832.365l1093.408-3.84v-717.27H685.416L652.86.05" fill-rule="evenodd"/></mask><mask id="J" fill="#fff"><path d="M330.924 15.717l-19.398 95.538L.172 832.365l1093.408-3.84v-717.27H685.416L652.86.05" fill-rule="evenodd"/></mask><mask id="K" fill="#fff"><path d="M330.924 15.717l-19.398 95.538L.172 832.365l1093.408-3.84v-717.27H685.416L652.86.05" fill-rule="evenodd"/></mask><mask id="L" fill="#fff"><path d="M330.924 15.717l-19.398 95.538L.172 832.365l1093.408-3.84v-717.27H685.416L652.86.05" fill-rule="evenodd"/></mask><mask id="M" fill="#fff"><path d="M330.924 15.717l-19.398 95.538L.172 832.365l1093.408-3.84v-717.27H685.416L652.86.05" fill-rule="evenodd"/></mask><mask id="N" fill="#fff"><path d="M330.924 15.717l-19.398 95.538L.172 832.365l1093.408-3.84v-717.27H685.416L652.86.05" fill-rule="evenodd"/></mask><mask id="O" fill="#fff"><path d="M330.924 15.717l-19.398 95.538L.172 832.365l1093.408-3.84v-717.27H685.416L652.86.05" fill-rule="evenodd"/></mask><mask id="P" fill="#fff"><path d="M330.924 15.717l-19.398 95.538L.172 832.365l1093.408-3.84v-717.27H685.416L652.86.05" fill-rule="evenodd"/></mask><mask id="Q" fill="#fff"><path d="M330.924 15.717l-19.398 95.538L.172 832.365l1093.408-3.84v-717.27H685.416L652.86.05" fill-rule="evenodd"/></mask><mask id="R" fill="#fff"><path d="M330.924 15.717l-19.398 95.538L.172 832.365l1093.408-3.84v-717.27H685.416L652.86.05" fill-rule="evenodd"/></mask><mask id="S" fill="#fff"><path d="M330.924 15.717l-19.398 95.538L.172 832.365l1093.408-3.84v-717.27H685.416L652.86.05" fill-rule="evenodd"/></mask><mask id="T" fill="#fff"><path d="M330.924 15.717l-19.398 95.538L.172 832.365l1093.408-3.84v-717.27H685.416L652.86.05" fill-rule="evenodd"/></mask><mask id="U" fill="#fff"><path d="M330.924 15.717l-19.398 95.538L.172 832.365l1093.408-3.84v-717.27H685.416L652.86.05" fill-rule="evenodd"/></mask><mask id="V" fill="#fff"><path d="M330.924 15.717l-19.398 95.538L.172 832.365l1093.408-3.84v-717.27H685.416L652.86.05" fill-rule="evenodd"/></mask><mask id="W" fill="#fff"><path d="M330.924 15.717l-19.398 95.538L.172 832.365l1093.408-3.84v-717.27H685.416L652.86.05" fill-rule="evenodd"/></mask><mask id="X" fill="#fff"><path d="M330.924 15.717l-19.398 95.538L.172 832.365l1093.408-3.84v-717.27H685.416L652.86.05" fill-rule="evenodd"/></mask><mask id="Y" fill="#fff"><path d="M330.924 15.717l-19.398 95.538L.172 832.365l1093.408-3.84v-717.27H685.416L652.86.05" fill-rule="evenodd"/></mask><mask id="Z" fill="#fff"><path d="M330.924 15.717l-19.398 95.538L.172 832.365l1093.408-3.84v-717.27H685.416L652.86.05" fill-rule="evenodd"/></mask><mask id="aa" fill="#fff"><path d="M330.924 15.717l-19.398 95.538L.172 832.365l1093.408-3.84v-717.27H685.416L652.86.05" fill-rule="evenodd"/></mask><mask id="ab" fill="#fff"><path d="M330.924 15.717l-19.398 95.538L.172 832.365l1093.408-3.84v-717.27H685.416L652.86.05z" fill-rule="evenodd"/></mask><mask id="ac" fill="#fff"><path d="M330.924 15.717l-19.398 95.538L.172 832.365l1093.408-3.84v-717.27H685.416L652.86.05" fill-rule="evenodd"/></mask><mask id="ad" fill="#fff"><path d="M330.924 15.717l-19.398 95.538L.172 832.365l1093.408-3.84v-717.27H685.416L652.86.05" fill-rule="evenodd"/></mask><mask id="ae" fill="#fff"><path d="M330.924 15.717l-19.398 95.538L.172 832.365l1093.408-3.84v-717.27H685.416L652.86.05" fill-rule="evenodd"/></mask><mask id="af" fill="#fff"><path d="M330.924 15.717l-19.398 95.538L.172 832.365l1093.408-3.84v-717.27H685.416L652.86.05z" fill-rule="evenodd"/></mask><mask id="ag" fill="#fff"><path d="M330.924 15.717l-19.398 95.538L.172 832.365l1093.408-3.84v-717.27H685.416L652.86.05" fill-rule="evenodd"/></mask><mask id="ah" fill="#fff"><path d="M330.924 15.717l-19.398 95.538L.172 832.365l1093.408-3.84v-717.27H685.416L652.86.05" fill-rule="evenodd"/></mask><mask id="ai" fill="#fff"><path d="M330.924 15.717l-19.398 95.538L.172 832.365l1093.408-3.84v-717.27H685.416L652.86.05" fill-rule="evenodd"/></mask><mask id="aj" fill="#fff"><path d="M330.924 15.717l-19.398 95.538L.172 832.365l1093.408-3.84v-717.27H685.416L652.86.05" fill-rule="evenodd"/></mask><mask id="ak" fill="#fff"><path d="M330.924 15.717l-19.398 95.538L.172 832.365l1093.408-3.84v-717.27H685.416L652.86.05" fill-rule="evenodd"/></mask><mask id="al" fill="#fff"><path d="M330.924 15.717l-19.398 95.538L.172 832.365l1093.408-3.84v-717.27H685.416L652.86.05" fill-rule="evenodd"/></mask><mask id="am" fill="#fff"><path d="M330.924 15.717l-19.398 95.538L.172 832.365l1093.408-3.84v-717.27H685.416L652.86.05" fill-rule="evenodd"/></mask><mask id="an" fill="#fff"><path d="M330.924 15.717l-19.398 95.538L.172 832.365l1093.408-3.84v-717.27H685.416L652.86.05" fill-rule="evenodd"/></mask><mask id="ao" fill="#fff"><path d="M330.924 15.717l-19.398 95.538L.172 832.365l1093.408-3.84v-717.27H685.416L652.86.05" fill-rule="evenodd"/></mask><mask id="ap" fill="#fff"><path d="M330.924 15.717l-19.398 95.538L.172 832.365l1093.408-3.84v-717.27H685.416L652.86.05" fill-rule="evenodd"/></mask><mask id="aq" fill="#fff"><path d="M330.924 15.717l-19.398 95.538L.172 832.365l1093.408-3.84v-717.27H685.416L652.86.05" fill-rule="evenodd"/></mask><mask id="ar" fill="#fff"><path d="M330.924 15.717l-19.398 95.538L.172 832.365l1093.408-3.84v-717.27H685.416L652.86.05" fill-rule="evenodd"/></mask><g fill="none" fill-rule="evenodd"><path d="M566.679 454.326l93.805 141.716c3.89 5.877 9.205 10.684 15.469 13.913 22.63 11.67 79.836 33.505 137.555-5.53 66.026-44.655 65.998-102.355 62.723-125.803-.872-6.234-3.221-12.167-6.808-17.34l-102.585-147.93z" fill="#1d8cfc" mask="url(#a)" transform="translate(-52 -23.698)"/><path d="M744.7 483.878a38.168 38.168 0 01-1.52-2.285 183.208 183.208 0 01-8.311 5.576c-67.586 42.655-134.7 20.48-134.7 20.48l12.273 16.53s60.409 24.298 133.107-22.463c2.8-1.8 5.487-3.629 8.092-5.475z" fill="#1170f9" mask="url(#b)" transform="translate(-52 -23.698)"/><path d="M812.233 429.378c9.426-20.42 11.579-37.786 11.579-37.786L812.526 377.3s-1.515 14.556-12.28 36.454z" fill="#1170f9" mask="url(#c)" transform="translate(-52 -23.698)"/><path d="M835.716 461.892c10.13-21.274 11.493-36.73 11.493-36.73l-11.285-14.294s-2.184 14.544-11.315 34.391z" fill="#1170f9" mask="url(#d)" transform="translate(-52 -23.698)"/><path d="M766.569 515.168a183.92 183.92 0 01-8.303 5.57c-67.587 42.655-134.7 20.48-134.7 20.48l12.274 16.53s60.408 24.298 133.105-22.463a217.4 217.4 0 008.172-5.53z" fill="#1170f9" mask="url(#e)" transform="translate(-52 -23.698)"/><path d="M679.58 227.454l68.411 58.68c10.72 9.195 18.092 21.723 20.737 35.596 5.941 31.162 4.661 86.813-60.806 131.468 0 0-76.151 45.467-140.008 1.987-9.884-6.73-17.609-16.183-22.318-27.175l-34.952-81.577z" fill="#1170f9" mask="url(#f)" transform="translate(-52 -23.698)"/><path d="M597.8 64.148l94.479 147.515s29.893 66.618-72.377 132.377c0 0-82.592 41.305-126.96 2.568l-106.367-131.84" fill="#1d8cfc" mask="url(#g)" transform="translate(-52 -23.698)"/><path d="M678.472 190.9l-2.15-.269c2.173-17.393-1.188-31.469-9.989-41.835-14.584-17.179-39.383-18.327-39.632-18.336l.084-2.167c1.054.041 26.006 1.202 41.2 19.1 9.21 10.849 12.738 25.486 10.487 43.507" fill="#1d8cfc" mask="url(#h)" transform="translate(-52 -23.698)"/><path d="M678.472 190.9l-2.15-.269c2.173-17.393-1.188-31.469-9.989-41.835-14.584-17.179-39.383-18.327-39.632-18.336l.084-2.167c1.054.041 26.006 1.202 41.2 19.1 9.21 10.849 12.738 25.486 10.487 43.507z" mask="url(#i)" stroke="#1d8cfc" stroke-width="1.083" transform="translate(-52 -23.698)"/><path d="M685.633 204.118l-1.755-.433c2.828-11.455 1.674-21.1-3.43-28.665-8.62-12.772-25.786-15.347-25.958-15.372l.253-1.79c.735.104 18.115 2.7 27.194 16.14 5.41 8.008 6.653 18.142 3.696 30.12" fill="#1d8cfc" mask="url(#j)" transform="translate(-52 -23.698)"/><path d="M685.633 204.118l-1.755-.433c2.828-11.455 1.674-21.1-3.43-28.665-8.62-12.772-25.786-15.347-25.958-15.372l.253-1.79c.735.104 18.115 2.7 27.194 16.14 5.41 8.008 6.653 18.142 3.696 30.12z" mask="url(#k)" stroke="#1d8cfc" stroke-width="1.083" transform="translate(-52 -23.698)"/><path d="M611.691 347.282c.3 7.799 1.059 15.967 5.356 22.482 7.053 10.692 21.37 13.847 30.652 22.672 13.246 12.595 13.683 33.798 24.29 48.683 5.043 7.077 12.595 13.24 13.426 21.89 0 0-60.114 29.291-117.5-7.824 0 0-16.485-13.558-22.32-27.175l-31.945-74.562z" fill="#1d8cfc" mask="url(#l)" transform="translate(-52 -23.698)"/><path d="M589.625 315.667c-1.76-12.967-2.242-27.185-10.756-37.121-6.04-7.048-15.107-10.616-22.53-16.19-4.695-3.525-6.658-9.365-7.684-15.91-3.24-20.685 4.009-41.608 18.965-56.257 38.693-37.896 52.484-88.97 30.18-126.04-27.63-45.921-100.175-52.965-162.035-15.733s-89.61 104.64-61.98 150.56a73.192 73.192 0 005.179 7.493l-.005.004.202.248c.31.393.629.78.947 1.165l112.834 138.722c41.613 36.283 117.755 1.525 117.755 1.525l-1.927-.497c-12.322-4.401-17.384-19.002-19.145-31.969" fill="#fff" mask="url(#m)" transform="translate(-52 -23.698)"/><path d="M464.736 270.946c3.216 4.009 4.2 8.563 2.195 10.171-2.003 1.61-6.236-.337-9.452-4.345-3.217-4.009-4.2-8.562-2.197-10.171 2.004-1.61 6.237.336 9.454 4.345" fill="#1d8cfc" mask="url(#n)" transform="translate(-52 -23.698)"/><path d="M481.2 294.436c3.218 4.009 4.2 8.563 2.197 10.172-2.005 1.608-6.237-.338-9.453-4.346-3.217-4.009-4.2-8.562-2.196-10.171 2.003-1.61 6.236.336 9.452 4.345" fill="#1d8cfc" mask="url(#o)" transform="translate(-52 -23.698)"/><path d="M684.895 463.717c6.088-2.19 2.06 14.013 6.222 18.968 4.16 4.955 9.31 9.092 12.89 14.482 6.811 10.251 7.253 23.969 14.967 33.559 4.444 5.526 10.84 9.071 16.163 13.758 8.92 7.854 14.583 18.68 19.816 29.35 2.827 5.765 5.742 11.76 10.735 15.795 6.75 5.456 16.06 6.343 24.737 6.124a129.336 129.336 0 0045.91-9.699s-48.458 54.299-121.928 37.615c0 0-23.9-5.74-38.454-13.713 0 0-5.848-2.378-14.416-12.404l-93.623-142.367s43.87 34.831 116.981 8.532" fill="#fff" mask="url(#p)" transform="translate(-52 -23.698)"/><path d="M602.848 508.468l10.61 16.135c7.086 2.486 47.322 14.781 99.141-5.853-2.06-5.7-3.592-11.715-6.201-17.149-48.895 19.3-92.383 9.869-103.55 6.867" fill="#1d8cfc" mask="url(#q)" transform="translate(-52 -23.698)"/><path d="M740.696 550.366c-1.742-2.083-3.614-4.053-5.667-5.86-3.09-2.723-6.543-5.061-9.766-7.625-49.85 18.032-93.128 6.907-100.647 4.713l6.936 10.547 4.18 5.63s45.46 18.273 104.964-7.405" fill="#1d8cfc" mask="url(#r)" transform="translate(-52 -23.698)"/><path d="M379.16 206.721s54.71 39.991 161.974-17.933c.812-.439 1.572.657.87 1.257-15.96 13.639-70.848 53.257-149.942 32.538z" fill="#1d8cfc" mask="url(#s)" transform="translate(-52 -23.698)"/><path d="M574.456 610.485c7.003-2.557 12.483-7.76 16.785-13.724 4.7-6.518 8.713-13.968 11.262-21.593 2.642-7.902 3.044-16.589 7.188-23.953 3.988-7.086 10.499-12.362 16.686-17.44 2.145-1.76-.47-5.201-2.628-3.43-5.941 4.876-12.06 9.913-16.344 16.384-4.525 6.835-5.726 14.614-7.638 22.418-1.956 7.985-5.733 15.589-10.216 22.449-4.179 6.396-9.417 12.22-16.754 14.898-2.611.953-.954 4.945 1.659 3.99" fill="#fff" mask="url(#t)" transform="translate(-52 -23.698)"/><path d="M615.893 677.728l-81.91-129.29 98.902 29.06zM520.347 537.93L-39.5 890.56a5.876 5.876 0 00-1.792 8.176l102.489 157.517 553.897-355.502a19.03 19.03 0 008.502-12.95l19.062-116.855-114.672-34.066a9.343 9.343 0 00-7.64 1.05z" fill="#fff" mask="url(#u)" transform="translate(-52 -23.698)"/><path d="M469.1 578.304l47.52-30.116a8.27 8.27 0 0111.41 2.56l84.74 133.754a8.271 8.271 0 01-2.56 11.413l-47.518 30.115a8.269 8.269 0 01-11.411-2.56l-84.74-133.753a8.272 8.272 0 012.56-11.413" fill="#1d8cfc" mask="url(#v)" transform="translate(-52 -23.698)"/><path d="M329.407 666.931l119.34-75.632a8.27 8.27 0 0111.412 2.56l84.738 133.753a8.272 8.272 0 01-2.559 11.413l-119.34 75.632a8.268 8.268 0 01-11.411-2.56l-84.739-133.753a8.271 8.271 0 012.56-11.413" fill="#1d8cfc" mask="url(#w)" transform="translate(-52 -23.698)"/><path d="M190.212 755.583l119.34-75.632a8.269 8.269 0 0111.412 2.559l84.739 133.754a8.27 8.27 0 01-2.56 11.412l-119.34 75.633a8.268 8.268 0 01-11.411-2.56l-84.739-133.753a8.272 8.272 0 012.56-11.413" fill="#1d8cfc" mask="url(#x)" transform="translate(-52 -23.698)"/><path d="M48.948 845.11l119.34-75.632a8.27 8.27 0 0111.412 2.56l84.738 133.753a8.271 8.271 0 01-2.559 11.413l-119.34 75.632a8.269 8.269 0 01-11.41-2.56l-84.74-133.753a8.272 8.272 0 012.559-11.413" fill="#1d8cfc" mask="url(#y)" transform="translate(-52 -23.698)"/><path d="M634.728 557.573l-1.167 4.24 13.975 20.525 5.325 1.146z" fill="#fff" mask="url(#z)" transform="translate(-52 -23.698)"/><g stroke="#fff" stroke-width="1.44"><path d="M477.384 585.56l87.91 138.917" mask="url(#A)" transform="translate(-52 -23.698)"/><path d="M492.107 576.666l87.91 138.916" mask="url(#B)" transform="translate(-52 -23.698)"/><path d="M506.092 567.733L593.65 705.98" mask="url(#C)" transform="translate(-52 -23.698)"/><path d="M520.424 558.963L608.08 697.36" mask="url(#D)" transform="translate(-52 -23.698)"/><path d="M405.653 630.923l87.911 138.916" mask="url(#E)" transform="translate(-52 -23.698)"/><path d="M420.377 622.028l87.91 138.916" mask="url(#F)" transform="translate(-52 -23.698)"/><path d="M434.718 613.658l87.559 138.247" mask="url(#G)" transform="translate(-52 -23.698)"/><path d="M448.547 605.129l87.655 138.398" mask="url(#H)" transform="translate(-52 -23.698)"/><path d="M346.744 668.96l87.91 138.916" mask="url(#I)" transform="translate(-52 -23.698)"/><path d="M363.69 658.426l87.91 138.916" mask="url(#J)" transform="translate(-52 -23.698)"/><path d="M378.031 650.056l87.559 138.247" mask="url(#K)" transform="translate(-52 -23.698)"/><path d="M391.86 641.526l87.655 138.4" mask="url(#L)" transform="translate(-52 -23.698)"/><path d="M263.815 725.075l87.91 138.916" mask="url(#M)" transform="translate(-52 -23.698)"/><path d="M278.538 716.18l87.91 138.916" mask="url(#N)" transform="translate(-52 -23.698)"/><path d="M292.88 707.81l87.558 138.247" mask="url(#O)" transform="translate(-52 -23.698)"/><path d="M306.709 699.28l87.654 138.4" mask="url(#P)" transform="translate(-52 -23.698)"/><path d="M207.128 761.473l87.91 138.916" mask="url(#Q)" transform="translate(-52 -23.698)"/><path d="M221.852 752.578l87.91 138.916" mask="url(#R)" transform="translate(-52 -23.698)"/><path d="M236.193 744.208l87.558 138.246" mask="url(#S)" transform="translate(-52 -23.698)"/><path d="M250.021 735.678l87.655 138.4" mask="url(#T)" transform="translate(-52 -23.698)"/><path d="M123.568 813.232l87.91 138.917" mask="url(#U)" transform="translate(-52 -23.698)"/><path d="M138.29 804.337l87.911 138.917" mask="url(#V)" transform="translate(-52 -23.698)"/><path d="M152.632 795.968l87.559 138.246" mask="url(#W)" transform="translate(-52 -23.698)"/><path d="M166.461 787.438l87.655 138.399" mask="url(#X)" transform="translate(-52 -23.698)"/><path d="M95.946 832.366l87.557 138.246" mask="url(#Y)" transform="translate(-52 -23.698)"/><path d="M109.774 823.836l87.655 138.399" mask="url(#Z)" transform="translate(-52 -23.698)"/></g><path d="M917.982 370.256c-7.34 1.313-13.632 5.495-18.896 10.63-5.753 5.612-10.987 12.26-14.81 19.332-3.962 7.329-5.853 15.818-11.203 22.36-5.148 6.292-12.47 10.369-19.439 14.306-2.414 1.364-.43 5.204 2 3.831 6.692-3.78 13.586-7.69 18.92-13.327 5.633-5.954 8.155-13.41 11.381-20.769 3.3-7.527 8.33-14.368 13.926-20.354 5.217-5.58 11.38-10.416 19.068-11.792 2.736-.49 1.79-4.707-.947-4.217" fill="#1d8cfc" mask="url(#aa)" transform="translate(-52 -23.698)"/><path d="M864.45 432.212l16.993-100.23 81.91 129.289zm563.369-474.02l-544.79 349.655a19.38 19.38 0 00-8.657 13.189l-19.037 116.7 110.316 32.773a19.37 19.37 0 0015.841-2.178l551.825-347.578c5.07-3.193 6.546-9.92 3.277-14.942l-93.98-144.44c-3.219-4.947-9.829-6.368-14.795-3.18z" fill="#1d8cfc" mask="url(#ab)" transform="translate(-52 -23.698)"/><path d="M1031.668 428.62L978.6 462.253a4.984 4.984 0 01-6.878-1.543l-88.256-139.305a4.986 4.986 0 011.542-6.878l53.069-33.633a4.983 4.983 0 016.877 1.542l88.257 139.305a4.985 4.985 0 01-1.543 6.879" fill="#1170f9" mask="url(#ac)" transform="translate(-52 -23.698)"/><path d="M1169.865 340.942l-121.897 77.253a6.755 6.755 0 01-9.322-2.092l-86.36-136.31a6.758 6.758 0 012.091-9.325l121.897-77.253a6.755 6.755 0 019.323 2.091l86.359 136.31a6.758 6.758 0 01-2.09 9.326" fill="#1170f9" mask="url(#ad)" transform="translate(-52 -23.698)"/><path d="M1308.053 252.928l-119.884 75.977a7.946 7.946 0 01-10.966-2.46l-85.084-134.298a7.95 7.95 0 012.459-10.968l119.884-75.978a7.947 7.947 0 0110.967 2.46l85.084 134.298a7.95 7.95 0 01-2.46 10.969" fill="#1170f9" mask="url(#ae)" transform="translate(-52 -23.698)"/><path d="M846.832 428.647l4.977-.937 13.635 18.283-1.797 6.96z" fill="#1d8cfc" mask="url(#af)" transform="translate(-52 -23.698)"/><path d="M898.46 324.088l87.91 138.916" mask="url(#ag)" stroke="#1d8cfc" stroke-width="1.44" transform="translate(-52 -23.698)"/><path d="M913.183 315.194l87.91 138.916" mask="url(#ah)" stroke="#1d8cfc" stroke-width="1.44" transform="translate(-52 -23.698)"/><path d="M927.168 306.261l87.558 138.247" mask="url(#ai)" stroke="#1d8cfc" stroke-width="1.44" transform="translate(-52 -23.698)"/><path d="M941.5 297.49l87.655 138.4" mask="url(#aj)" stroke="#1d8cfc" stroke-width="1.44" transform="translate(-52 -23.698)"/><path d="M968.099 276.81l87.91 138.915" mask="url(#ak)" stroke="#1d8cfc" stroke-width="1.44" transform="translate(-52 -23.698)"/><path d="M982.822 267.915l87.91 138.916" mask="url(#al)" stroke="#1d8cfc" stroke-width="1.44" transform="translate(-52 -23.698)"/><path d="M996.807 258.982l87.558 138.247" mask="url(#am)" stroke="#1d8cfc" stroke-width="1.44" transform="translate(-52 -23.698)"/><path d="M1011.139 250.211l87.654 138.4" mask="url(#an)" stroke="#1d8cfc" stroke-width="1.44" transform="translate(-52 -23.698)"/><path d="M1025.555 240.358l87.91 138.916" mask="url(#ao)" stroke="#1d8cfc" stroke-width="1.44" transform="translate(-52 -23.698)"/><path d="M1040.278 231.464l87.91 138.916" mask="url(#ap)" stroke="#1d8cfc" stroke-width="1.44" transform="translate(-52 -23.698)"/><path d="M1054.263 222.531l87.558 138.247" mask="url(#aq)" stroke="#1d8cfc" stroke-width="1.44" transform="translate(-52 -23.698)"/><path d="M1068.595 213.76l87.655 138.4" mask="url(#ar)" stroke="#1d8cfc" stroke-width="1.44" transform="translate(-52 -23.698)"/></g></svg>