<svg height="616" viewBox="0 0 1234 616" width="1234" xmlns="http://www.w3.org/2000/svg"><linearGradient id="b" x1="99.243%" x2="1.394%" y1="67.745%" y2="36.935%"><stop offset="0" stop-color="#1c2f57"/><stop offset="1"/></linearGradient><mask id="a" fill="#fff"><path d="M0 .03h65.819v72.152H0z" fill-rule="evenodd"/></mask><mask id="c" fill="#fff"><path d="M5.005.26L3.053 6.497C3.409 4.953 4.688 3.822 5.899 2.8 7.587 1.374 9.639-.146 11.788.36c1.964.463 3.128 2.42 4.19 4.137 1.902 3.08 4.699 6.214 8.317 6.207 2.51-.005 4.752-1.56 6.563-3.299 1.811-1.738 3.412-3.749 5.55-5.065.807-.497 1.714-.893 2.661-.892 2.177.002 3.763 1.984 5.002 3.775l4.409 6.37c.79 1.14 1.599 2.3 2.71 3.13 1.112.828 2.6 1.28 3.909.824-3.35 1.867-7.315 3.78-10.846 2.287-2.395-1.013-4.69-3.537-7.075-2.503-.809.35-1.394 1.06-1.961 1.735-2.629 3.13-5.568 6.053-9.044 8.2-1.428.882-3.031 1.65-4.707 1.548-2.28-.138-4.129-1.816-5.774-3.4l-4.055-3.905c-.685-.66-1.435-1.352-2.375-1.488-1.291-.186-2.457.722-3.445 1.574C4.128 21.053 1 26.186.748 23.967" fill-rule="evenodd"/></mask><g fill="none" fill-rule="evenodd"><path d="M586.037 338.453c-2.822-.918-5.553-1.14-7.652-.765l-.008-.004-.003.007c-1.92.346-3.309 1.194-3.73 2.49-.354 1.09.036 2.328.968 3.533l-1.205 2.629 17.289 6.039 2.541-5.827c.882-2.714-2.79-6.342-8.2-8.102" fill="#ff5050"/><path d="M819.2 312.334c0-4.474-3.86-8.338-4.673-9.559-.813-1.22-5.803-8.594-5.803-8.594s-.188-12.44-2.109-19.145c-1.92-6.705-7.261-8.862-10.681-10.362-2.9-1.272-8.358-9.52-9.953-12.002a2.076 2.076 0 00-1.275-.898l-.136-.032c-1.109-.26-2.237.417-2.498 1.528-.434 1.84.62 4.075.966 4.739-.27-.435-1.07-1.351-2.518-.087-1.827 1.594.609 4.173.609 4.173s-.6.32-.6 1.429c0 1.11 7.67 9.34 7.67 9.34l.369 6.012-9.333-7.769c-3.743-2.122-5.506-.368-6.257.997a1.473 1.473 0 00.368 1.85c3.453 2.787 6.998 8.621 6.998 8.621 2.864 7.306 8.408 11.376 9.055 12.3.647.925.278 1.665-.184 3.885-.463 2.219.277 4.716.277 6.011s-.185 4.809-.185 5.641c0 .832 2.218 2.497 2.218 3.237 0 .74-1.479 2.127-1.479 2.127-1.386 8.508 2.496 10.173 3.05 11.005.554.833.647 3.052.647 3.052-3.604 1.85 0 9.064 0 9.064-3.235-1.295-.77 1.232-4.76 1.232-3.99 0-12.968 4.243-18.205 4.492-2.677.128-8.677 1.755-13.903 3.316.898-2.82 1.265-6.219-1.515-7.448a44.972 44.972 0 001.128-10.036c0-23.03-17.287-41.701-38.612-41.701-21.325 0-38.612 18.67-38.612 41.7 0 10.188 3.384 19.52 9.002 26.763h-.003s-3.449 3.7-1.563 8.266c-1.886.683-3.399 1.292-3.399 1.292s-4.125 3.59-9.147 3.59-10.94 3.77-12.555 4.308c-1.614.538-8.967 2.333-9.864 3.59-.897 1.256-6.277 1.077-9.326 1.077s-6.636 1.077-8.25 1.795c-1.615.718-7.175 3.59-8.072 3.59-.896 0-3.586-1.616-5.021-2.334s-7.174-6.64-10.223-7.539c-3.049-.897-5.919-2.333-5.919-2.333s-6.636-3.41-7.891-3.41-3.229-6.104-3.229-8.617c0-2.512.18-12.026.18-12.026s-6.098-8.257-8.071-8.795-9.685-.718-10.403-.718c-.717 0-2.69 4.487-2.69 5.206 0 .717-1.076.897-1.435 1.435-.358.539-1.255 3.41-1.793 4.488-.538 1.077-1.794 1.436-1.973 2.872-.179 1.435.538 6.82.538 8.256 0 1.437 14.707 19.386 14.707 19.386l.897 4.308s4.484 6.282 5.74 8.975c1.254 2.693 6.814 7.18 9.504 9.872 2.691 2.693 6.995 4.488 6.995 4.488s7.174 4.846 11.3 5.384c4.124.539 1.434 3.59 9.326 3.59s41.61-8.436 41.61-8.436l3.407 1.975s-2.69 17.77-2.69 19.924 2.152 4.487 1.614 5.205-5.919 4.129-6.56 6.822c-.64 2.692-5.816 6.82-16.756 7.359-10.94.538-35.332 8.795-44.479 10.231-9.147 1.436-12.017 5.206-16.5 5.385-4.484.18-6.098 3.051-8.968 7.18-2.869 4.128-13.989 53.85-13.989 53.85s-1.794 13.282-1.794 14.359-.538 11.667-.538 15.257.897 5.385.897 5.385-9.864 17.052-14.348 20.642-21.523 6.641-30.132 5.924c-8.608-.718-8.608 3.948-8.608 3.948h-1.794l-1.434 5.384c11.478 5.922 24.75 9.156 24.75 9.156 13.451-.539 23.674.359 23.674.359l2.691 3.59 18.652 3.05s2.152-12.563 2.152-13.82c0-1.257 1.256-3.77 1.615-6.641.358-2.873-.359-5.026 0-7.36.358-2.333 0-4.846 0-7.011s1.972-4.656 1.972-7.528 4.125-5.744 4.125-5.744 5.202-3.77 5.92-8.616c.717-4.847 5.2-8.077 8.25-11.487 3.048-3.411 4.483-7.18 6.456-15.438 1.973-8.256 10.94-15.257 11.12-15.795.18-.539 12.554-6.463 17.755-7.898 5.202-1.436 17.218-4.129 20.088-4.487 2.87-.36 8.968-3.411 16.321-3.411s21.343-1.436 21.343-1.436l.717 10.411s.897 8.795.897 13.283c0 4.487.897 12.385.897 15.795s4.125 7.539 4.483 12.924c.36 5.385-2.331 12.206-4.663 12.026s-6.994 1.437-8.967 1.975-4.484 5.923-4.484 5.923c-3.049 19.745 6.023 22.079 6.023 22.079 10.149 1.615 11.553 4.307 11.553 4.307l-1.076 4.667c0 2.693 9.506 8.616 9.506 8.616 14.527 1.975 16.321-7 16.321-7 1.973-10.052-.897-20.283-.897-22.078s-1.076-10.411-1.076-13.283 1.256-12.565 1.435-14.001c.18-1.436 3.407-3.948 6.277-7.718s7.892-24.591 8.251-27.463c.358-2.873 2.87-9.694 3.048-12.027.18-2.333.718-4.846 1.794-5.923.404-.404 1.222-.619 2.086-.73 3.072-.392 5.771-2.297 7.242-5.024 7.249-13.435 5.204-43.83 5.204-43.83l-1.625-7.321s4.877-6.102 4.877-11.593 4.877-7.524 6.502-12.405 7.112-21.762 7.112-24.812c0-3.05.407-10.982 1.83-11.186 1.422-.203 23.977-9.965 27.026-11.592 3.048-1.626 4.877-2.237 8.128-3.864 3.251-1.627 7.519-5.694 7.925-10.778.406-5.085 3.658-16.067 3.658-18.507s-3.252-21.151-3.252-25.625" fill="#384a66"/><path d="M670.803 436.52c-.023-.066-.05-.132-.073-.197l.082.18-.01.017m78.208-93.107c-2.905 1.167-6.697 2.356-10.969 3.52-.792.217-1.363-.757-.787-1.344 1.504-1.529 2.573-3.113 3.822-4.71 5.285-6.755 6.747-20.264-1.412-28.193s1.412-15.57 1.412-15.57c-12.322-9.4-23.2-8.364-23.2-8.364-20.849.148-30.113 15.602-30.114 15.603 0 0-9.743 10.392-8.437 30.749 0 0 .02-.66.111-1.788 1.02 14.23 8.827 23.9 8.827 23.9-3.36 3.144-2.356 6.526-1.81 7.77l-1.798 1.019c-.718.407-1.41.86-2.056 1.374-1.36 1.084-4.566 3.224-8.445 2.984-3.882-.24-9.007 2.306-11.324 3.592-.835.463-1.724.813-2.653 1.035-2.34.557-6.896 1.793-8.442 3.27 0 0-1.858 1.252-10.593 1.059-5.733-.127-10.425 2.24-12.973 3.882-1.439.927-3.24 1.098-4.806.407-1.74-.768-3.7-1.762-3.873-2.406-.316-1.176-7.83-6.319-7.83-6.319s-15.579-7.967-16.207-5.645c-1.185 4.384-3.14 8.605-6.26 11.917-.311.33-.495.785-.408 1.23.132.669.754.802 1.299.801 3.308-.002 5.706-3.232 8.88-4.161.349-.103.744-.17 1.06.008s.458.552.56.9c.703 2.42.68 5.382 2.713 6.87 2.268 1.659 5.506.305 8.233.98 3.106.767 4.996 3.988 7.921 5.285 2.506 1.111 5.441.655 8.009-.304 2.568-.958 4.946-2.388 7.544-3.262a18.985 18.985 0 0112.196.068c1.452.506 2.963 1.203 4.463.864.932-.211 1.725-.799 2.52-1.329a25.664 25.664 0 0113.253-4.277c1.156-.041 2.329-.005 3.45-.29 2.437-.622 4.431-2.709 6.946-2.807h.025c1.29-.047 2.206 1.229 1.76 2.44a339.343 339.343 0 00-10.067 32.198c-1.279 4.942-2.44 10.212-.898 15.079.475 1.499 1.202 2.978 1.885 4.454-.305.232-4.063 3.092-5.029 4.36-1.007 1.323-1.518 1.684-2.41 4.148 0 0-2.577 2.982-6.527 4.084-3.95 1.102-9.852 1.471-12.338 1.856-2.485.384-6.896.607-7.932.93-1.036.325-3.278 1.329-3.646 1.41-.369.081-21.546 5.72-21.546 5.72l-7.576 1.685s-4.55.194-8.46 2.333c-3.909 2.14-5.952 2.657-5.952 2.657s-2.494.877-3.95.698c-1.455-.179-3.693 1.112-5.78 4.093-2.087 2.98-4.677 4.802-4.677 6.422s.177 3.246.056 3.665c-.12.418-2.776 9.946-4.006 12.085-1.23 2.138-.777 3.823-.777 3.823s-2.202 10.824-3.044 12.315c-.842 1.49-.906 2.463-.906 3.176 0 .713-1.238 7.35-1.44 8.562-.202 1.212-2.757 2.717-2.019 4.75.736 2.031-1.367 10.486-1.212 13.438.155 2.953-.202 7.882-.202 7.882s-1.598 11.823.716 15.713l6.906 5.011s13.638-13.48 11.355-21.763c-2.283-8.284-1.166-6.952 0-15.211 1.166-8.26 9.443-20.685 9.443-24.827v-16.93c1.544.61 2.957 1.745 4.433 2.58.604.342 1.27.646 1.962.592.691-.053 1.389-.584 1.4-1.278.016-.957-1.158-1.973-.506-2.674.176-.19.441-.267.695-.323 1.507-.332 3.143-.259 4.493-1.006.314-.175.635-.448.628-.807-.007-.376-.368-.638-.698-.82-.957-.53-1.987-.92-3.049-1.179 1.519-.822 2.971-1.912 4.128-3.36 4.51-5.641 13.809-7.897 17.473-7.897s20.009-6.77 20.854-6.77c.846 0 2.537-4.512 7.891-4.512s16.064-9.308 16.064-9.308 2.278-1.755 4.04-4.62a25.862 25.862 0 016.848-1.849c2.988-.374 6.264-.304 8.643-2.153.21-.164.428-.383.404-.649-.02-.208-.186-.37-.343-.507a18.719 18.719 0 00-3.236-2.283c-.638-.356-1.336-.71-1.68-1.355-.256-.478-.27-1.03-.2-1.577 2.593-4.858 4.485-10.69 8.699-14.113 3.95-3.209 9.386-3.826 13.84-6.286s7.788-8.795 4.288-12.49c-.936-.987-2.242-1.62-2.985-2.76-1.36-2.088-.271-4.935 1.337-6.837 1.608-1.904 3.731-3.433 4.813-5.677 2.14-4.436-.526-9.568-1.02-14.469a14.62 14.62 0 01-.054-.707c-.305-5.828 3.675-11.016 9.294-12.58 17.698-4.923 27.375-11.83 31.719-15.697.603-.537 0-1.503-.749-1.203" fill="#fff"/><path d="M682.303 314.966s4.409-7.317 17.603-9.865c14.365-2.776 29.125 2.328 39.011 13.122.48.524.747 1.21.747 1.921v10.034a3.95 3.95 0 01-.713 2.269c-2.058 2.941-8.777 11.08-22.762 15.768-11.661 3.908-24.514 2.074-34.354-5.308a51.012 51.012 0 01-1.1-.85s-5.03-16.513 1.568-27.091" fill="#030c1a"/><path d="M320.747 144.223c.899-1.625 2.388-2.888 4.204-3.268 5.563-1.167 8.351 6.118 13.468 6.524 4.275.34 7.905-4.36 12.12-3.574 3.347.623 5.033 4.27 6.521 7.335 1.488 3.064 4.22 6.418 7.542 5.67 1.578-.354 2.789-1.58 4.183-2.399 2.482-1.457 5.68-1.455 8.264-.226 1.758.838 3.891.224 4.99-1.385 1.555-2.275 3.34-4.366 5.634-5.855l.02-.013c1.365-.884 2.159-2.444 2.023-4.065a26.065 26.065 0 00-.258-2.079c-1.4-8.405-6.979-15.545-9.204-23.77-1.949-7.203-1.266-15.026-3.997-21.97-3.336-8.482-11.625-15.46-11.068-24.56 0 0-10.986 1.006-13.457 1.97s-6.644 2.57-6.644 4.177c0 1.607-3.622 7.068-2.774 8.353.848 1.286 6.626 8.354 6.626 10.924 0 2.57 2.695 9.317 2.792 10.28.077.768.032 4.384.01 5.828-1.242-1.624-2.67-3.104-4.093-4.575-.89-.92-1.836-1.874-3.06-2.246a6.83 6.83 0 00-.56-.137 85.084 85.084 0 00-2.884-2.426c-.673-1.435-2.122-4.007-4.205-4.901a25.585 25.585 0 00-.874-.338 6.809 6.809 0 00-1.012-.376c-12.348-4.54-78.564-27.95-78.564-27.95-8.845-3.795-21.902 1.474-22.534 1.474s-8.003 5.27-9.267 5.48c-1.264.211-6.95 4.638-9.477 5.48-2.527.844-15.188 7.22-15.188 7.22S187.89 93.35 186.82 93.35c-1.07 0-6.305 3.69-7.97 3.81-1.665.12-3.45 2.5-4.044 2.613-.595.113-1.547.244-2.38.015-.832-.23-3.925 2.372-4.757 2.372s-7.31 4.893-8.68 4.893-3.561 1.234-4.315 1.165c-.753-.068-5.479-2.33-5.479-2.33l-6.026-5.483-4.452-.617c-3.082.617-3.767 3.016-3.767 3.633 0 .616 2.74 2.535 2.74 2.535s-3.561-.616-4.589-.822-2.123 1.234-2.465 1.782c-.342.548-1.644 3.77-1.712 4.057-.008.032-.037.057-.082.076-1.173.494-2.178 1.308-2.584 2.515-.7 2.086-1.757 4.973-2.813 6.877-1.82 3.277-2.184 10.56 1.455 10.925 3.638.364 4.366-2.914 4.366-2.914l8.368 2.549 4.73 5.462s4.003 4.37 5.095 4.37c1.09 0 11.279 1.093 14.372 1.093s10.006 2.549 12.552 2.549c2.548 0 12.008-5.827 14.19-5.827 2.184 0 17.83-7.647 17.83-7.647l-1.456 6.19s-4.002 11.29-4.002 15.66c0 4.37-17.101 61.904-17.101 61.904s-6.186 16.751-6.186 20.029c0 3.277-2.183 8.74-5.093 16.022-2.911 7.283-17.83 15.294-17.83 17.115 0 1.82-12.37 11.288-12.37 11.288l-10.552 14.93-4.366 5.827s-4.73 7.86-3.639 10.56c3.18 7.862-4.366 4.37-9.824 4.37-5.457 0-5.094 6.919-6.185 8.375s-17.83 12.745-19.648 15.659c-1.82 2.913-8.733 12.38-10.188 17.115-1.455 4.733-11.28 11.653-11.643 15.294-.364 3.641-11.28 10.924-14.19 13.838-2.912 2.913-13.827 12.38-13.827 12.38s-7.641 9.468-9.824 9.832c-2.183.365-13.826 7.648-15.282 7.648-1.455 0-3.638 14.93-3.638 14.93s19.284 22.213 23.286 22.213c4.002 0 14.918-6.555 16.01-8.376 1.09-1.82 2.183-11.288 2.183-12.745 0-1.457 5.094-9.468 6.913-9.831 1.82-.365 11.28-11.653 11.28-11.653s10.55-8.012 16.009-11.653c5.457-3.642 26.56-15.294 26.56-15.294s13.464-1.093 16.374-1.093c2.911 0 11.28-4.734 17.465-8.011s9.097-9.468 14.555-12.017c5.457-2.549 8.732-9.104 10.551-13.474 1.82-4.37 8.005-8.74 11.643-13.473 3.64-4.734 9.825-9.104 12.008-12.017 2.183-2.913 7.277-11.289 7.277-11.289s1.455-7.646 5.093-10.196c3.639-2.55 4.367-5.098 5.822-8.74s8.369-10.924 8.369-10.924 8.005 5.099 8.005 10.925 4.366 12.017 4.366 17.114c0 5.099-3.639 21.12-3.639 26.948 0 5.826-.727 7.647-3.274 7.647-2.548 0-6.55 5.098-7.278 7.647-.727 2.549-5.093 5.462-10.915 8.375-5.822 2.913-5.108 11.447-9.838 15.088-4.73 3.642-5.808 4.212-11.63 7.125-5.821 2.914-10.915 12.381-12.006 15.294-1.092 2.914-14.19 12.381-19.649 19.3-5.457 6.92-15.281 10.196-17.1 12.381-1.82 2.185-10.552 3.642-10.552 3.642s-14.554 6.19-18.557 10.924.728 14.566 1.82 20.028c1.09 5.463 10.551 7.647 12.37 11.653.975 2.146 1.428 7.95 1.638 12.877.315 7.387 3.25 14.466 8.44 19.728 4.89 4.957 10.385 8.074 15.212 10.03 8.586 3.477 18.288-1.845 19.86-10.982a52.57 52.57 0 00.687-6.568 15.144 15.144 0 00-1.445-7.185c-7.84-16.414-3.276-25.547-3.276-25.547 2.91-9.468 40.023-31.317 41.479-31.68 1.456-.365 10.916-2.186 15.282-2.186s17.1-12.38 20.376-13.837c3.274-1.457 29.108-16.387 42.57-34.594 13.463-18.208 12.735-40.42 12.735-43.698 0-3.278 1.82-18.208.364-44.426-1.455-26.219-8.005-44.79-8.005-46.247 0-1.456 3.275-14.93 3.275-16.75 0-1.822 6.549-15.66 6.549-20.393 0-4.734 5.094-13.837 5.458-15.294.364-1.457 3.639-5.827 5.458-10.924 1.819-5.099 4.366-13.11 4.366-13.11s4.817-12.055 5.876-19.834c-.603-3.578-1.081-7.294.768-10.64" fill="#384a66"/><path d="M581.492 359.416c-4.519-1.148-8.651-.232-9.229 2.046l-.464 1.832.86.22c.997 1.696 3.531 3.334 6.742 4.149 3.212.815 6.22.585 7.904-.431l.86.219.465-1.833c.578-2.277-2.618-5.054-7.138-6.202" fill="#ff5050"/><path d="M249.457 67.132l-21.827-6.865a4.947 4.947 0 00-6.165 3.12l-50.914 148.732a2.406 2.406 0 001.482 3.051l83.233 36.166c4.115 1.789 8.886-.255 10.434-4.469l51.803-140.98a7.14 7.14 0 00-3.697-8.94z" fill="#384a66"/><path d="M130.625 110.83c1.24 3.98 5.032 6.958 9.132 7.487a1.932 1.932 0 011.627 2.406 14.224 14.224 0 00-.385 4.667c.138 1.657 2.345 2.152 3.134.69a34.715 34.715 0 015.137-7.17c1.24-1.333 3.279-1.45 4.753-.38 1.46 1.061 3.568 1.423 5.362.939 2.834-.767 5.01-2.98 7.028-5.114 1.204-1.274 2.454-2.582 3.865-3.606 1.33-.965 3.226-.335 3.688 1.243.882 3.013 2.672 5.735 5.684 5.051.736-.167 1.415-.531 2.002-1.006a40.168 40.168 0 009.227-10.66c.495-.833 1.376-1.406 2.343-1.366 2.386.098 2.165 3.558 4.007 4.633 3.219 1.878 6.657-5.524 9.724-3.409 4.382-7.794 10.449-19.19 11.5-28.07-6.798 5.12-17.966 11.217-25.802 14.534-2.031.859-4.775.505-6.806 1.364-2.384 1.01-3.829 2.734-6.212 3.743-.6.253-1.508.22-2.138.484-5.122 2.157-10.982 5.438-13.87 7.28-.676.43-1.765 1.016-2.561 1.57-.623.434-1.608.815-2.074.912-1.011.21-3.034.777-4.315 1.165-.58.176-.928-.36-1.523-.524-.755-.209-2.23-.84-3.956-1.806-1.042-.584-1.853-1.69-2.537-2.308-1.482-1.339-2.486-2.458-3.49-3.176l-4.451-.616c-1.518.305-3.287 1.277-3.768 3.632-.086.427 1.447 2.208 2.74 2.536-1.142.133-4.304-1.143-5.206-.83-.984.34-1.907 1.214-3.51 5.41m137.473 247.803c-2.2-3.203-4.655-6.007-6.95-8.32-7.394-7.457-11.61-17.522-11.67-28.028l-.001-.324c0-10.821-1.802-10.22 0-16.833 1.802-6.613 6.007-6.613 0-13.828-6.007-7.214-26.869-9.612-26.869-9.612l4.751 6.485c1.847 2.52 3 5.47 3.398 8.569.145 1.134.394 2.441.809 3.846.833 2.82 3.757 5.92 3.413 9.14-.65 6.084-3.523 13.435-3.523 19.447 0 4.562-1.951 10.918-2.892 13.72-2.145.129-4.636 4.018-5.956 5.715-.968 1.244-3.859 7.183-5.336 7.731-9.383 3.484-10.482 6.385-17.464 12.909-1.815 1.695-2.9 4.925-4.546 6.783-1.578 1.783-4.231 2.01-6.383 3.026-4.71 2.22-6.514 7.814-8.848 12.471-7.777 15.52-24.671 23.734-38.162 34.649-1.422 1.15-2.916 2.527-3.097 4.348 0 0-5.595 1.778-9.674 2.647s-12.915 6.557-12.915 6.558l-5.641 4.366s24.239.415 38.212 31.364c.485 1.075 2.103.618 1.947-.551l-.024-.172c-.285-2.092 1.04-4.01 3.053-4.645 1.277-.402 2.64-1.336 3.914-3.19 4.145-6.034-3.014-9.05 0-17.724a192.114 192.114 0 014.392-11.38 12.124 12.124 0 015.936-6.22l.038-.018c1.496-.717 3.005-1.56 3.978-2.904 1.19-1.642 1.411-3.787 2.299-5.61 2.747-5.646 10.341-6.315 15.857-9.308 8.897-4.828 12.54-16.145 21.108-21.538 4.769-3.002 11.218-4.386 13.588-9.501 1.075-2.32 1.052-5.006 1.928-7.408.615-1.684 2.017-3.295 3.63-3.81 1.274-.408 2.215-1.487 2.29-2.826.057-1.015.936-1.891 1.953-1.878 3.283.044 6.915 2.625 9.71.51 1.342-1.016 1.879-2.768 1.576-4.425-.58-3.172-3.097-5.117-5.5-6.925l15.995 2.336c1.604.233 2.603-1.652 1.539-2.874a8.945 8.945 0 00-2.284-1.873c9.297 5.344 15.827 10.061 12.422 5.105" fill="#fff"/><path d="M588.164 367.454c-.578 2.277-4.71 3.19-9.23 2.041s-7.713-3.927-7.135-6.204c.578-2.277 4.71-3.19 9.23-2.041 4.52 1.149 7.714 3.926 7.135 6.204" fill="#ff5050"/><path d="M587.289 367.23c-.517 2.034-4.207 2.85-8.242 1.824-4.036-1.026-6.889-3.506-6.373-5.54.517-2.033 4.207-2.85 8.243-1.823 4.035 1.026 6.888 3.507 6.372 5.54" fill="#030c1a"/><path d="M183.085 221.901c-.107-.948-.09-1.906.066-2.847-1.442-.941-6.048 5.35-5.62 17.255.124 3.451-2.165 9.347-4.063 12.231-2.48 3.769-5.924 8.527-9.488 11.29a196.313 196.313 0 00-35.91 36.23c-2.165 2.844-4.29 5.825-5.284 9.26-.477 1.651-.648 3.435-.436 5.143.229 1.846-1.243 3.478-3.099 3.376-1.963-.11-3.922.157-5.752.904-2.734 1.117-5.095 3.39-5.81 6.257-.247.987-.318 2.066-.922 2.885-.571.776-1.512 1.166-2.386 1.569-13.453 6.2-21.014 18.371-28.038 33.67-1.694 3.688-4.227 2.579-9.012 7.951-2.214 2.487-3.295 6.157-5.594 8.499-9.445 9.618-18.89 19.235-28.333 28.854 4.885 2.164 10.462-.372 15.19-2.861l22.111-11.641c2.35-1.236 4.763-2.525 6.457-4.569 1.407-1.697 2.224-3.806 3.512-5.596 3.491-4.85 9.777-6.625 14.67-10.058 5.925-4.156 9.98-10.906 16.596-13.842 5.424-2.407 12.221-2.074 16.488-6.2 2.457-2.378 3.553-5.795 5.35-8.703 1.797-2.91 5.02-5.548 8.332-4.704.752.154 1.43-.452 1.392-1.22a8.195 8.195 0 00-.357-1.997 42.179 42.179 0 01-1.738-9.392l-.476-6.904c-.259-3.75-.006-8.424 3.406-9.997 1.301-.6 2.907-.62 3.947-1.607 1.82-1.727.561-4.72.592-7.23.052-4.165 3.87-7.158 7.317-9.494l19.094-12.948c1.431-.97 2.894-1.972 3.89-3.386 1.075-1.53 1.51-3.408 1.886-5.24a143.762 143.762 0 002.022-44.938" fill="#fff"/><path d="M364.304 74.18c14.923-3.533 29.849-7.691 44.948-10.394 13.567-2.43 28.333-2.008 38.507 8.538 8.295 8.597 11.924 21.177 10.993 32.941-1.112 14.044-7.977 27.05-16.64 37.898-8.954 11.209-19.991 20.49-30.57 30.092-9.434 8.564-19.49 17.715-24.162 29.906-4.28 11.175-3.19 24.336 5.93 32.768 9.06 8.38 23.019 12.114 35.048 12.832 12.294.733 24.718-2.6 33.86-11.117 7.706-7.18 14.095-19.728 9.942-30.317-3.504-8.933-14.123-13.475-23.22-11.777-11.543 2.153-20.04 12.283-24.57 22.538-9.668 21.884-4.408 48.886 12.213 65.922 8.232 8.439 18.872 14.447 30.255 17.425a65.566 65.566 0 0016.691 2.148c7.104-.015 14.137-1.43 21.245-1.29 7.092.14 13.673 2.3 18.832 7.265 4.477 4.31 7.54 9.974 9.36 15.877 4.553 14.768.767 29.809-.089 44.766-.357 6.24 1.36 11.513 6.205 15.633 4.05 3.445 9.191 5.404 14.473 5.801 5.437.41 11.018-.899 15.607-3.871 4.063-2.632 8.511-5.873 10.973-10.14 2.297-3.982 2.072-8.415.741-12.681-.291-.932-1.76-.534-1.467.405 1.71 5.477 1.031 10.396-2.969 14.63-3.672 3.889-8.628 7.56-13.77 9.143-11.63 3.58-28.008-2.514-28.332-16.326-.168-7.156 1.439-14.42 2.001-21.547.538-6.816.637-13.716-.535-20.475-1.743-10.056-6.859-20.358-15.73-25.905-11.144-6.97-24.34-2.841-36.545-2.808-11.754.033-23.484-3.29-33.537-9.371-20.76-12.56-32.136-36.752-28.142-60.803 1.936-11.664 7.623-23.63 17.52-30.556 9.131-6.391 22.921-6.471 29.745 3.477 7.138 10.407-.309 24.889-8.504 32.246-9.752 8.755-23.067 11.38-35.814 9.867-12.072-1.43-27.12-5.882-34.276-16.53-7.496-11.15-3.752-25.755 3.287-36.081 7.452-10.93 18.227-19.412 27.952-28.207 9.473-8.567 18.799-17.476 26.032-28.076 12.536-18.374 18.402-43.616 4.287-62.905-6.557-8.961-16.446-13.663-27.453-14.135-13.325-.57-26.653 3.66-39.48 6.697L363.9 72.711c-.952.226-.549 1.694.404 1.469" fill="#fffbfc"/><path d="M598.262 158.603a1.273 1.273 0 01.5-2.497 1.272 1.272 0 01-.5 2.497M88.208 228.847a1.273 1.273 0 11.501-2.497 1.273 1.273 0 01-.501 2.497M8.037 551.895a1.273 1.273 0 11.5-2.496 1.273 1.273 0 01-.5 2.496m420.946-68.057a1.273 1.273 0 11.5-2.497 1.273 1.273 0 01-.5 2.497M292.77 471.306a1.273 1.273 0 11.5-2.497 1.273 1.273 0 01-.5 2.497m191.909-81.632a1.273 1.273 0 11-2.545 0 1.273 1.273 0 012.545 0" fill="#fff"/><path d="M757.032 420.383c20.215 50.23 44.11 101.615 88.022 135.518 19.521 15.072 42.479 26.1 67.074 29.334 23.117 3.04 47.431-.97 67.945-12.216 9.986-5.474 19.103-12.785 26.315-21.622 7.905-9.687 13.615-20.807 17.78-32.564 8.522-24.057 10.599-49.742 15.862-74.578 4.47-21.098 12.937-42.476 27.765-58.492 6.752-7.292 14.951-13.437 24.447-16.613 10.375-3.47 21.467-3.3 31.833.122 22.794 7.528 39.457 28.05 51.896 47.602 13.052 20.518 24.554 42.917 42.844 59.42 4.395 3.965 10.09 7.716 15.165 10.763v-8.46c-20.95-12.582-31.076-32.227-43.511-52.558-12.72-20.798-26.27-41.719-46.976-55.445-9.782-6.484-21.021-10.815-32.802-11.441-10.68-.569-21.38 2.087-30.7 7.29-18.772 10.48-31.129 29.772-39.097 49.2-9.179 22.377-11.423 46.633-15.957 70.193-4.594 23.877-11.602 48.48-29.209 66.195-15.991 16.09-38.4 24.827-60.816 26.405-23.913 1.683-47.35-4.891-67.993-16.82-46.863-27.083-74.202-75.904-94.809-124.205-2.692-6.31-5.285-12.66-7.846-19.023-.753-1.872-2.504-3.213-4.613-2.622-1.779.499-3.382 2.72-2.619 4.617" fill="#384a66"/><path d="M341.763 81.074s3.586 5.015 7.508 6.607c3.921 1.592 10.54.365 10.784 4.29.245 3.925-2.45 9.16-2.206 11.448.152 1.416.491 4.772.728 7.127a12.294 12.294 0 001.485 4.74l1.219 2.196s-3.883-4.347-9.539-5.363l-.01-5.826s-2.758-7.955-2.792-10.28l-1.168-3.07s-13.126-8.33-12.965-10.814z" fill="#fffbfc"/><path d="M140.218 425.884s6.694 15.237 31.873 32.725c0 0-8.365 7.717-6.9 17.165 1.464 9.448 10.374 29.145 10.374 29.145l-23.106 24.825-23.552-16.049-12.277-26.58-11.525-19.559v-24.072z" fill="#030c1a"/><path d="M153.305 472.3a2.898 2.898 0 01.972-3.647c4.83-3.302 2.58-8.581 2.58-8.581-3.119-6.984 0-13.613 0-13.613l-16.64-20.575c-3.456 1.724-3.096 4.348-3.096 4.348s-3.125.945-11.032 3.168c-7.906 2.223-17.199 10.403-17.199 10.403 19.075 2.1 30.213 16.74 35.148 25.256 1.857 3.205 3.935 6.28 6.351 9.088 8.805 10.228 16.41 36.19 16.41 36.19.585-11.667-9.856-34.478-13.494-42.037" fill="#384a66"/><path d="M119.251 313.838s2.542.424 3.087-2.563c.545-2.987.012-.811.012-.811l-.05-2.442 1.508 2.503s3.3 9.83 10.85 17.31c.614.61-.097 1.601-.867 1.208-4.9-2.504-12.231-7.42-14.54-15.205M107.688 321s1.673 4.538 1.202 9.913c0 0-2.003-.167-4.51-5.459 0 0 3.08-1.097 3.308-4.454m107.932 35.046s4.474 3.657 12.47 5.775c.7.185.543 1.226-.18 1.193-4.326-.2-10.667-1.273-16.35-5.255zm11.292-13.446l5.496 1.398c.887.225 1.663-.654 1.317-1.501-.755-1.846-2.286-4.595-5.184-6.608z" fill="#759097"/><path d="M167.085 404.888s9.934 23.27 32.94 34.42l5.65-3.152s-26.862-13.423-33.975-35.234z" fill="#030c1a"/><path d="M171.7 400.922s-2.954 2.086-4.618 4.325c0 0 5.875 10.97 8.74 13.85 0 0 3.575-2.223 4.982-2.511 0 0-6.112-6.243-9.105-15.664" fill="#384a66"/><path d="M178.38 391.235s14.897 33.744 42.577 42.736c0 0 3.785.348 7.584-4.055 0 0-23.222-1.178-46.749-45.618z" fill="#030c1a"/><path d="M196.174 406.724s-12.186-17.498-14.382-22.426c0 0-3.154 4.92-3.412 6.937 0 0 7.001 14.429 12.808 20.445 0 0 4.237-3.36 4.986-4.956" fill="#384a66"/><path d="M305.533 3.406c-29.003-9.618-45.031 7.72-45.031 7.72-22.135 18.49-13.57 44.647-13.57 44.647-1.598 5.827-.988 8.86.217 10.428l-19.52-5.934c-6.194-.315-6.164 3.119-6.164 3.119L170.55 212.12c-.774 2.261 1.482 3.05 1.482 3.05l11.052 6.731s10.189-21.372 10.189-29.668 6.908-25.58 7.671-39.383c.763-13.804 17.198-26.297 19.105-35.368 1.908-9.071 10.527-18.583 18.817-23.492s17.961-2.696 28.495-5.375c7.135-1.814 26.791 1.284 38.736 3.473 1.016.186 1.42-1.263.454-1.632l-23.64-9.36c.423.057-.432-.046 0 0 2.177.23 4.593.319 6.312-1.038 1.405-1.107 2.018-2.964 2.156-4.749.426-5.47-2.827-10.442-5.402-15.287-2.575-4.846-4.524-10.937-1.665-15.62 2.341-3.835 7.06-5.317 10.834-7.754 4.74-3.06 7.992-8.075 9.325-13.548 1.208-4.964 6.794-8.19 11.677-6.703 4.224 1.286 18.694 8.106 21.01 43.885 0 0 4.287-42.341-31.626-56.876" fill="#fffbfc"/><path d="M177.031 218.42l81.145 34.496c1.375.585 1.163 2.593-.302 2.882-3.199.631-7.858 1.782-14.004 3.875-16.597 5.653-11.29-13.09-23.969-10.486-12.679 2.603-20.47 7.481-22.968-.663-2.498-8.145-8.297-14.135-11.243-14.182-2.947-.046-8.659-15.923-8.659-15.923m148.531-77.595c-1.378-2.884 4.732-2.43 4.676-13.877-.05-10.037-1.698-12.223-4.098-13.546-2.35-1.296-5.31-.54-6.775 1.709-6.828 10.488-10.04 21.225-14.404 33.514l-37.598 105.885c14.336 1.93 27.912 9.088 37.613 19.827l21.763-104.215" fill="#030c1a"/><path d="M275.26 243.334l-7.23 10.144a4.062 4.062 0 01-4.792 1.424l-5.061-1.986-14.307 6.757c7.743-2.242 17.123-.257 23.481 4.703 3.228 2.517 5.876 5.823 9.48 7.761 5.062 2.722 11.156 2.331 16.883 1.869 3.542-.286 7.453-.72 8.973-4.976.468-1.31.557-2.728.354-4.104-1.207-8.185-9.817-12.27-17.357-15.166l-10.413-4" fill="#030c1a"/><path d="M45.83.03s5.395 15.622 19.989 22.584L52.03 72.182H20.235L0 29.198l13.402-16.19z" fill="#030c1a" mask="url(#a)" transform="translate(0 390.917)"/><path d="M48.194 416.741a1.556 1.556 0 01.87-1.83c2.874-1.27 2.203-4.279 2.203-4.279-3.537-5.386-.076-9.788-.076-9.788l-5.362-9.897c-1.995.571-2.062 1.992-2.062 1.992s-1.742.192-6.135.59c-4.393.399-10.101 3.807-10.101 3.807 9.867 2.98 14.314 11.804 16.086 16.785.667 1.875 1.363 3.765 2.464 5.422 6.617 9.956 4.435 35.231 4.435 35.231 5.57-18.121-1.142-33.684-2.322-38.033m19.137-49.666s4.286 15.353 23.937 27.168l4.055-2.35s-19.142-11.107-25.24-27.467c0 0-1.302.657-2.752 2.65m6.811-6.127s6.16 16.492 25.81 28.307l3.55-2.002S82.991 374.66 76.893 358.3c0 0-1.302.656-2.752 2.649" fill="#384a66"/><path d="M78.171 383.941s6.828 7.05 13.097 10.302l4.056-2.35s-9.89-6.586-14.84-11.86zm6.019-7.648s7.51 9.295 15.762 12.963l3.55-2.002s-10.531-6.628-15.969-13.082zm477.69 185.414s3.223 5.056 19.19 9.693c0 0-.23 2.663-1.55 5.503l2.979 17.188-6.33 21.508-21.659-3.834-1.999-3.168-21.991-.167-26.323-10.337 2.801-5.872 8.195-6.8 36.652-9.838z" fill="#030c1a"/><path d="M553.989 607.12h3.755l2.627 4.194-3.692-.604zm14.797-40.402l-6.906-5.011-9.667 15.153c-5.52 7.919-8.865 7.608-8.865 7.608-9.354 3.866-24.67 3.882-24.67 3.882-5.186-.6-7.385.597-7.385.597l-1.835 1.561-.804 1.324c-.632.148-.766.993-.206 1.324 2.922 1.726 10.428 5.473 23.978 8.034.212.04.3-.264.099-.34 0 0-9.438-2.341-10.711-4.086-.442-.606.898-.174 1.634-.08 4.958.637 8.288-.395 13.232-1.138l13.165-1.98c1.854-.277 3.842-.622 5.168-1.947 1.098-1.097 1.538-2.669 2.28-4.032 2.066-3.799 6.458-5.935 8.388-9.805 1.832-3.674.254-6.667 3.105-11.064" fill="#384a66"/><path d="M574.715 476.298s7.795 3.737 12.262 6.997c.506.37.033 1.152-.53.877-3.347-1.63-8.503-3.914-11.677-4.21zm10.457-10.515l7.38 3.779c.507.26 1.05-.278.798-.79-.821-1.677-2.35-4.077-4.23-3.687-2.848.59-3.948.698-3.948.698" fill="#759097"/><path d="M561.366 538.112s12.687 12.355 30.867 15.267l2.228-2.732s-20.606-4.269-32.802-16.078c0 0-.533 2.544-.293 3.543" fill="#384a66"/><path d="M579.986 549.866s7.655 2.885 12.247 3.513l2.229-2.732s-5.188-.688-14.104-4.513c0 0 .21 1.94-.372 3.732" fill="#030c1a"/><path d="M562.413 529.511s15.892 12.776 36.951 16.042l2.238-3.063s-19.595-2.238-38.868-16.595z" fill="#384a66"/><path d="M579.106 535.572s-.39 2.546-.228 3.68c0 0 12.809 5.663 20.487 6.3 0 0 1.433-1.554 2.237-3.062 0 0-15.762-2.775-22.496-6.918" fill="#030c1a"/><path d="M792.525 326.218s3.042.5 5.085 1.652c.452.256.294.941-.224.981-1.234.096-2.921.343-3.643.983 0 0-.144-2.01-1.218-3.616" fill="#759097"/><path d="M802.26 331.017c0-3.312.945-2.247.603-6.743-.343-4.495-2.85-4.258-2.85-7.334 0-3.076.828-2.485.946-5.56.118-3.076-3.9-4.022-.828-8.99 1.44-2.327 2.127-4.264 2.451-5.667.29-1.252-.599-2.461-1.875-2.603-4.381-.487-6.505-2.477-8.182-2.782-1.929-.352-4.218-4.395-5.975-6.856-1.756-2.46-4.04-3.691-5.269-7.735-1.23-4.043-2.046-5.64-2.046-5.64-4.408-3.019-8.095 1.641-5.889 2.847 2.206 1.206 7.18 9.071 7.18 9.071 1.756 6.142 8.873 11.85 8.873 11.85l.171.036c-.112-.022-.17-.036-.17-.036.55 1.038.145 2.401-.185 3.885-.33 1.483.068 3.43.285 4.622.217 1.193-.129 5.1-.129 5.1-.726 3.2.918 3.441 1.671 4.296.753.853-.996 2.998-.996 2.998-1.512 7.839 1.296 9.895 2.479 10.441 1.183.547 1.218 3.616 1.218 3.616-3.831 1.777 0 9.064 0 9.064-1.122-.766-1.859-.319-1.859-.319-1.052 1.639-2.902 1.551-2.902 1.551-3.82.12-9.712 2.497-9.712 2.497-.649 3.328-4.076 5.952-4.076 5.952s5.08-2.418 7.916-2.655c2.837-.237 7.21-3.194 9.93-3.297 2.718-.103 4.254-.252 5.673-2.144 1.418-1.893.946-1.893 3.428-2.485 2.482-.59.118-3.667.118-6.98" fill="#fff"/><path d="M789.4 294.875s4.528 1.645 8.937 1.828c.253.01.288.373.041.433-1.942.467-5.438 1.056-8.883.361 0 0 .134-1.06-.095-2.622M670.567 435.88s7.566 3.71 11.405 5.175c.317.121.223.593-.117.582-3.014-.1-8.897-.692-14.052-3.554zm15.335-73.05s5.03 1.87 12.116 2.045c.774.019.825 1.148.055 1.236-3.612.416-7.864.36-11.62-1.125 0 0-.738-1.342-.551-2.155" fill="#759097"/><path d="M736.782 357.634s53.971-6.153 42.489-15.007l-6.907 1.8-2.575.121c-.791.037-1.575.165-2.336.381l-10.413 2.929s-10.207 6.48-20.259 9.776" fill="#030c1a"/><path d="M5.005.26S-1.013 8.475.748 23.968c.251 2.22 3.379-2.914 5.069-4.372.988-.852 2.154-1.76 3.445-1.574.94.136 1.69.828 2.375 1.488l4.055 3.905c1.645 1.584 3.494 3.262 5.774 3.4 1.675.101 3.279-.666 4.707-1.547 3.476-2.148 6.415-5.071 9.043-8.201.568-.675 1.153-1.385 1.962-1.735 2.385-1.034 4.68 1.49 7.075 2.503 3.531 1.493 7.497-.42 10.846-2.287-1.309.455-2.797.004-3.909-.825-1.111-.828-1.92-1.99-2.71-3.13l-4.409-6.369c-1.24-1.79-2.825-3.773-5.002-3.775-.948 0-1.854.395-2.661.892-2.138 1.316-3.739 3.327-5.55 5.065-1.812 1.74-4.053 3.294-6.563 3.299-3.619.007-6.415-3.126-8.318-6.207C14.917 2.78 13.752.823 11.79.36 9.639-.146 7.587 1.374 5.899 2.8 4.687 3.82 3.408 4.952 3.051 6.496" fill="url(#b)" mask="url(#c)" transform="translate(678.5 310.852)"/><path d="M696.193 498.012c1.028-4.28 2.063-8.659 1.634-13.04-.43-4.381-2.603-8.845-6.52-10.848-8.114-4.15-17.343 3.936-26.453 3.7-4.664-.12-10.676-1.874-13.009 2.17-.65 1.128-.8 2.508-1.546 3.573-2.031 2.898-7.421 2.23-8.706 5.528-.32.82-.29 1.737-.537 2.583-.767 2.631-17.505 7.669-19.976 8.85-9.73 4.657.745 11.075-10.92 21.103-2.653 2.28 1.439 6.478 3.166 9.52 1.496 2.635 4.84 3.497 7.844 3.868 15.314 1.891 30.693-2.475 45.165-7.832 5.283-1.956 10.6-4.099 15.007-7.61 6.566-5.233 10.51-12.999 14.26-20.515" fill="#030c1a"/><path d="M692.448 497.088s3.731-21.923-6.674-22.288c-10.404-.365 2.177 23.654 2.177 23.654zm6.995 52.413s8.462 5.575 23.674 3.231l-1.435 14.001s9.497 34.262 1.435 42.484c-13.215 13.478-30.724-6.459-30.724-6.459l-2.217-5.14s-13.162-7.39-13.162-12.852c0-5.462 4.314-23.059 4.314-23.059l12.708-5.856z" fill="#030c1a"/><path d="M715.733 553.458s-.69 4-3.065 7.002-1.625 5.128-1.875 6.88c-.25 1.75-2.404 9.044-2.404 9.044s-6.7-8.197-17.797-15.444c0 0 9.503 3.953 8.85-11.439 0 0 7.676 1.902 16.29 3.957m-16.827 42.353h17.153l.622 3.33s-13.338 1.185-18.851.281z" fill="#384a66"/><path d="M701.688 569.566s-8.928-14.096-22.577-12.882c-13.649 1.214-3.056 23.08-3.056 23.08s-13.772-39.202 25.633-10.198" fill="#384a66"/><path d="M715.733 553.458c3.032-7.627-7.107-14.206-7.22-22.413-.05-3.713 2.41-9.38 3.3-12.985 1.779-7.213-2.812-12.4-4.618-19.606-1.32-5.264 2.511-6.781 2.419-9.225-.087-2.272-2.86-5-1.1-11.004 2.509-8.562 5.675-16.556 13.194-21.348 3.162-2.015 8.736-1.831 13.171-2.763 2.191-.46 2.26-3.564.088-4.107a82.016 82.016 0 00-16.388-2.374c-1.64-.07-3.334-.08-4.856.534-1.925.778-3.323 2.448-4.639 4.056l-14.722 17.996c-1.93 2.357-3.958 4.984-3.944 8.031.013 2.965 1.973 5.564 2.545 8.474.985 5.014-2.251 10.025-1.794 15.114.2 2.225 1.096 4.323 1.533 6.513.536 2.69.369 5.462.332 8.205a85.445 85.445 0 006.427 33.634" fill="#fff"/><path d="M716.997 447.547c-7.034-.026-14.052 2.468-19.497 6.925-1.264 1.035-2.451 2.178-3.426 3.49-4.091 5.508-3.879 12.993-3.49 19.845 4.466.333 8.34-3.162 10.687-6.98 2.346-3.816 3.804-8.201 6.692-11.626 2.905-3.444 7.24-5.926 8.668-10.2" fill="#fff"/><path d="M691.996 483.757s4.906 4.785 9.312 6.722c.742.326.618 1.422-.176 1.587-2.01.417-5.074.565-8.739-.85 0 0 1.181-1.952-.397-7.459" fill="#759097"/><path d="M790.753 378.093c-13.836 3.155-22.094 7.375-32.379 12.804-2.232 1.178-4.758 2.977-4.531 5.493.38 4.23 7.767 4.677 8.41 8.876.215 1.4-.45 2.768-1.082 4.035-4.2 8.41-7.9 17.26-8.838 26.614-.936 9.325.85 19.054 1.086 28.415-1.398 2.45-3.385 4.607-5.513 6.488-3.237 2.86-6.873 5.254-9.977 8.257-1.932 1.868-3.7 4.921-2.05 7.043 1.468 1.887 5.057 2.004 5.361 4.376.082.636-.136 1.277-.443 1.84-1.233 2.258-3.877 3.615-4.691 6.057-1.242 3.722 2.348 7.156 5.53 9.448.526.378 1.143.777 1.773.626.42-.1.744-.427 1.039-.744.151-.162.299-.33.449-.494a7.06 7.06 0 002.288 1.798c3.736 1.827 8.451-.07 11.07-3.303 2.617-3.233 3.599-7.464 4.33-11.56 4.495-25.168 2.47-51.469 9.946-75.916 3.258-10.654 8.346-21.232 7.422-32.336zm-97.675 142.571s8.72 9.103 43.703 5.231l-.788 5.145s-30.816 3.513-42.915-5.564zm-1.071-11.045s9.468 9.103 47.45 5.231l-.855 5.145s-33.458 3.513-46.595-5.563z" fill="#030c1a"/><path d="M712.298 515.35c-11.68-1.03-17.19-3.76-19.22-5.067.14 1.577.114 3.174.08 4.766 4.651 2.776 11.348 4.236 18.183 4.95.221-.709.42-1.382.57-1.993.226-.915.348-1.798.387-2.656m-19.22 5.314c.06 1.686.172 3.37.331 5.05 3.801 2.706 9.307 4.25 15.11 5.09.018-1.361.344-2.96.8-4.62-12.39-1.586-16.185-5.462-16.24-5.52" fill="#384a66"/><path d="M647.498 379.049s7.452 7.924 4.666 33.544l4.136-.95s1.755-23.26-4.565-33.382zm7.818-3.149s6.412 8.421 4.839 34.837l4.058-.975s1.66-23.652-4.66-34.725zm136.376 3.873s-8.555-8.993-9.518-41.199l-3.97 1.664s1.644 29.148 9.394 41.01zm-7.307 4.83s-7.594-9.735-9.877-42.788l-3.889 1.684s1.794 29.626 9.683 42.67z" fill="#030c1a"/><path d="M655.574 376.214c.634 1.036 2.263 4.146 3.452 10.273a25.832 25.832 0 013.958-1.194c-.726-3.827-1.804-7.44-3.39-10.256-1.143.284-2.62.687-4.02 1.177m-7.99 2.934c.484.577 2.901 3.776 4.265 11.234.852-.242 1.593-.782 2.334-1.277.35-.233.706-.454 1.066-.669-.723-3.864-1.833-7.484-3.513-10.175 0 0-.861.577-4.152.887" fill="#384a66"/><path d="M179.633 96.806s-7.18 20.39 4.355 43.593l3.684-1.574s-10.446-22.209-3.564-44.831zm9.528-4.544s-7.695 21.927 3.84 45.13l3.685-1.574s-10.447-22.21-3.564-44.831z" fill="#030c1a"/><path d="M189.116 92.397c-.351 1.063-2.662 8.475-2.456 18.803a40.114 40.114 0 004.143-5.701c.136-4.484.768-9.193 2.148-13.93-.099.043-.203.09-.301.13-1.053.447-2.297.566-3.534.698m-11.54 24.548c.615.217 1.303.267 2.072.093.736-.168 1.415-.532 2.002-1.007.112-.09.219-.187.33-.28-.538-6.662-.178-14.188 2.126-21.761-1.48.946-2.726 2.07-4.475 2.81 0 0-2.89 8.213-2.055 20.145" fill="#384a66"/><path d="M345.733 105.162s8.158 9.733-.736 40.991l5.097-1.58s6.316-25.263.433-35.806c0 0-2.051-3.64-4.794-3.605m9.553 8.291s8.158 9.733-.737 40.991l5.064 1.12s6.359-28.682.475-39.225c0 0-1.95-1.899-4.802-2.886" fill="#030c1a"/><path d="M586.061 339.896c.97.625 2.064 1.838 1.346 2.742-.207.263-.524.407-.828.545-1.167.53-2.404 1.194-2.908 2.372-.733 1.712.382 3.807-.372 5.509-.408.918-1.31 1.577-1.588 2.542-.179.62-.077 1.298-.289 1.907-.324.93-1.314 1.477-2.285 1.636-.97.157-1.962.013-2.945.011-3.355-.004-6.053 1.68-7.87 4.503-1.248-3.566-1.656-8.519.232-12.277 1.132-2.252 3.064-4.096 3.805-6.506.328-1.07.431-2.263 1.147-3.122.476-.57 1.166-.917 1.857-1.186 3.456-1.349 7.414-.399 10.698 1.324" fill="#fff"/><path d="M580.509 359.197s-1.014 1.076-.261 1.873c0 0-7.403-1.415-8.34 1.906 0 0 .406-1.728.489-1.89.082-.16 1.422-3.033 8.112-1.889m6.795-20.286s-.813.803-.347 1.353c0 0-4.987-3.108-10.406-2.062 0 0 4.415-2.083 10.753.71" fill="#fffbfc"/><path d="M688.263 357.215s5.525 1.16 13.052.839c.49-.021.577.686.096.78-4.007.795-9.805 1.482-14.657.243z" fill="#759097"/><path d="M784.385 397.989l-30.543-1.6 7.328 12.912h16.332z" fill="#030c1a"/><path d="M12.42 558.475a1.273 1.273 0 11.501-2.496 1.273 1.273 0 01-.5 2.496" fill="#fff"/></g></svg>