<svg height="2605" viewBox="0 0 2605 2605" width="2605" xmlns="http://www.w3.org/2000/svg" xmlns:xlink="http://www.w3.org/1999/xlink"><linearGradient id="e" x1="-.008%" x2="86.111%" y1="100.008%" y2="13.888%"><stop offset="0" stop-color="#f38e69"/><stop offset="1" stop-color="#fa3f5e"/></linearGradient><linearGradient id="a"><stop offset="0" stop-color="#e2cdc8"/><stop offset="1" stop-color="#fff"/></linearGradient><linearGradient id="f" x1="1.929%" x2="146.968%" xlink:href="#a" y1="82.581%" y2="5.568%"/><linearGradient id="h" x1="-.001%" x2="100%" xlink:href="#a" y1="49.999%" y2="49.999%"/><linearGradient id="j" x1="0%" x2="99.999%" xlink:href="#a" y1="50%" y2="50%"/><linearGradient id="l" x1="0%" x2="100%" xlink:href="#a" y1="50%" y2="50%"/><linearGradient id="n" x1="0%" x2="100%" xlink:href="#a" y1="50%" y2="50%"/><linearGradient id="p" x1="0%" x2="100%" xlink:href="#a" y1="50%" y2="50%"/><linearGradient id="r" x1="46.295%" x2="58.684%" y1="13.501%" y2="134.504%"><stop offset="0" stop-color="#fff"/><stop offset="1" stop-color="#020b1a"/></linearGradient><linearGradient id="b"><stop offset="0" stop-color="#7e9eb6"/><stop offset="1" stop-color="#e2cdc8"/></linearGradient><linearGradient id="t" x1="157.251%" x2="19.84%" xlink:href="#b" y1="86.231%" y2="38.35%"/><linearGradient id="v" x1="134.217%" x2="54.006%" xlink:href="#b" y1="-41.966%" y2="45.623%"/><linearGradient id="x" x1="16.629%" x2="79.597%" xlink:href="#b" y1="91.246%" y2="27.629%"/><linearGradient id="z" x1="241.277%" x2="41.863%" xlink:href="#b" y1="114.299%" y2="47.333%"/><linearGradient id="B" x1="-8.707%" x2="76.135%" xlink:href="#b" y1="84.099%" y2="32.197%"/><linearGradient id="D" x1="112.991%" x2="41.464%" xlink:href="#b" y1="105.239%" y2="55.034%"/><linearGradient id="c"><stop offset="0" stop-color="#e2cdc8"/><stop offset="1" stop-color="#1c1c1a"/></linearGradient><linearGradient id="F" x1="55.723%" x2="48.054%" xlink:href="#c" y1="38.77%" y2="88.396%"/><linearGradient id="H" x1="34.877%" x2="163.073%" xlink:href="#b" y1="59.49%" y2="-18.989%"/><linearGradient id="J" x1="140.111%" x2="28.154%" xlink:href="#b" y1="31.266%" y2="56.13%"/><linearGradient id="L" x1="25.687%" x2="125.214%" xlink:href="#c" y1="37.969%" y2="89.746%"/><linearGradient id="N" x1="122.916%" x2="19.63%" xlink:href="#b" y1="37.346%" y2="54.286%"/><linearGradient id="P" x1="156.07%" x2="59.012%" xlink:href="#b" y1="143.01%" y2="46.269%"/><linearGradient id="R" x1="137.188%" x2="34.195%" xlink:href="#b" y1="99.391%" y2="57.391%"/><linearGradient id="T" x1="213.783%" x2="40.589%" xlink:href="#b" y1="23.308%" y2="51.534%"/><linearGradient id="V" x1="202.085%" x2="44.054%" xlink:href="#b" y1="59.923%" y2="47.842%"/><linearGradient id="X" x1="-82.181%" x2="214.107%" xlink:href="#b" y1="76.931%" y2="17.528%"/><linearGradient id="Z" x1="110.921%" x2="43.07%" xlink:href="#b" y1="40.986%" y2="51.026%"/><linearGradient id="ab" x1="0%" x2="100.001%" y1="50%" y2="50%"><stop offset="0" stop-color="#1c2f57"/><stop offset="1"/></linearGradient><linearGradient id="ad" x1="-33.634%" x2="61.804%" xlink:href="#b" y1="-20.403%" y2="89.923%"/><linearGradient id="af" x1="59.179%" x2="35.452%" xlink:href="#c" y1="18.758%" y2="94.417%"/><linearGradient id="ah" x1="68.477%" x2="19.771%" xlink:href="#c" y1="44.323%" y2="64.732%"/><linearGradient id="aj" x1="-116.945%" x2="-2.467%" y1="36.036%" y2="46.684%"><stop offset="0" stop-color="#e2cdc8"/><stop offset="1" stop-color="#f28c1a"/></linearGradient><linearGradient id="al" x1="-9.515%" x2="88.102%" xlink:href="#b" y1="-62.975%" y2="73.385%"/><linearGradient id="an" x1="52.981%" x2="45.145%" xlink:href="#c" y1="18.124%" y2="84.367%"/><linearGradient id="ap" x1="46.443%" x2="59.231%" xlink:href="#c" y1="-14.247%" y2="94.791%"/><mask id="d" fill="#fff"><path d="M0 794.655c0 438.891 355.875 794.678 794.867 794.678 438.993 0 794.868-355.787 794.868-794.678C1589.735 355.779 1233.86 0 794.867 0 355.875 0 0 355.779 0 794.655" fill-rule="evenodd"/></mask><mask id="g" fill="#fff"><path d="M.337 243.166C50.017 183.38 108.3 131.01 173.286 87.96c88.076-13.274 172.564 51.236 262.355 50.99 79.978-.21 149.522-50.814 221.853-84.961C724.349 22.426 797.42 4.229 871.226.359a787.552 787.552 0 0159.57 23.481c-44.244 42.997-88.485 85.995-132.73 128.998-88.61 86.11-189.508 177.673-312.966 181.078-129.593 3.585-245.505-92.585-375.152-92.601-36.053-.005-74.837 6.838-109.611 1.85" fill-rule="evenodd"/></mask><mask id="i" fill="#fff"><path d="M.668 52.7a786.785 786.785 0 0152.398-17.935c48.995 19.704 107.666 1.78 152.281-28.164 1.177-.79 2.35-1.588 3.52-2.393A802.575 802.575 0 01283.562.735c5.382 0 10.751.054 16.108.16-41.686 39.835-92.72 70.742-149.516 77.14C99.448 83.744 49.253 69.67.668 52.7" fill-rule="evenodd"/></mask><mask id="k" fill="#fff"><path d="M17.364 588.61A793.125 793.125 0 01.669 483.586a131.571 131.571 0 015.105-4.247c89.997-71.091 206.167-121.82 260.3-220.475 5.501-10.028-1.14-22.384-12.509-23.564-73.774-7.677-150.162 10.943-211.848 52.237-12.187 8.154-25.034 17.39-38.289 24.508 11.112-89.791 37.2-174.936 75.684-252.852 70.51-26.045 178.644-50.736 241.173-58.027 93.906-5.28 197.443 8.302 262.305 76.472 8.88 9.318 17.098 20.057 19.501 32.71 2.552 13.497-1.85 27.267-6.89 40.037-35.132 89.086-102.632 161.208-172.683 226.457C311.162 480.557 179.705 576.868 28.006 588.123c-3.489.26-7.057.443-10.642.487" fill-rule="evenodd"/></mask><mask id="m" fill="#fff"><path d="M1173.452.043c-23.702 72.511-57.551 140.426-99.867 202.062-126.827 84.263-261.808 156.238-402.489 214.44-55.092 22.79-132.221 36.888-162.608-14.45-10.067-17.02-12.228-38.459-25.135-53.432-24.589-28.523-70.692-17.675-104.84-1.82-85.269 39.586-161.697 95.292-238.919 149.476A790.058 790.058 0 01.24 427.419 2890.089 2890.089 0 01431.788 178.52c47.28-22.072 114.5-37.709 142.413 6.405 16.933 26.766 10.566 66.74 35.201 86.641 24.792 20.026 61.265 4.796 88.99-10.903 125.122-70.833 250.242-141.674 375.363-212.515 31.405-17.782 65.177-35.79 99.697-48.105" fill-rule="evenodd"/></mask><mask id="o" fill="#fff"><path d="M291.566 3.288c-82.476 29.068-171.195 44.88-263.604 44.88-9.335 0-18.633-.161-27.89-.482 22.322-8.515 44.683-16.855 67.235-23.371C129.93 6.225 195.682 2.117 260.841.766c10.002-.21 20.913.126 30.725 2.522" fill-rule="evenodd"/></mask><mask id="q" fill="#fff"><path d="M120.23 689.031C73.686 639.166 33.49 583.293.923 522.701l1.29-.808 349.588-218.248c105.854-66.084 215.025-133.489 337.796-155.694 131.848-23.853 268.744 6.553 400.934-15.277 135.215-22.336 258.216-98.061 389.503-132.37a794.14 794.14 0 019.548 66.812c-139.045 110.63-305.034 187.377-479.606 220.494-109.716 20.815-222.867 24.923-329.805 57.134-186.612 56.204-336.634 191.7-496.09 303.82-20.427 14.359-41.686 28.573-63.853 40.467" fill-rule="evenodd"/></mask><mask id="s" fill="#fff"><path d="M1825.926 708.88l-421.594 206.872c-323.853 143.283-721.643 336.121-818.104 457.173-13.491 16.94-4.208 42.062 17.051 46.141 24.922 4.782 69.737 3.196 149.99-15.612 198.402-46.516 272.542-71.59 272.542-71.59l31.245 40.186s-810.85 308.929-1020.34 229.126c-209.481-79.803 530.837-483.545 1027.695-731.97 144.29-72.154 255.249-126.96 340.077-168.413v-3.797s97.093-52.478 601.9-284.315C2511.186 180.836 3289.48-143.556 3220.352 69.832c-69.134 213.389-817.814 652.215-817.814 652.215l-11.704-49.548s65.981-42.109 226.533-167.708c64.935-50.806 94.252-84.765 106.143-107.19 10.15-19.145-3.6-42.125-25.242-42.211-155.313-.641-557.264 190.275-872.342 353.49z" fill-rule="evenodd"/></mask><mask id="u" fill="#fff"><path d="M1.161 21.612a2.046 2.046 0 00-.29 2.617c3.288 4.91 16.663 20.748 55.918 27.937a2.99 2.99 0 003.283-1.731l13.743-31.354S36.99 18.336 23.494.176z" fill-rule="evenodd"/></mask><mask id="w" fill="#fff"><path d="M3.839 15.654c3.293 8.587 9.686 15.626 17.814 19.932l21.001 11.126C33.165 30.125 33.4.412 33.4.412L.48.031a51.547 51.547 0 003.36 15.623" fill-rule="evenodd"/></mask><mask id="y" fill="#fff"><path d="M.809 7.554c.763 2.664 4.45 10.675 4.45 10.675C19.078 29.09 39.478 19.9 39.478 19.9L18.399.445C8.126 6.817.81 7.554.81 7.554" fill-rule="evenodd"/></mask><mask id="A" fill="#fff"><path d="M.837 30.107a5.3 5.3 0 001.17 5.467c8.567 8.874 27.49 28.432 27.49 28.432-1.434-13.262 23.5-34.272 23.5-34.272L23.82.176C9.003 11.043 2.954 24.148.837 30.106" fill-rule="evenodd"/></mask><mask id="C" fill="#fff"><path d="M.187 16.511s7.164 1.647 16.85-4.395L6.804.1S.048 7.044.187 16.51" fill-rule="evenodd"/></mask><mask id="E" fill="#fff"><path d="M.418 81.893S66.591 95.599 97.11 90.79c30.518-4.81 44.866-6.791 69.014 14.552l-50.159-76.05s-17.52-21.31-55.977-20.64C21.53 9.32 13.633.094 13.633.094z" fill-rule="evenodd"/></mask><mask id="G" fill="#fff"><path d="M13.633.096S21.53 9.32 59.987 8.65c38.457-.67 55.978 20.641 55.978 20.641l50.159 76.05C141.976 83.999 127.628 85.98 97.11 90.79 66.591 95.599.418 81.892.418 81.892" fill-rule="evenodd"/></mask><mask id="I" fill="#fff"><path d="M.057.857l21.323 20.96s.924-6.778-2.209-11.894c-2.107-3.44-4.677-6.611-8.51-7.872C8.383 1.301 5.614.682 2.686.682 1.82.682.942.737.057.857" fill-rule="evenodd"/></mask><mask id="K" fill="#fff"><path d="M14.224 34.674C8.578 52.643.556 56.657.556 56.657l33.126 14.366S44.903 38.15 62.939 20.676L36.996.606S19.872 16.703 14.224 34.673" fill-rule="evenodd"/></mask><mask id="M" fill="#fff"><path d="M.557 56.657s8.02-4.014 13.667-21.983C19.872 16.704 36.996.605 36.996.605l25.943 20.072C44.903 38.15 33.682 71.023 33.682 71.023" fill-rule="evenodd"/></mask><mask id="O" fill="#fff"><path d="M.68 47.235l33.76 12.5c4.762-11.02 3.233-22.59 1.311-29.947a19.706 19.706 0 00-8.105-11.38L.285.067C14.293 23.28.68 47.236.68 47.236" fill-rule="evenodd"/></mask><mask id="Q" fill="#fff"><path d="M89.814 49.107l20.261-8.825-7.248-10.99S85.442 7.648 46.85 8.652c0 0-25.705 2.474-46.356-8.557z" fill-rule="evenodd"/></mask><mask id="S" fill="#fff"><path d="M16.42 30.707l34.15-11.626S13.809 17.998.249.176z" fill-rule="evenodd"/></mask><mask id="U" fill="#fff"><path d="M14.224 34.674S9.226 50.667.556 56.657l30.889-18.494L36.995.605s-17.678 17.22-22.77 34.069" fill-rule="evenodd"/></mask><mask id="W" fill="#fff"><path d="M1.5 28.352c-2.44 5.29.506 7.222.506 7.222l8.904 9.215L23.82.176C6.316 12.3 1.5 28.352 1.5 28.352" fill-rule="evenodd"/></mask><mask id="Y" fill="#fff"><path d="M.635 3.508l10.56 37.85c4.875-11.08 3.46-26.756.287-32.876C8.31 2.362 4.4.032 4.4.032z" fill-rule="evenodd"/></mask><mask id="aa" fill="#fff"><path d="M6.076 20.474C12.298 33.176 28.038 38.97 28.038 38.97L.481.032c-.17 11.101 5.595 20.442 5.595 20.442" fill-rule="evenodd"/></mask><mask id="ac" fill="#fff"><path d="M56.765.775s9.378 4.092 25.885 16.47 22.896 48.2 22.896 48.2c-.99 13.422-8.634 16.164-8.634 16.164a7.073 7.073 0 01-2.916.156c-4.366-.697-7.171-5.254-11.408-6.512-6.076-1.806-11.855 3.828-14.566 9.554-2.712 5.728-4.256 12.424-9.175 16.42-8.156 6.629-20.33 2.145-29.313-3.312C20.55 92.458 10.223 85.957.31 89.458c.895-5.264 7.203-7.895 12.524-7.424 5.32.47 10.247 3 15.51 3.91 5.262.908 11.684-.497 13.845-5.38.888-2.003.904-4.275.74-6.46-.893-11.878-6.653-23.411-4.997-35.207.137-.97.34-1.973.941-2.745.826-1.062 2.235-1.477 3.568-1.658 11.032-1.5 22.245 8.614 32.5 4.28 1.163-.492 2.34-1.268 2.703-2.478.337-1.128-.116-2.326-.583-3.405" fill-rule="evenodd"/></mask><mask id="ae" fill="#fff"><path d="M18.685.063C8.185 1.584.66 51.373.66 51.373l39.785-8.16L58.159 27S30.678.004 19.543.004c-.298 0-.584.02-.858.059" fill-rule="evenodd"/></mask><mask id="ag" fill="#fff"><path d="M27.385 8.9l1.607 4.576c-7.19 1.822-23.28-.73-23.28-.73C-1.064 6.16.177.817.177.817 5.549 3.739 27.385 8.9 27.385 8.9z" fill-rule="evenodd"/></mask><mask id="ai" fill="#fff"><path d="M20.361 19.464l1.97 5.604C15.219 22.966 1.217 13.662 1.217 13.662-1.248 4.54 2.546.578 2.546.578c3.128 5.256 17.815 18.886 17.815 18.886z" fill-rule="evenodd"/></mask><mask id="ak" fill="#fff"><path d="M1.69.795c-.303 2.328.822 4.634.702 6.978-.119 2.344-1.455 4.433-2.106 6.689" fill-rule="evenodd"/></mask><mask id="am" fill="#fff"><path d="M19.379 10.374L.267 19.502c18.639 27.87 54.12 36.81 54.12 36.81l21.501-54.13C70.49.919 65.155.403 60.041.403c-22.492 0-40.662 9.972-40.662 9.972" fill-rule="evenodd"/></mask><mask id="ao" fill="#fff"><path d="M6.903.165S35.819 18.09 44.709 20.732c0 0-4.414 7.053-18.742 6.824 0 0-19.962-14.548-25.7-24.222z" fill-rule="evenodd"/></mask><mask id="aq" fill="#fff"><path d="M8.146 1.334S38.507 2.518 47.499.252c0 0-.194 8.316-12.631 15.435 0 0-24.979-5.081-34.852-10.47z" fill-rule="evenodd"/></mask><g fill="none" fill-rule="evenodd"><path d="M1589.727 794.663c0 438.883-355.875 794.67-794.867 794.67C355.867 1589.333 0 1233.546 0 794.663 0 355.779 355.867 0 794.86 0c438.992 0 794.867 355.779 794.867 794.663" fill="#fb3c5c" mask="url(#d)" transform="translate(-566 134)"/><path d="M0 794.655c0 438.891 355.875 794.678 794.867 794.678 438.993 0 794.868-355.787 794.868-794.678C1589.735 355.779 1233.86 0 794.867 0 355.875 0 0 355.779 0 794.655" fill="url(#e)" mask="url(#d)" transform="translate(-566 134)"/><path d="M167.647 88.917c90.114-17.011 176.288 50.284 267.994 50.034 79.978-.211 149.522-50.815 221.853-84.962 91.62-43.255 194.915-61.406 295.774-51.987a2787931.938 2787931.938 0 00-155.203 150.836C709.457 238.948 608.558 330.51 485.1 333.916c-129.593 3.585-245.505-92.585-375.152-92.601-53.82-.008-113.727 15.246-157.294-16.379 31.799-35.49 63.598-70.981 95.405-106.464" fill="url(#f)" mask="url(#g)" opacity=".07" transform="translate(-378.84 180.206)"/><path d="M-26.103 43.1C30.714 63.79 90.075 84.8 150.154 78.034c67.047-7.552 126.064-49.26 171.153-99.49-16.465-13.824-41.124-13.426-61.164-5.646-20.039 7.779-36.941 21.72-54.796 33.702C157.645 38.616 93.875 56.892 43.043 30.126 31.978 24.299 21.771 16.473 9.715 13.154c-12.049-3.32-27.156-.5-33.056 10.528" fill="url(#h)" mask="url(#i)" opacity=".07" transform="translate(-51.775 136)"/><path d="M320.285 1.166c93.906-5.28 197.443 8.302 262.305 76.472 8.88 9.318 17.098 20.057 19.501 32.71 2.552 13.497-1.85 27.267-6.89 40.037-35.132 89.086-102.632 161.208-172.683 226.457C311.162 480.557 179.705 576.868 28.006 588.123c-19.204 1.43-40.828.555-54.28-13.231-26.587-27.259 2.168-71.958 32.048-95.553 89.997-71.091 206.167-121.82 260.3-220.475 5.501-10.028-1.14-22.384-12.509-23.564-73.774-7.677-150.162 10.943-211.848 52.237-28.834 19.292-61.359 44.644-94.258 33.655-35.007-11.7-44.792-57.899-37.051-94.022C-74.4 156.29-15.818 101 50.113 70.99 116.037 40.976 248.345 9.554 320.285 1.166" fill="url(#j)" mask="url(#k)" opacity=".07" transform="translate(-559 520.204)"/><path d="M-146.55 572.285c32.595-61.304 89.872-105.129 146.783-144.86A2890.094 2890.094 0 01431.788 178.52c47.28-22.072 114.5-37.709 142.413 6.405 16.933 26.766 10.566 66.74 35.201 86.641 24.792 20.026 61.265 4.796 88.99-10.903 125.122-70.833 250.242-141.674 375.363-212.515 72.806-41.224 158.332-83.658 236.398-53.572 3.59 22.048-15.045 40.864-32.197 55.165-182.258 151.968-387.637 276.108-606.86 366.803-55.092 22.791-132.221 36.89-162.608-14.449-10.067-17.02-12.228-38.459-25.135-53.432-24.589-28.523-70.692-17.675-104.84-1.82C218.8 420.99 90.105 551.69-70.888 623.015c-37.152 16.457-85.19 27.907-114.71-.039" fill="url(#l)" mask="url(#m)" opacity=".07" transform="translate(-187.414 1177.97)"/><path d="M-186.547 87.61c87.336 11.263 169.25-38.849 253.854-63.295C129.93 6.225 195.682 2.117 260.841.766c20.82-.437 45.58 1.492 56.161 19.44 10.668 18.12-.35 41.716-15.435 56.353-37.901 36.772-95.374 42.528-148.117 44.535a2421.696 2421.696 0 01-273.55-5.06" fill="url(#n)" mask="url(#o)" opacity=".07" transform="translate(203.824 1676.836)"/><path d="M-97.318 648.243c-1.865-56.29 51.783-96.537 99.533-126.35l349.587-218.248c105.854-66.084 215.025-133.489 337.796-155.694 131.848-23.853 268.744 6.553 400.934-15.277 169.835-28.055 320.403-140.339 492.32-148.985-154.82 155.6-357.304 263.026-572.875 303.921-109.716 20.815-222.867 24.923-329.805 57.134-186.612 56.204-336.634 191.7-496.09 303.82-50.067 35.194-105.136 69.52-166.3 70.934-61.163 1.414-127.352-43.59-126.673-104.824" fill="url(#p)" mask="url(#q)" opacity=".07" transform="translate(-468.339 783.844)"/><path d="M1825.926 708.88c315.078-163.215 717.029-354.131 872.342-353.49 21.643.086 35.391 23.066 25.242 42.21-11.891 22.426-41.208 56.385-106.143 107.19-160.552 125.6-226.533 167.71-226.533 167.71l11.704 49.547s748.68-438.826 817.814-652.215c69.128-213.388-709.166 111.004-1213.964 342.849-504.807 231.837-601.9 284.315-601.9 284.315v3.797c-84.828 41.453-195.788 96.26-340.077 168.412-496.858 248.426-1237.176 652.168-1027.695 731.97 209.49 79.804 1020.34-229.125 1020.34-229.125l-31.245-40.186s-74.14 25.074-272.543 71.59c-80.252 18.808-125.067 20.394-149.989 15.612-21.26-4.079-30.542-29.2-17.051-46.14 96.461-121.053 494.25-313.89 818.104-457.174z" fill="url(#r)" mask="url(#s)" opacity=".158" transform="translate(-1378.622 86)"/><path d="M1.161 21.612a2.046 2.046 0 00-.29 2.617c3.288 4.91 16.663 20.748 55.918 27.937a2.99 2.99 0 003.283-1.731l13.743-31.354S36.99 18.336 23.494.176z" fill="url(#t)" mask="url(#u)" transform="translate(1978.361 1531.856)"/><path d="M3.839 15.654c3.293 8.587 9.686 15.626 17.814 19.932l21.001 11.126C33.165 30.125 33.4.412 33.4.412L.48.031a51.547 51.547 0 003.36 15.623" fill="url(#v)" mask="url(#w)" transform="translate(2424.067 1585.227)"/><path d="M.809 7.554c.763 2.664 4.45 10.675 4.45 10.675C19.078 29.09 39.478 19.9 39.478 19.9L18.399.445C8.126 6.817.81 7.554.81 7.554" fill="url(#x)" mask="url(#y)" transform="translate(2461.462 1613.71)"/><path d="M.837 30.107a5.3 5.3 0 001.17 5.467c8.567 8.874 27.49 28.432 27.49 28.432-1.434-13.262 23.5-34.272 23.5-34.272L23.82.176C9.003 11.043 2.954 24.148.837 30.106" fill="url(#z)" mask="url(#A)" transform="translate(1940.966 1853.02)"/><path d="M.187 16.511s7.164 1.647 16.85-4.395L6.804.1S.048 7.044.187 16.51" fill="url(#B)" mask="url(#C)" transform="translate(1970.276 1900.515)"/><path d="M.418 81.893S66.591 95.599 97.11 90.79c30.518-4.81 44.866-6.791 69.014 14.552l-50.159-76.05s-17.52-21.31-55.977-20.64C21.53 9.32 13.633.094 13.633.094z" fill="url(#D)" mask="url(#E)" transform="translate(885.827 2083.423)"/><path d="M13.633.096L.418 81.892S66.591 95.599 97.11 90.79c30.518-4.81 44.866-6.791 69.014 14.552l-50.159-76.05s-17.52-21.31-55.978-20.64C21.53 9.32 13.633.095 13.633.095" fill="url(#F)" mask="url(#G)" transform="translate(885.827 2083.423)"/><path d="M.057.857l21.323 20.96s.924-6.778-2.209-11.894c-2.107-3.44-4.677-6.611-8.51-7.872C8.383 1.301 5.614.682 2.686.682 1.82.682.942.737.057.857" fill="url(#H)" mask="url(#I)" transform="translate(2105.706 1734.975)"/><path d="M14.224 34.674C8.578 52.643.556 56.657.556 56.657l33.126 14.366S44.903 38.15 62.939 20.676L36.996.606S19.872 16.703 14.224 34.673" fill="url(#J)" mask="url(#K)" transform="translate(2271.456 1578.34)"/><path d="M.557 56.657l33.125 14.366S44.903 38.15 62.939 20.677L36.996.605s-17.124 16.1-22.772 34.069C8.578 52.643.557 56.657.557 56.657" fill="url(#L)" mask="url(#M)" transform="translate(2271.456 1578.34)"/><path d="M.68 47.235l33.76 12.5c4.762-11.02 3.233-22.59 1.311-29.947a19.706 19.706 0 00-8.105-11.38L.285.067C14.293 23.28.68 47.236.68 47.236" fill="url(#N)" mask="url(#O)" transform="translate(2120.866 1739.84)"/><path d="M89.814 49.107l20.261-8.825-7.248-10.99S85.442 7.648 46.85 8.652c0 0-25.705 2.474-46.356-8.557z" fill="url(#P)" mask="url(#Q)" transform="translate(898.965 2083.423)"/><g fill="#384a66"><path d="M1503.958 2264.816l-2.625-18.101-6.107-20.144-6.813-16.218-9.77-24.622-44.003 28.816c-1.033.698-.123 2.28.999 1.737l17.304-8.375a2.298 2.298 0 012.017 4.131l-66.553 32.735c.569 3.923 5.63 11.199 5.914 13.159.284 1.961 3.692 6.473 5.45 9.973 1.76 3.498.431 4.693-.739 6.364s1.541 10.63 1.541 10.63l-5.564 6.541-6.585 7.328-19.767 17.523s-10.43 2.786-12.693 4.771c-1.735 1.524-19.627 13.349-27.849 18.763a12.275 12.275 0 00-5.209 7.473l-5.32 22.824a3.815 3.815 0 001.785 4.155l4.543 2.667s-9.495 66.377-3.659 84.649c5.837 18.273 28.951 23.843 46.773 14.886 14.604-7.338 14.632-53.22 14.167-69.546a14.894 14.894 0 013.678-10.229l.655-.752a28.342 28.342 0 017.147-5.88l6.47-3.743a32.886 32.886 0 007.21-5.661c3.214-3.34 8.144-8.161 10.497-8.912 2.09-.667 7.433-4.72 11.629-8.07a151.85 151.85 0 0114.386-10.158c8.18-5.103 19.488-11.948 21.822-12.286 3.747-.543 30.46-22.896 29.827-27.265-.477-3.292 2.72-4.946 4.326-5.562a3.03 3.03 0 001.448-1.15 36.848 36.848 0 006.127-19.811l.012-.919a53.503 53.503 0 00-.55-8.471z"/><path d="M1813.563 1806.376l-3.055-21.065c-.835-5.754-6.396-17.09-6.396-17.09l-39.152-2.55s-7.416 19.092-7.633 20.298c-.216 1.207-7.484 13.228-8.234 21.562-.75 8.334-11.704 13.839-15.09 20.205-3.386 6.366-20.37 20.62-20.37 20.62l-18.434 16.176-30.069 14.747s-35.437 20.719-44.594 22.046c-9.159 1.327-42.901-2.091-42.901-2.091l-71.289-18.753-42.06-17.795-37.65 5.457c-6.105.886-44.757 13.761-44.757 13.761s-41.557 14.334-49.698 15.515c-8.14 1.18-25.276 11.974-31.233 13.877-5.958 1.902-31.499 26.38-34.552 26.823-3.052.443-30.644 17.946-33.548 19.407-2.906 1.46-27.164 30.946-27.164 30.946l-10.1 20.163 30.307 29.887 3.141.38c2.087.294 3.987-1.249 5.27-2.921.797-1.037 1.496-2.183 2.33-3.181l5.29-2.818c2.652-.35 5.57.025 8.13-.842 4.1-1.388 6.442-5.583 9.708-8.423 4.043-3.518 9.557-4.958 13.667-8.399 2.913-2.436 4.98-5.755 7.373-8.706l8.101-6.28c2.985-1.286 6.174-2.205 8.797-4.112 3.47-2.522 5.677-6.599 9.415-8.704 2.459-1.384 5.337-1.772 8.013-2.667a22.01 22.01 0 0010.532-7.585l-1.276-2.341c6.582-2.152 27.024-8.73 33.817-9.714 2.577-.374 8.273-.055 14.856.555-1.86.524-3.74.912-5.676.972-2.57.081-5.254-.4-7.644.55-2.45.974-4.18 3.312-6.658 4.211-2.267.823-4.77.313-7.18.39-4.876.156-9.535 2.707-14.172 4.32l48.197 3.139a38.54 38.54 0 0110.174 2.088l-15.983 14.71-40.036 46.316-38.315 30.776s-12.74 22.622-13.441 22.973c-.7.351-7.23 10.56-10.097 13.228-2.868 2.668-12.748 19.118-12.748 19.118s-17.584 18.568-20.803 20.536c-3.22 1.969-.927 9.145-.785 10.125.142.981-7.582 9.86-14.797 12.158-7.217 2.297-9.001 17.073-10.33 18.266-1.329 1.194-8.392 7.724-8.528 10.246-.134 2.523-8.661 12.77-8.661 12.77l-4.222 8.872s-2.826 4.664-7.976 5.411c-5.148.746-1.107 6.168-6.257 6.913-5.147.747-20.668 18.014-20.668 18.014l-15.882 11.313s-12.589 11.586-14.795 11.906c-2.206.32-5.446 9.05-10.84 9.83-5.394.783-20.665 19.766-23.116 20.122-2.452.355-16.725 10.683-21.205 12.585-2.207.936-5.837 2.928-8.955 4.708a21.189 21.189 0 00-8.668 9.367l-8.739 18.565c-1.31 2.782.45 6.037 3.495 6.467 0 0-29.32 36.037-34.864 65.123-5.545 29.087 12.27 38.018 20.61 38.561 8.34.543 19.82-4.876 25.204-10.912 5.382-6.037 24.03-51.79 31.925-62.946 7.894-11.156 34.742-22.807 37.44-23.198 2.696-.391 11.174-.618 14.852-1.152 3.677-.533 4.54-6.666 21.77-10.412s35.896-23.477 40.235-26.359c4.338-2.882 5.944-5.617 14.628-7.877 8.685-2.26 27.948-21.322 28.649-21.674.7-.351 5.315-4.775 8.36-6.218 3.045-1.442 7.938-7.407 10.876-9.586 2.939-2.177 4.583-2.916 7.867-7.897 3.282-4.982 13.352-14.95 14.296-16.59.944-1.638 6.087-3.385 7.277-3.808 1.19-.423 5.874-6.107 7.373-9.579 1.5-3.47 8.814-6.534 8.814-6.534s3.6-4.526 5.63-6.072c2.027-1.545 3-5.19 7.755-10.385 4.755-5.195 10.702-9.06 15.744-10.541s12.62-13.093 17.278-13.769l11.048 14.14a14.54 14.54 0 012.729 5.765l2.192 9.751c.305 1.354.82 2.652 1.526 3.847l11.449 19.369 15.734-7.74-7.338-19.765a13.714 13.714 0 013.761-15.042l.2-.176c3.222-2.857 2.296-8.11-1.712-9.69a4.24 4.24 0 01-2.363-5.564l6.002-17.546 61.95-32.465s6.381-7.323 9.066-7.713c1.637-.237 20.506-16.761 35.023-29.656 3.712-4.005 11.85-18.149 13.934-23.198 4.214-10.217 4.525-21.951 1.052-32.429-1.04-3.14 1.32-6.36 4.627-6.42a263.33 263.33 0 0026.616-1.832c.819-.098 1.633-.262 2.397-.572 6.324-2.554 4.064-9.666.421-13.618a45.714 45.714 0 00-1.451-1.494c-3.46-3.428-1.356-9.359 3.494-9.8 11.39-1.036 22.672-3.262 33.63-6.542 13.724-4.107 26.254-9.094 38.46-16.167 1.731-1.098 3.303-2.053 4.487-2.698.907-.496 1.589-.81 1.928-.86a89.219 89.219 0 001.826-.295c1.24-.295 2.395-.512 2.793-.482 4.032-.7 9.432-1.652 12.208-2.054 4.22-.612 11.381-10.66 21.74-12.16 10.359-1.502 8.263-7.857 26.34-15.57 18.078-7.713 13.467-9.785 25.956-15.513 12.489-5.727 10.064-11.642 18.61-14.84 8.546-3.197 8.245-16.08 17.82-25.693 9.574-9.613 11.804-18.553 14.54-21.3 2.736-2.746 13.122-17.57 13.122-17.57s10.18-8.135 11.582-20.089c.74-6.317 3.487-12.379 5.912-16.69 2.59-4.6 3.546-9.933 2.789-15.157"/></g><path d="M16.42 30.707l34.15-11.626S13.809 17.998.249.176z" fill="url(#R)" mask="url(#S)" transform="translate(2001.607 1531.856)"/><path d="M14.224 34.674S9.226 50.667.556 56.657l30.889-18.494L36.995.605s-17.678 17.22-22.77 34.069" fill="url(#T)" mask="url(#U)" transform="translate(2271.456 1578.34)"/><path d="M1.5 28.352c-2.44 5.29.506 7.222.506 7.222l8.904 9.215L23.82.176C6.316 12.3 1.5 28.352 1.5 28.352" fill="url(#V)" mask="url(#W)" transform="translate(1940.966 1853.02)"/><path d="M.635 3.508l10.56 37.85c4.875-11.08 3.46-26.756.287-32.876C8.31 2.362 4.4.032 4.4.032z" fill="url(#X)" mask="url(#Y)" transform="translate(2144.111 1758.217)"/><path d="M6.076 20.474C12.298 33.176 28.038 38.97 28.038 38.97L.481.032c-.17 11.101 5.595 20.442 5.595 20.442" fill="url(#Z)" mask="url(#aa)" transform="translate(2424.067 1585.227)"/><path d="M1652.423 1812.699c7.107 49.014-26.87 94.51-75.891 101.616-49.022 7.106-94.522-26.867-101.63-75.882-7.106-49.015 26.871-94.51 75.892-101.615 49.021-7.107 94.523 26.867 101.629 75.881" fill="#384a66"/><path d="M1479.464 1856.496s-10.637-4.614-15.178 6.19l11.178 21.659 38.274 11.66-19.34-33.425z" fill="#759097"/><path d="M1613.704 1895.1l15.874-8.723s4.875 6.576-3.555 13.254c-8.427 6.68-42.65 11.188-42.65 11.188l-38.26-17.097z" fill="#384a66"/><path d="M1513.44 1812.483c7.997-15.796 37.08-61.616 104.972-60.546 0 0 46.676 27.508 37.162 88.638 0 0-6.189 31.268-23.19 45.395 0 0-61.394 21.768-106.625-21.875a24.33 24.33 0 01-6.808-12.04l-6.761-29.277a15.188 15.188 0 011.25-10.295" fill="#030c1a"/><path d="M1321.757 2099.419l-22.703-21.257-8.4-57.933a9.268 9.268 0 012.097-7.316L1439 1840.097a6.21 6.21 0 016.693-1.883l60.518 20.045 70.21 55.288z" fill="#384a66"/><path d="M1439.069 1840.015l-27.3 32.259 77.243-20.955-43.391-13.232a6.21 6.21 0 00-6.552 1.928m-146.319 172.898l35.844-42.355 21.166-6.391-56.43 74.515-2.676-18.454a9.266 9.266 0 012.097-7.315m98.778-35.8s-82.326 70.15-95.767 93.124c-13.441 22.972-36.286 55.318-36.286 55.318s-15.199 15.808-20.873 20.416c-2.19 1.78-1.874 5.469-1.36 7.9a4.153 4.153 0 01-1.444 4.061l-12.71 10.441s-2.196.63-2.762 1.117c-3.558 3.058-6.393 12.734-7.279 16.034a2.323 2.323 0 01-1.291 1.519 16.465 16.465 0 00-4.865 3.419 9.255 9.255 0 00-2.613 5.418 4.48 4.48 0 01-.726 2.01l-7.901 10.704a6.552 6.552 0 00-.912 1.723c-1.08 3.088-5.087 13.186-11.366 13.62-5.086.354-5.15 3.047-4.686 4.705a1.69 1.69 0 01-.934 1.98l-1.359.363a13.686 13.686 0 00-6.327 3.732l-12.577 13.067a16.227 16.227 0 01-2.265 1.954l-14.659 10.44-14.795 11.907-8.23 8.794-5.14 2.17-18.45 17.017a22.396 22.396 0 01-4.705 3.331l-29.489 15.621a13.333 13.333 0 00-5.826 6.117l-11.687 24.9a1.28 1.28 0 00.675 1.728c2.351.958 3.112 3.91 1.508 5.878-9.432 11.569-35.516 46.813-31.948 78.867 0 0 15.367-40.62 34.71-62.985 6.859-7.93 17.825-11.136 27.862-8.098 2.677.81 5.603 1.462 8.53 1.687 10.031.772-6.56-2.315-6.176-18.134.386-15.82 60.585-62.12 60.585-62.12l41.675-28.937 19.154-17.333a40.242 40.242 0 005.428-6.01l5.562-7.566a123.548 123.548 0 0111.719-13.72l23.223-23.482a22.197 22.197 0 006.026-11.46 21.993 21.993 0 0110.12-14.637l4.16-2.547a38.848 38.848 0 0010.947-10.026l37.844-51.123a132.315 132.315 0 0118.53-20.252l13.3-11.804a80.758 80.758 0 0017.515-22.142l17.445-32.43a36.83 36.83 0 0132.433-19.38h.266zm12.612 259.923l8.644 21.193a58.745 58.745 0 008.282 14.28l7.105 9.032a3.239 3.239 0 01-1.24 4.969c-2.645 1.16-4.09 4.034-3.067 6.735l.61 1.615c.549 1.45-.814 2.895-2.294 2.431l-3.251-1.02a2.697 2.697 0 00-3.075 1.103 37.604 37.604 0 01-11.436 11.332l-48.21 30.555a51.778 51.778 0 00-11.417 9.83l-.149.171a85.923 85.923 0 00-11.57 17.17 84.784 84.784 0 00-9.231 40.878c.793 29.172 4.51 69.334 18.832 72.769 0 0-15.674-.74-22.42-18.484-4.702-12.373-1.067-48.65 1.565-69.476a22.29 22.29 0 00-1.274-10.691l-2.98-7.871a12.727 12.727 0 01-.428-7.662l4.7-18.377a13.889 13.889 0 015.784-8.88l27.237-18.714a9.318 9.318 0 014.912-1.917l5.598-.478a16.597 16.597 0 005.793-3.7l29.412-28.928-1.718-4.923a12.672 12.672 0 01.666-9.913 7.385 7.385 0 00-.708-4.109l-4.12-5.188a6.052 6.052 0 01-.928-1.645l-2.391-5.11c-.217-.46-.4-.936-.55-1.422l-2.417-7.815" fill="#fff"/><path d="M56.765.775c9.684 8.504 15.176 20.29 20.297 32.116.467 1.08.92 2.277.583 3.405-.362 1.21-1.54 1.986-2.704 2.478-10.254 4.334-21.467-5.78-32.499-4.28-1.333.18-2.742.596-3.568 1.658-.6.772-.804 1.776-.94 2.745-1.657 11.796 4.103 23.329 4.995 35.207.165 2.185.149 4.457-.739 6.46-2.161 4.883-8.583 6.288-13.846 5.38-5.262-.91-10.19-3.44-15.51-3.91-5.32-.471-11.628 2.16-12.523 7.424 9.912-3.5 20.239 3 29.223 8.457 8.984 5.457 21.157 9.94 29.313 3.313 4.92-3.997 6.463-10.693 9.175-16.42 2.71-5.727 8.49-11.361 14.566-9.555 4.237 1.258 7.042 5.815 11.408 6.512.99.157 1.973.09 2.916-.156 0 0 7.644-2.742 8.634-16.163 0 0-6.39-35.823-22.896-48.201C66.143 4.867 56.765.775 56.765.775" fill="url(#ab)" mask="url(#ac)" transform="translate(1547.816 1751.143)"/><path d="M1629.578 1886.377s-1.859 4.12-7.352 8.665c-8.09 6.693-24.063 14.313-53.592 11.072-2.106-.231-2.582 2.883-.502 3.275 15.358 2.9 36.578 2.934 57.892-9.758 40.63-24.192 3.554-13.254 3.554-13.254" fill="#030c1a"/><path d="M18.685.063C8.185 1.584.66 51.373.66 51.373l39.785-8.16L58.159 27S30.678.004 19.543.004c-.298 0-.584.02-.858.059" fill="url(#ad)" mask="url(#ae)" transform="translate(1724.683 1681.228)"/><path d="M27.385 8.9S5.55 3.739.177.816c0 0-1.241 5.344 5.535 11.93 0 0 16.09 2.552 23.28.73z" fill="url(#af)" mask="url(#ag)" transform="translate(1750.96 1707.69)"/><path d="M20.361 19.464S5.674 5.834 2.547.578c0 0-3.795 3.962-1.331 13.084 0 0 14.002 9.304 21.116 11.406z" fill="url(#ah)" mask="url(#ai)" transform="translate(1756.014 1691.521)"/><path d="M1638.85 1891.399l-17.887 9.694c-8.728 2.25-28.088 6.107-52.725 4.148-3.856-.307-5.058 5.111-1.433 6.458 19.186 7.129 50.17 15.137 89.204 13.013 5.257-.286 8.49-5.82 6.227-10.573-2.838-5.955-9.225-14.039-23.386-22.74" fill="#030c1a"/><path d="M1749.093 1807.53s4.575-1.009 8.316 3.976c0 0-9.661 1.559-10.908 2.493zm-482.697 130.589s2.216 8.263 10.257 15.986c1.678 1.61.046 4.374-2.158 3.639-7.214-2.407-15.691-6.925-16.226-14.924z" fill="#759097"/><path d="M1762.854 1769.263s-11.777-28.184-10.846-33.97c.762-4.75 7.256-15.65 9.562-19.408a3.834 3.834 0 012.264-1.698l8.37-2.287 9.538-12.508c1.474-1.933 3.96-2.912 6.534-2.575l3.597.471a8.317 8.317 0 014.827 2.392l4.89 4.93a13.65 13.65 0 003.578 2.588l8.68 4.347 3.94.95a5.402 5.402 0 013.26 2.3l2.552 3.907c2.793 4.279 3.332 9.452 1.45 13.902-2.676 6.326-6.209 15.44-6.755 20.64-.895 8.532-10.896 21.76-10.896 21.76z" fill="#384a66"/><path d="M1178.688 2228.642s.895 6.011 5.289 11.776c.427.56-.24 1.296-.83.913-2.255-1.463-5.578-4.28-9-9.524 0 0 1.58-.857 3.607-1.186 0 0 1.228-.597.934-1.98m34.362-43.121s-1.364 5.833-.368 9.68c.247.957-.808 1.69-1.626 1.133-1.72-1.169-3.574-3.041-4.164-5.87zm24.194-31.65s1.832 8.295 7.746 18.196c1.238 2.074-1.481 4.262-3.22 2.585-3.635-3.506-7.317-8.111-9.566-13.766zm163.329 131.03l8.276 1.993c2.208.532 2.223 3.682.015 4.217-5.08 1.232-11.732 1.595-14.374-.227z" fill="#759097"/><path d="M1774.468 1790.309l-8.235 23.673c-5.56 13.748-14.089 26.073-24.88 36.247-7.543 7.114-16.098 16.29-21.443 25.532-11.324 19.58-60.578 47.951-60.578 47.951l-33.308-24.08 69.174-35.1 12.704-11.148 20.672-18.871s5.428-6.777 11.37-13.654c5.943-6.875 6.557-6.86 9.15-13.329.36-.902.164-2.037.4-3.158 1.656-7.846 7.832-18.402 7.832-18.402l3.872-10.294c.815-2.166.856-4.547.118-6.742l-9.798-29.118a9.833 9.833 0 01.589-7.659l7.983-15.41a6.037 6.037 0 014.094-3.125l5.524-1.186a7.114 7.114 0 014.762.64l16.075 8.337c.476.247.174.97-.338.804l-11.997-3.912a9.65 9.65 0 00-5.072-.25l-1.02.224a9.66 9.66 0 00-6.851 5.735l-2.788 6.717a10.765 10.765 0 00-.772 5.132c.062.017 23.195 6.443 22.043 29.808a40.85 40.85 0 01-.696 5.65l-.103.532z" fill="#fff"/><path d="M1341.924 1974.514c17.54 5.517 21.592 8.256 37.806 5.57 13.059-2.164 23.2 5.75 33.608 13.925 4.16-12.712 20.771-21.73 34.099-20.574 4.892.424 9.755 2.05 14.614 1.348 3.264-.47 6.55-2.598 7.996-5.385 1.079-2.083-.043-4.635-2.296-5.287-7.807-2.267-15.614-4.532-23.422-6.797-4.335-1.258-8.783-2.572-12.357-5.329-1.873-1.443-3.513-3.284-5.716-4.145-1.93-.756-4.074-.667-6.143-.54a243.293 243.293 0 00-35.144 4.73c-17.67 3.705-42.629 6.576-53.245 21.178" fill="#030d19"/><path d="M1398.813 2265.956s3.352 1.151 9.546 1.212c.368.004.522.472.218.678-1.489 1.011-4.748 2.741-9.057 2.219z" fill="#759097"/><path d="M1322.066 1974.094c7.954 2.2 15.581-4.943 23.83-5.206 2.41-.078 4.913.43 7.181-.392 2.478-.9 4.208-3.237 6.658-4.211 2.39-.949 5.073-.467 7.644-.549 5.692-.18 10.907-3.153 16.497-4.239 7.741-1.506 15.98.645 23.517-1.671 7.17-2.204 13.122-8.292 20.62-8.565 5.536-.202 10.93 2.89 16.406 2.044 4.447-.688 8.059-3.833 11.402-6.847l-5.43-10.471-128.087 29.717z" fill="#384a66"/><path d="M1.69.795c-.303 2.328.822 4.634.702 6.978-.119 2.344-1.455 4.433-2.106 6.689" fill="url(#aj)" mask="url(#ak)" transform="translate(1760.056 1711.732)"/><path d="M1200.543 1995.505l-5.273 4.894a24.837 24.837 0 01-11.661 6.076c-6.267 1.354-16.075 4.226-23.992 9.926l-20.524 9.002a4.382 4.382 0 00-2.427 2.719l-6.193 20.005-10.3 15.026a2.691 2.691 0 00-.128 2.866c1.336 2.316 4.672 6.237 11.6 5.157 0 0 2.196 7.418 8.175 5.412 4.542-1.525 7.724-10.259 8.988-14.363.195-.632 1.086-.631 1.286-.002l3.995 12.555c.751 2.362 3.374 3.66 5.65 2.682 3.329-1.43 7.23-4.806 6.781-12.762l-1.793-11.91c-.068-.465.556-.682.79-.275l6.313 11.028c.702 1.226 2.322 1.707 3.486.905 1.994-1.37 3.794-5.703.042-18.868a2.559 2.559 0 011.425-3.051c3.646-1.589 11.263-4.135 15.134.208.75.843 1.127 1.95 1.098 3.077-.074 2.768-.98 8.836-6.81 14.914-7.903 8.24-13.27 20.253-6.063 24.842 7.21 4.589 13.72-8.896 16.265-10.66 2.545-1.764 17.335-11.62 20.512-22.332 3.177-10.714 5.897-15.224 5.897-15.224s-5.59-25.923-22.273-41.847" fill="#384a66"/><path d="M1807.399 1775.005s-4.73 2.305-15.406.555c-.663-.109-.998.777-.423 1.123 3.571 2.147 10.504 5.465 17.867 4.391" fill="#030d19"/><path d="M1774.47 1713.076s10.396-11.547 16.313-12.471c5.917-.925 12.128 5.166 12.128 5.166l-6.211-6.091s-1.232-1.921-4.827-2.392c-3.597-.471-5.163-.537-5.163-.537s-3.27.415-4.968 2.64c-1.697 2.228-9.538 12.51-9.538 12.51l-2.354 1.711z" fill="#fff"/><path d="M1761.317 1768.934s3.298 6.534 6.216 10.168c.715.888-.02 2.183-1.153 2.057-1.98-.218-4.537-.744-6.912-1.973 0 0 2.32-3.47 2.24-5.476-.078-2.007-.391-4.776-.391-4.776" fill="#759097"/><path d="M19.379 10.374L.267 19.502c18.639 27.87 54.12 36.81 54.12 36.81l21.501-54.13C70.49.919 65.155.403 60.041.403c-22.492 0-40.662 9.972-40.662 9.972" fill="url(#al)" mask="url(#am)" transform="translate(1811.6 1720.827)"/><path d="M1588.046 1739.246s-61.3-21.087-102.358 42.01c0 0-20.29 27.563-8.712 67.32l-65.206 23.698-78.034 24.653c-1.035.327-2.05.712-3.043 1.153l-24.37 10.827a48.385 48.385 0 00-10.022 5.995l-25.872 20.086a75.243 75.243 0 01-8.452 5.687l-18.95 10.963c-10.18 5.888-12.645 6.228-18.312 14.382l-19.357 20.22a8.733 8.733 0 00-1.555 2.23c-.203.421-.407.84-.662 1.232l-5.908 9.065c-2.883 2.626-7.198 6.033-11.124 7.03 0 0-15.317 2.496-26.492 10.604l-20.524 9.003s-1.745.517-2.427 2.717l-5.712 18.45a10.747 10.747 0 01-1.4 2.899l-9.38 13.684s-1.07 1.492.33 4.04a4.508 4.508 0 005.013 2.193c5.338-1.323 14.824-10.403 26.446-30.828 1.044-1.834 2.963-3.006 5.073-3.055 2.893-.065 7.71-.565 14.51-2.513 6.826-1.955 14.316-.003 18.863 5.45 1.932 2.32 3.187 4.887 2.606 7.37-1.746 7.454-.582 5.874-5.12 12.99-4.539 7.117-8.983 8.364-10.986 18.262 0 0 2.745 3.437 10.756-7.296a18.421 18.421 0 017.136-5.725c2.945-1.343 7.09-3.697 11.354-7.62 13.067-12.023 15.378-31.662 6.346-46.948l-.211-.355a4.87 4.87 0 01.365-5.563l.088-.108c1.406-1.161 14.592-10.267 15.894-11.542 9.346-9.15 3.992-18.583 16.666-23.247l29.191-10.916c9.592-3.529 18.504 10.721 23.93 2.06a54.714 54.714 0 0118.526-18.056l31.102-18.384a109.271 109.271 0 0129.178-11.962l56.007-13.96 19.569-6.069a89.294 89.294 0 0145.816-1.883l22.39 5.4c1.7.41 2.545-1.978.966-2.732-4.693-2.24-9.006-4.509-10.184-5.78-18.815-20.3-32.352-57.645-10.796-75.007 22.7-18.284 15.234-37.35 38.718-53.702 20.679-14.399 47.875-14.76 69.695-2.158 46.5 26.856 46.162 85.064 46.162 85.064 7.443-81.606-67.527-101.328-67.527-101.328" fill="#fff"/><path d="M6.903.165S35.819 18.09 44.709 20.732c0 0-4.414 7.053-18.742 6.824 0 0-19.962-14.548-25.7-24.222z" fill="url(#an)" mask="url(#ao)" transform="translate(1811.6 1736.996)"/><path d="M8.146 1.334S38.507 2.518 47.499.252c0 0-.194 8.316-12.631 15.435 0 0-24.979-5.081-34.852-10.47z" fill="url(#ap)" mask="url(#aq)" transform="translate(1818.487 1731.943)"/><path d="M1349.76 1891.399s-5.156 49.195 23.294 71.366l6.349-2.061s-24.792-23.842-22.99-70.941z" fill="#030d19"/><path d="M1349.76 1891.399l6.654-1.636s-.148 18.775 2.21 28.105l-7.425 3.706s-2.904-15.735-1.438-30.175" fill="#384a66"/><path d="M1364.4 1887.24s-4.857 46.747 24.543 71.718l9.1.02s-29.653-27.127-26.61-73.96z" fill="#030d19"/><path d="M1364.4 1887.24s-1.287 16.18 1.45 27.666l7.54-2.474s-2.98-13.478-1.957-27.415z" fill="#384a66"/><path d="M1679.413 1872.274s7.152 32.414 49.774 65.441l1.492-.611a17.111 17.111 0 005.417-3.546l.882-.855s-36.876-25.115-50.825-63.735z" fill="#030d19"/><path d="M1679.413 1872.274l6.74-3.306s5.786 16.002 14.29 26.912l-6.728 5.202s-10.706-14.867-14.302-28.808" fill="#384a66"/><path d="M1693.031 1865.433s13.144 35.874 48.937 61.425l5.83-3.983s-36.577-27.81-49.4-61.151z" fill="#030d19"/><path d="M1693.031 1865.433s5.654 14.412 13.699 25.145l5.104-4.81s-9.404-13.066-13.435-24.044z" fill="#384a66"/><path d="M1106.432 2288.017s-2.904 37.48 44.249 65.88l9.197-3.881s-45.526-25.507-47.476-66.968l-1.869 1.206a14.839 14.839 0 00-2.887 2.437z" fill="#030d19"/><path d="M1123.058 2274.534s-3.265 42.05 49.74 73.915l10.338-4.356s-53.362-25.621-53.368-75.134l-1.684 1.03a18.049 18.049 0 00-4.555 3.97z" fill="#030d19"/><path d="M1106.432 2288.017s-.85 8.64 4.148 21.535l6.593-5.722s-4.104-8.728-4.771-20.782c0 0-3.08 1.765-5.97 4.97m20.258 7.862l6.624-5.346s-3.487-10.309-3.546-21.575c0 0-4.945 1.447-6.71 5.575 0 0-.551 11.442 3.632 21.346" fill="#384a66"/><path d="M1373.329 2308.107c2.226 2.588 19.363 39.183 51.128 58.441l8.429-5.025s-31.063-13.475-53.383-57.243zm11.711-11.127c2.227 2.589 23.578 40.053 55.343 59.31l8.429-5.024s-34.512-18.58-57.598-58.112z" fill="#030d19"/><path d="M1374.341 2310.216l7.854 12.575 5.86-3.714-8.092-13.904s-1.752 2.38-3.04 3.184-2.582 1.859-2.582 1.859m28.229-.222l-6.035 3.71-10.252-14.825s.067-1.061 1.427-2.03c1.36-.967 3.893-2.996 3.893-2.996z" fill="#384a66"/><path d="M1112.691 2368.835s-33.52-29.015-23.433-66.407l-29.536 16.877s-7.598.49-17.833 31.585c0 0 4.691 4.644 2.223 7.744 0 0-64.174 81.682-14.419 101.042 0 0 23.583 6.106 35.482-22.126l22.059-45.964s-1.738-8.606 25.457-22.75" fill="#030d19"/><path d="M1089.066 2330.314s-20.045 16.459-4.998 32.31c1.03 1.086.037 2.853-1.429 2.547-9.384-1.959-34.685.047-43.285 12.014-12.098 16.837-26.874 59.322-26.874 59.322s-6.475-29.402 30.468-76.98c1.366-1.758 2.058-4.002 1.68-6.198a6.334 6.334 0 00-.19-.8c-.99-3.2-.868-6.635.325-9.766 3.003-7.878 8.446-19.845 14.995-23.745 12.123-7.217 29.49-15.62 29.49-15.62s-3.009 16.94-.182 26.916" fill="#384a66"/><path d="M1354.858 2319.924s9.234 41.161 44.285 66.407l-.33 27.27-10.757 69.505-87.49 2.7v-140.363z" fill="#030d19"/><path d="M1360.555 2336.507l-5.697-16.583-29.486 19.762a10.885 10.885 0 00-4.547 6.606l-4.865 21.225a10.877 10.877 0 001.124 7.766l1.605 2.849a9.814 9.814 0 011.012 6.926c-3.797 17.296-9.91 82.17 22.974 95.02 0 0-9.642-8.377-14.714-45.46-1.5-10.981 1.76-21.943 8.386-30.828 7.417-9.95 9.02-27.212 9.089-39.686.061-11.087 5.588-21.509 14.93-27.478.064-.04.127-.079.19-.12" fill="#384a66"/><path d="M2.094 1455.959c30.625-47.05 93.426-55.565 144.168-43.436 29.433 7.034 57.175 19.662 83.868 33.684a661.849 661.849 0 0170.094 42.585c44.498 30.947 85.121 67.437 120.855 108.182 36.182 41.259 65.17 86.751 91.754 134.592 25.986 46.763 54.504 94.33 102.663 121.15 46.601 25.954 102.736 31.14 154.567 21.178 56.307-10.823 107.877-39.476 153.246-73.68 45.073-33.98 84.57-80.534 142.55-91.432 56.344-10.592 114.088 11.114 162.861 37.7 54.536 29.732 105.061 68.046 153.253 107.021a1564.193 1564.193 0 0136.165 30.187c5.89 5.064 14.505-3.476 8.575-8.576-48.76-41.922-100.023-81.662-154.082-116.554-47.956-30.953-101.763-58.24-159.4-63.655-27.695-2.601-55.91.811-81.687 11.48-26.46 10.95-48.86 28.987-70.485 47.38-45.11 38.367-92.398 74.674-148.495 95.484-52.324 19.411-110.744 24.131-163.954 5.2-26.45-9.411-49.934-24.942-69.166-45.362-19.404-20.604-34.268-44.915-48.175-69.423-13.672-24.099-26.65-48.562-41.673-71.868-14.687-22.784-30.795-44.66-48.107-65.522-35.292-42.528-75.83-80.56-120.315-113.337-45.326-33.397-95.945-63.704-149.517-81.705-50.873-17.095-110.385-18.675-154.708 15.735-4.86 3.773-10.745 8.278-14.855 12.76" fill="#fff"/><path d="M1407.53 1847.01l-11.79 25.264 4.96 3.487 11.07-3.487 11.76-13.897zm-914.05-173.623c-14.807-23.27-31.048-45.611-48.5-66.915-35.58-43.432-76.448-82.273-121.296-115.748-45.693-34.106-96.725-65.058-150.733-83.441-51.289-17.458-111.286-19.073-155.969 16.07-4.9 3.853-10.832 8.454-14.976 13.032v20.66c.297-.461.617-.895.92-1.35v1.657c30.873-48.05 94.187-56.745 145.34-44.36 7.2 1.744 14.298 3.83 21.307 6.184 21.544 7.32 42.23 17.217 62.325 27.91a666.099 666.099 0 0170.665 43.49c44.862 31.606 85.815 68.872 121.839 110.483 22.47 25.955 42.182 53.558 60.277 82.345a903.9 903.9 0 0012.389-4.25c-1.19-1.925-2.373-3.855-3.589-5.767m634.844 397.93c10.936-3.804 24.396-18.722 28.835-23.905a7.956 7.956 0 013.832-2.462l27.904-8.1s4.566 4.14 4.259 7.83l-4.634-3.032a5.302 5.302 0 00-4.261-.687l-6.009 1.593a10.409 10.409 0 00-4.246 2.284l-3.408 3.037a12.934 12.934 0 01-9.688 3.228c-2.452-.207-4.837.847-6.51 2.65-5.86 6.31-18.717 19.008-26.074 17.564" fill="#030c1a"/></g></svg>