<svg height="20" viewBox="0 0 24 20" width="24" xmlns="http://www.w3.org/2000/svg"><g fill="none"><path d="M0-2h24v24H0z"/><path d="M6 18.106c0-3.783 4.5-3.027 4.5-4.54 0 0 .086-1.005-.41-1.513C9.472 11.423 9 10.665 9 9.405 9 7.524 10.343 6 12 6s3 1.524 3 3.405c0 1.243-.46 2.017-1.105 2.648-.471.496-.395 1.513-.395 1.513 0 1.513 4.5.757 4.5 4.54 0 0-1.195.894-6 .894zm-.514-4.139a23.453 23.453 0 01-1.512-.114C1.661 13.6 1 13.106 1 13.106c0-3.783 4.5-3.027 4.5-4.54 0 0 .086-1.005-.41-1.513C4.472 6.423 4 5.665 4 4.405 4 2.524 5.343 1 7 1s3 1.524 3 3.405m8.514 9.562a23.453 23.453 0 001.512-.114C22.339 13.6 23 13.106 23 13.106c0-3.783-4.5-3.027-4.5-4.54 0 0-.086-1.005.41-1.513.618-.63 1.09-1.388 1.09-2.648C20 2.524 18.657 1 17 1s-3 1.524-3 3.405" stroke="#fff" stroke-width="1.5"/></g></svg>