<svg height="376" viewBox="0 0 375 376" width="375" xmlns="http://www.w3.org/2000/svg" xmlns:xlink="http://www.w3.org/1999/xlink"><defs><circle id="a" cx="21.284" cy="21.284" r="21.284"/><circle id="b" cx="21.284" cy="21.284" r="21.284"/><circle id="c" cx="21.284" cy="21.284" r="21.284"/><circle id="d" cx="21.284" cy="21.284" r="21.284"/><circle id="e" cx="28.378" cy="28.378" r="28.378"/><circle id="f" cx="28.378" cy="28.378" r="28.378"/><circle id="g" cx="21.284" cy="21.284" r="21.284"/><circle id="h" cx="28.378" cy="28.378" r="28.378"/><circle id="i" cx="28.378" cy="28.378" r="28.378"/><mask id="k" fill="#fff"><use fill-rule="evenodd" xlink:href="#a"/></mask><mask id="n" fill="#fff"><use fill-rule="evenodd" xlink:href="#b"/></mask><mask id="o" fill="#fff"><use fill-rule="evenodd" xlink:href="#c"/></mask><mask id="p" fill="#fff"><use fill-rule="evenodd" xlink:href="#d"/></mask><mask id="q" fill="#fff"><use fill-rule="evenodd" xlink:href="#e"/></mask><mask id="r" fill="#fff"><use fill-rule="evenodd" xlink:href="#f"/></mask><mask id="s" fill="#fff"><use fill-rule="evenodd" xlink:href="#g"/></mask><mask id="t" fill="#fff"><use fill-rule="evenodd" xlink:href="#h"/></mask><mask id="u" fill="#fff"><use fill-rule="evenodd" xlink:href="#i"/></mask><linearGradient id="j"><stop offset="0" stop-color="#0b4e9b"/><stop offset="1" stop-color="#1d74f5"/></linearGradient><linearGradient id="l" x1="16.6%" x2="83.286%" xlink:href="#j" y1="31.484%" y2="50%"/><linearGradient id="m" x1="94.328%" x2="25.865%" xlink:href="#j" y1="20.966%" y2="50%"/></defs><g fill="none" fill-rule="evenodd"><path d="M185.473 375c101.874 0 184.46-82.585 184.46-184.46 0-101.874-82.586-184.459-184.46-184.459S1.013 88.666 1.013 190.541C1.014 292.415 83.6 375 185.474 375z" fill="#a3b4cc" fill-opacity=".3" stroke="#a3b4cc" stroke-dasharray="4 4" stroke-linecap="round" stroke-linejoin="round" stroke-width="2" opacity=".407"/><g transform="translate(0 87.162)"><use fill="#a3b4cc" xlink:href="#a"/><g fill-rule="nonzero" mask="url(#k)"><path d="M11.206 10.543c.113.05.26.113.448.187-.27-.106.99.375 1.33.523 2.103.917 3.27 2.308 3.27 4.777v.486c-.06 5.746-.185 8.693-.375 8.84-.285.222-12.307.909-13.733.54-.924-.237-1.486-8.868-1.771-9.09L0 16.517v-.486c0-2.469 1.167-3.86 3.27-4.777.34-.148 1.6-.63 1.33-.523.217-.085.379-.155.497-.213 2.036 1.192 4.073 1.2 6.11.026z" fill="url(#l)" transform="translate(26.932 17.17)"/><path d="M38.139 27.713c-2.037 1.174-4.074 1.166-6.11-.025.228-.11.296-.175.3-.216a2.693 2.693 0 00-.07-.783.841.841 0 00-.157-.34c-1.043-1.105-1.574-2.304-1.574-3.973 0-2.85 2-5.206 4.531-5.206 2.53 0 4.531 2.356 4.531 5.206 0 1.674-.544 2.91-1.582 3.963-.05.055-.107.175-.149.348-.062.251-.08.54-.07.772l.003.094c0-.016.074.037.347.16z" fill="#e7ebf2"/><path d="M11.206 10.543c.113.05.26.113.448.187-.27-.106.99.375 1.33.523 2.103.917 3.27 2.308 3.27 4.777v.486l-.375.29c-.285.222-.847 10.727-1.77 10.965C12.681 28.14.658 17.028.374 16.807L0 16.516v-.486c0-2.469 1.167-3.86 3.27-4.777.34-.148 1.6-.63 1.33-.523.217-.085.379-.155.497-.213 2.036 1.192 4.073 1.2 6.11.026z" fill="url(#m)" transform="translate(0 17.17)"/><path d="M11.206 27.713c-2.036 1.174-4.073 1.166-6.11-.025.229-.11.296-.175.301-.216a2.693 2.693 0 00-.071-.783.83.83 0 00-.156-.34c-1.043-1.105-1.574-2.304-1.574-3.973 0-2.85 2-5.206 4.531-5.206 2.53 0 4.531 2.356 4.531 5.206 0 1.674-.545 2.91-1.582 3.963-.05.055-.107.175-.15.348-.061.251-.079.54-.07.772l.004.094c0-.016.074.037.346.16z" fill="#e7ebf2"/><path d="M25.62 32.329c.146.066.336.147.582.243-.352-.138 1.287.487 1.729.68 2.734 1.193 4.25 3.001 4.25 6.21l1.097 6.431c-.247.192-8.088.635-23.523 1.33l1.296-7.76c0-3.21 1.517-5.018 4.25-6.21a53.038 53.038 0 011.73-.68 9.59 9.59 0 00.646-.277c2.647 1.548 5.295 1.56 7.943.033z" fill="#1d74f5"/><path d="M25.62 32.329c-2.648 1.526-5.296 1.515-7.943-.033.296-.144.384-.227.39-.28a3.501 3.501 0 00-.092-1.019c-.056-.213-.13-.364-.202-.44-1.357-1.437-2.047-2.997-2.047-5.166 0-3.705 2.6-6.768 5.89-6.768s5.89 3.063 5.89 6.768c0 2.176-.707 3.783-2.056 5.152-.066.072-.139.228-.194.451-.08.328-.103.703-.091 1.005l.004.122c0-.02.096.049.45.208z" fill="#f3f5f8"/></g></g><g transform="translate(96.284)"><use fill="#a3b4cc" xlink:href="#b"/><g fill-rule="nonzero" mask="url(#n)"><path d="M11.206 10.543c.113.05.26.113.448.187-.27-.106.99.375 1.33.523 2.103.917 3.27 2.308 3.27 4.777v.486c-.06 5.746-.185 8.693-.375 8.84-.285.222-12.307.909-13.733.54-.924-.237-1.486-8.868-1.771-9.09L0 16.517v-.486c0-2.469 1.167-3.86 3.27-4.777.34-.148 1.6-.63 1.33-.523.217-.085.379-.155.497-.213 2.036 1.192 4.073 1.2 6.11.026z" fill="url(#l)" transform="translate(26.932 17.17)"/><path d="M38.139 27.713c-2.037 1.174-4.074 1.166-6.11-.025.228-.11.296-.175.3-.216a2.693 2.693 0 00-.07-.783.841.841 0 00-.157-.34c-1.043-1.105-1.574-2.304-1.574-3.973 0-2.85 2-5.206 4.531-5.206 2.53 0 4.531 2.356 4.531 5.206 0 1.674-.544 2.91-1.582 3.963-.05.055-.107.175-.149.348-.062.251-.08.54-.07.772l.003.094c0-.016.074.037.347.16z" fill="#e7ebf2"/><path d="M11.206 10.543c.113.05.26.113.448.187-.27-.106.99.375 1.33.523 2.103.917 3.27 2.308 3.27 4.777v.486l-.375.29c-.285.222-.847 10.727-1.77 10.965C12.681 28.14.658 17.028.374 16.807L0 16.516v-.486c0-2.469 1.167-3.86 3.27-4.777.34-.148 1.6-.63 1.33-.523.217-.085.379-.155.497-.213 2.036 1.192 4.073 1.2 6.11.026z" fill="url(#m)" transform="translate(0 17.17)"/><path d="M11.206 27.713c-2.036 1.174-4.073 1.166-6.11-.025.229-.11.296-.175.301-.216a2.693 2.693 0 00-.071-.783.83.83 0 00-.156-.34c-1.043-1.105-1.574-2.304-1.574-3.973 0-2.85 2-5.206 4.531-5.206 2.53 0 4.531 2.356 4.531 5.206 0 1.674-.545 2.91-1.582 3.963-.05.055-.107.175-.15.348-.061.251-.079.54-.07.772l.004.094c0-.016.074.037.346.16z" fill="#e7ebf2"/><path d="M25.62 32.329c.146.066.336.147.582.243-.352-.138 1.287.487 1.729.68 2.734 1.193 4.25 3.001 4.25 6.21l1.097 6.431c-.247.192-8.088.635-23.523 1.33l1.296-7.76c0-3.21 1.517-5.018 4.25-6.21a53.038 53.038 0 011.73-.68 9.59 9.59 0 00.646-.277c2.647 1.548 5.295 1.56 7.943.033z" fill="#1d74f5"/><path d="M25.62 32.329c-2.648 1.526-5.296 1.515-7.943-.033.296-.144.384-.227.39-.28a3.501 3.501 0 00-.092-1.019c-.056-.213-.13-.364-.202-.44-1.357-1.437-2.047-2.997-2.047-5.166 0-3.705 2.6-6.768 5.89-6.768s5.89 3.063 5.89 6.768c0 2.176-.707 3.783-2.056 5.152-.066.072-.139.228-.194.451-.08.328-.103.703-.091 1.005l.004.122c0-.02.096.049.45.208z" fill="#f3f5f8"/></g></g><path d="M185.473 302.027c61.572 0 111.486-49.914 111.486-111.486 0-61.573-49.914-111.487-111.486-111.487S73.986 128.968 73.986 190.541c0 61.572 49.915 111.486 111.487 111.486z" fill="#e6f1ff" stroke="#abd0ff" stroke-dasharray="4 4" stroke-linecap="round" stroke-linejoin="round" stroke-width="2"/><path d="M130.743 30.405l87.162 56.757m8.109 25.338l-25.338 46.622M150 196.622l-64.865 6.08m183.446 13.176l-47.635-16.216m-32.432 76.52v-50.168M66.892 307.095l3.04-81.081M31.419 123.649l34.966 60.81M111.486 34.46l-37.5 145.945m257.433-64.865l-72.973-13.175" stroke="#1d74f5" stroke-dasharray="4 4" stroke-linecap="square" stroke-width="2"/><g transform="translate(332.432 97.297)"><use fill="#a3b4cc" xlink:href="#c"/><g fill-rule="nonzero" mask="url(#o)"><path d="M11.206 10.543c.113.05.26.113.448.187-.27-.106.99.375 1.33.523 2.103.917 3.27 2.308 3.27 4.777v.486c-.06 5.746-.185 8.693-.375 8.84-.285.222-12.307.909-13.733.54-.924-.237-1.486-8.868-1.771-9.09L0 16.517v-.486c0-2.469 1.167-3.86 3.27-4.777.34-.148 1.6-.63 1.33-.523.217-.085.379-.155.497-.213 2.036 1.192 4.073 1.2 6.11.026z" fill="url(#l)" transform="translate(26.932 17.17)"/><path d="M38.139 27.713c-2.037 1.174-4.074 1.166-6.11-.025.228-.11.296-.175.3-.216a2.693 2.693 0 00-.07-.783.841.841 0 00-.157-.34c-1.043-1.105-1.574-2.304-1.574-3.973 0-2.85 2-5.206 4.531-5.206 2.53 0 4.531 2.356 4.531 5.206 0 1.674-.544 2.91-1.582 3.963-.05.055-.107.175-.149.348-.062.251-.08.54-.07.772l.003.094c0-.016.074.037.347.16z" fill="#e7ebf2"/><path d="M11.206 10.543c.113.05.26.113.448.187-.27-.106.99.375 1.33.523 2.103.917 3.27 2.308 3.27 4.777v.486l-.375.29c-.285.222-.847 10.727-1.77 10.965C12.681 28.14.658 17.028.374 16.807L0 16.516v-.486c0-2.469 1.167-3.86 3.27-4.777.34-.148 1.6-.63 1.33-.523.217-.085.379-.155.497-.213 2.036 1.192 4.073 1.2 6.11.026z" fill="url(#m)" transform="translate(0 17.17)"/><path d="M11.206 27.713c-2.036 1.174-4.073 1.166-6.11-.025.229-.11.296-.175.301-.216a2.693 2.693 0 00-.071-.783.83.83 0 00-.156-.34c-1.043-1.105-1.574-2.304-1.574-3.973 0-2.85 2-5.206 4.531-5.206 2.53 0 4.531 2.356 4.531 5.206 0 1.674-.545 2.91-1.582 3.963-.05.055-.107.175-.15.348-.061.251-.079.54-.07.772l.004.094c0-.016.074.037.346.16z" fill="#e7ebf2"/><path d="M25.62 32.329c.146.066.336.147.582.243-.352-.138 1.287.487 1.729.68 2.734 1.193 4.25 3.001 4.25 6.21l1.097 6.431c-.247.192-8.088.635-23.523 1.33l1.296-7.76c0-3.21 1.517-5.018 4.25-6.21a53.038 53.038 0 011.73-.68 9.59 9.59 0 00.646-.277c2.647 1.548 5.295 1.56 7.943.033z" fill="#1d74f5"/><path d="M25.62 32.329c-2.648 1.526-5.296 1.515-7.943-.033.296-.144.384-.227.39-.28a3.501 3.501 0 00-.092-1.019c-.056-.213-.13-.364-.202-.44-1.357-1.437-2.047-2.997-2.047-5.166 0-3.705 2.6-6.768 5.89-6.768s5.89 3.063 5.89 6.768c0 2.176-.707 3.783-2.056 5.152-.066.072-.139.228-.194.451-.08.328-.103.703-.091 1.005l.004.122c0-.02.096.049.45.208z" fill="#f3f5f8"/></g></g><path d="M283.784 325.338l-70.44-23.311m-49.154 0L73.985 320.27m266.833-187.546l-38.323 72.082m-.468 108.37l-15.203-78.04" stroke="#1d74f5" stroke-dasharray="4 4" stroke-linecap="square" stroke-width="2"/><g transform="translate(280.743 310.135)"><use fill="#a3b4cc" xlink:href="#d"/><g fill-rule="nonzero" mask="url(#p)"><path d="M11.206 10.543c.113.05.26.113.448.187-.27-.106.99.375 1.33.523 2.103.917 3.27 2.308 3.27 4.777v.486c-.06 5.746-.185 8.693-.375 8.84-.285.222-12.307.909-13.733.54-.924-.237-1.486-8.868-1.771-9.09L0 16.517v-.486c0-2.469 1.167-3.86 3.27-4.777.34-.148 1.6-.63 1.33-.523.217-.085.379-.155.497-.213 2.036 1.192 4.073 1.2 6.11.026z" fill="url(#l)" transform="translate(26.932 17.17)"/><path d="M38.139 27.713c-2.037 1.174-4.074 1.166-6.11-.025.228-.11.296-.175.3-.216a2.693 2.693 0 00-.07-.783.841.841 0 00-.157-.34c-1.043-1.105-1.574-2.304-1.574-3.973 0-2.85 2-5.206 4.531-5.206 2.53 0 4.531 2.356 4.531 5.206 0 1.674-.544 2.91-1.582 3.963-.05.055-.107.175-.149.348-.062.251-.08.54-.07.772l.003.094c0-.016.074.037.347.16z" fill="#e7ebf2"/><path d="M11.206 10.543c.113.05.26.113.448.187-.27-.106.99.375 1.33.523 2.103.917 3.27 2.308 3.27 4.777v.486l-.375.29c-.285.222-.847 10.727-1.77 10.965C12.681 28.14.658 17.028.374 16.807L0 16.516v-.486c0-2.469 1.167-3.86 3.27-4.777.34-.148 1.6-.63 1.33-.523.217-.085.379-.155.497-.213 2.036 1.192 4.073 1.2 6.11.026z" fill="url(#m)" transform="translate(0 17.17)"/><path d="M11.206 27.713c-2.036 1.174-4.073 1.166-6.11-.025.229-.11.296-.175.301-.216a2.693 2.693 0 00-.071-.783.83.83 0 00-.156-.34c-1.043-1.105-1.574-2.304-1.574-3.973 0-2.85 2-5.206 4.531-5.206 2.53 0 4.531 2.356 4.531 5.206 0 1.674-.545 2.91-1.582 3.963-.05.055-.107.175-.15.348-.061.251-.079.54-.07.772l.004.094c0-.016.074.037.346.16z" fill="#e7ebf2"/><path d="M25.62 32.329c.146.066.336.147.582.243-.352-.138 1.287.487 1.729.68 2.734 1.193 4.25 3.001 4.25 6.21l1.097 6.431c-.247.192-8.088.635-23.523 1.33l1.296-7.76c0-3.21 1.517-5.018 4.25-6.21a53.038 53.038 0 011.73-.68 9.59 9.59 0 00.646-.277c2.647 1.548 5.295 1.56 7.943.033z" fill="#1d74f5"/><path d="M25.62 32.329c-2.648 1.526-5.296 1.515-7.943-.033.296-.144.384-.227.39-.28a3.501 3.501 0 00-.092-1.019c-.056-.213-.13-.364-.202-.44-1.357-1.437-2.047-2.997-2.047-5.166 0-3.705 2.6-6.768 5.89-6.768s5.89 3.063 5.89 6.768c0 2.176-.707 3.783-2.056 5.152-.066.072-.139.228-.194.451-.08.328-.103.703-.091 1.005l.004.122c0-.02.096.049.45.208z" fill="#f3f5f8"/></g></g><g transform="translate(211.824 68.919)"><use fill="#1d74f5" xlink:href="#e"/><path d="M58.361 52.323h-1.266V22.836c0-.857-.681-1.552-1.52-1.552H34.29c-.84 0-1.52.695-1.52 1.552v29.487h-1.268c-.42 0-.76.347-.76.776v1.293h28.379v-1.293a.768.768 0 00-.76-.776zm-19.104-25.6a.71.71 0 01.71-.71h2.364a.71.71 0 01.71.71v2.365a.71.71 0 01-.71.71h-2.365a.71.71 0 01-.71-.71v-2.365zm0 5.676a.71.71 0 01.71-.71h2.364a.71.71 0 01.71.71v2.365a.71.71 0 01-.71.709h-2.365a.71.71 0 01-.71-.71V32.4zm3.074 9.696h-2.365a.71.71 0 01-.71-.71V39.02a.71.71 0 01.71-.71h2.365a.71.71 0 01.71.71v2.365a.71.71 0 01-.71.71zM46.824 52.5h-3.783v-5.794c0-.457.317-.828.709-.828h2.365c.392 0 .71.371.71.828V52.5zm3.784-11.115a.71.71 0 01-.71.71h-2.364a.71.71 0 01-.71-.71V39.02a.71.71 0 01.71-.71h2.365a.71.71 0 01.71.71v2.365zm0-6.621a.71.71 0 01-.71.709h-2.364a.71.71 0 01-.71-.71V32.4a.71.71 0 01.71-.71h2.365a.71.71 0 01.71.71v2.365zm0-5.676a.71.71 0 01-.71.71h-2.364a.71.71 0 01-.71-.71v-2.365a.71.71 0 01.71-.71h2.365a.71.71 0 01.71.71v2.365z" fill="#0b182b" fill-rule="nonzero" mask="url(#q)"/><path d="M39.257 26.723a.71.71 0 01.71-.71h2.364a.71.71 0 01.71.71v2.365a.71.71 0 01-.71.71h-2.365a.71.71 0 01-.71-.71v-2.365zm0 5.676a.71.71 0 01.71-.71h2.364a.71.71 0 01.71.71v2.365a.71.71 0 01-.71.709h-2.365a.71.71 0 01-.71-.71V32.4zm3.074 9.696h-2.365a.71.71 0 01-.71-.71V39.02a.71.71 0 01.71-.71h2.365a.71.71 0 01.71.71v2.365a.71.71 0 01-.71.71zM46.824 52.5h-3.783v-5.794c0-.457.317-.828.709-.828h2.365c.392 0 .71.371.71.828V52.5zm3.784-11.115a.71.71 0 01-.71.71h-2.364a.71.71 0 01-.71-.71V39.02a.71.71 0 01.71-.71h2.365a.71.71 0 01.71.71v2.365zm0-6.621a.71.71 0 01-.71.709h-2.364a.71.71 0 01-.71-.71V32.4a.71.71 0 01.71-.71h2.365a.71.71 0 01.71.71v2.365zm0-5.676a.71.71 0 01-.71.71h-2.364a.71.71 0 01-.71-.71v-2.365a.71.71 0 01.71-.71h2.365a.71.71 0 01.71.71v2.365z" fill="#fff" mask="url(#q)"/><g fill-rule="nonzero"><path d="M42.736 54.392h-1.689V15.076c0-1.143-.907-2.07-2.027-2.07H10.642c-1.12 0-2.027.927-2.027 2.07v39.316h-1.69c-.559 0-1.013.463-1.013 1.035v1.724H43.75v-1.724c0-.572-.454-1.035-1.014-1.035z" fill="#384a66" mask="url(#q)"/><path d="M17.264 20.259c0-.522.423-.946.945-.946h3.154c.522 0 .946.424.946.946v3.153a.946.946 0 01-.946.946h-3.154a.946.946 0 01-.945-.946V20.26zm0 7.568c0-.523.423-.946.945-.946h3.154c.522 0 .946.423.946.946v3.153a.946.946 0 01-.946.946h-3.154a.946.946 0 01-.945-.946zm4.099 12.928h-3.154a.946.946 0 01-.945-.946v-3.154c0-.522.423-.946.945-.946h3.154c.522 0 .946.424.946.946v3.154a.946.946 0 01-.946.946zm5.991 13.873h-5.045v-7.725c0-.61.423-1.103.946-1.103h3.153c.522 0 .946.494.946 1.103zm5.045-14.819a.946.946 0 01-.946.946H28.3a.946.946 0 01-.946-.946v-3.154c0-.522.423-.946.946-.946h3.153c.522 0 .946.424.946.946zm0-8.829a.946.946 0 01-.946.946H28.3a.946.946 0 01-.946-.946v-3.153c0-.523.423-.946.946-.946h3.153c.522 0 .946.423.946.946zm0-7.568a.946.946 0 01-.946.946H28.3a.946.946 0 01-.946-.946V20.26c0-.522.423-.946.946-.946h3.153c.522 0 .946.424.946.946v3.153z" fill="#fff" mask="url(#q)"/></g></g><g transform="translate(260.473 197.635)"><use fill="#1d74f5" xlink:href="#f"/><path d="M58.361 52.323h-1.266V22.836c0-.857-.681-1.552-1.52-1.552H34.29c-.84 0-1.52.695-1.52 1.552v29.487h-1.268c-.42 0-.76.347-.76.776v1.293h28.379v-1.293a.768.768 0 00-.76-.776zm-19.104-25.6a.71.71 0 01.71-.71h2.364a.71.71 0 01.71.71v2.365a.71.71 0 01-.71.71h-2.365a.71.71 0 01-.71-.71v-2.365zm0 5.676a.71.71 0 01.71-.71h2.364a.71.71 0 01.71.71v2.365a.71.71 0 01-.71.709h-2.365a.71.71 0 01-.71-.71V32.4zm3.074 9.696h-2.365a.71.71 0 01-.71-.71V39.02a.71.71 0 01.71-.71h2.365a.71.71 0 01.71.71v2.365a.71.71 0 01-.71.71zM46.824 52.5h-3.783v-5.794c0-.457.317-.828.709-.828h2.365c.392 0 .71.371.71.828V52.5zm3.784-11.115a.71.71 0 01-.71.71h-2.364a.71.71 0 01-.71-.71V39.02a.71.71 0 01.71-.71h2.365a.71.71 0 01.71.71v2.365zm0-6.621a.71.71 0 01-.71.709h-2.364a.71.71 0 01-.71-.71V32.4a.71.71 0 01.71-.71h2.365a.71.71 0 01.71.71v2.365zm0-5.676a.71.71 0 01-.71.71h-2.364a.71.71 0 01-.71-.71v-2.365a.71.71 0 01.71-.71h2.365a.71.71 0 01.71.71v2.365z" fill="#0b182b" fill-rule="nonzero" mask="url(#r)"/><path d="M39.257 26.723a.71.71 0 01.71-.71h2.364a.71.71 0 01.71.71v2.365a.71.71 0 01-.71.71h-2.365a.71.71 0 01-.71-.71v-2.365zm0 5.676a.71.71 0 01.71-.71h2.364a.71.71 0 01.71.71v2.365a.71.71 0 01-.71.709h-2.365a.71.71 0 01-.71-.71V32.4zm3.074 9.696h-2.365a.71.71 0 01-.71-.71V39.02a.71.71 0 01.71-.71h2.365a.71.71 0 01.71.71v2.365a.71.71 0 01-.71.71zM46.824 52.5h-3.783v-5.794c0-.457.317-.828.709-.828h2.365c.392 0 .71.371.71.828V52.5zm3.784-11.115a.71.71 0 01-.71.71h-2.364a.71.71 0 01-.71-.71V39.02a.71.71 0 01.71-.71h2.365a.71.71 0 01.71.71v2.365zm0-6.621a.71.71 0 01-.71.709h-2.364a.71.71 0 01-.71-.71V32.4a.71.71 0 01.71-.71h2.365a.71.71 0 01.71.71v2.365zm0-5.676a.71.71 0 01-.71.71h-2.364a.71.71 0 01-.71-.71v-2.365a.71.71 0 01.71-.71h2.365a.71.71 0 01.71.71v2.365z" fill="#fff" mask="url(#r)"/><g fill-rule="nonzero"><path d="M42.736 54.392h-1.689V15.076c0-1.143-.907-2.07-2.027-2.07H10.642c-1.12 0-2.027.927-2.027 2.07v39.316h-1.69c-.559 0-1.013.463-1.013 1.035v1.724H43.75v-1.724c0-.572-.454-1.035-1.014-1.035z" fill="#384a66" mask="url(#r)"/><path d="M17.264 20.259c0-.522.423-.946.945-.946h3.154c.522 0 .946.424.946.946v3.153a.946.946 0 01-.946.946h-3.154a.946.946 0 01-.945-.946V20.26zm0 7.568c0-.523.423-.946.945-.946h3.154c.522 0 .946.423.946.946v3.153a.946.946 0 01-.946.946h-3.154a.946.946 0 01-.945-.946zm4.099 12.928h-3.154a.946.946 0 01-.945-.946v-3.154c0-.522.423-.946.945-.946h3.154c.522 0 .946.424.946.946v3.154a.946.946 0 01-.946.946zm5.991 13.873h-5.045v-7.725c0-.61.423-1.103.946-1.103h3.153c.522 0 .946.494.946 1.103zm5.045-14.819a.946.946 0 01-.946.946H28.3a.946.946 0 01-.946-.946v-3.154c0-.522.423-.946.946-.946h3.153c.522 0 .946.424.946.946zm0-8.829a.946.946 0 01-.946.946H28.3a.946.946 0 01-.946-.946v-3.153c0-.523.423-.946.946-.946h3.153c.522 0 .946.423.946.946zm0-7.568a.946.946 0 01-.946.946H28.3a.946.946 0 01-.946-.946V20.26c0-.522.423-.946.946-.946h3.153c.522 0 .946.424.946.946v3.153z" fill="#fff" mask="url(#r)"/></g></g><g transform="translate(41.554 302.027)"><use fill="#a3b4cc" xlink:href="#g"/><g fill-rule="nonzero" mask="url(#s)"><path d="M11.206 10.543c.113.05.26.113.448.187-.27-.106.99.375 1.33.523 2.103.917 3.27 2.308 3.27 4.777v.486c-.06 5.746-.185 8.693-.375 8.84-.285.222-12.307.909-13.733.54-.924-.237-1.486-8.868-1.771-9.09L0 16.517v-.486c0-2.469 1.167-3.86 3.27-4.777.34-.148 1.6-.63 1.33-.523.217-.085.379-.155.497-.213 2.036 1.192 4.073 1.2 6.11.026z" fill="url(#l)" transform="translate(26.932 17.17)"/><path d="M38.139 27.713c-2.037 1.174-4.074 1.166-6.11-.025.228-.11.296-.175.3-.216a2.693 2.693 0 00-.07-.783.841.841 0 00-.157-.34c-1.043-1.105-1.574-2.304-1.574-3.973 0-2.85 2-5.206 4.531-5.206 2.53 0 4.531 2.356 4.531 5.206 0 1.674-.544 2.91-1.582 3.963-.05.055-.107.175-.149.348-.062.251-.08.54-.07.772l.003.094c0-.016.074.037.347.16z" fill="#e7ebf2"/><path d="M11.206 10.543c.113.05.26.113.448.187-.27-.106.99.375 1.33.523 2.103.917 3.27 2.308 3.27 4.777v.486l-.375.29c-.285.222-.847 10.727-1.77 10.965C12.681 28.14.658 17.028.374 16.807L0 16.516v-.486c0-2.469 1.167-3.86 3.27-4.777.34-.148 1.6-.63 1.33-.523.217-.085.379-.155.497-.213 2.036 1.192 4.073 1.2 6.11.026z" fill="url(#m)" transform="translate(0 17.17)"/><path d="M11.206 27.713c-2.036 1.174-4.073 1.166-6.11-.025.229-.11.296-.175.301-.216a2.693 2.693 0 00-.071-.783.83.83 0 00-.156-.34c-1.043-1.105-1.574-2.304-1.574-3.973 0-2.85 2-5.206 4.531-5.206 2.53 0 4.531 2.356 4.531 5.206 0 1.674-.545 2.91-1.582 3.963-.05.055-.107.175-.15.348-.061.251-.079.54-.07.772l.004.094c0-.016.074.037.346.16z" fill="#e7ebf2"/><path d="M25.62 32.329c.146.066.336.147.582.243-.352-.138 1.287.487 1.729.68 2.734 1.193 4.25 3.001 4.25 6.21l1.097 6.431c-.247.192-8.088.635-23.523 1.33l1.296-7.76c0-3.21 1.517-5.018 4.25-6.21a53.038 53.038 0 011.73-.68 9.59 9.59 0 00.646-.277c2.647 1.548 5.295 1.56 7.943.033z" fill="#1d74f5"/><path d="M25.62 32.329c-2.648 1.526-5.296 1.515-7.943-.033.296-.144.384-.227.39-.28a3.501 3.501 0 00-.092-1.019c-.056-.213-.13-.364-.202-.44-1.357-1.437-2.047-2.997-2.047-5.166 0-3.705 2.6-6.768 5.89-6.768s5.89 3.063 5.89 6.768c0 2.176-.707 3.783-2.056 5.152-.066.072-.139.228-.194.451-.08.328-.103.703-.091 1.005l.004.122c0-.02.096.049.45.208z" fill="#f3f5f8"/></g></g><g transform="translate(160.135 266.554)"><use fill="#1d74f5" xlink:href="#h"/><path d="M58.361 52.323h-1.266V22.836c0-.857-.681-1.552-1.52-1.552H34.29c-.84 0-1.52.695-1.52 1.552v29.487h-1.268c-.42 0-.76.347-.76.776v1.293h28.379v-1.293a.768.768 0 00-.76-.776zm-19.104-25.6a.71.71 0 01.71-.71h2.364a.71.71 0 01.71.71v2.365a.71.71 0 01-.71.71h-2.365a.71.71 0 01-.71-.71v-2.365zm0 5.676a.71.71 0 01.71-.71h2.364a.71.71 0 01.71.71v2.365a.71.71 0 01-.71.709h-2.365a.71.71 0 01-.71-.71V32.4zm3.074 9.696h-2.365a.71.71 0 01-.71-.71V39.02a.71.71 0 01.71-.71h2.365a.71.71 0 01.71.71v2.365a.71.71 0 01-.71.71zM46.824 52.5h-3.783v-5.794c0-.457.317-.828.709-.828h2.365c.392 0 .71.371.71.828V52.5zm3.784-11.115a.71.71 0 01-.71.71h-2.364a.71.71 0 01-.71-.71V39.02a.71.71 0 01.71-.71h2.365a.71.71 0 01.71.71v2.365zm0-6.621a.71.71 0 01-.71.709h-2.364a.71.71 0 01-.71-.71V32.4a.71.71 0 01.71-.71h2.365a.71.71 0 01.71.71v2.365zm0-5.676a.71.71 0 01-.71.71h-2.364a.71.71 0 01-.71-.71v-2.365a.71.71 0 01.71-.71h2.365a.71.71 0 01.71.71v2.365z" fill="#0b182b" fill-rule="nonzero" mask="url(#t)"/><path d="M39.257 26.723a.71.71 0 01.71-.71h2.364a.71.71 0 01.71.71v2.365a.71.71 0 01-.71.71h-2.365a.71.71 0 01-.71-.71v-2.365zm0 5.676a.71.71 0 01.71-.71h2.364a.71.71 0 01.71.71v2.365a.71.71 0 01-.71.709h-2.365a.71.71 0 01-.71-.71V32.4zm3.074 9.696h-2.365a.71.71 0 01-.71-.71V39.02a.71.71 0 01.71-.71h2.365a.71.71 0 01.71.71v2.365a.71.71 0 01-.71.71zM46.824 52.5h-3.783v-5.794c0-.457.317-.828.709-.828h2.365c.392 0 .71.371.71.828V52.5zm3.784-11.115a.71.71 0 01-.71.71h-2.364a.71.71 0 01-.71-.71V39.02a.71.71 0 01.71-.71h2.365a.71.71 0 01.71.71v2.365zm0-6.621a.71.71 0 01-.71.709h-2.364a.71.71 0 01-.71-.71V32.4a.71.71 0 01.71-.71h2.365a.71.71 0 01.71.71v2.365zm0-5.676a.71.71 0 01-.71.71h-2.364a.71.71 0 01-.71-.71v-2.365a.71.71 0 01.71-.71h2.365a.71.71 0 01.71.71v2.365z" fill="#fff" mask="url(#t)"/><g fill-rule="nonzero"><path d="M42.736 54.392h-1.689V15.076c0-1.143-.907-2.07-2.027-2.07H10.642c-1.12 0-2.027.927-2.027 2.07v39.316h-1.69c-.559 0-1.013.463-1.013 1.035v1.724H43.75v-1.724c0-.572-.454-1.035-1.014-1.035z" fill="#384a66" mask="url(#t)"/><path d="M17.264 20.259c0-.522.423-.946.945-.946h3.154c.522 0 .946.424.946.946v3.153a.946.946 0 01-.946.946h-3.154a.946.946 0 01-.945-.946V20.26zm0 7.568c0-.523.423-.946.945-.946h3.154c.522 0 .946.423.946.946v3.153a.946.946 0 01-.946.946h-3.154a.946.946 0 01-.945-.946zm4.099 12.928h-3.154a.946.946 0 01-.945-.946v-3.154c0-.522.423-.946.945-.946h3.154c.522 0 .946.424.946.946v3.154a.946.946 0 01-.946.946zm5.991 13.873h-5.045v-7.725c0-.61.423-1.103.946-1.103h3.153c.522 0 .946.494.946 1.103zm5.045-14.819a.946.946 0 01-.946.946H28.3a.946.946 0 01-.946-.946v-3.154c0-.522.423-.946.946-.946h3.153c.522 0 .946.424.946.946zm0-8.829a.946.946 0 01-.946.946H28.3a.946.946 0 01-.946-.946v-3.153c0-.523.423-.946.946-.946h3.153c.522 0 .946.423.946.946zm0-7.568a.946.946 0 01-.946.946H28.3a.946.946 0 01-.946-.946V20.26c0-.522.423-.946.946-.946h3.153c.522 0 .946.424.946.946v3.153z" fill="#fff" mask="url(#t)"/></g></g><g transform="translate(41.554 177.365)"><use fill="#1d74f5" xlink:href="#i"/><path d="M58.361 52.323h-1.266V22.836c0-.857-.681-1.552-1.52-1.552H34.29c-.84 0-1.52.695-1.52 1.552v29.487h-1.268c-.42 0-.76.347-.76.776v1.293h28.379v-1.293a.768.768 0 00-.76-.776zm-19.104-25.6a.71.71 0 01.71-.71h2.364a.71.71 0 01.71.71v2.365a.71.71 0 01-.71.71h-2.365a.71.71 0 01-.71-.71v-2.365zm0 5.676a.71.71 0 01.71-.71h2.364a.71.71 0 01.71.71v2.365a.71.71 0 01-.71.709h-2.365a.71.71 0 01-.71-.71V32.4zm3.074 9.696h-2.365a.71.71 0 01-.71-.71V39.02a.71.71 0 01.71-.71h2.365a.71.71 0 01.71.71v2.365a.71.71 0 01-.71.71zM46.824 52.5h-3.783v-5.794c0-.457.317-.828.709-.828h2.365c.392 0 .71.371.71.828V52.5zm3.784-11.115a.71.71 0 01-.71.71h-2.364a.71.71 0 01-.71-.71V39.02a.71.71 0 01.71-.71h2.365a.71.71 0 01.71.71v2.365zm0-6.621a.71.71 0 01-.71.709h-2.364a.71.71 0 01-.71-.71V32.4a.71.71 0 01.71-.71h2.365a.71.71 0 01.71.71v2.365zm0-5.676a.71.71 0 01-.71.71h-2.364a.71.71 0 01-.71-.71v-2.365a.71.71 0 01.71-.71h2.365a.71.71 0 01.71.71v2.365z" fill="#0b182b" fill-rule="nonzero" mask="url(#u)"/><path d="M39.257 26.723a.71.71 0 01.71-.71h2.364a.71.71 0 01.71.71v2.365a.71.71 0 01-.71.71h-2.365a.71.71 0 01-.71-.71v-2.365zm0 5.676a.71.71 0 01.71-.71h2.364a.71.71 0 01.71.71v2.365a.71.71 0 01-.71.709h-2.365a.71.71 0 01-.71-.71V32.4zm3.074 9.696h-2.365a.71.71 0 01-.71-.71V39.02a.71.71 0 01.71-.71h2.365a.71.71 0 01.71.71v2.365a.71.71 0 01-.71.71zM46.824 52.5h-3.783v-5.794c0-.457.317-.828.709-.828h2.365c.392 0 .71.371.71.828V52.5zm3.784-11.115a.71.71 0 01-.71.71h-2.364a.71.71 0 01-.71-.71V39.02a.71.71 0 01.71-.71h2.365a.71.71 0 01.71.71v2.365zm0-6.621a.71.71 0 01-.71.709h-2.364a.71.71 0 01-.71-.71V32.4a.71.71 0 01.71-.71h2.365a.71.71 0 01.71.71v2.365zm0-5.676a.71.71 0 01-.71.71h-2.364a.71.71 0 01-.71-.71v-2.365a.71.71 0 01.71-.71h2.365a.71.71 0 01.71.71v2.365z" fill="#fff" mask="url(#u)"/><g fill-rule="nonzero"><path d="M42.736 54.392h-1.689V15.076c0-1.143-.907-2.07-2.027-2.07H10.642c-1.12 0-2.027.927-2.027 2.07v39.316h-1.69c-.559 0-1.013.463-1.013 1.035v1.724H43.75v-1.724c0-.572-.454-1.035-1.014-1.035z" fill="#384a66" mask="url(#u)"/><path d="M17.264 20.259c0-.522.423-.946.945-.946h3.154c.522 0 .946.424.946.946v3.153a.946.946 0 01-.946.946h-3.154a.946.946 0 01-.945-.946V20.26zm0 7.568c0-.523.423-.946.945-.946h3.154c.522 0 .946.423.946.946v3.153a.946.946 0 01-.946.946h-3.154a.946.946 0 01-.945-.946zm4.099 12.928h-3.154a.946.946 0 01-.945-.946v-3.154c0-.522.423-.946.945-.946h3.154c.522 0 .946.424.946.946v3.154a.946.946 0 01-.946.946zm5.991 13.873h-5.045v-7.725c0-.61.423-1.103.946-1.103h3.153c.522 0 .946.494.946 1.103zm5.045-14.819a.946.946 0 01-.946.946H28.3a.946.946 0 01-.946-.946v-3.154c0-.522.423-.946.946-.946h3.153c.522 0 .946.424.946.946zm0-8.829a.946.946 0 01-.946.946H28.3a.946.946 0 01-.946-.946v-3.153c0-.523.423-.946.946-.946h3.153c.522 0 .946.423.946.946zm0-7.568a.946.946 0 01-.946.946H28.3a.946.946 0 01-.946-.946V20.26c0-.522.423-.946.946-.946h3.153c.522 0 .946.424.946.946v3.153z" fill="#fff" mask="url(#u)"/></g></g><circle cx="185.473" cy="190.541" fill="#ffe8e9" r="35.473" stroke="#fcadae" stroke-width="2"/><path d="M200.676 186.46l.004.005a51.042 51.042 0 00-.004-.006zm-23.951-12.62a17.013 17.013 0 013.53 2.606 28.922 28.922 0 015.135-.453c5.227 0 10.181 1.367 13.951 3.848 1.953 1.285 3.504 2.81 4.612 4.533 1.234 1.92 1.859 3.984 1.859 6.196 0 2.153-.625 4.218-1.859 6.137-1.108 1.724-2.66 3.249-4.612 4.534-3.77 2.48-8.724 3.847-13.95 3.847-1.746 0-3.467-.152-5.136-.453a17.04 17.04 0 01-3.53 2.607c-6.853 3.421-12.536.08-12.536.08s5.284-4.471 4.424-8.391c-2.364-2.415-3.644-5.329-3.644-8.42 0-3.032 1.28-5.945 3.644-8.361.86-3.919-4.422-8.39-4.424-8.391.002-.001 5.684-3.341 12.536.08z" fill="#db2323" fill-rule="nonzero"/><path d="M172.626 197.314c-2.349-1.845-3.759-4.206-3.759-6.78 0-5.905 7.424-10.693 16.58-10.693 9.158 0 16.58 4.788 16.58 10.693 0 5.906-7.422 10.693-16.58 10.693a24.62 24.62 0 01-6.369-.818l-1.433 1.379a13.162 13.162 0 01-2.644 1.96c-1.262.618-2.507.955-3.74 1.058.07-.126.134-.254.202-.38 1.437-2.638 1.824-5.009 1.163-7.112z" fill="#fff"/><path d="M177.497 193.078c-1.346 0-2.438-1.105-2.438-2.469 0-1.363 1.092-2.469 2.438-2.469s2.437 1.106 2.437 2.47c0 1.363-1.091 2.468-2.437 2.468zm7.847 0c-1.346 0-2.437-1.105-2.437-2.469 0-1.363 1.091-2.469 2.437-2.469 1.347 0 2.438 1.106 2.438 2.47 0 1.363-1.091 2.468-2.438 2.468zm7.848 0c-1.346 0-2.437-1.105-2.437-2.469 0-1.363 1.091-2.469 2.437-2.469s2.438 1.106 2.438 2.47c0 1.363-1.092 2.468-2.438 2.468z" fill="#db2323" fill-rule="nonzero"/></g></svg>