<svg height="367" viewBox="0 0 431 367" width="431" xmlns="http://www.w3.org/2000/svg"><mask id="a" fill="#fff"><path d="M13 23.4C7.257 23.4 2.6 18.744 2.6 13S7.257 2.6 13 2.6 23.4 7.256 23.4 13 18.743 23.4 13 23.4zM11.595 9.192a.78.78 0 00-1.195.66v6.295a.78.78 0 001.195.66l5.014-3.146a.78.78 0 000-1.322z" fill-rule="evenodd"/></mask><g fill="none" fill-rule="evenodd"><path d="M123 309h28a7 7 0 017 7v28a7 7 0 01-7 7h-28a7 7 0 01-7-7v-28a7 7 0 017-7z" fill="#1d74f5" fill-rule="nonzero"/><path d="M146.304 327.574c.673-.214 1.356-.124 1.876.244.522.37.82.977.82 1.666v6.11c0 .689-.3 1.294-.82 1.664a1.991 1.991 0 01-1.16.359c-.236 0-.478-.037-.717-.113l-4.273-1.354V339H126v-12.92h16.03v2.847zm-16.82-3.534V322h9.061v2.04h-9.06z" fill="#fff"/><path d="M194 290h-2v-35h2z" fill="#1d74f5" fill-rule="nonzero"/><path d="M136 290v-2h58v2z" fill="#1d74f5" fill-rule="nonzero"/><path d="M138 314h-2v-25h2z" fill="#1d74f5" fill-rule="nonzero"/><path d="M332 171c30.928 0 56-25.072 56-56s-25.072-56-56-56-56 25.072-56 56 25.072 56 56 56z" stroke="#35363e" stroke-dasharray="4" stroke-linecap="round" stroke-linejoin="round" stroke-width="2"/><path d="M287 291h28a7 7 0 017 7v28a7 7 0 01-7 7h-28a7 7 0 01-7-7v-28a7 7 0 017-7z" fill="#1d74f5" fill-rule="nonzero"/><g fill="#fff" mask="url(#a)" transform="translate(288 299)"><path d="M0 0h26v26H0z"/></g><path d="M302.146 293h-2v-59h2zM317.285 8h29.138c4.023 0 7.284 3.254 7.284 7.267v29.07c0 4.013-3.261 7.267-7.284 7.267h-29.138c-4.024 0-7.285-3.254-7.285-7.267v-29.07C310 11.254 313.261 8 317.285 8z" fill="#1d74f5" fill-rule="nonzero"/><rect height="19.125" rx="2" stroke="#fff" stroke-width="2" width="24" x="320" y="20"/><path d="M332.932 29.08l.452 2.22-3.614-5.284-5.082 7.397c-.056.687 3.219 1.215 7.284 1.215 4.066 0 7.34-.528 7.34-1.215l-4.46-6.181-1.92 1.849zm-.449-2.563c.725 0 1.295-.582 1.295-1.321 0-.74-.57-1.321-1.295-1.321-.726 0-1.296.581-1.296 1.32 0 .74.57 1.322 1.296 1.322z" fill="#fff"/><path d="M333.068 122.009h-2.428V51h2.428zM226.285 38h29.138c4.023 0 7.284 3.254 7.284 7.267v29.07c0 4.013-3.261 7.267-7.284 7.267h-29.138c-4.024 0-7.285-3.254-7.285-7.267v-29.07c0-4.013 3.261-7.267 7.285-7.267z" fill="#1d74f5" fill-rule="nonzero"/><path d="M249.724 63.69c.111-.252.236-.507.363-.765.453-.918.876-2.057.966-3.149.477-5.731-4.943-10.42-11.02-10.42s-11.019 4.672-11.019 10.419c0 6.038 5.162 10.42 12.271 10.42l.242.001h.283c3.928 0 9.117-.333 10.4-2.914.677-1.362-.8-2.1-1.51-2.454-1.23-.616-1.171-.738-.976-1.14z" fill="#fff"/><g fill="#1d74f5" transform="translate(229 49)"><rect height="1.846" rx=".923" width="12" x="5" y="7"/><rect height="1.846" rx=".923" width="9.231" x="5" y="11"/></g><path d="M242.068 152.009h-2.428V81h2.428z" fill="#1d74f5" fill-rule="nonzero"/><g fill-rule="nonzero"><path d="M115.285 20h29.138c4.023 0 7.284 3.254 7.284 7.267v29.07c0 4.013-3.261 7.267-7.284 7.267h-29.138c-4.025 0-7.285-3.254-7.285-7.267v-29.07c0-4.013 3.261-7.267 7.285-7.267zm51.783 97.009h-2.428V76h2.428z" fill="#1d74f5"/><path d="M131 76h-2V62h2zm-2 2v-2h38v2z" fill="#1d74f5"/><path d="M133.994 52.313c0 .38-.308.687-.687.687h-6.875a.688.688 0 010-1.375h2.406v-3.14c-4.074-.38-6.384-3.082-6.806-7.82a12.1 12.1 0 01-.025-.356 1 1 0 01.986-1.059h.062a1 1 0 011.01.942c.01.186.022.34.034.464.386 3.987 2.26 5.813 5.77 5.813 3.503 0 5.377-1.818 5.768-5.788.013-.13.025-.293.036-.489a1 1 0 011.01-.943l.063.001a1 1 0 01.986 1.059c-.008.132-.016.247-.024.344-.42 4.746-2.73 7.451-6.808 7.832v3.14h2.407c.38 0 .687.308.687.688zM129.9 31c2.485 0 4.5 2.155 4.5 4.813v4.124c0 2.658-2.015 4.813-4.5 4.813s-4.5-2.155-4.5-4.813v-4.125c0-2.657 2.015-4.812 4.5-4.812z" fill="#fff"/></g><g stroke="#35363e" stroke-width="2"><ellipse cx="372" cy="314.905" rx="4" ry="3.905"/><ellipse cx="245" cy="322.905" rx="4" ry="3.905"/><ellipse cx="199" cy="62.905" rx="4" ry="3.905"/><ellipse cx="43" cy="157.905" rx="4" ry="3.905"/><path d="M105 293c30.928 0 56-25.072 56-56s-25.072-56-56-56-56 25.072-56 56 25.072 56 56 56zm263 18.435L234 190m11 128.766V162m-46 60.766V66M47 155l50.478-50.478" stroke-dasharray="4" stroke-linecap="round" stroke-linejoin="round"/></g><g transform="translate(87 97)"><path d="M7.294 0h250.412C261.735 0 265 3.25 265 7.259V165.74c0 4.01-3.265 7.259-7.294 7.259H7.294C3.265 173 0 169.75 0 165.741V7.26C0 3.249 3.265 0 7.294 0z" fill="#fff"/><rect fill="#d8d8d8" height="8" opacity=".48" rx="1" width="8" x="77" y="146"/><rect fill="#d8d8d8" height="3" opacity=".48" rx="1" width="15" x="88" y="146"/><rect fill="#d8d8d8" height="3" opacity=".48" rx="1" width="98" x="88" y="152"/><path d="M7.1 0H71v173H7.1c-3.921 0-7.1-3.25-7.1-7.259V7.26C0 3.249 3.179 0 7.1 0z" fill="#1d74f5"/><path d="M71 22h194v1H71zm0 139h123.5v1H71zm123.5 12V23h1v150z" fill="#c6c7ca" opacity=".23"/><rect fill="#fff" height="8" rx="1" width="8" x="8" y="8"/><rect fill="#d8d8d8" height="12" opacity=".48" rx="1" width="12" x="76" y="6"/><rect fill="#d8d8d8" height="4" opacity=".48" rx="1" width="30" x="91" y="8"/><rect fill="#d8d8d8" height="2" opacity=".48" rx="1" width="20" x="91" y="14"/><rect fill="#fff" height="8" rx="1" width="8" x="8" y="34"/><g fill="#d8d8d8" transform="translate(202 29)"><rect height="30" opacity=".19" rx="1" width="56" y="16"/><rect height="3" opacity=".48" rx="1" width="15" x="11"/><rect height="3" opacity=".48" rx="1" width="46" x="11" y="6"/><rect height="8" opacity=".48" rx="1" width="8"/></g><path d="M231.402 59.982l.68 3.607L226.644 55 219 67.025C218.916 68.14 223.843 69 229.958 69c6.116 0 11.042-.859 11.042-1.975l-6.71-10.05zM232 55c1.12 0 2-.88 2-2s-.88-2-2-2-2 .88-2 2 .88 2 2 2z" fill="#b0b8be" fill-rule="nonzero" opacity=".149"/><g transform="translate(88 81)"><rect fill="#d8d8d8" height="30" opacity=".19" rx="1" width="56" x="114" y="16"/><g transform="translate(0 19)"><rect fill="#d8d8d8" height="38" opacity=".19" rx="1" width="99"/><path d="M49.402 18.982l.68 3.607L44.644 14 37 26.025C36.916 27.14 41.843 28 47.958 28 54.074 28 59 27.141 59 26.025l-6.71-10.05zM50 14c1.12 0 2-.88 2-2s-.88-2-2-2-2 .88-2 2 .88 2 2 2z" fill="#b0b8be" fill-rule="nonzero" opacity=".149"/></g><g fill="#d8d8d8"><rect height="3" opacity=".48" rx="1" width="15" x="125"/><rect height="3" opacity=".48" rx="1" width="46" x="125" y="6"/><rect height="8" opacity=".48" rx="1" width="8" x="114"/></g><path d="M143.402 30.982l.68 3.607L138.644 26 131 38.025C130.916 39.14 135.843 40 141.958 40c6.116 0 11.042-.859 11.042-1.975l-6.71-10.05zM144 26c1.12 0 2-.88 2-2s-.88-2-2-2-2 .88-2 2 .88 2 2 2z" fill="#b0b8be" fill-rule="nonzero" opacity=".149"/></g><g fill="#d8d8d8" transform="translate(202 133)"><rect height="24" opacity=".19" rx="1" width="56" y="16"/><rect height="3" opacity=".48" rx="1" width="15" x="11"/><rect height="3" opacity=".48" rx="1" width="46" x="11" y="6"/><rect height="8" opacity=".48" rx="1" width="8"/></g><path d="M231.402 163.982l.68 3.607-5.438-8.589L219 171.025c-.084 1.115 4.843 1.975 10.958 1.975 6.116 0 11.042-.859 11.042-1.975l-6.71-10.05zM232 159c1.12 0 2-.88 2-2s-.88-2-2-2-2 .88-2 2 .88 2 2 2z" fill="#b0b8be" fill-rule="nonzero" opacity=".149"/><rect fill="#d8d8d8" height="3" opacity=".48" rx="1" width="15" x="88" y="29"/><rect fill="#d8d8d8" height="3" opacity=".48" rx="1" width="98" x="88" y="35"/><rect fill="#d8d8d8" height="3" opacity=".48" rx="1" width="98" x="88" y="41"/><rect fill="#d8d8d8" height="3" opacity=".48" rx="1" width="49" x="88" y="47"/><rect fill="#d8d8d8" height="3" opacity=".48" rx="1" width="98" x="76" y="166"/><g fill="#d8d8d8" opacity=".48"><rect height="8" rx="1" width="8" x="77" y="58"/><rect height="8" rx="1" width="8" x="77" y="29"/><rect height="3" rx="1" width="9" x="88" y="58"/><rect height="3" rx="1" width="99" x="88" y="64"/><rect height="3" rx="1" width="49" x="88" y="70"/></g><g fill="#d8d8d8" opacity=".48"><rect height="8" rx="1" width="8" x="77" y="81"/><rect height="3" rx="1" width="15" x="88" y="81"/><rect height="3" rx="1" width="99" x="88" y="87"/><rect height="3" rx="1" width="99" x="88" y="93"/></g><rect fill="#fff" height="8" rx="1" width="8" x="8" y="94"/><rect fill="#fff" height="8" rx="1" width="8" x="8" y="106"/><rect fill="#fff" height="8" rx="1" width="8" x="8" y="118"/><rect fill="#fff" height="8" rx="1" width="8" x="8" y="130"/><rect fill="#fff" height="8" rx="1" width="8" x="8" y="142"/><rect fill="#d8d8d8" height="2" opacity=".564" rx="1" width="17" x="8" y="88"/><g fill="#fff"><rect height="4" opacity=".564" rx="1" width="43" x="20" y="96"/><rect height="4" opacity=".564" rx="1" width="43" x="20" y="108"/><rect height="4" opacity=".564" rx="1" width="43" x="20" y="120"/><rect height="4" opacity=".564" rx="1" width="43" x="20" y="132"/><rect height="4" opacity=".564" rx="1" width="43" x="20" y="144"/><rect height="8" rx="1" width="8" x="8" y="154"/><rect height="4" opacity=".564" rx="1" width="43" x="20" y="156"/><rect height="8" rx="1" width="8" x="8" y="46"/><rect height="8" rx="1" width="8" x="8" y="58"/><rect height="8" rx="1" width="8" x="8" y="70"/><rect height="2" opacity=".564" rx="1" width="17" x="8" y="28"/><rect height="4" opacity=".564" rx="1" width="43" x="20" y="36"/><rect height="4" opacity=".564" rx="1" width="43" x="20" y="48"/><rect height="4" opacity=".564" rx="1" width="43" x="20" y="60"/><rect height="4" opacity=".564" rx="1" width="43" x="20" y="72"/><rect height="6" opacity=".564" rx="1" width="6" x="28" y="9"/><rect height="6" opacity=".564" rx="1" width="6" x="38" y="9"/><rect height="6" opacity=".564" rx="1" width="6" x="47" y="9"/><rect height="6" opacity=".564" rx="1" width="6" x="57" y="9"/></g></g><g transform="translate(324 132)"><rect fill="#fff" height="117" rx="8" stroke="#000" stroke-width="3" width="69"/><path d="M7.496 1.467h53.933a6 6 0 015.984 5.555l.079 1.057V20H1.496V7.467a6 6 0 016-6z" fill="#1d74f5"/><rect fill="#d8d8d8" height="3" opacity=".48" rx="1" width="27" x="16" y="10"/><rect fill="#fff" height="5" opacity=".564" rx="1" width="5" x="9" y="9"/><g fill="#d8d8d8" opacity=".48"><rect height="8" rx="1" width="8" x="8" y="26"/><rect height="3" rx="1" width="15" x="19" y="26"/><rect height="3" rx="1" width="42" x="19" y="32"/><rect height="3" rx="1" width="23" x="19" y="38"/></g><g fill="#d8d8d8" transform="translate(8 49)"><rect height="8" opacity=".48" rx="1" width="8"/><rect height="3" opacity=".48" rx="1" width="15" x="11"/><rect height="3" opacity=".48" rx="1" width="42" x="11" y="6"/><rect height="23" opacity=".19" rx="1" width="42" x="11" y="12"/></g><path d="M41.147 72.27l.556 3.092L37.255 68l-6.254 10.307c-.07.957 3.961 1.693 8.965 1.693C44.969 80 49 79.264 49 78.307l-5.49-8.614zM41.5 68c.84 0 1.5-.66 1.5-1.5s-.66-1.5-1.5-1.5-1.5.66-1.5 1.5.66 1.5 1.5 1.5z" fill="#b0b8be" fill-rule="nonzero" opacity=".149"/><g fill="#d8d8d8" opacity=".48"><rect height="8" rx="1" width="8" x="8" y="92"/><rect height="3" rx="1" width="15" x="19" y="92"/><rect height="3" rx="1" width="42" x="19" y="98"/><rect height="3" rx="1" width="23" x="19" y="104"/></g></g></g></svg>