<svg height="36" viewBox="0 0 36 36" width="36" xmlns="http://www.w3.org/2000/svg"><g fill="none" fill-rule="evenodd"><path d="M18.01 33.51l5.887-18.122H12.121z" fill="#e24329"/><path d="M18.01 33.51l-5.89-18.123H3.87z" fill="#fc6d26"/><path d="M3.87 15.388l-1.79 5.507a1.219 1.219 0 00.443 1.363l15.486 11.251L3.87 15.39z" fill="#fca326"/><path d="M3.87 15.388h8.251L8.575 4.474c-.182-.562-.977-.562-1.16 0z" fill="#e24329"/><path d="M18.01 33.51l5.887-18.122h8.252z" fill="#fc6d26"/><path d="M32.15 15.388l1.788 5.507a1.219 1.219 0 01-.442 1.363L18.009 33.509l14.14-18.12z" fill="#fca326"/><path d="M32.15 15.388h-8.253l3.547-10.914c.182-.562.977-.562 1.159 0l3.546 10.914z" fill="#e24329"/></g></svg>