<svg height="84" viewBox="0 0 84 84" width="84" xmlns="http://www.w3.org/2000/svg" xmlns:xlink="http://www.w3.org/1999/xlink"><defs><linearGradient id="c" x1="100%" x2="0%" y1="50%" y2="50%"><stop offset="0" stop-color="#c2cddd"/><stop offset="1" stop-color="#e0e7ef"/></linearGradient><circle id="a" cx="42" cy="42" r="32"/><mask id="b" fill="#fff"><use fill-rule="evenodd" xlink:href="#a"/></mask></defs><g fill="none" fill-rule="evenodd"><use fill="#a3b4cc" xlink:href="#a"/><g mask="url(#b)"><path d="M33.75 9.205H2.25C1.007 9.205 0 8.175 0 6.903V2.301C0 1.031 1.007 0 2.25 0h31.5C34.993 0 36 1.03 36 2.301v4.602c0 1.271-1.007 2.302-2.25 2.302z" fill="url(#c)" transform="translate(22 23)"/><path d="M53.065 25.876a1.726 1.726 0 100 3.452 1.726 1.726 0 000-3.452zm-4.602 0a1.726 1.726 0 100 3.452 1.726 1.726 0 000-3.452z" fill="#1d74f5"/><path d="M55.75 41.205h-31.5c-1.243 0-2.25-1.03-2.25-2.302v-4.602C22 33.031 23.007 32 24.25 32h31.5c1.243 0 2.25 1.03 2.25 2.301v4.602c0 1.271-1.007 2.302-2.25 2.302zm0 18.409h-31.5c-1.243 0-2.25-1.03-2.25-2.301V52.71c0-1.27 1.007-2.3 2.25-2.3h31.5c1.243 0 2.25 1.03 2.25 2.3v4.602c0 1.271-1.007 2.302-2.25 2.302z" fill="#f2f7fb" fill-rule="nonzero"/><path d="M33.75 18.41H2.25C1.007 18.41 0 17.378 0 16.107v-4.602c0-1.271 1.007-2.301 2.25-2.301h31.5c1.243 0 2.25 1.03 2.25 2.3v4.603c0 1.27-1.007 2.301-2.25 2.301z" fill="url(#c)" transform="translate(22 32)"/><path d="M53.065 34.876a1.726 1.726 0 100 3.452 1.726 1.726 0 000-3.452zm-4.602 0a1.726 1.726 0 100 3.452 1.726 1.726 0 000-3.452zm4.602 9.205a1.726 1.726 0 100 3.452 1.726 1.726 0 000-3.452zm-4.602 0a1.726 1.726 0 100 3.452 1.726 1.726 0 000-3.452zm4.602 9.205a1.726 1.726 0 100 3.451 1.726 1.726 0 000-3.451zm-4.602 0a1.726 1.726 0 100 3.451 1.726 1.726 0 000-3.451z" fill="#1d74f5"/></g><g fill="#1867de" mask="url(#b)"><path d="M54.737 65s10.737-3.63 10.737-14.22v-8.169a36.582 36.582 0 00-21.474 0v8.169C44 61.37 54.737 65 54.737 65z"/></g><path d="M59.839 49.338a.94.94 0 01-.157 1.239l-5.967 5.213a1 1 0 01-1.488-.195L50.143 52.5a.91.91 0 01.161-1.198.72.72 0 011.066.143l1.777 2.64 5.591-4.885a.742.742 0 011.1.14z" fill="#e7ebf2" fill-rule="nonzero" mask="url(#b)"/></g></svg>