<svg height="84" viewBox="0 0 84 84" width="84" xmlns="http://www.w3.org/2000/svg"><g fill="none" fill-rule="evenodd"><circle cx="42" cy="42" fill="#a3b4cc" r="32"/><path d="M35.714 24.857h39.048v28.571H35.714z" fill="#ecf0f4"/><g fill="#1d74f5" fill-rule="nonzero"><path d="M55.714 46.762a7.62 7.62 0 11.001-15.24 7.62 7.62 0 010 15.24zm-1.511-5.852l-1.709-1.718a.71.71 0 00-1.007 0 .716.716 0 000 1.01l2.132 2.144a.828.828 0 001.167.007l5.037-4.943a.71.71 0 00.006-1.007.717.717 0 00-1.01-.007z"/><path d="M37.43 22c-2.269 0-4.106 1.877-4.106 4.192v29.07H30v1.115C30 59.482 32.464 62 35.504 62h39.898a5.492 5.492 0 001.637-.253c.171-.056.34-.12.505-.189a5.437 5.437 0 00.935-.518 5.552 5.552 0 001.63-1.747h.001a5.707 5.707 0 00.686-1.78 5.65 5.65 0 00.113-1.133v-1.114h-3.326V26.195c0-2.315-1.838-4.192-4.105-4.192H38.782L37.429 22zm0 3.184h36.048a1 1 0 01.988 1.008V52.08H36.443V26.192a.998.998 0 01.986-1.008z"/></g></g></svg>