<svg height="367" viewBox="0 0 431 367" width="431" xmlns="http://www.w3.org/2000/svg"><linearGradient id="a" x1="50%" x2="50%" y1="0%" y2="100.001%"><stop offset="0" stop-color="#00b2ff"/><stop offset="1" stop-color="#006aff"/></linearGradient><mask id="b" fill="#fff"><path d="M0 .025h39.568V29.7H0z" fill-rule="evenodd"/></mask><mask id="c" fill="#fff"><path d="M20.99.019C9.399.019 0 9.399 0 20.97s9.398 20.951 20.99 20.951c11.594 0 20.991-9.38 20.991-20.951S32.584.019 20.991.019z" fill-rule="evenodd"/></mask><g fill="none" fill-rule="evenodd"><path d="M171 49h175c16.569 0 30 14.55 30 32.5S362.569 114 346 114H101" stroke="#35363e" stroke-dasharray="4" stroke-linecap="round" stroke-linejoin="round" stroke-width="2"/><ellipse cx="163" cy="49.005" rx="4" ry="3.905" stroke="#35363e" stroke-width="2"/><path d="M388.725 89.326c-1.63-1.446-1.488-1.61-1.025-2.143.273-.34.569-.678.867-1.02 1.071-1.219 2.282-2.603 2.769-4.42 2.355-8.79-3.291-17.963-12.583-20.453s-18.767 2.632-21.122 11.422c-2.475 9.234 3.623 18.051 14.496 20.965l.37.1.433.117c6.006 1.609 14.078 3.225 17.098-.196 1.595-1.806-.361-3.539-1.303-4.372" fill="#1d74f5"/><g fill="#fff" transform="rotate(15 -32.522 1403.037)"><rect height="5" rx="2.5" width="13" x="7.711" y="17.789"/><rect height="5" rx="2.5" width="19" x="7.987" y="10.699"/></g><g transform="translate(215 29)"><circle cx="20" cy="20" fill="#1da1f3" r="20"/><path d="M28.739 17.237c.014.186.014.372.014.558 0 5.67-4.537 12.205-12.83 12.205-2.554 0-4.927-.704-6.923-1.926a9.8 9.8 0 001.089.053 9.327 9.327 0 005.598-1.832c-1.983-.04-3.644-1.275-4.216-2.975.279.04.558.066.851.066.405 0 .81-.053 1.187-.146-2.066-.399-3.616-2.125-3.616-4.21v-.053c.6.318 1.299.518 2.038.544-1.214-.77-2.01-2.085-2.01-3.573 0-.796.224-1.527.614-2.164 2.22 2.603 5.556 4.303 9.297 4.489a4.617 4.617 0 01-.111-.983c0-2.364 2.01-4.29 4.509-4.29 1.298 0 2.47.518 3.294 1.355a9.158 9.158 0 002.862-1.036c-.335.996-1.047 1.833-1.982 2.364A9.405 9.405 0 0031 15.019a9.45 9.45 0 01-2.261 2.218z" fill="#fff" fill-rule="nonzero"/></g><g stroke="#35363e" stroke-width="2"><path d="M305 185H60c-16.569 0-30-13.431-30-30s13.431-30 30-30h245zm11.195 133H69.5C49.894 318 34 302.106 34 282.5S49.894 247 69.5 247h230" stroke-dasharray="4" stroke-linecap="round" stroke-linejoin="round"/><ellipse cx="324" cy="317.905" rx="4" ry="3.905"/><path d="M121 164h245c16.569 0 30 13.431 30 30s-13.431 30-30 30H121z" stroke-dasharray="4" stroke-linecap="round" stroke-linejoin="round"/></g><g transform="translate(87 97)"><path d="M7.294 0h250.412C261.735 0 265 3.25 265 7.259V165.74c0 4.01-3.265 7.259-7.294 7.259H7.294C3.265 173 0 169.75 0 165.741V7.26C0 3.249 3.265 0 7.294 0z" fill="#fff"/><path d="M7.1 0H71v173H7.1c-3.921 0-7.1-3.25-7.1-7.259V7.26C0 3.249 3.179 0 7.1 0z" fill="#1d74f5"/><path d="M71 22h194v1H71z" fill="#c6c7ca" opacity=".23"/><rect fill="#fff" height="8" rx="1" width="8" x="8" y="8"/><rect fill="#d8d8d8" height="12" opacity=".48" rx="1" width="12" x="76" y="6"/><rect fill="#d8d8d8" height="4" opacity=".48" rx="1" width="30" x="91" y="8"/><rect fill="#d8d8d8" height="2" opacity=".48" rx="1" width="20" x="91" y="14"/><rect fill="#fff" height="8" rx="1" width="8" x="8" y="34"/><g fill="#d8d8d8" opacity=".48"><rect height="8" rx="1" width="8" x="77" y="29"/><rect height="3" rx="1" width="15" x="88" y="29"/><rect height="3" rx="1" width="160" x="88" y="35"/><rect height="3" rx="1" width="160" x="88" y="41"/><rect height="3" rx="1" width="80" x="88" y="47"/></g><g fill="#d8d8d8" opacity=".48"><rect height="8" rx="1" width="8" x="77" y="116"/><rect height="3" rx="1" width="15" x="88" y="116"/><rect height="3" rx="1" width="160" x="88" y="122"/><rect height="3" rx="1" width="160" x="88" y="128"/><rect height="3" rx="1" width="78" x="88" y="134"/></g><g fill="#d8d8d8" opacity=".48"><rect height="8" rx="1" width="8" x="77" y="58"/><rect height="3" rx="1" width="15" x="88" y="58"/><rect height="3" rx="1" width="160" x="88" y="64"/><rect height="3" rx="1" width="78.396" x="88" y="70"/></g><g fill="#d8d8d8" opacity=".48"><rect height="8" rx="1" width="8" x="77" y="145"/><rect height="3" rx="1" width="15" x="88" y="145"/><rect height="3" rx="1" width="160" x="88" y="151"/><rect height="3" rx="1" width="78.396" x="88" y="157"/></g><g fill="#d8d8d8" opacity=".48"><rect height="8" rx="1" width="8" x="77" y="81"/><rect height="3" rx="1" width="15" x="88" y="81"/><rect height="3" rx="1" width="160" x="88" y="87"/><rect height="3" rx="1" width="160" x="88" y="93"/><rect height="3" rx="1" width="160" x="88" y="99"/><rect height="3" rx="1" width="130" x="88" y="105"/></g><rect fill="#fff" height="8" rx="1" width="8" x="8" y="94"/><rect fill="#fff" height="8" rx="1" width="8" x="8" y="106"/><rect fill="#fff" height="8" rx="1" width="8" x="8" y="118"/><rect fill="#fff" height="8" rx="1" width="8" x="8" y="130"/><rect fill="#fff" height="8" rx="1" width="8" x="8" y="142"/><rect fill="#d8d8d8" height="2" opacity=".564" rx="1" width="17" x="8" y="88"/><g fill="#fff"><rect height="4" opacity=".564" rx="1" width="43" x="20" y="96"/><rect height="4" opacity=".564" rx="1" width="43" x="20" y="108"/><rect height="4" opacity=".564" rx="1" width="43" x="20" y="120"/><rect height="4" opacity=".564" rx="1" width="43" x="20" y="132"/><rect height="4" opacity=".564" rx="1" width="43" x="20" y="144"/><rect height="8" rx="1" width="8" x="8" y="154"/><rect height="4" opacity=".564" rx="1" width="43" x="20" y="156"/><rect height="8" rx="1" width="8" x="8" y="46"/><rect height="8" rx="1" width="8" x="8" y="58"/><rect height="8" rx="1" width="8" x="8" y="70"/><rect height="2" opacity=".564" rx="1" width="17" x="8" y="28"/><rect height="4" opacity=".564" rx="1" width="43" x="20" y="36"/><rect height="4" opacity=".564" rx="1" width="43" x="20" y="48"/><rect height="4" opacity=".564" rx="1" width="43" x="20" y="60"/><rect height="4" opacity=".564" rx="1" width="43" x="20" y="72"/><rect height="6" opacity=".564" rx="1" width="6" x="28" y="9"/><rect height="6" opacity=".564" rx="1" width="6" x="38" y="9"/><rect height="6" opacity=".564" rx="1" width="6" x="47" y="9"/><rect height="6" opacity=".564" rx="1" width="6" x="57" y="9"/></g></g><g fill-rule="nonzero"><path d="M209.009 303.813A19.672 19.672 0 00194.99 298c-10.929 0-19.821 8.893-19.821 19.821 0 3.491.91 6.902 2.642 9.911L175 338l10.509-2.759a19.761 19.761 0 009.473 2.41h.01c10.919 0 20.008-8.892 20.008-19.82 0-5.295-2.25-10.269-5.991-14.019z" fill="#fff"/><path d="M195.407 334c-2.953 0-5.843-.796-8.36-2.297l-.595-.358-6.207 1.636 1.654-6.087-.391-.626a16.5 16.5 0 01-2.508-8.777c0-9.09 7.363-16.491 16.416-16.491a16.22 16.22 0 0111.595 4.836c3.095 3.119 4.998 7.257 4.989 11.664 0 9.1-7.55 16.5-16.593 16.5z" fill="#24d366"/><path d="M203.996 322.513c-.488-.254-2.91-1.47-3.363-1.634-.452-.172-.78-.254-1.109.254-.328.509-1.269 1.634-1.561 1.979-.284.336-.577.381-1.065.127-2.893-1.48-4.791-2.64-6.699-5.99-.506-.889.506-.826 1.446-2.75.16-.335.08-.626-.044-.88s-1.109-2.731-1.517-3.739c-.4-.98-.808-.844-1.11-.862-.283-.018-.611-.018-.94-.018-.328 0-.86.127-1.313.626-.452.508-1.721 1.724-1.721 4.202s1.766 4.873 2.005 5.21c.249.335 3.47 5.417 8.411 7.604 3.123 1.38 4.348 1.498 5.91 1.262.949-.146 2.91-1.217 3.317-2.396.409-1.18.409-2.187.284-2.396-.115-.227-.443-.354-.931-.6z" fill="#fff"/></g><path d="M22 .982C9.606.982 0 10.06 0 22.322c0 6.415 2.63 11.957 6.91 15.786.358.323.575.77.593 1.253l.12 3.913a1.763 1.763 0 002.47 1.558l4.364-1.926a1.755 1.755 0 011.173-.088c2.005.553 4.143.845 6.37.845 12.394 0 22-9.079 22-21.34C44 10.06 34.394.982 22 .982z" fill="url(#a)" transform="translate(70 293)"/><path d="M79.173 321.413l6.52-9.979c1.037-1.586 3.26-1.982 4.815-.857l5.185 3.752c.478.345 1.13.34 1.604-.004l7.003-5.127c.933-.685 2.157.396 1.527 1.353l-6.516 9.975c-1.036 1.585-3.26 1.982-4.815.857l-5.185-3.753a1.372 1.372 0 00-1.603.004l-7.008 5.132c-.933.685-2.157-.396-1.527-1.353z" fill="#fff"/><path d="M416.952 179.817l-14.457 39.72c-1.013 2.784-4.103 4.217-6.898 3.199l-21.482-7.819c-2.795-1.017-4.24-4.1-3.228-6.884l14.457-39.72c1.013-2.784 4.103-4.217 6.898-3.2l21.482 7.82c2.795 1.017 4.241 4.1 3.228 6.884z" fill="#b0b8be" fill-rule="nonzero"/><path d="M412.963 178.365a1.145 1.145 0 00-.685-1.46l-21.481-7.82a1.146 1.146 0 00-1.464.68l-14.457 39.72a1.146 1.146 0 00.685 1.46l21.481 7.819c.59.215 1.25-.091 1.464-.679z" fill="#fff" fill-rule="nonzero"/><path d="M410.356 202.819c-.947-1.023-.848-1.12-.522-1.444.195-.205.404-.41.614-.617.754-.735 1.608-1.57 2.028-2.723 2.03-5.58-1-11.82-6.752-13.914s-12.084.74-14.115 6.32c-2.133 5.86 1.205 11.893 7.937 14.343l.229.084.268.098c3.718 1.353 8.748 2.818 10.875.755 1.123-1.09-.014-2.314-.562-2.902" fill="#1d74f5"/><g fill="#fff" transform="rotate(20 -313.688 1211.066)"><rect height="3.313" rx="1.656" width="8.409" x="5.045" y="11.594"/><rect height="3.313" rx="1.656" width="11.773" x="5.045" y="6.625"/></g><path d="M391.888 210.487a3.744 3.744 0 01-4.808 2.229 3.744 3.744 0 01-2.25-4.799 3.744 3.744 0 014.808-2.23 3.744 3.744 0 012.25 4.8z" fill="#b0b8be" fill-rule="nonzero"/><g fill-rule="nonzero"><path d="M11.472 155.4l16.663-16.136 22.287 6.425 4.145 16.624-38.95 9.711z" fill="#0543a0"/><path d="M12.536 140.396l30.563-7.62c.673-.168 1.357.234 1.521.893l5.228 20.966c.164.659-.252 1.335-.924 1.503l-30.563 7.62c-.673.168-1.357-.234-1.522-.893l-5.227-20.966c-.164-.659.251-1.335.924-1.503z" fill="#efefef"/><path d="M55.577 166.364c.245.984-.375 1.994-1.38 2.245l-35.298 8.8c-1.004.251-2.026-.35-2.272-1.333L11.572 155.8l21.557 3.493 17.393-13.205 5.055 20.275z" fill="#3888ff"/><path d="M55.577 166.364c.245.984-.375 1.994-1.38 2.245l-35.298 8.8c-1.004.251-2.026-.35-2.272-1.333l-.892-3.578 34.787-26.409z" fill="#1d74f5"/><path d="M21.979 147.17l.567 1.236-2.723-2.603-1.667 5.01c.07.41 1.916.278 4.113-.27 2.197-.547 3.889-1.297 3.789-1.7l-3.312-3.014-.767 1.34zm-.18-1.761a.783.783 0 00.57-.963.783.783 0 00-.955-.582.783.783 0 00-.57.962.783.783 0 00.955.583zm6.177-1.868l12.203-3.043a.635.635 0 00.456-.77.635.635 0 00-.764-.466l-12.203 3.042a.635.635 0 00-.456.77c.085.34.428.55.764.467zm12.511-1.807l-12.203 3.043a.635.635 0 00-.456.77c.085.34.429.55.764.466l12.204-3.043a.635.635 0 00.456-.77.635.635 0 00-.765-.466zm-2.434 3.233l-9.152 2.282a.635.635 0 00-.456.77c.084.34.428.55.764.466l9.152-2.282a.635.635 0 00.456-.77.635.635 0 00-.764-.466z" fill="#b0b8be"/></g><path d="M39.568 1.35s-5.307-3.029-11.707.073a15.888 15.888 0 00-3.292 2.359c-2.371-.497-7.553-.42-9.57 0a15.892 15.892 0 00-3.292-2.36C5.307-1.677 0 1.35 0 1.35s4.895 4.022 4.14 7.565C1.904 11.113.484 14.086.723 17.265c.23 3.03 1.946 5.702 4.227 7.63 4.598 3.888 11.103 5.162 16.979 4.722 5.148-.385 10.692-2.202 14.188-6.187 1.762-2.008 2.85-4.562 2.748-7.259-.105-2.786-1.474-5.327-3.437-7.256-.756-3.543 4.14-7.565 4.14-7.565" fill="#c1272d" mask="url(#b)" transform="rotate(-22 699.999 102.745)"/><path d="M40.921 287.325c-8.38 3.385-16.926 1.79-19.089-3.562-2.163-5.353 2.878-12.437 11.257-15.823a24.734 24.734 0 015.55-1.533c.862-2.697 3.42-6.995 7.372-7.536-.66 1.724-1.533 4.54.246 7.876 2.824.804 4.98 2.423 5.921 4.755 2.163 5.353-2.877 12.437-11.257 15.823" fill="#fff"/><path d="M36.023 281.003a2.174 2.174 0 114.03-1.628 2.174 2.174 0 01-4.03 1.628m-8.457-.753a2.174 2.174 0 114.03-1.63 2.174 2.174 0 01-4.03 1.63m14.016-5.664a2.174 2.174 0 114.031-1.629 2.174 2.174 0 01-4.03 1.63" fill="#c1272d"/><path d="M20.99.019C9.399.019 0 9.399 0 20.97s9.398 20.951 20.99 20.951c11.594 0 20.991-9.38 20.991-20.951S32.584.019 20.991.019z" fill="#2399d6" mask="url(#c)" transform="translate(266 296.06)"/><path d="M297.204 308.13l-3.749 18.868s-.524 1.308-1.966.68l-8.652-6.62-3.146-1.518-5.296-1.78s-.812-.287-.891-.915.918-.969.918-.969l21.052-8.243s1.73-.758 1.73.498" fill="#fefefe"/><path d="M282.172 326.786s-.252-.024-.567-1.018c-.314-.994-1.914-6.228-1.914-6.228l12.716-8.06s.734-.445.707 0c0 0 .132.079-.262.445-.393.366-9.988 8.976-9.988 8.976" fill="#d2e5f1"/><path d="M286.155 323.596l-3.423 3.114s-.267.203-.56.076l.656-5.785" fill="#b5d0e4"/></g></svg>