<svg height="84" viewBox="0 0 84 84" width="84" xmlns="http://www.w3.org/2000/svg" xmlns:xlink="http://www.w3.org/1999/xlink"><defs><path id="a" d="M7.244 36.895c0 .477.14.945.404 1.343l1.289 1.95a2.408 2.408 0 002.009 1.083h4.653c.808 0 1.562-.407 2.01-1.084l1.288-1.95a2.44 2.44 0 00.404-1.342l.003-5.321H7.24z"/><mask id="b" fill="#fff"><use fill-rule="evenodd" xlink:href="#a"/></mask></defs><g fill="none" fill-rule="evenodd"><circle cx="32" cy="32" fill="#a3b4cc" r="32" transform="translate(10 10)"/><g transform="translate(29 22)"><path d="M13.23 0C5.539.024 0 6.297 0 13.358c0 3.368 1.24 6.44 3.285 8.788 1.246 1.43 3.204 6.847 3.947 9.369l.008.059 12.056.059.008-.06c.743-2.52 2.71-7.997 3.956-9.427a13.333 13.333 0 003.284-8.788C26.544 5.966 20.58-.022 13.231 0z" fill="#fff"/><path d="M11.533 6.786c-2.641 0-4.79 2.164-4.79 4.822a.961.961 0 01-.959.965.961.961 0 01-.958-.965c0-3.722 3.009-6.75 6.707-6.75a.96.96 0 01.959.964.961.961 0 01-.959.964z" fill="#cfd8e6" fill-rule="nonzero"/><use fill="#1d74f5" xlink:href="#a"/><path d="M14.5 37h5a.5.5 0 110 1h-5a.5.5 0 110-1zm0-2h5a.5.5 0 110 1h-5a.5.5 0 110-1zm0-2h5a.5.5 0 110 1h-5a.5.5 0 110-1z" fill="#4f96ff" mask="url(#b)"/></g><rect fill="#1d74f5" height="12" rx="1" width="2" x="41" y="7"/><rect fill="#f3f5f8" height="7" rx="1" transform="rotate(24.635 51.368 18.143)" width="2" x="50.368" y="14.643"/><rect fill="#f3f5f8" height="7" rx="1" transform="scale(-1 1) rotate(24.635 -46.507 -69.876)" width="2" x="1.958" y=".772"/><g fill="#1d74f5"><rect height="13" rx="1" transform="scale(-1 1) rotate(45.728 -22.21 -28.367)" width="2" x="10.942" y=".185"/><rect height="13" rx="1" transform="rotate(45.728 60.352 20.555)" width="2" x="59.352" y="14.055"/></g></g></svg>