<svg height="84" viewBox="0 0 84 84" width="84" xmlns="http://www.w3.org/2000/svg" xmlns:xlink="http://www.w3.org/1999/xlink"><defs><linearGradient id="a"><stop offset="0" stop-color="#c2cddd"/><stop offset="1" stop-color="#e0e7ef"/></linearGradient><linearGradient id="d" x1="50%" x2="50%" xlink:href="#a" y1="95.558%" y2="72.203%"/><linearGradient id="e" x1="100%" x2="78.616%" xlink:href="#a" y1="50%" y2="50%"/><linearGradient id="f" x1="100%" x2="0%" xlink:href="#a" y1="50%" y2="50%"/><circle id="b" cx="42" cy="42" r="32"/><mask id="c" fill="#fff"><use fill-rule="evenodd" xlink:href="#b"/></mask></defs><g fill="none" fill-rule="evenodd"><use fill="#a3b4cc" xlink:href="#b"/><path d="M33 52.143c0-.631.448-1.143 1-1.143s1 .512 1 1.143v13.714c0 .631-.448 1.143-1 1.143s-1-.512-1-1.143z" fill="#ecf0f4" fill-rule="nonzero" mask="url(#c)" transform="matrix(1 0 0 -1 0 118)"/><path d="M33 52.143c0-.631.448-1.143 1-1.143s1 .512 1 1.143v13.714c0 .631-.448 1.143-1 1.143s-1-.512-1-1.143z" fill="url(#d)" mask="url(#c)" transform="matrix(1 0 0 -1 0 118)"/><path d="M33 21.357c0-.75.448-1.357 1-1.357s1 .608 1 1.357v16.286c0 .75-.448 1.357-1 1.357s-1-.608-1-1.357z" fill="url(#d)" mask="url(#c)"/><path d="M53.004 65c.55 0 .996.448.996 1s-.446 1-.996 1H12.996A.998.998 0 0112 66c0-.552.446-1 .996-1z" fill="#ecf0f4" fill-rule="nonzero" mask="url(#c)" transform="matrix(1 0 0 -1 0 132)"/><path d="M55.933 65c.59 0 1.067.448 1.067 1s-.478 1-1.067 1H13.067c-.59 0-1.067-.448-1.067-1s.478-1 1.067-1z" fill="url(#e)" mask="url(#c)" transform="matrix(1 0 0 -1 0 132)"/><path d="M55.933 20c.59 0 1.067.448 1.067 1s-.478 1-1.067 1H13.067c-.59 0-1.067-.448-1.067-1s.478-1 1.067-1z" fill="url(#e)" mask="url(#c)" transform="matrix(1 0 0 -1 0 42)"/><g fill="#1d74f5"><rect height="4" mask="url(#c)" rx="1" width="8" x="30" y="64"/><rect height="4" mask="url(#c)" rx="1" width="8" x="30" y="19"/><path d="M76.125 63.125h-19.25c-.76 0-1.375-.63-1.375-1.406v-2.813c0-.776.616-1.406 1.375-1.406h19.25c.76 0 1.375.63 1.375 1.406v2.813c0 .776-.616 1.406-1.375 1.406zm0 11.25h-19.25c-.76 0-1.375-.63-1.375-1.406v-2.813c0-.776.616-1.406 1.375-1.406h19.25c.76 0 1.375.63 1.375 1.406v2.813c0 .776-.616 1.406-1.375 1.406z" fill-rule="nonzero"/></g><path d="M76.125 68.75h-19.25c-.76 0-1.375-.63-1.375-1.406V64.53c0-.776.616-1.406 1.375-1.406h19.25c.76 0 1.375.63 1.375 1.406v2.813c0 .776-.616 1.406-1.375 1.406z" fill="#306bc4"/><path d="M74.484 59.258a1.055 1.055 0 100 2.11 1.055 1.055 0 000-2.11zm-2.812 0a1.055 1.055 0 100 2.11 1.055 1.055 0 000-2.11zm2.812 5.625a1.055 1.055 0 100 2.11 1.055 1.055 0 000-2.11zm-2.812 0a1.055 1.055 0 100 2.11 1.055 1.055 0 000-2.11zm2.812 5.625a1.055 1.055 0 100 2.11 1.055 1.055 0 000-2.11zm-2.812 0a1.055 1.055 0 100 2.11 1.055 1.055 0 000-2.11z" fill="#f2f7fb"/><path d="M76.125 18.125h-19.25c-.76 0-1.375-.63-1.375-1.406v-2.813c0-.776.616-1.406 1.375-1.406h19.25c.76 0 1.375.63 1.375 1.406v2.813c0 .776-.616 1.406-1.375 1.406zm0 11.25h-19.25c-.76 0-1.375-.63-1.375-1.406v-2.813c0-.776.616-1.406 1.375-1.406h19.25c.76 0 1.375.63 1.375 1.406v2.813c0 .776-.616 1.406-1.375 1.406z" fill="#1d74f5" fill-rule="nonzero"/><path d="M76.125 23.75h-19.25c-.76 0-1.375-.63-1.375-1.406V19.53c0-.776.616-1.406 1.375-1.406h19.25c.76 0 1.375.63 1.375 1.406v2.813c0 .776-.616 1.406-1.375 1.406z" fill="#306bc4"/><path d="M74.484 14.258a1.055 1.055 0 100 2.11 1.055 1.055 0 000-2.11zm-2.812 0a1.055 1.055 0 100 2.11 1.055 1.055 0 000-2.11zm2.812 5.625a1.055 1.055 0 100 2.11 1.055 1.055 0 000-2.11zm-2.812 0a1.055 1.055 0 100 2.11 1.055 1.055 0 000-2.11zm2.812 5.625a1.055 1.055 0 100 2.11 1.055 1.055 0 000-2.11zm-2.812 0a1.055 1.055 0 100 2.11 1.055 1.055 0 000-2.11z" fill="#f2f7fb"/><path d="M43.625 40.625h-19.25c-.76 0-1.375-.63-1.375-1.406v-2.813c0-.776.616-1.406 1.375-1.406h19.25c.76 0 1.375.63 1.375 1.406v2.813c0 .776-.616 1.406-1.375 1.406zm0 11.25h-19.25c-.76 0-1.375-.63-1.375-1.406v-2.813c0-.776.616-1.406 1.375-1.406h19.25c.76 0 1.375.63 1.375 1.406v2.813c0 .776-.616 1.406-1.375 1.406z" fill="#f2f7fb" fill-rule="nonzero"/><path d="M20.625 11.25H1.375C.615 11.25 0 10.62 0 9.844V7.03c0-.776.616-1.406 1.375-1.406h19.25c.76 0 1.375.63 1.375 1.406v2.813c0 .776-.616 1.406-1.375 1.406z" fill="url(#f)" transform="translate(23 35)"/><path d="M41.984 36.758a1.055 1.055 0 100 2.11 1.055 1.055 0 000-2.11zm-2.812 0a1.055 1.055 0 100 2.11 1.055 1.055 0 000-2.11zm2.812 5.625a1.055 1.055 0 100 2.11 1.055 1.055 0 000-2.11zm-2.812 0a1.055 1.055 0 100 2.11 1.055 1.055 0 000-2.11zm2.812 5.625a1.055 1.055 0 100 2.11 1.055 1.055 0 000-2.11zm-2.812 0a1.055 1.055 0 100 2.11 1.055 1.055 0 000-2.11z" fill="#1d74f5"/></g></svg>