<svg height="84" viewBox="0 0 84 84" width="84" xmlns="http://www.w3.org/2000/svg" xmlns:xlink="http://www.w3.org/1999/xlink"><defs><linearGradient id="c" x1="100%" x2="0%" y1="50%" y2="50%"><stop offset="0" stop-color="#c2cddd"/><stop offset="1" stop-color="#e0e7ef"/></linearGradient><circle id="a" cx="32" cy="32" r="32"/><mask id="b" fill="#fff"><use fill-rule="evenodd" xlink:href="#a"/></mask></defs><g fill="none" fill-rule="evenodd" transform="translate(10 10)"><use fill="#a3b4cc" xlink:href="#a"/><rect fill="#ecf0f4" height="42.667" mask="url(#b)" rx="2" width="70.667" x="-1.333" y="10.667"/><path d="M.667 10.667h66.666a2 2 0 012 2v6H-1.333v-6a2 2 0 012-2z" fill="#dfe6ee" mask="url(#b)"/><rect fill="#ecf0f4" height="42.667" rx="2" width="60" x="8" y="10.667"/><path d="M51.737 47s10.737-3.63 10.737-14.22v-8.169a36.582 36.582 0 00-21.474 0v8.169C41 43.37 51.737 47 51.737 47z" fill="#1867de"/><g fill="#fff"><path d="M47.568 28.705v2.567l1.735-.224v-2.375c0-.738.61-1.348 1.35-1.348h1.864c.739 0 1.35.61 1.35 1.348v2.375l1.735.224v-2.567c0-1.7-1.382-3.08-3.085-3.08h-1.864c-1.704-.032-3.085 1.38-3.085 3.08z"/><path d="M51.585 31.144h-.161l-4.403.546a1.387 1.387 0 00-1.221 1.38v5.358c0 .706.514 1.284 1.221 1.38l4.403.546h.321l4.403-.546a1.387 1.387 0 001.221-1.38V33.07c0-.706-.514-1.283-1.22-1.38l-4.404-.545h-.16zm.996 3.594a.957.957 0 01-.482.834l.29 2.086H50.78l.29-2.086a.957.957 0 01-.483-.834 1 1 0 01.997-.995c.546-.032.996.417.996.995z" fill-rule="nonzero"/></g><g fill="#1867de" transform="translate(9 23)"><rect height="4" opacity=".529" rx="2" width="26.667" y="5.333"/><rect height="4" opacity=".529" rx="2" width="16" y="12"/></g><path d="M8 10.667h58a2 2 0 012 2v6H8z" fill="url(#c)"/></g></svg>