<svg height="84" viewBox="0 0 84 84" width="84" xmlns="http://www.w3.org/2000/svg" xmlns:xlink="http://www.w3.org/1999/xlink"><defs><circle id="a" cx="32" cy="32" r="32"/><mask id="b" fill="#fff"><use fill-rule="evenodd" xlink:href="#a"/></mask></defs><g fill="none" fill-rule="evenodd"><g transform="translate(10 10)"><use fill="#a3b4cc" xlink:href="#a"/><g mask="url(#b)"><g transform="translate(9 9)"><circle cx="23" cy="23" fill="#fff" r="21.414"/><path d="M23 42.828c10.95 0 19.828-8.878 19.828-19.828S33.95 3.172 23 3.172 3.172 12.05 3.172 23 12.05 42.828 23 42.828zM23 46C10.297 46 0 35.703 0 23S10.297 0 23 0s23 10.297 23 23-10.297 23-23 23z" fill="#d3d3d3" fill-rule="nonzero"/><path d="M31.962 23.793c0-.476-.317-.793-.793-.793h-7.376v-9.517c0-.476-.317-.793-.793-.793s-.793.317-.793.793v10.31c0 .476.317.793.793.793h8.169a.795.795 0 00.793-.793z" fill="#1d74f5" fill-rule="nonzero"/><g fill="#d3d3d3"><g transform="translate(22.207)"><rect height="5.552" rx=".793" width="1.586"/><rect height="5.552" rx=".793" width="1.586" y="40.448"/></g><g transform="rotate(-90 12.293 12.293)"><rect height="5.552" rx=".793" width="1.586"/><rect height="5.552" rx=".793" width="1.586" y="40.448"/></g><g transform="rotate(-45 11.897 -3.806)"><rect height="5.552" rx=".793" width="1.586"/><rect height="5.552" rx=".793" width="1.586" y="40.448"/></g><g transform="scale(-1 1) rotate(-45 -11.103 51.72)"><rect height="5.552" rx=".793" width="1.586"/><rect height="5.552" rx=".793" width="1.586" y="40.448"/></g></g></g></g></g><g fill-rule="nonzero"><path d="M61.68 47.368h11.97L76 40.361a.8.8 0 00-.132-.922.86.86 0 00-.934-.205c-4.002 1.552-5.81.773-7.721-.056-1.908-.829-3.88-1.681-7.517.084a.827.827 0 00-.423.473.798.798 0 00.046.626l2.36 7.007z" fill="#1d74f5"/><path d="M73.651 47.368H61.68c-6.237 7.618-8.906 15.72-6.63 20.53.874 1.846 2.894 4.048 7.553 4.048h10.116c5.277 0 7.434-2.216 8.313-4.074 2.161-4.566-.74-12.5-7.38-20.504z" fill="#1d74f5"/><path d="M68.57 59.312l-.07-2.588c.7.07 1.33.35 1.96.77l.909-1.26c-.91-.63-1.82-.98-2.868-1.05v-.7h-.91v.7c-1.679.07-3.008 1.12-3.008 2.799 0 1.749 1.19 2.308 3.008 2.798v2.589c-.84-.14-1.609-.56-2.379-1.19l-.909 1.19c.98.84 2.099 1.399 3.358 1.469v.98h.91v-.98c1.748-.07 3.078-1.05 3.078-2.799s-1.33-2.308-3.078-2.728zm-.909-.28c-.77-.28-1.33-.49-1.33-1.26 0-.699.63-1.048 1.33-1.118zm.84 4.408v-2.45c.84.28 1.399.49 1.399 1.26.07.769-.63 1.119-1.4 1.189z" fill="#f3f5f8"/></g></g></svg>