<svg height="36" viewBox="0 0 36 36" width="36" xmlns="http://www.w3.org/2000/svg"><path d="M22 18.007a9.571 9.571 0 01-.614 3.378 9.566 9.566 0 01-3.38.615h-.013a9.567 9.567 0 01-3.378-.614A9.57 9.57 0 0114 18.007v-.014c0-1.189.219-2.327.614-3.377a9.575 9.575 0 013.38-.616h.013c1.19.001 2.328.22 3.379.616A9.577 9.577 0 0122 17.994zm11.778-2.674h-9.34l6.604-6.604a16.074 16.074 0 00-1.729-2.043v-.001a16.085 16.085 0 00-2.042-1.727l-6.604 6.604v-9.34A16.099 16.099 0 0018.008 2h-.017c-.89 0-1.78.075-2.658.222v9.34L8.73 4.958a16.075 16.075 0 00-2.043 1.728l-.002.002A16.08 16.08 0 004.958 8.73l6.604 6.604h-9.34S2 17.088 2 17.994v.012c0 .891.075 1.782.222 2.661h9.34l-6.604 6.604a16.091 16.091 0 003.771 3.771l6.604-6.604v9.34c.878.147 1.766.221 2.656.222h.023c.89 0 1.777-.075 2.655-.222v-9.34l6.604 6.604a16.083 16.083 0 002.042-1.728h.002a16.095 16.095 0 001.727-2.043l-6.604-6.604h9.34A16.18 16.18 0 0034 18.012v-.023c0-.89-.075-1.778-.222-2.655z" fill="#ff4a00"/></svg>