<svg height="512" viewBox="0 0 512 512" width="512" xmlns="http://www.w3.org/2000/svg"><g fill="none" fill-rule="evenodd"><path d="M441.294 207.948l.006.01c0-.002-.002-.004-.003-.005 0-.002-.002-.004-.003-.005zM158.175 58.286c15.16 8.421 29.49 19.076 41.729 30.918 19.727-3.573 40.069-5.375 60.705-5.375 61.776 0 120.344 16.208 164.907 45.629 23.077 15.244 41.42 33.33 54.512 53.761C494.608 205.986 502 230.468 502 256.701c0 25.528-7.391 50.02-21.972 72.781-13.093 20.442-31.435 38.523-54.512 53.767-44.563 29.42-103.126 45.619-164.907 45.619-20.636 0-40.973-1.802-60.705-5.37-12.243 11.837-26.569 22.497-41.729 30.918C77.173 494.989 10 455.37 10 455.37s62.453-53.03 52.297-99.517c-27.943-28.645-43.084-63.193-43.084-99.847 0-35.965 15.146-70.513 43.084-99.162C72.452 110.369 10.021 57.349 10 57.33c.02-.011 67.185-39.618 148.175.955z" fill="#db2323" fill-rule="nonzero"/><path d="M109.767 337.015c-27.8-21.943-44.486-50.023-44.486-80.629 0-70.23 87.863-127.162 196.247-127.162s196.247 56.933 196.247 127.162c0 70.23-87.863 127.162-196.247 127.162-26.712 0-52.178-3.458-75.39-9.721l-16.969 16.392c-9.22 8.907-20.028 16.968-31.293 23.32-14.931 7.344-29.676 11.351-44.264 12.574.823-1.498 1.58-3.017 2.394-4.517 17.004-31.373 21.59-59.566 13.76-84.58z" fill="#fff"/><path d="M167.642 284.775c-15.97 0-28.916-12.903-28.916-28.82s12.946-28.82 28.916-28.82 28.916 12.903 28.916 28.82-12.946 28.82-28.916 28.82zm93.096 0c-15.97 0-28.916-12.903-28.916-28.82s12.946-28.82 28.916-28.82 28.917 12.903 28.917 28.82-12.947 28.82-28.917 28.82zm93.097 0c-15.97 0-28.916-12.903-28.916-28.82s12.946-28.82 28.916-28.82 28.916 12.903 28.916 28.82-12.946 28.82-28.916 28.82z" fill="#db2323" fill-rule="nonzero"/></g></svg>