<?xml version="1.0" encoding="UTF-8"?>
<svg width="122px" height="24px" viewBox="0 0 122 24" version="1.1" xmlns="http://www.w3.org/2000/svg" xmlns:xlink="http://www.w3.org/1999/xlink">
    <!-- Generator: Sketch 49.1 (51147) - http://www.bohemiancoding.com/sketch -->
    <title>logo</title>
    <desc>Created with Sketch.</desc>
    <defs></defs>
    <g id="🎨-styleguide" stroke="none" stroke-width="1" fill="none" fill-rule="evenodd">
        <g id="08.-Components" transform="translate(-512.000000, -383.000000)" fill-rule="nonzero">
            <g id="top-nav" transform="translate(472.000000, 186.000000)">
                <g id="topbar" transform="translate(0.000000, 173.000000)">
                    <g id="logo" transform="translate(40.000000, 24.000000)">
                        <g id="Group" transform="translate(32.639501, 4.465116)" fill="#030C1A">
                            <path d="M7.38043274,7.03451163 C7.38043274,8.23367442 6.93324368,9.0212093 6.07457374,9.39683721 L7.3090164,14.0860465 C7.36257865,14.3012093 7.25545414,14.408093 7.05850125,14.408093 L5.19777074,14.408093 C5.01895092,14.408093 4.92968049,14.3187907 4.89369334,14.1574884 L3.69495886,9.61172093 L2.46051621,9.61172093 L2.46051621,14.1220465 C2.46051621,14.3012093 2.35339169,14.408093 2.17429289,14.408093 L0.313562383,14.408093 C0.134742554,14.408093 0.027339069,14.3006512 0.027339069,14.1220465 L0.027339069,0.376465116 C0.027339069,0.197581395 0.134742554,0.0901395349 0.313562383,0.0901395349 L4.80414394,0.0901395349 C6.48577566,0.0901395349 7.38043274,0.985116279 7.38043274,2.66734884 L7.38043274,7.03451163 Z M4.23169732,7.24911628 C4.69674046,7.24911628 4.9472556,6.99851163 4.9472556,6.53330233 L4.9472556,3.16855814 C4.9472556,2.70334884 4.69674046,2.45302326 4.23169732,2.45302326 L2.46051621,2.45302326 L2.46051621,7.24939535 L4.23169732,7.24911628 Z" id="Shape"></path>
                            <path d="M8.8107124,2.66734884 C8.8107124,0.985116279 9.70509051,0.0901395349 11.3870012,0.0901395349 L13.3908434,0.0901395349 C15.0724751,0.0901395349 15.9671322,0.985116279 15.9671322,2.66734884 L15.9671322,11.8308837 C15.9671322,13.5128372 15.0724751,14.407814 13.3908434,14.407814 L11.3870012,14.407814 C9.70509051,14.407814 8.8107124,13.5128372 8.8107124,11.8308837 L8.8107124,2.66734884 Z M12.9433753,12.0990698 C13.4084185,12.0990698 13.6589336,11.8663256 13.6589336,11.3832558 L13.6589336,3.11497674 C13.6589336,2.64976744 13.4084185,2.39916279 12.9433753,2.39916279 L11.9058856,2.39916279 C11.4408424,2.39916279 11.1903273,2.64976744 11.1903273,3.11497674 L11.1903273,11.3835349 C11.1903273,11.8663256 11.4408424,12.0990698 11.9058856,12.0990698 L12.9433753,12.0990698 Z" id="Shape"></path>
                            <path d="M24.9293253,4.60018605 C24.9293253,4.77934884 24.8219218,4.88651163 24.643381,4.88651163 L22.8543458,4.88651163 C22.6573929,4.88651163 22.5681225,4.77934884 22.5681225,4.60018605 L22.5681225,3.16855814 C22.5681225,2.70334884 22.3178863,2.45302326 21.8528431,2.45302326 L20.9224779,2.45302326 C20.4395807,2.45302326 20.2069196,2.70334884 20.2069196,3.16855814 L20.2069196,11.3302326 C20.2069196,11.8133023 20.4571558,12.0454884 20.9224779,12.0454884 L21.8528431,12.0454884 C22.3178863,12.0454884 22.5681225,11.8130233 22.5681225,11.3302326 L22.5681225,9.89804651 C22.5681225,9.71888372 22.6573929,9.61172093 22.8543458,9.61172093 L24.643381,9.61172093 C24.8227587,9.61172093 24.9293253,9.71888372 24.9293253,9.89804651 L24.9293253,11.8311628 C24.9293253,13.5131163 24.0168141,14.408093 22.3533155,14.408093 L20.3494733,14.408093 C18.6678416,14.408093 17.7553304,13.5131163 17.7553304,11.8311628 L17.7553304,2.66734884 C17.7553304,0.985116279 18.6678416,0.0901395349 20.3494733,0.0901395349 L22.3533155,0.0901395349 C24.0170931,0.0901395349 24.9293253,0.985116279 24.9293253,2.66734884 L24.9293253,4.60018605 Z" id="Shape"></path>
                            <path d="M32.478256,14.408093 C32.26317,14.408093 32.1384704,14.3187907 32.0664961,14.139907 L29.8126968,8.82418605 L29.1504218,10.0950698 L29.1504218,14.0500465 C29.1504218,14.2827907 29.0254432,14.408093 28.7927821,14.408093 L27.0751633,14.408093 C26.8425022,14.408093 26.7172446,14.2827907 26.7172446,14.0500465 L26.7172446,0.448186047 C26.7172446,0.21572093 26.8425022,0.0901395349 27.0751633,0.0901395349 L28.7927821,0.0901395349 C29.0251642,0.0901395349 29.1504218,0.21544186 29.1504218,0.448186047 L29.1504218,5.99637209 L31.9055304,0.358604651 C31.9950798,0.17972093 32.1206163,0.0901395349 32.3172902,0.0901395349 L34.1955959,0.0901395349 C34.4639651,0.0901395349 34.5713686,0.269302326 34.445832,0.519627907 L31.4047791,6.76576744 L34.642506,13.9964651 C34.7677635,14.2292093 34.66036,14.408093 34.3744157,14.408093 L32.478256,14.408093 Z" id="Shape"></path>
                            <path d="M43.0869306,2.1664186 C43.0869306,2.34530233 43.0152353,2.47060465 42.8007073,2.47060465 L38.3279798,2.47060465 L38.3279798,6.04995349 L41.7450845,6.04995349 C41.9244623,6.04995349 42.0313078,6.15739535 42.0313078,6.35413953 L42.0313078,8.12595349 C42.0313078,8.32297674 41.9239043,8.4304186 41.7450845,8.4304186 L38.3279798,8.4304186 L38.3279798,12.0454884 L42.8007073,12.0454884 C43.0157933,12.0454884 43.0869306,12.1350698 43.0869306,12.331814 L43.0869306,14.1217674 C43.0869306,14.3006512 43.0152353,14.4075349 42.8007073,14.4075349 L36.2170132,14.4075349 C36.0557684,14.4075349 35.948365,14.300093 35.948365,14.1217674 L35.948365,0.376465116 C35.948365,0.197581395 36.0557684,0.0901395349 36.2170132,0.0901395349 L42.8007073,0.0901395349 C43.0157933,0.0901395349 43.0869306,0.197581395 43.0869306,0.376465116 L43.0869306,2.1664186 Z" id="Shape"></path>
                            <path d="M51.3874067,0.0901395349 C51.5840806,0.0901395349 51.67363,0.197581395 51.67363,0.376465116 L51.67363,2.1664186 C51.67363,2.34530233 51.5840806,2.45274419 51.3874067,2.45274419 L49.3121482,2.45274419 L49.3121482,14.1217674 C49.3121482,14.3185116 49.2228778,14.4075349 49.0262039,14.4075349 L47.1654734,14.4075349 C46.9860956,14.4075349 46.87925,14.3185116 46.87925,14.1217674 L46.87925,2.45274419 L44.8042705,2.45274419 C44.6248927,2.45274419 44.5180472,2.34530233 44.5180472,2.1664186 L44.5180472,0.376465116 C44.5180472,0.197581395 44.6254507,0.0901395349 44.8042705,0.0901395349 L51.3874067,0.0901395349 Z" id="Shape"></path>
                            <path d="M51.4936943,12.4032558 C51.4936943,12.1705116 51.6189519,12.0454884 51.851613,12.0454884 L53.4796824,12.0454884 C53.7123435,12.0454884 53.8373221,12.1705116 53.8373221,12.4032558 L53.8373221,14.0494884 C53.8373221,14.2825116 53.7123435,14.4075349 53.4796824,14.4075349 L51.851613,14.4075349 C51.6189519,14.4075349 51.4936943,14.2825116 51.4936943,14.0494884 L51.4936943,12.4032558 Z" id="Shape"></path>
                            <path d="M62.8000732,4.60018605 C62.8000732,4.77934884 62.6923907,4.88651163 62.5138499,4.88651163 L60.7248147,4.88651163 C60.5281407,4.88651163 60.4388703,4.77934884 60.4388703,4.60018605 L60.4388703,3.16855814 C60.4388703,2.70334884 60.1886341,2.45302326 59.723591,2.45302326 L58.7932257,2.45302326 C58.3100495,2.45302326 58.0776675,2.70334884 58.0776675,3.16855814 L58.0776675,11.3302326 C58.0776675,11.8133023 58.3279036,12.0454884 58.7932257,12.0454884 L59.723591,12.0454884 C60.1886341,12.0454884 60.4388703,11.8130233 60.4388703,11.3302326 L60.4388703,9.89804651 C60.4388703,9.71888372 60.5281407,9.61172093 60.7248147,9.61172093 L62.5138499,9.61172093 C62.6932276,9.61172093 62.8000732,9.71888372 62.8000732,9.89804651 L62.8000732,11.8311628 C62.8000732,13.5131163 61.887562,14.408093 60.2237844,14.408093 L58.2199422,14.408093 C56.5383105,14.408093 55.6257993,13.5131163 55.6257993,11.8311628 L55.6257993,2.66734884 C55.6257993,0.985116279 56.5383105,0.0901395349 58.2199422,0.0901395349 L60.2237844,0.0901395349 C61.887841,0.0901395349 62.8000732,0.985116279 62.8000732,2.66734884 L62.8000732,4.60018605 Z" id="Shape"></path>
                            <path d="M69.3115141,0.376465116 C69.3115141,0.197581395 69.4186386,0.0901395349 69.5974584,0.0901395349 L71.4400559,0.0901395349 C71.6548628,0.0901395349 71.7438543,0.197581395 71.7438543,0.376465116 L71.7438543,14.1217674 C71.7438543,14.3006512 71.6545839,14.4075349 71.4400559,14.4075349 L69.5974584,14.4075349 C69.4180806,14.4075349 69.3115141,14.300093 69.3115141,14.1217674 L69.3115141,8.4304186 L67.0214486,8.4304186 L67.0214486,14.1220465 C67.0214486,14.3012093 66.9140451,14.408093 66.7352253,14.408093 L64.8929068,14.408093 C64.6778209,14.408093 64.5885504,14.3006512 64.5885504,14.1220465 L64.5885504,0.376465116 C64.5885504,0.197581395 64.6778209,0.0901395349 64.8929068,0.0901395349 L66.7352253,0.0901395349 C66.914603,0.0901395349 67.0214486,0.197581395 67.0214486,0.376465116 L67.0214486,6.06781395 L69.3115141,6.06781395 L69.3115141,0.376465116 Z" id="Shape"></path>
                            <path d="M79.9023346,14.408093 C79.7413689,14.408093 79.6520985,14.3187907 79.6161113,14.1574884 L79.11536,11.5448372 L75.9306374,11.5448372 L75.4480192,14.1574884 C75.412032,14.3187907 75.3227616,14.408093 75.1617959,14.408093 L73.2477821,14.408093 C73.0511081,14.408093 72.9615587,14.3006512 73.014842,14.103907 L75.9847576,0.340744186 C76.0207448,0.161860465 76.1278693,0.0901395349 76.288835,0.0901395349 L78.7758534,0.0901395349 C78.9368191,0.0901395349 79.0442226,0.161860465 79.0799308,0.340744186 L82.0498464,14.103907 C82.0858335,14.3006512 82.0141382,14.408093 81.7996102,14.408093 L79.9023346,14.408093 Z M77.5227197,3.22213953 L76.3778265,9.46827907 L78.667892,9.46827907 L77.5227197,3.22213953 Z" id="Shape"></path>
                            <path d="M88.7395492,0.0901395349 C88.9362231,0.0901395349 89.0257725,0.197581395 89.0257725,0.376465116 L89.0257725,2.1664186 C89.0257725,2.34530233 88.9362231,2.45274419 88.7395492,2.45274419 L86.6645696,2.45274419 L86.6645696,14.1217674 C86.6645696,14.3185116 86.5750202,14.4075349 86.3783463,14.4075349 L84.5176158,14.4075349 C84.338796,14.4075349 84.2316715,14.3185116 84.2316715,14.1217674 L84.2316715,2.45274419 L82.1566919,2.45274419 C81.9775931,2.45274419 81.8707476,2.34530233 81.8707476,2.1664186 L81.8707476,0.376465116 C81.8707476,0.197581395 81.9781511,0.0901395349 82.1566919,0.0901395349 L88.7395492,0.0901395349 Z" id="Shape"></path>
                        </g>
                        <path d="M28.0604856,11.9408372 C28.0604856,10.5368372 27.6406356,9.19088372 26.8123734,7.93925581 C26.0686392,6.816 25.0266859,5.82167442 23.7158054,4.98362791 C21.1844308,3.36613953 17.8574335,2.47506977 14.3482687,2.47506977 C13.1760364,2.47506977 12.0205423,2.57413953 10.8999194,2.77060465 C10.2047259,2.11953488 9.39069122,1.53376744 8.52951055,1.0707907 C3.92817786,-1.16009302 0.112424947,1.01832558 0.112424947,1.01832558 C0.112424947,1.01832558 3.6600876,3.93376744 3.08317745,6.4892093 C1.4961166,8.06427907 0.635772838,9.96362791 0.635772838,11.9408372 C0.635772838,11.9469767 0.636051809,11.9533953 0.636051809,11.959814 C0.636051809,11.9659535 0.635772838,11.972093 0.635772838,11.9787907 C0.635772838,13.956 1.49583763,15.8553488 3.08317745,17.4301395 C3.6600876,19.9858605 0.112424947,22.9013023 0.112424947,22.9013023 C0.112424947,22.9013023 3.92817786,25.0794419 8.52951055,22.8488372 C9.39069122,22.3858605 10.204447,21.799814 10.8999194,21.1490233 C12.0208212,21.3452093 13.1760364,21.4442791 14.3482687,21.4442791 C17.8577125,21.4442791 21.1844308,20.5537674 23.7158054,18.9362791 C25.0266859,18.0982326 26.0686392,17.104186 26.8123734,15.9803721 C27.6406356,14.7290233 28.0604856,13.3825116 28.0604856,11.9790698 C28.0604856,11.9726512 28.0602066,11.9665116 28.0602066,11.960093 C28.0602066,11.9536744 28.0604856,11.9469767 28.0604856,11.9408372 Z" id="Shape" fill="#C1272D"></path>
                        <path d="M14.3482687,4.46009302 C20.8463191,4.46009302 26.1143903,7.82623256 26.1143903,11.9785116 C26.1143903,16.1305116 20.8463191,19.4969302 14.3482687,19.4969302 C12.9012508,19.4969302 11.5156064,19.3294884 10.2354127,19.0244651 C8.93429615,20.5900465 6.07206301,22.7670698 3.29156811,22.0635349 C4.19598915,21.091814 5.53588249,19.4497674 5.24910124,16.7450233 C3.58253391,15.447907 2.58214717,13.7877209 2.58214717,11.9785116 C2.5818682,7.82595349 7.8499394,4.46009302 14.3482687,4.46009302" id="Shape" fill="#FFFFFF"></path>
                        <g id="Group" transform="translate(7.253222, 10.604651)" fill="#C1272D">
                            <ellipse id="Oval" cx="7.09504634" cy="1.61581395" rx="1.56306942" ry="1.56362791"></ellipse>
                            <ellipse id="Oval" cx="12.5293837" cy="1.61581395" rx="1.56306942" ry="1.56362791"></ellipse>
                            <ellipse id="Oval" cx="1.66042998" cy="1.61581395" rx="1.56279045" ry="1.56334884"></ellipse>
                        </g>
                        <path d="M14.3482687,18.5076279 C12.9012508,18.5076279 11.5156064,18.3625116 10.2354127,18.0979535 C9.08661382,19.2962791 6.7203895,20.9070698 4.2682424,20.847907 C3.94519503,21.3376744 3.59397169,21.7381395 3.29156811,22.0632558 C6.07206301,22.7667907 8.93429615,20.5900465 10.2354127,19.024186 C11.5156064,19.3294884 12.9015298,19.4966512 14.3482687,19.4966512 C20.7941516,19.4966512 26.0287464,16.183814 26.1121585,12.0775814 C26.0287464,15.6368372 20.7941516,18.5076279 14.3482687,18.5076279 Z" id="Shape" fill="#CCCCCC"></path>
                    </g>
                </g>
            </g>
        </g>
    </g>
</svg>