<svg height="182" viewBox="0 0 1000 182" width="1000" xmlns="http://www.w3.org/2000/svg"><g fill="none" fill-rule="evenodd"><path d="M307.726 88.43c0 10.158-3.79 16.83-11.07 20.011l10.465 39.721c.454 1.823-.454 2.728-2.124 2.728h-15.775c-1.516 0-2.273-.756-2.578-2.123l-10.163-38.506h-10.466v38.206c0 1.518-.908 2.423-2.427 2.423h-15.775c-1.516 0-2.427-.91-2.427-2.423V32.032c0-1.516.911-2.426 2.427-2.426h38.072c14.257 0 21.841 7.581 21.841 21.831zm-26.695 1.818c3.943 0 6.067-2.123 6.067-6.063V55.683c0-3.94-2.124-6.061-6.067-6.061h-15.016V90.25zm38.821-38.811c0-14.25 7.583-21.83 21.842-21.83h16.99c14.256 0 21.841 7.58 21.841 21.83v77.622c0 14.248-7.585 21.829-21.842 21.829h-16.989c-14.259 0-21.842-7.581-21.842-21.829zm35.037 79.894c3.943 0 6.067-1.971 6.067-6.063v-70.04c0-3.94-2.124-6.063-6.067-6.063h-8.795c-3.943 0-6.067 2.123-6.067 6.064v70.04c0 4.09 2.124 6.062 6.067 6.062zM456.507 67.81c0 1.517-.91 2.425-2.424 2.425h-15.168c-1.67 0-2.426-.908-2.426-2.425V55.683c0-3.94-2.122-6.061-6.065-6.061h-7.887c-4.094 0-6.067 2.12-6.067 6.06v69.136c0 4.092 2.122 6.06 6.067 6.06h7.887c3.943 0 6.065-1.97 6.065-6.06v-12.131c0-1.518.756-2.426 2.426-2.426h15.168c1.52 0 2.424.908 2.424 2.426v16.375c0 14.247-7.736 21.828-21.84 21.828H417.68c-14.257 0-21.994-7.58-21.994-21.828V51.437c0-14.25 7.737-21.83 21.994-21.83h16.988c14.106 0 21.84 7.58 21.84 21.83zm64 83.08c-1.823 0-2.88-.756-3.49-2.271l-19.108-45.029-5.615 10.766v33.501c0 1.972-1.06 3.033-3.032 3.033H474.7c-1.973 0-3.035-1.061-3.035-3.033V32.64c0-1.969 1.062-3.033 3.035-3.033h14.562c1.97 0 3.032 1.062 3.032 3.033v46.998l23.358-47.757c.759-1.515 1.823-2.274 3.49-2.274h15.925c2.275 0 3.186 1.518 2.122 3.638l-25.783 52.91 27.45 61.25c1.062 1.971.151 3.486-2.273 3.486zm89.941-103.696c0 1.515-.608 2.577-2.426 2.577h-37.92v30.32h28.97c1.52 0 2.427.91 2.427 2.576v15.009c0 1.669-.91 2.579-2.427 2.579h-28.97v30.622h37.92c1.823 0 2.426.759 2.426 2.426v15.162c0 1.515-.608 2.42-2.426 2.42h-55.817c-1.367 0-2.278-.91-2.278-2.42V32.032c0-1.516.91-2.426 2.278-2.426h55.817c1.823 0 2.426.91 2.426 2.426zm70.372-17.588c1.668 0 2.427.91 2.427 2.426v15.162c0 1.515-.76 2.425-2.427 2.425h-17.594v98.846c0 1.666-.757 2.42-2.424 2.42h-15.776c-1.52 0-2.426-.754-2.426-2.42V49.619h-17.592c-1.52 0-2.427-.91-2.427-2.425V32.032c0-1.516.911-2.426 2.427-2.426zm.92 104.332c0-1.971 1.063-3.03 3.035-3.03h13.803c1.973 0 3.032 1.059 3.032 3.03v13.945c0 1.974-1.06 3.033-3.032 3.033h-13.803c-1.972 0-3.034-1.059-3.034-3.033zm95.838-66.128c0 1.517-.913 2.425-2.427 2.425h-15.168c-1.667 0-2.424-.908-2.424-2.425V55.683c0-3.94-2.121-6.061-6.064-6.061h-7.888c-4.096 0-6.066 2.12-6.066 6.06v69.136c0 4.092 2.121 6.06 6.066 6.06h7.888c3.943 0 6.064-1.97 6.064-6.06v-12.131c0-1.518.757-2.426 2.424-2.426h15.168c1.52 0 2.427.908 2.427 2.426v16.375c0 14.247-7.737 21.828-21.842 21.828h-16.99c-14.256 0-21.992-7.58-21.992-21.828V51.437c0-14.25 7.736-21.83 21.993-21.83h16.989c14.108 0 21.842 7.58 21.842 21.83zm55.204-35.778c0-1.516.908-2.426 2.424-2.426h15.622c1.821 0 2.575.91 2.575 2.426v116.433c0 1.515-.756 2.42-2.575 2.42h-15.622c-1.52 0-2.424-.91-2.424-2.42v-48.21h-19.415v48.212c0 1.518-.91 2.423-2.427 2.423h-15.62c-1.823 0-2.58-.91-2.58-2.423V32.032c0-1.516.757-2.426 2.58-2.426h15.62c1.52 0 2.427.91 2.427 2.426v48.21h19.415zm89.79 118.858c-1.365 0-2.122-.756-2.427-2.123l-4.245-22.13h-27l-4.092 22.13c-.306 1.367-1.062 2.123-2.427 2.123h-16.227c-1.668 0-2.427-.91-1.975-2.576l25.18-116.585c.304-1.515 1.212-2.123 2.577-2.123h21.085c1.365 0 2.275.608 2.578 2.123l25.18 116.585c.304 1.666-.303 2.576-2.122 2.576zm-20.175-94.753l-9.706 52.91h19.415zm95.097-26.531c1.667 0 2.427.91 2.427 2.426v15.162c0 1.515-.76 2.425-2.427 2.425h-17.592v98.846c0 1.666-.759 2.42-2.426 2.42H961.7c-1.516 0-2.424-.754-2.424-2.42V49.619h-17.592c-1.518 0-2.424-.91-2.424-2.425V32.032c0-1.516.91-2.426 2.424-2.426z" fill="#6b7d99" fill-rule="nonzero"/><path d="M180.33 70.21l.004.007-.002-.003-.002-.003zM61.954 7.645A84.1 84.1 0 0179.402 20.57c8.248-1.494 16.753-2.247 25.381-2.247 25.83 0 50.318 6.775 68.95 19.075 9.649 6.373 17.318 13.934 22.793 22.475 6.096 9.518 9.186 19.752 9.186 30.72 0 10.671-3.09 20.91-9.186 30.426-5.475 8.545-13.144 16.104-22.793 22.477-18.632 12.3-43.118 19.071-68.95 19.071-8.628 0-17.131-.753-25.381-2.245a84.231 84.231 0 01-17.448 12.925c-33.868 16.962-61.954.4-61.954.4s26.113-22.17 21.866-41.604C10.183 120.068 3.852 105.625 3.852 90.302c0-15.035 6.333-29.478 18.014-41.455C26.112 29.418.01 7.253 0 7.245c.008-.005 28.091-16.562 61.954.4z" fill="#db2323" fill-rule="nonzero"/><path d="M41.697 124.026C30.089 114.88 23.12 103.173 23.12 90.414c0-29.278 36.688-53.012 81.945-53.012 45.257 0 81.945 23.734 81.945 53.012s-36.688 53.011-81.945 53.011c-11.154 0-21.787-1.442-31.48-4.053l-7.085 6.834a65.064 65.064 0 01-13.067 9.722c-6.235 3.061-12.391 4.732-18.483 5.242.344-.625.66-1.258 1-1.884 7.1-13.078 9.015-24.831 5.746-35.26z" fill="#fff"/><path d="M65.77 103.026c-6.653 0-12.047-5.48-12.047-12.24s5.394-12.241 12.047-12.241c6.654 0 12.048 5.48 12.048 12.24s-5.394 12.241-12.048 12.241zm38.786 0c-6.653 0-12.047-5.48-12.047-12.24s5.394-12.241 12.047-12.241c6.654 0 12.047 5.48 12.047 12.24s-5.393 12.241-12.047 12.241zm38.786 0c-6.653 0-12.047-5.48-12.047-12.24s5.394-12.241 12.047-12.241c6.654 0 12.047 5.48 12.047 12.24s-5.393 12.241-12.047 12.241z" fill="#db2323" fill-rule="nonzero"/></g></svg>