<svg height="16" viewBox="0 0 16 16" width="16" xmlns="http://www.w3.org/2000/svg"><g fill="none" fill-rule="evenodd"><path d="M0 0h16v16H0z"/><circle cx="8" cy="8" fill="#384a66" r="8"/><path d="M6 5.845C6.051 4.818 6.72 4 8.028 4 9.2 4 10 4.742 10 5.721c0 .747-.377 1.275-.972 1.641-.59.357-.758.623-.758 1.122v.31h-.814v-.438c-.005-.628.293-1.056.93-1.446.54-.337.749-.637.749-1.146 0-.59-.447-1.022-1.14-1.022-.702 0-1.148.423-1.2 1.103zM7.926 12c-.377 0-.647-.276-.647-.661 0-.39.27-.666.647-.666.376 0 .641.276.641.666 0 .385-.265.661-.641.661z" fill="#fff" stroke="#fff" stroke-width=".5"/></g></svg>