<svg height="24" viewBox="0 0 24 24" width="24" xmlns="http://www.w3.org/2000/svg"><g fill="none" fill-rule="evenodd"><path d="M0 0h24v24H0z"/><circle cx="12" cy="12" fill="#a3b4cc" r="12"/><path d="M9.047 9.713c.075-1.477 1.06-2.652 2.98-2.652 1.723 0 2.899 1.066 2.899 2.474 0 1.073-.554 1.832-1.429 2.359-.868.512-1.114.895-1.114 1.613v.444h-1.196v-.629c-.007-.902.43-1.517 1.367-2.078.793-.485 1.1-.916 1.1-1.647 0-.848-.656-1.47-1.675-1.47-1.032 0-1.688.608-1.763 1.586zm2.83 7.41c-.554 0-.95-.396-.95-.95 0-.56.396-.957.95-.957.554 0 .943.396.943.957 0 .554-.39.95-.943.95z" fill="#fff" stroke="#fff" stroke-width=".2"/></g></svg>