<?xml version="1.0" encoding="UTF-8" standalone="no"?>
<!-- Created with Inkscape (http://www.inkscape.org/) -->
<svg xmlns:dc="http://purl.org/dc/elements/1.1/" xmlns:cc="http://creativecommons.org/ns#" xmlns:rdf="http://www.w3.org/1999/02/22-rdf-syntax-ns#" xmlns:svg="http://www.w3.org/2000/svg" xmlns="http://www.w3.org/2000/svg" xmlns:sodipodi="http://sodipodi.sourceforge.net/DTD/sodipodi-0.dtd" xmlns:inkscape="http://www.inkscape.org/namespaces/inkscape" version="1.1" width="204.81012" height="204.81288" id="svg2" xml:space="preserve" inkscape:version="0.48.1 " sodipodi:docname="Ejercito_Argentino.svg"><metadata id="metadata3425"><rdf:RDF><cc:Work rdf:about=""><dc:format>image/svg+xml</dc:format><dc:type rdf:resource="http://purl.org/dc/dcmitype/StillImage"/></cc:Work></rdf:RDF></metadata><sodipodi:namedview pagecolor="#ffffff" bordercolor="#666666" borderopacity="1" objecttolerance="10" gridtolerance="10" guidetolerance="10" inkscape:pageopacity="0" inkscape:pageshadow="2" inkscape:window-width="1024" inkscape:window-height="538" id="namedview3423" showgrid="false" fit-margin-top="0" fit-margin-left="0" fit-margin-right="0" fit-margin-bottom="0" inkscape:zoom="1.1059382" inkscape:cx="353.80762" inkscape:cy="133.33765" inkscape:window-x="-8" inkscape:window-y="-8" inkscape:window-maximized="1" inkscape:current-layer="g14"/><defs id="defs6"/><g transform="matrix(1.25,0,0,-1.25,-18.067375,222.87875)" id="g12"><g transform="scale(0.1,0.1)" id="g14"><path d="m 1106.41,550.914 55.14,-2.172 c 0,0 17.28,-1.051 -7.55,-9.164 0,0 -27.54,1.09 -30.26,-2.723 0,0 -9.18,-10.789 -29.19,-3.769 0,0 -53.46,12.98 11.86,17.828" id="path18" style="fill:#231f20;fill-opacity:1;fill-rule:nonzero;stroke:none" inkscape:connector-curvature="0"/><path d="m 963.789,144.527 c 452.441,0 819.231,366.793 819.231,819.254 0,452.459 -366.79,819.249 -819.231,819.249 -452.488,0 -819.25,-366.79 -819.25,-819.249 0,-452.461 366.762,-819.254 819.25,-819.254" id="path20" style="fill:#80d6f7;fill-opacity:1;fill-rule:nonzero;stroke:none" inkscape:connector-curvature="0"/><path d="m 963.789,201.871 c 420.761,0 761.881,341.129 761.881,761.91 0,420.779 -341.12,761.879 -761.881,761.879 -420.82,0 -761.906,-341.1 -761.906,-761.879 0,-420.781 341.086,-761.91 761.906,-761.91" id="path22" style="fill:#ffffff;fill-opacity:1;fill-rule:nonzero;stroke:none" inkscape:connector-curvature="0"/><path d="m 248.871,747.461 50.469,16.836 2.273,-6.809 -30.808,-39.906 39.695,13.242 2.125,-6.363 -50.465,-16.828 -2.273,6.805 30.804,39.906 -39.699,-13.242 -2.121,6.359" id="path24" style="fill:#231f20;fill-opacity:1;fill-rule:nonzero;stroke:none" inkscape:connector-curvature="0"/><path d="m 269.457,688.137 56.883,2.679 3.113,-7.128 -40.082,-41.153 -3.207,7.352 12.27,11.996 -9.016,20.644 -16.984,-1.218 -2.977,6.828 z m 26.043,-5.246 7.324,-16.77 11.313,11.086 c 3.445,3.328 6.32,6 8.64,8.039 -3.48,-0.715 -7.007,-1.176 -10.582,-1.379 L 295.5,682.891" id="path26" style="fill:#231f20;fill-opacity:1;fill-rule:nonzero;stroke:none" inkscape:connector-curvature="0"/><path d="m 333.141,599.789 1.824,-7.023 c -5.774,-1.485 -10.906,-1.27 -15.383,0.64 -4.477,1.91 -8.047,5.285 -10.703,10.137 -2.75,5.012 -3.973,9.652 -3.668,13.91 0.301,4.254 1.945,8.266 4.934,12.035 2.98,3.77 6.703,6.871 11.16,9.321 4.859,2.656 9.609,4.058 14.246,4.183 4.629,0.129 8.824,-1 12.578,-3.394 3.75,-2.391 6.754,-5.645 9.008,-9.75 2.554,-4.664 3.508,-9.235 2.871,-13.715 -0.637,-4.481 -2.774,-8.531 -6.399,-12.149 l -4.761,5.293 c 2.8,2.942 4.414,5.868 4.84,8.762 0.421,2.906 -0.215,5.91 -1.922,9.027 -1.961,3.582 -4.461,6.098 -7.496,7.563 -3.04,1.457 -6.274,1.887 -9.704,1.269 -3.429,-0.613 -6.683,-1.761 -9.754,-3.449 -3.976,-2.176 -7.124,-4.648 -9.449,-7.422 -2.332,-2.777 -3.562,-5.781 -3.695,-9.019 -0.125,-3.238 0.582,-6.27 2.137,-9.106 1.89,-3.453 4.488,-5.824 7.793,-7.125 3.304,-1.297 7.156,-1.297 11.543,0.012" id="path28" style="fill:#231f20;fill-opacity:1;fill-rule:nonzero;stroke:none" inkscape:connector-curvature="0"/><path d="m 333.148,564.277 44.79,28.715 3.8,-5.922 -44.785,-28.715 -3.805,5.922" id="path30" style="fill:#231f20;fill-opacity:1;fill-rule:nonzero;stroke:none" inkscape:connector-curvature="0"/><path d="m 371.094,553.078 c 7.074,5.289 14.031,7.527 20.871,6.715 6.84,-0.805 12.504,-4.215 16.996,-10.227 2.941,-3.933 4.652,-8.187 5.137,-12.75 0.48,-4.562 -0.34,-8.933 -2.461,-13.097 -2.125,-4.172 -5.309,-7.84 -9.575,-11.035 -4.324,-3.227 -8.839,-5.243 -13.554,-6.051 -4.711,-0.801 -9.133,-0.25 -13.254,1.648 -4.125,1.907 -7.57,4.711 -10.34,8.414 -2.996,4.008 -4.723,8.317 -5.164,12.907 -0.441,4.593 0.402,8.957 2.539,13.089 2.129,4.133 5.07,7.598 8.805,10.387 z m 4.258,-5.875 c -5.137,-3.836 -8.153,-8.242 -9.043,-13.215 -0.891,-4.972 0.222,-9.543 3.339,-13.711 3.172,-4.246 7.278,-6.625 12.313,-7.136 5.035,-0.512 10.293,1.277 15.785,5.379 3.473,2.589 6.059,5.441 7.77,8.546 1.711,3.11 2.433,6.325 2.175,9.649 -0.265,3.324 -1.445,6.39 -3.55,9.203 -2.989,3.996 -6.926,6.41 -11.821,7.238 -4.894,0.828 -10.55,-1.156 -16.968,-5.953" id="path32" style="fill:#231f20;fill-opacity:1;fill-rule:nonzero;stroke:none" inkscape:connector-curvature="0"/><path d="m 459.066,439.121 3.696,-6.246 c -5.137,-3.027 -10.125,-4.25 -14.957,-3.648 -4.832,0.597 -9.196,2.859 -13.09,6.777 -4.031,4.062 -6.492,8.184 -7.379,12.355 -0.879,4.176 -0.41,8.481 1.41,12.93 1.828,4.453 4.543,8.469 8.152,12.043 3.934,3.91 8.106,6.559 12.528,7.965 4.414,1.41 8.754,1.476 13.027,0.223 4.27,-1.266 8.055,-3.555 11.356,-6.879 3.746,-3.774 5.929,-7.903 6.554,-12.387 0.629,-4.481 -0.301,-8.961 -2.789,-13.442 l -6.035,3.766 c 1.879,3.606 2.625,6.856 2.223,9.766 -0.399,2.902 -1.844,5.621 -4.344,8.136 -2.879,2.903 -5.973,4.629 -9.297,5.192 -3.324,0.57 -6.547,0.078 -9.672,-1.461 -3.129,-1.539 -5.937,-3.547 -8.429,-6.016 -3.211,-3.187 -5.551,-6.433 -7.02,-9.75 -1.473,-3.312 -1.82,-6.539 -1.051,-9.683 0.77,-3.149 2.293,-5.867 4.574,-8.16 2.77,-2.801 5.918,-4.356 9.457,-4.692 3.532,-0.328 7.231,0.738 11.086,3.211" id="path34" style="fill:#231f20;fill-opacity:1;fill-rule:nonzero;stroke:none" inkscape:connector-curvature="0"/><path d="m 483.383,426.129 c 5.648,6.785 11.894,10.574 18.738,11.375 6.844,0.805 13.149,-1.199 18.906,-6.004 3.774,-3.145 6.422,-6.883 7.957,-11.207 1.524,-4.328 1.743,-8.77 0.641,-13.316 -1.094,-4.547 -3.344,-8.868 -6.75,-12.954 -3.453,-4.144 -7.379,-7.152 -11.777,-9.035 -4.395,-1.867 -8.825,-2.359 -13.274,-1.465 -4.457,0.891 -8.457,2.821 -12.008,5.778 -3.851,3.207 -6.523,6.992 -8.023,11.355 -1.496,4.36 -1.688,8.805 -0.57,13.324 1.117,4.516 3.172,8.563 6.16,12.149 z m 5.504,-4.727 c -4.102,-4.929 -6.016,-9.914 -5.735,-14.949 0.289,-5.047 2.434,-9.238 6.438,-12.57 4.066,-3.395 8.613,-4.754 13.633,-4.082 5.011,0.672 9.718,3.633 14.101,8.89 2.77,3.336 4.629,6.707 5.578,10.125 0.938,3.418 0.899,6.715 -0.129,9.887 -1.031,3.172 -2.89,5.879 -5.589,8.129 -3.832,3.195 -8.219,4.625 -13.18,4.293 -4.953,-0.328 -9.992,-3.57 -15.117,-9.723" id="path36" style="fill:#231f20;fill-opacity:1;fill-rule:nonzero;stroke:none" inkscape:connector-curvature="0"/><path d="m 525.309,359.293 30.046,43.902 5.926,-4.05 -0.441,-50.411 23.637,34.536 5.531,-3.79 -30.051,-43.902 -5.918,4.051 0.441,50.414 -23.636,-34.535 -5.535,3.785" id="path38" style="fill:#231f20;fill-opacity:1;fill-rule:nonzero;stroke:none" inkscape:connector-curvature="0"/><path d="m 612.043,305.102 24.141,47.406 6.269,-3.196 -21.293,-41.82 23.309,-11.875 -2.844,-5.586 -29.582,15.071" id="path40" style="fill:#231f20;fill-opacity:1;fill-rule:nonzero;stroke:none" inkscape:connector-curvature="0"/><path d="m 657.168,282.59 39.012,41.488 7.195,-2.957 -0.184,-57.449 -7.418,3.047 0.473,17.16 -20.836,8.57 -11.355,-12.687 -6.887,2.828 z m 22.355,14.344 16.926,-6.954 0.43,15.832 c 0.16,4.782 0.367,8.708 0.617,11.786 -2.004,-2.934 -4.223,-5.719 -6.648,-8.348 l -11.325,-12.316" id="path42" style="fill:#231f20;fill-opacity:1;fill-rule:nonzero;stroke:none" inkscape:connector-curvature="0"/><path d="m 751.047,247.863 13.812,51.379 19.411,-5.222 c 3.418,-0.918 5.984,-1.786 7.695,-2.598 2.41,-1.102 4.32,-2.465 5.711,-4.106 1.386,-1.636 2.32,-3.66 2.789,-6.058 0.469,-2.406 0.363,-4.883 -0.317,-7.43 -1.175,-4.359 -3.566,-7.683 -7.164,-9.957 -3.593,-2.277 -9.039,-2.433 -16.32,-0.476 l -13.199,3.55 -5.629,-20.914 -6.789,1.832 z m 14.043,25.141 13.316,-3.586 c 4.403,-1.188 7.754,-1.211 10.043,-0.074 2.293,1.14 3.836,3.195 4.633,6.16 0.578,2.152 0.527,4.137 -0.148,5.961 -0.676,1.82 -1.836,3.215 -3.485,4.183 -1.078,0.614 -3.152,1.34 -6.242,2.172 l -13.18,3.543 -4.937,-18.359" id="path44" style="fill:#231f20;fill-opacity:1;fill-rule:nonzero;stroke:none" inkscape:connector-curvature="0"/><path d="m 802.195,234.477 29.68,48.601 7.645,-1.426 11.597,-56.261 -7.887,1.464 -3.054,16.891 -22.149,4.113 -8.511,-14.742 -7.321,1.36 z m 18.942,18.617 17.996,-3.34 -2.832,15.586 c -0.824,4.715 -1.422,8.601 -1.813,11.66 -1.359,-3.281 -2.961,-6.457 -4.789,-9.531 l -8.562,-14.375" id="path46" style="fill:#231f20;fill-opacity:1;fill-rule:nonzero;stroke:none" inkscape:connector-curvature="0"/><path d="m 879.098,222.113 5.05,46.664 -17.375,1.879 0.672,6.231 41.75,-4.524 -0.675,-6.23 -17.379,1.879 -5.051,-46.664 -6.992,0.765" id="path48" style="fill:#231f20;fill-opacity:1;fill-rule:nonzero;stroke:none" inkscape:connector-curvature="0"/><path d="m 925.867,218.023 1.192,53.192 23.535,-0.527 c 4.726,-0.106 8.308,-0.665 10.746,-1.676 2.441,-1.012 4.371,-2.746 5.789,-5.203 1.418,-2.454 2.094,-5.141 2.023,-8.075 -0.082,-3.769 -1.371,-6.925 -3.867,-9.457 -2.496,-2.539 -6.289,-4.101 -11.394,-4.691 1.836,-0.93 3.23,-1.852 4.175,-2.746 2.016,-1.926 3.899,-4.328 5.661,-7.207 l 8.867,-14.653 -8.793,0.196 -6.774,11.191 c -1.976,3.238 -3.609,5.723 -4.902,7.449 -1.285,1.719 -2.449,2.934 -3.484,3.645 -1.028,0.715 -2.086,1.211 -3.168,1.508 -0.789,0.187 -2.09,0.304 -3.899,0.343 l -8.14,0.184 -0.536,-23.633 -7.031,0.16 z m 7.699,29.516 15.086,-0.336 c 3.207,-0.066 5.727,0.203 7.543,0.836 1.825,0.621 3.219,1.664 4.196,3.117 0.972,1.449 1.472,3.039 1.507,4.766 0.063,2.527 -0.804,4.625 -2.586,6.293 -1.781,1.672 -4.636,2.555 -8.558,2.637 l -16.793,0.378 -0.395,-17.691" id="path50" style="fill:#231f20;fill-opacity:1;fill-rule:nonzero;stroke:none" inkscape:connector-curvature="0"/><path d="m 995.047,218 -2.43,53.148 7.028,0.321 2.425,-53.149 -7.023,-0.32" id="path52" style="fill:#231f20;fill-opacity:1;fill-rule:nonzero;stroke:none" inkscape:connector-curvature="0"/><path d="m 1022.8,219.25 14.29,55.133 7.73,0.855 27.44,-50.468 -7.97,-0.891 -7.83,15.273 -22.39,-2.496 -3.87,-16.578 -7.4,-0.828 z m 12.72,23.32 18.19,2.032 -7.24,14.089 c -2.15,4.274 -3.86,7.817 -5.11,10.637 -0.36,-3.539 -0.96,-7.043 -1.82,-10.516 l -4.02,-16.242" id="path54" style="fill:#231f20;fill-opacity:1;fill-rule:nonzero;stroke:none" inkscape:connector-curvature="0"/><path d="m 1121.98,233.918 -12.53,51.703 37.39,9.07 1.47,-6.089 -30.55,-7.411 3.83,-15.804 28.63,6.933 1.48,-6.082 -28.63,-6.945 4.27,-17.621 31.73,7.687 1.47,-6.086 -38.56,-9.355" id="path56" style="fill:#231f20;fill-opacity:1;fill-rule:nonzero;stroke:none" inkscape:connector-curvature="0"/><path d="m 1184.21,250.137 -17.13,50.367 6.8,2.308 40.08,-30.574 -13.47,39.625 6.34,2.153 17.13,-50.364 -6.8,-2.312 -40.08,30.574 13.48,-39.621 -6.35,-2.156" id="path58" style="fill:#231f20;fill-opacity:1;fill-rule:nonzero;stroke:none" inkscape:connector-curvature="0"/><path d="m 1280.16,287.062 -24.2,47.379 9.36,4.782 28.45,-27.762 c 2.64,-2.594 4.59,-4.543 5.87,-5.848 -0.35,2 -0.8,4.961 -1.35,8.891 l -5.43,38.785 8.43,4.297 24.2,-47.375 -6.07,-3.102 -20.24,39.649 6.41,-46.703 -5.64,-2.891 -34.32,33.324 20.6,-40.328 -6.07,-3.098" id="path60" style="fill:#231f20;fill-opacity:1;fill-rule:nonzero;stroke:none" inkscape:connector-curvature="0"/><path d="m 1343.3,320.441 -11.45,55.782 6.55,4.179 46.87,-33.226 -6.76,-4.313 -13.76,10.27 -19,-12.11 3.83,-16.585 -6.28,-3.997 z m 1.15,26.532 15.43,9.836 -12.7,9.464 c -3.82,2.887 -6.91,5.317 -9.28,7.289 1.24,-3.324 2.24,-6.738 3,-10.242 l 3.55,-16.347" id="path62" style="fill:#231f20;fill-opacity:1;fill-rule:nonzero;stroke:none" inkscape:connector-curvature="0"/><path d="m 1409.18,364.746 -13.55,17.984 -34.88,12.149 6.76,5.09 18.14,-6.535 c 3.35,-1.25 6.59,-2.543 9.74,-3.872 -0.39,3.2 -0.69,6.876 -0.93,11.028 l -1.27,18.715 6.54,4.937 1.52,-37.277 13.55,-17.985 -5.62,-4.234" id="path64" style="fill:#231f20;fill-opacity:1;fill-rule:nonzero;stroke:none" inkscape:connector-curvature="0"/><path d="m 1429.29,413.18 c -5.93,6.539 -8.83,13.246 -8.67,20.132 0.16,6.883 3.01,12.848 8.56,17.891 3.64,3.309 7.71,5.414 12.21,6.332 4.49,0.91 8.92,0.52 13.27,-1.207 4.35,-1.715 8.32,-4.543 11.89,-8.484 3.63,-3.989 6.07,-8.293 7.32,-12.91 1.25,-4.614 1.12,-9.067 -0.39,-13.352 -1.5,-4.285 -3.95,-7.984 -7.38,-11.094 -3.71,-3.363 -7.83,-5.488 -12.36,-6.367 -4.53,-0.879 -8.95,-0.453 -13.27,1.277 -4.32,1.731 -8.04,4.325 -11.18,7.782 z m 5.44,4.793 c 4.32,-4.743 8.98,-7.325 14.03,-7.739 5.03,-0.418 9.47,1.129 13.33,4.629 3.92,3.559 5.9,7.875 5.93,12.938 0.03,5.054 -2.25,10.125 -6.86,15.195 -2.91,3.207 -6,5.512 -9.25,6.922 -3.26,1.41 -6.53,1.824 -9.81,1.246 -3.28,-0.582 -6.22,-2.051 -8.83,-4.41 -3.69,-3.352 -5.72,-7.504 -6.07,-12.453 -0.36,-4.953 2.15,-10.395 7.53,-16.328" id="path66" style="fill:#231f20;fill-opacity:1;fill-rule:nonzero;stroke:none" inkscape:connector-curvature="0"/><path d="m 1524.43,470.555 -40.91,34.019 11.71,14.082 c 2.65,3.184 4.86,5.446 6.65,6.797 2.48,1.895 5.12,3.074 7.91,3.559 3.62,0.636 7.3,0.308 11.03,-0.981 3.72,-1.293 7.41,-3.453 11.06,-6.488 3.1,-2.582 5.56,-5.242 7.35,-7.961 1.81,-2.727 3.02,-5.309 3.65,-7.75 0.63,-2.445 0.83,-4.711 0.62,-6.812 -0.22,-2.098 -0.9,-4.293 -2.03,-6.575 -1.12,-2.289 -2.72,-4.664 -4.78,-7.136 l -12.26,-14.754 z m -0.32,9.414 7.26,8.73 c 2.24,2.696 3.75,5.02 4.52,6.973 0.77,1.957 1.08,3.766 0.93,5.43 -0.22,2.355 -1.11,4.789 -2.69,7.312 -1.57,2.516 -3.9,5.063 -6.99,7.629 -4.28,3.566 -8.15,5.602 -11.62,6.105 -3.47,0.508 -6.43,0.086 -8.88,-1.273 -1.76,-0.988 -3.98,-3.09 -6.66,-6.309 l -7.14,-8.589 31.27,-26.008" id="path68" style="fill:#231f20;fill-opacity:1;fill-rule:nonzero;stroke:none" inkscape:connector-curvature="0"/><path d="m 1567.43,524.266 -43.76,30.257 21.88,31.645 5.16,-3.563 -17.89,-25.859 13.39,-9.25 16.75,24.231 5.16,-3.563 -16.76,-24.23 14.92,-10.321 18.57,26.852 5.16,-3.559 -22.58,-32.64" id="path70" style="fill:#231f20;fill-opacity:1;fill-rule:nonzero;stroke:none" inkscape:connector-curvature="0"/><path d="m 1629.96,626.688 -2.99,-5.754 -36.94,19.168 c 0.61,-2.09 0.99,-4.614 1.15,-7.575 0.15,-2.957 0.09,-5.519 -0.18,-7.668 l -5.61,2.914 c 0.16,4.036 -0.22,7.829 -1.13,11.383 -0.91,3.551 -2.12,6.367 -3.64,8.438 l 1.92,3.707 47.42,-24.613" id="path72" style="fill:#231f20;fill-opacity:1;fill-rule:nonzero;stroke:none" inkscape:connector-curvature="0"/><path d="m 1620.98,675.27 c -1.98,-2.118 -4.07,-3.415 -6.28,-3.903 -2.2,-0.484 -4.47,-0.226 -6.82,0.778 -3.56,1.519 -6,4.074 -7.33,7.667 -1.32,3.598 -1.07,7.52 0.74,11.782 1.83,4.273 4.54,7.187 8.12,8.738 3.59,1.551 7.17,1.559 10.71,0.051 2.27,-0.969 3.99,-2.406 5.15,-4.309 1.18,-1.91 1.7,-4.265 1.57,-7.074 2.27,2.586 4.83,4.199 7.69,4.836 2.86,0.637 5.81,0.305 8.85,-0.992 4.19,-1.793 7.07,-4.774 8.65,-8.949 1.57,-4.168 1.33,-8.668 -0.74,-13.497 -2.06,-4.828 -5.15,-8.113 -9.26,-9.859 -4.11,-1.746 -8.31,-1.703 -12.6,0.129 -3.19,1.367 -5.52,3.312 -6.98,5.836 -1.47,2.531 -1.96,5.453 -1.47,8.766 z m -10.68,3.125 c 2.31,-0.981 4.5,-1.043 6.59,-0.196 2.09,0.856 3.65,2.489 4.68,4.906 1.01,2.352 1.11,4.567 0.28,6.653 -0.83,2.082 -2.29,3.574 -4.39,4.472 -2.19,0.934 -4.35,0.965 -6.49,0.098 -2.15,-0.875 -3.7,-2.461 -4.69,-4.773 -0.99,-2.325 -1.07,-4.555 -0.26,-6.672 0.82,-2.113 2.26,-3.617 4.28,-4.488 z m 21.83,-11.583 c 1.72,-0.742 3.55,-1.054 5.5,-0.949 1.96,0.114 3.71,0.785 5.28,2.028 1.58,1.238 2.76,2.785 3.55,4.629 1.24,2.906 1.33,5.679 0.27,8.32 -1.07,2.64 -3.03,4.578 -5.89,5.797 -2.91,1.242 -5.73,1.316 -8.43,0.218 -2.72,-1.097 -4.71,-3.105 -5.95,-6.027 -1.22,-2.867 -1.28,-5.609 -0.19,-8.25 1.09,-2.644 3.04,-4.566 5.86,-5.766" id="path74" style="fill:#231f20;fill-opacity:1;fill-rule:nonzero;stroke:none" inkscape:connector-curvature="0"/><path d="m 1672.79,729.664 -2.1,-6.141 -39.4,13.418 c 0.92,-1.972 1.67,-4.414 2.27,-7.316 0.6,-2.902 0.92,-5.434 0.97,-7.605 l -5.98,2.035 c -0.44,4.015 -1.38,7.707 -2.82,11.086 -1.43,3.375 -3.05,5.972 -4.87,7.793 l 1.35,3.953 50.58,-17.223" id="path76" style="fill:#231f20;fill-opacity:1;fill-rule:nonzero;stroke:none" inkscape:connector-curvature="0"/><path d="m 1656.72,766 c -6.1,1.578 -10.85,3.477 -14.26,5.691 -3.41,2.223 -5.79,4.825 -7.15,7.817 -1.36,2.996 -1.56,6.363 -0.58,10.117 0.71,2.766 1.9,5.063 3.56,6.879 1.65,1.816 3.7,3.129 6.15,3.922 2.44,0.801 5.27,1.199 8.49,1.199 3.21,-0.004 7.37,-0.668 12.48,-1.992 6.05,-1.563 10.78,-3.449 14.19,-5.656 3.42,-2.207 5.79,-4.805 7.15,-7.793 1.34,-2.989 1.52,-6.372 0.55,-10.149 -1.29,-4.969 -4.03,-8.426 -8.25,-10.359 -5.21,-2.285 -12.64,-2.18 -22.33,0.324 z m 1.68,6.496 c 8.51,-2.203 14.41,-2.668 17.71,-1.406 3.3,1.265 5.33,3.351 6.08,6.273 0.75,2.907 -0.01,5.715 -2.3,8.426 -2.28,2.707 -7.67,5.16 -16.16,7.352 -8.49,2.203 -14.39,2.668 -17.69,1.41 -3.31,-1.254 -5.35,-3.363 -6.12,-6.344 -0.75,-2.914 -0.12,-5.562 1.89,-7.961 2.58,-2.976 8.11,-5.562 16.59,-7.75" id="path78" style="fill:#231f20;fill-opacity:1;fill-rule:nonzero;stroke:none" inkscape:connector-curvature="0"/><path d="m 963.789,293.328 c 370.301,0 670.491,300.176 670.491,670.453 0,370.269 -300.19,670.449 -670.491,670.449 -370.281,0 -670.488,-300.18 -670.488,-670.449 0,-370.277 300.207,-670.453 670.488,-670.453" id="path80" style="fill:#80d6f7;fill-opacity:1;fill-rule:nonzero;stroke:none" inkscape:connector-curvature="0"/><path d="m 498.684,1474.59 -34.407,39.86 28.707,24.78 4.024,-4.66 -23.465,-20.26 10.633,-12.31 21.965,18.96 4.023,-4.66 -21.969,-18.96 11.707,-13.56 24.379,21.04 4.028,-4.66 -29.625,-25.57" id="path82" style="fill:#231f20;fill-opacity:1;fill-rule:nonzero;stroke:none" inkscape:connector-curvature="0"/><path d="m 535.625,1524.83 4.551,4.39 c 2.519,-3.17 4.765,-4.96 6.738,-5.37 1.973,-0.42 3.93,0.08 5.856,1.49 1.425,1.04 2.418,2.26 2.976,3.66 0.566,1.4 0.637,2.8 0.215,4.2 -0.422,1.4 -1.52,3.32 -3.297,5.76 l -21.379,29.34 5.598,4.08 21.152,-29.02 c 2.594,-3.57 4.176,-6.65 4.735,-9.23 0.562,-2.59 0.273,-5.07 -0.864,-7.44 -1.14,-2.37 -2.972,-4.48 -5.492,-6.31 -3.742,-2.73 -7.387,-3.75 -10.934,-3.06 -3.546,0.69 -6.835,3.2 -9.855,7.51" id="path84" style="fill:#231f20;fill-opacity:1;fill-rule:nonzero;stroke:none" inkscape:connector-curvature="0"/><path d="m 589.316,1544.41 -27.375,44.98 32.391,19.72 3.199,-5.26 -26.476,-16.12 8.461,-13.89 24.785,15.08 3.203,-5.26 -24.789,-15.08 9.316,-15.31 27.512,16.75 3.199,-5.26 -33.426,-20.35" id="path86" style="fill:#231f20;fill-opacity:1;fill-rule:nonzero;stroke:none" inkscape:connector-curvature="0"/><path d="m 643.902,1576.31 -23.007,47.36 20.894,10.15 c 4.203,2.04 7.598,3.16 10.199,3.37 2.598,0.21 5.074,-0.44 7.426,-1.96 2.356,-1.52 4.164,-3.58 5.434,-6.18 1.629,-3.36 1.918,-6.72 0.879,-10.08 -1.047,-3.35 -3.68,-6.43 -7.903,-9.26 2.043,0.01 3.684,-0.17 4.914,-0.52 2.645,-0.8 5.391,-2.07 8.239,-3.81 l 14.425,-8.92 -7.812,-3.8 -11.016,6.82 c -3.207,1.97 -5.765,3.41 -7.679,4.35 -1.915,0.94 -3.485,1.48 -4.711,1.65 -1.231,0.15 -2.387,0.11 -3.469,-0.11 -0.777,-0.2 -1.977,-0.68 -3.578,-1.46 l -7.235,-3.52 10.227,-21.05 -6.227,-3.03 z m -6.644,29.52 13.41,6.51 c 2.848,1.39 4.934,2.77 6.254,4.14 1.324,1.37 2.086,2.91 2.293,4.61 0.207,1.71 -0.067,3.32 -0.805,4.85 -1.082,2.23 -2.781,3.68 -5.105,4.33 -2.317,0.65 -5.215,0.13 -8.719,-1.57 l -14.91,-7.25 7.582,-15.62" id="path88" style="fill:#231f20;fill-opacity:1;fill-rule:nonzero;stroke:none" inkscape:connector-curvature="0"/><path d="m 733.562,1634.8 7.11,0.75 c 0.617,-5.89 -0.34,-10.89 -2.863,-15.01 -2.528,-4.13 -6.368,-7.14 -11.516,-9.04 -5.332,-1.97 -10.063,-2.5 -14.195,-1.59 -4.129,0.91 -7.828,3.1 -11.102,6.57 -3.258,3.47 -5.758,7.56 -7.504,12.28 -1.906,5.14 -2.582,10 -2.027,14.56 0.551,4.56 2.273,8.5 5.176,11.84 2.898,3.32 6.523,5.8 10.89,7.41 4.953,1.84 9.574,2.12 13.875,0.86 4.305,-1.27 7.961,-3.93 10.977,-7.99 l -5.836,-3.89 c -2.481,3.17 -5.117,5.17 -7.914,6 -2.797,0.84 -5.852,0.63 -9.168,-0.59 -3.817,-1.41 -6.668,-3.5 -8.559,-6.27 -1.886,-2.76 -2.785,-5.87 -2.687,-9.32 0.09,-3.46 0.746,-6.81 1.949,-10.07 1.559,-4.19 3.523,-7.64 5.91,-10.32 2.391,-2.68 5.168,-4.31 8.336,-4.9 3.168,-0.59 6.262,-0.33 9.285,0.79 3.676,1.36 6.399,3.56 8.164,6.62 1.77,3.06 2.336,6.83 1.699,11.31" id="path90" style="fill:#231f20;fill-opacity:1;fill-rule:nonzero;stroke:none" inkscape:connector-curvature="0"/><path d="m 769.617,1626.69 -14.531,50.61 6.66,1.91 14.527,-50.61 -6.656,-1.91" id="path92" style="fill:#231f20;fill-opacity:1;fill-rule:nonzero;stroke:none" inkscape:connector-curvature="0"/><path d="m 815.324,1638.37 -9.726,45.47 -16.981,-3.64 -1.289,6.02 40.738,8.71 1.289,-6.02 -16.984,-3.63 9.723,-45.47 -6.77,-1.44" id="path94" style="fill:#231f20;fill-opacity:1;fill-rule:nonzero;stroke:none" inkscape:connector-curvature="0"/><path d="m 853.715,1671.98 c -1.027,8.68 0.504,15.75 4.594,21.22 4.086,5.46 9.824,8.62 17.207,9.5 4.836,0.57 9.332,-0.07 13.488,-1.91 4.16,-1.85 7.5,-4.72 10.027,-8.6 2.524,-3.89 4.098,-8.44 4.715,-13.67 0.633,-5.31 0.117,-10.18 -1.531,-14.61 -1.653,-4.44 -4.313,-7.96 -7.988,-10.55 -3.684,-2.59 -7.801,-4.16 -12.348,-4.7 -4.938,-0.59 -9.481,0.07 -13.645,1.97 -4.16,1.89 -7.484,4.78 -9.972,8.65 -2.492,3.89 -4.004,8.11 -4.547,12.7 z m 7.109,0.73 c 0.742,-6.28 3.035,-11.03 6.864,-14.25 3.828,-3.22 8.316,-4.51 13.457,-3.91 5.234,0.62 9.324,2.95 12.269,7.01 2.949,4.05 4.027,9.44 3.234,16.15 -0.503,4.25 -1.664,7.87 -3.484,10.87 -1.824,2.99 -4.23,5.19 -7.215,6.62 -2.996,1.41 -6.222,1.91 -9.687,1.5 -4.922,-0.58 -8.961,-2.76 -12.11,-6.54 -3.148,-3.78 -4.257,-9.59 -3.328,-17.45" id="path96" style="fill:#231f20;fill-opacity:1;fill-rule:nonzero;stroke:none" inkscape:connector-curvature="0"/><path d="m 955.688,1654.73 21.441,52.17 7.57,-0.18 20.211,-53.14 -7.933,0.19 -5.665,16.07 -22.25,0.53 -6.042,-15.8 -7.332,0.16 z m 15.617,21.3 18.015,-0.42 -5.183,14.66 c -1.543,4.48 -2.739,8.16 -3.582,11.05 -0.801,-3.39 -1.86,-6.73 -3.172,-10.03 l -6.078,-15.26" id="path98" style="fill:#231f20;fill-opacity:1;fill-rule:nonzero;stroke:none" inkscape:connector-curvature="0"/><path d="m 1024.93,1651.99 6.16,52.29 23.06,-2.71 c 4.64,-0.55 8.11,-1.43 10.42,-2.66 2.29,-1.22 4.03,-3.11 5.2,-5.66 1.15,-2.54 1.57,-5.25 1.23,-8.13 -0.43,-3.71 -2,-6.69 -4.69,-8.96 -2.69,-2.26 -6.57,-3.45 -11.64,-3.54 1.72,-1.1 3.01,-2.14 3.85,-3.1 1.8,-2.09 3.43,-4.64 4.89,-7.64 l 7.34,-15.29 -8.63,1.02 -5.6,11.67 c -1.64,3.39 -3.02,5.99 -4.12,7.81 -1.11,1.82 -2.13,3.12 -3.09,3.92 -0.95,0.79 -1.94,1.38 -2.97,1.78 -0.77,0.26 -2.04,0.49 -3.8,0.7 l -7.99,0.94 -2.74,-23.25 -6.88,0.81 z m 10.32,28.45 14.81,-1.74 c 3.14,-0.38 5.64,-0.34 7.49,0.1 1.86,0.45 3.33,1.33 4.42,2.66 1.09,1.32 1.74,2.83 1.94,4.51 0.29,2.46 -0.37,4.6 -1.97,6.4 -1.6,1.79 -4.33,2.92 -8.19,3.38 l -16.46,1.94 -2.04,-17.25" id="path100" style="fill:#231f20;fill-opacity:1;fill-rule:nonzero;stroke:none" inkscape:connector-curvature="0"/><path d="m 1119.82,1657.84 1.33,6.02 21.68,-4.8 -4.22,-19.08 c -3.93,-1.93 -7.81,-3.16 -11.65,-3.7 -3.84,-0.54 -7.62,-0.39 -11.35,0.43 -5.04,1.12 -9.38,3.2 -13.02,6.25 -3.64,3.05 -6.06,6.86 -7.26,11.42 -1.19,4.55 -1.23,9.35 -0.1,14.41 1.1,5.01 3.18,9.44 6.22,13.33 3.05,3.88 6.76,6.43 11.15,7.67 4.38,1.25 9.12,1.3 14.24,0.16 3.7,-0.82 6.92,-2.16 9.65,-4.02 2.72,-1.87 4.7,-4.07 5.93,-6.59 1.22,-2.54 1.9,-5.63 2.02,-9.28 l -6.59,-0.31 c -0.19,2.8 -0.69,5.07 -1.49,6.82 -0.81,1.75 -2.17,3.31 -4.09,4.68 -1.92,1.37 -4.16,2.34 -6.75,2.92 -3.09,0.69 -5.88,0.79 -8.34,0.35 -2.47,-0.45 -4.56,-1.3 -6.29,-2.54 -1.73,-1.24 -3.18,-2.69 -4.35,-4.38 -2.01,-2.9 -3.43,-6.22 -4.25,-9.94 -1.02,-4.6 -1.09,-8.62 -0.2,-12.07 0.88,-3.43 2.66,-6.24 5.33,-8.4 2.67,-2.17 5.69,-3.62 9.06,-4.37 2.93,-0.65 5.92,-0.7 8.96,-0.18 3.04,0.52 5.44,1.28 7.16,2.26 l 2.14,9.65 -14.92,3.29" id="path102" style="fill:#231f20;fill-opacity:1;fill-rule:nonzero;stroke:none" inkscape:connector-curvature="0"/><path d="m 1160.82,1626.1 16.36,50.05 36.04,-11.78 -1.92,-5.85 -29.46,9.62 -5.05,-15.46 27.58,-9.01 -1.91,-5.85 -27.58,9.01 -5.57,-17.03 30.62,-10 -1.91,-5.86 -37.2,12.16" id="path104" style="fill:#231f20;fill-opacity:1;fill-rule:nonzero;stroke:none" inkscape:connector-curvature="0"/><path d="m 1220.24,1605.51 21.04,48.27 6.58,-2.87 8.84,-48.99 16.52,37.94 6.16,-2.68 -21.04,-48.27 -6.58,2.86 -8.84,48.99 -16.53,-37.93 -6.15,2.68" id="path106" style="fill:#231f20;fill-opacity:1;fill-rule:nonzero;stroke:none" inkscape:connector-curvature="0"/><path d="m 1293.14,1570.91 22.41,40.75 -15.22,8.37 2.97,5.39 36.5,-20.08 -2.97,-5.39 -15.21,8.37 -22.42,-40.74 -6.06,3.33" id="path108" style="fill:#231f20;fill-opacity:1;fill-rule:nonzero;stroke:none" inkscape:connector-curvature="0"/><path d="m 1333.84,1546.95 28.47,44.29 5.83,-3.75 -28.48,-44.29 -5.82,3.75" id="path110" style="fill:#231f20;fill-opacity:1;fill-rule:nonzero;stroke:none" inkscape:connector-curvature="0"/><path d="m 1362.02,1528.42 31.66,42.06 5.74,-4.31 -2.78,-49.7 24.89,33.05 5.35,-4.02 -31.67,-42.07 -5.73,4.31 2.79,49.71 -24.89,-33.07 -5.36,4.04" id="path112" style="fill:#231f20;fill-opacity:1;fill-rule:nonzero;stroke:none" inkscape:connector-curvature="0"/><path d="m 1430.74,1507.37 c 5.93,6.43 12.3,9.86 19.1,10.31 6.81,0.44 12.95,-1.85 18.41,-6.9 3.59,-3.3 6.02,-7.13 7.33,-11.49 1.3,-4.36 1.29,-8.76 -0.02,-13.2 -1.3,-4.45 -3.75,-8.61 -7.32,-12.48 -3.62,-3.92 -7.65,-6.7 -12.1,-8.34 -4.44,-1.63 -8.84,-1.89 -13.21,-0.78 -4.36,1.11 -8.22,3.21 -11.59,6.32 -3.65,3.37 -6.11,7.25 -7.38,11.65 -1.26,4.39 -1.23,8.79 0.09,13.2 1.33,4.41 3.56,8.32 6.69,11.71 z m 5.19,-4.92 c -4.3,-4.65 -6.42,-9.49 -6.37,-14.49 0.05,-5 1.98,-9.25 5.78,-12.76 3.87,-3.58 8.3,-5.16 13.3,-4.76 5,0.39 9.79,3.07 14.37,8.04 2.9,3.14 4.9,6.38 5.99,9.72 1.1,3.33 1.21,6.59 0.34,9.78 -0.88,3.19 -2.59,5.97 -5.15,8.33 -3.65,3.36 -7.93,5.01 -12.85,4.95 -4.91,-0.06 -10.05,-2.99 -15.41,-8.81" id="path114" style="fill:#231f20;fill-opacity:1;fill-rule:nonzero;stroke:none" inkscape:connector-curvature="0"/><path d="m 553.117,1491.18 -58.383,-138.31 -127.558,-82.15 0,-162.13 L 293.691,969.543 367.176,849.199 352.074,689.25 483.898,609.262 535.066,448.965 700.059,416.918 814.262,310.633 963.789,367.18 1117.28,311 l 114.54,105.918 150.95,23.766 58.74,142.648 128.22,94.406 -7.19,154.172 71.74,131.871 -73.9,129.709 14.02,146.97 -135.08,86.48 -38.91,145.16 -157.8,21.24 -109.48,119.27 -156.396,-43.59 -142.632,52.97 -116.75,-109.18 -164.235,-21.63" id="path116" style="fill:#f5da67;fill-opacity:1;fill-rule:nonzero;stroke:none" inkscape:connector-curvature="0"/><g id="g118"><path d="m 553.117,1491.18 -58.383,-138.31 -127.558,-82.15 0,-162.13 L 293.691,969.543 367.176,849.199 352.074,689.25 483.899,609.262 535.067,448.965 700.059,416.918 814.262,310.633 963.789,367.18 1117.28,311 l 114.54,105.918 150.95,23.765 58.74,142.649 128.22,94.406 -7.19,154.172 71.74,131.871 -73.9,129.709 14.02,146.97 -135.08,86.48 -38.91,145.16 -157.8,21.24 -109.48,119.27 -156.395,-43.59 -142.633,52.97 -116.75,-109.18 -164.235,-21.63 z" id="path120" style="fill:none;stroke:#231f20;stroke-width:0.75979;stroke-linecap:butt;stroke-linejoin:miter;stroke-miterlimit:2.61310005;stroke-opacity:1;stroke-dasharray:none" inkscape:connector-curvature="0"/></g><path d="m 950.801,749.09 0.351,-386.211 -0.351,386.211" id="path122" style="fill:#231f20;fill-opacity:1;fill-rule:nonzero;stroke:none" inkscape:connector-curvature="0"/><g id="g124"><path d="m 950.801,749.09 0.352,-386.211 -0.352,386.211 z" id="path126" style="fill:none;stroke:#231f20;stroke-width:2.89557004;stroke-linecap:butt;stroke-linejoin:miter;stroke-miterlimit:2.61310005;stroke-opacity:1;stroke-dasharray:none" inkscape:connector-curvature="0"/></g><path d="m 993.695,749.969 -0.351,-393.578 0.351,393.578" id="path128" style="fill:#231f20;fill-opacity:1;fill-rule:nonzero;stroke:none" inkscape:connector-curvature="0"/><g id="g130"><path d="m 993.695,749.969 -0.351,-393.578 0.351,393.578 z" id="path132" style="fill:none;stroke:#231f20;stroke-width:2.89557004;stroke-linecap:butt;stroke-linejoin:miter;stroke-miterlimit:2.61310005;stroke-opacity:1;stroke-dasharray:none" inkscape:connector-curvature="0"/></g><path d="M 865.938,772 679.172,420.867 865.938,772" id="path134" style="fill:#231f20;fill-opacity:1;fill-rule:nonzero;stroke:none" inkscape:connector-curvature="0"/><g id="g136"><path d="M 865.938,772 679.172,420.867 865.938,772 z" id="path138" style="fill:none;stroke:#231f20;stroke-width:2.89557004;stroke-linecap:butt;stroke-linejoin:miter;stroke-miterlimit:2.61310005;stroke-opacity:1;stroke-dasharray:none" inkscape:connector-curvature="0"/></g><path d="M 902.508,757.727 715.922,402.121 902.508,757.727" id="path140" style="fill:#231f20;fill-opacity:1;fill-rule:nonzero;stroke:none" inkscape:connector-curvature="0"/><g id="g142"><path d="M 902.508,757.726 715.922,402.121 902.508,757.726 z" id="path144" style="fill:none;stroke:#231f20;stroke-width:2.89557004;stroke-linecap:butt;stroke-linejoin:miter;stroke-miterlimit:2.61310005;stroke-opacity:1;stroke-dasharray:none" inkscape:connector-curvature="0"/></g><path d="M 772.113,867.953 469.152,617.555 772.113,867.953" id="path146" style="fill:#231f20;fill-opacity:1;fill-rule:nonzero;stroke:none" inkscape:connector-curvature="0"/><g id="g148"><path d="M 772.113,867.953 469.152,617.555 772.113,867.953 z" id="path150" style="fill:none;stroke:#231f20;stroke-width:2.89557004;stroke-linecap:butt;stroke-linejoin:miter;stroke-miterlimit:2.61310005;stroke-opacity:1;stroke-dasharray:none" inkscape:connector-curvature="0"/></g><path d="M 790.867,836.254 492.547,582.965 790.867,836.254" id="path152" style="fill:#231f20;fill-opacity:1;fill-rule:nonzero;stroke:none" inkscape:connector-curvature="0"/><g id="g154"><path d="M 790.867,836.254 492.547,582.965 790.867,836.254 z" id="path156" style="fill:none;stroke:#231f20;stroke-width:2.89557004;stroke-linecap:butt;stroke-linejoin:miter;stroke-miterlimit:2.61310005;stroke-opacity:1;stroke-dasharray:none" inkscape:connector-curvature="0"/></g><path d="M 749.781,946.492 363.594,854.969 749.781,946.492" id="path158" style="fill:#231f20;fill-opacity:1;fill-rule:nonzero;stroke:none" inkscape:connector-curvature="0"/><g id="g160"><path d="M 749.781,946.492 363.594,854.969 749.781,946.492 z" id="path162" style="fill:none;stroke:#231f20;stroke-width:2.89557004;stroke-linecap:butt;stroke-linejoin:miter;stroke-miterlimit:2.61310005;stroke-opacity:1;stroke-dasharray:none" inkscape:connector-curvature="0"/></g><path d="M 756.273,908.309 363.242,809.234 756.273,908.309" id="path164" style="fill:#231f20;fill-opacity:1;fill-rule:nonzero;stroke:none" inkscape:connector-curvature="0"/><g id="g166"><path d="M 756.274,908.308 363.242,809.234 756.274,908.308 z" id="path168" style="fill:none;stroke:#231f20;stroke-width:2.89557004;stroke-linecap:butt;stroke-linejoin:miter;stroke-miterlimit:2.61310005;stroke-opacity:1;stroke-dasharray:none" inkscape:connector-curvature="0"/></g><path d="m 765.66,1047.35 -398.074,89 398.074,-89" id="path170" style="fill:#231f20;fill-opacity:1;fill-rule:nonzero;stroke:none" inkscape:connector-curvature="0"/><g id="g172"><path d="m 765.66,1047.35 -398.074,89 398.074,-89 z" id="path174" style="fill:none;stroke:#231f20;stroke-width:2.89557004;stroke-linecap:butt;stroke-linejoin:miter;stroke-miterlimit:2.61310005;stroke-opacity:1;stroke-dasharray:none" inkscape:connector-curvature="0"/></g><path d="m 753.395,1008.46 -394.497,85.38 394.497,-85.38" id="path176" style="fill:#231f20;fill-opacity:1;fill-rule:nonzero;stroke:none" inkscape:connector-curvature="0"/><g id="g178"><path d="m 753.395,1008.46 -394.496,85.38 394.496,-85.38 z" id="path180" style="fill:none;stroke:#231f20;stroke-width:2.89557004;stroke-linecap:butt;stroke-linejoin:miter;stroke-miterlimit:2.61310005;stroke-opacity:1;stroke-dasharray:none" inkscape:connector-curvature="0"/></g><path d="M 821.109,1124.45 498.691,1363.3 821.109,1124.45" id="path182" style="fill:#231f20;fill-opacity:1;fill-rule:nonzero;stroke:none" inkscape:connector-curvature="0"/><g id="g184"><path d="M 821.11,1124.45 498.691,1363.3 821.11,1124.45 z" id="path186" style="fill:none;stroke:#231f20;stroke-width:2.89557004;stroke-linecap:butt;stroke-linejoin:miter;stroke-miterlimit:2.61310005;stroke-opacity:1;stroke-dasharray:none" inkscape:connector-curvature="0"/></g><path d="M 795.176,1096.33 469.152,1336.27 795.176,1096.33" id="path188" style="fill:#231f20;fill-opacity:1;fill-rule:nonzero;stroke:none" inkscape:connector-curvature="0"/><g id="g190"><path d="M 795.176,1096.33 469.152,1336.27 795.176,1096.33 z" id="path192" style="fill:none;stroke:#231f20;stroke-width:2.89557004;stroke-linecap:butt;stroke-linejoin:miter;stroke-miterlimit:2.61310005;stroke-opacity:1;stroke-dasharray:none" inkscape:connector-curvature="0"/></g><path d="m 904.973,1170.73 -171.02,357.21 171.02,-357.21" id="path194" style="fill:#484546;fill-opacity:1;fill-rule:nonzero;stroke:none" inkscape:connector-curvature="0"/><g id="g196"><path d="m 904.973,1170.73 -171.02,357.21 171.02,-357.21 z" id="path198" style="fill:none;stroke:#231f20;stroke-width:2.89557004;stroke-linecap:butt;stroke-linejoin:miter;stroke-miterlimit:2.61310005;stroke-opacity:1;stroke-dasharray:none" inkscape:connector-curvature="0"/></g><path d="M 869.398,1156.16 693.586,1509.94 869.398,1156.16" id="path200" style="fill:#484546;fill-opacity:1;fill-rule:nonzero;stroke:none" inkscape:connector-curvature="0"/><g id="g202"><path d="M 869.399,1156.16 693.586,1509.94 869.399,1156.16 z" id="path204" style="fill:none;stroke:#231f20;stroke-width:2.89557004;stroke-linecap:butt;stroke-linejoin:miter;stroke-miterlimit:2.61310005;stroke-opacity:1;stroke-dasharray:none" inkscape:connector-curvature="0"/></g><path d="M 1061.78,772.859 1250.91,419.773 1061.78,772.859" id="path206" style="fill:#231f20;fill-opacity:1;fill-rule:nonzero;stroke:none" inkscape:connector-curvature="0"/><g id="g208"><path d="M 1061.78,772.859 1250.91,419.773 1061.78,772.859 z" id="path210" style="fill:none;stroke:#231f20;stroke-width:2.89557004;stroke-linecap:butt;stroke-linejoin:miter;stroke-miterlimit:2.61310005;stroke-opacity:1;stroke-dasharray:none" inkscape:connector-curvature="0"/></g><path d="M 1026,757.727 1214.16,399.969 1026,757.727" id="path212" style="fill:#231f20;fill-opacity:1;fill-rule:nonzero;stroke:none" inkscape:connector-curvature="0"/><g id="g214"><path d="M 1026,757.726 1214.16,399.969 1026,757.726 z" id="path216" style="fill:none;stroke:#231f20;stroke-width:2.89557004;stroke-linecap:butt;stroke-linejoin:miter;stroke-miterlimit:2.61310005;stroke-opacity:1;stroke-dasharray:none" inkscape:connector-curvature="0"/></g><path d="m 1158.69,872.996 300.1,-276.676 -300.1,276.676" id="path218" style="fill:#231f20;fill-opacity:1;fill-rule:nonzero;stroke:none" inkscape:connector-curvature="0"/><g id="g220"><path d="m 1158.69,872.996 300.1,-276.676 -300.1,276.676 z" id="path222" style="fill:none;stroke:#231f20;stroke-width:2.89557004;stroke-linecap:butt;stroke-linejoin:miter;stroke-miterlimit:2.61310005;stroke-opacity:1;stroke-dasharray:none" inkscape:connector-curvature="0"/></g><path d="M 1140.68,841.648 1434.29,565.684 1140.68,841.648" id="path224" style="fill:#231f20;fill-opacity:1;fill-rule:nonzero;stroke:none" inkscape:connector-curvature="0"/><g id="g226"><path d="M 1140.68,841.648 1434.29,565.683 1140.68,841.648 z" id="path228" style="fill:none;stroke:#231f20;stroke-width:2.89557004;stroke-linecap:butt;stroke-linejoin:miter;stroke-miterlimit:2.61310005;stroke-opacity:1;stroke-dasharray:none" inkscape:connector-curvature="0"/></g><path d="m 1177.78,952.984 399.87,-93.679 -399.87,93.679" id="path230" style="fill:#231f20;fill-opacity:1;fill-rule:nonzero;stroke:none" inkscape:connector-curvature="0"/><g id="g232"><path d="m 1177.78,952.984 399.87,-93.68 -399.87,93.68 z" id="path234" style="fill:none;stroke:#231f20;stroke-width:2.89557004;stroke-linecap:butt;stroke-linejoin:miter;stroke-miterlimit:2.61310005;stroke-opacity:1;stroke-dasharray:none" inkscape:connector-curvature="0"/></g><path d="m 1172.01,912.961 391.23,-97.231 -391.23,97.231" id="path236" style="fill:#231f20;fill-opacity:1;fill-rule:nonzero;stroke:none" inkscape:connector-curvature="0"/><g id="g238"><path d="m 1172.01,912.961 391.23,-97.231 -391.23,97.231 z" id="path240" style="fill:none;stroke:#231f20;stroke-width:2.89557004;stroke-linecap:butt;stroke-linejoin:miter;stroke-miterlimit:2.61310005;stroke-opacity:1;stroke-dasharray:none" inkscape:connector-curvature="0"/></g><path d="m 1169.13,1026.11 392.69,88.27 -392.69,-88.27" id="path242" style="fill:#231f20;fill-opacity:1;fill-rule:nonzero;stroke:none" inkscape:connector-curvature="0"/><g id="g244"><path d="m 1169.13,1026.11 392.69,88.26 -392.69,-88.26 z" id="path246" style="fill:none;stroke:#231f20;stroke-width:2.89557004;stroke-linecap:butt;stroke-linejoin:miter;stroke-miterlimit:2.61310005;stroke-opacity:1;stroke-dasharray:none" inkscape:connector-curvature="0"/></g><path d="m 1177.31,986.562 394.49,85.388 -394.49,-85.388" id="path248" style="fill:#231f20;fill-opacity:1;fill-rule:nonzero;stroke:none" inkscape:connector-curvature="0"/><g id="g250"><path d="m 1177.31,986.562 394.49,85.388 -394.49,-85.388 z" id="path252" style="fill:none;stroke:#231f20;stroke-width:2.89557004;stroke-linecap:butt;stroke-linejoin:miter;stroke-miterlimit:2.61310005;stroke-opacity:1;stroke-dasharray:none" inkscape:connector-curvature="0"/></g><path d="m 1117.28,1114.71 316.31,234.54 -316.31,-234.54" id="path254" style="fill:#231f20;fill-opacity:1;fill-rule:nonzero;stroke:none" inkscape:connector-curvature="0"/><g id="g256"><path d="m 1117.28,1114.71 316.31,234.54 -316.31,-234.54 z" id="path258" style="fill:none;stroke:#231f20;stroke-width:2.89557004;stroke-linecap:butt;stroke-linejoin:miter;stroke-miterlimit:2.61310005;stroke-opacity:1;stroke-dasharray:none" inkscape:connector-curvature="0"/></g><path d="m 1140.68,1085.91 314.14,231.29 -314.14,-231.29" id="path260" style="fill:#231f20;fill-opacity:1;fill-rule:nonzero;stroke:none" inkscape:connector-curvature="0"/><g id="g262"><path d="m 1140.68,1085.91 314.14,231.29 -314.14,-231.29 z" id="path264" style="fill:none;stroke:#231f20;stroke-width:2.89557004;stroke-linecap:butt;stroke-linejoin:miter;stroke-miterlimit:2.61310005;stroke-opacity:1;stroke-dasharray:none" inkscape:connector-curvature="0"/></g><path d="m 1047.38,1161.91 171.8,357.04 -171.8,-357.04" id="path266" style="fill:#231f20;fill-opacity:1;fill-rule:nonzero;stroke:none" inkscape:connector-curvature="0"/><g id="g268"><path d="m 1047.38,1161.91 171.8,357.04 -171.8,-357.04 z" id="path270" style="fill:none;stroke:#231f20;stroke-width:2.89557004;stroke-linecap:butt;stroke-linejoin:miter;stroke-miterlimit:2.61310005;stroke-opacity:1;stroke-dasharray:none" inkscape:connector-curvature="0"/></g><path d="m 1080.91,1143.9 173.97,348.38 -173.97,-348.38" id="path272" style="fill:#231f20;fill-opacity:1;fill-rule:nonzero;stroke:none" inkscape:connector-curvature="0"/><g id="g274"><path d="m 1080.91,1143.9 173.97,348.38 -173.97,-348.38 z" id="path276" style="fill:none;stroke:#231f20;stroke-width:2.89557004;stroke-linecap:butt;stroke-linejoin:miter;stroke-miterlimit:2.61310005;stroke-opacity:1;stroke-dasharray:none" inkscape:connector-curvature="0"/></g><path d="m 995.492,1177.04 -0.742,397.19 0.742,-397.19" id="path278" style="fill:#231f20;fill-opacity:1;fill-rule:nonzero;stroke:none" inkscape:connector-curvature="0"/><g id="g280"><path d="m 995.492,1177.04 -0.742,397.19 0.742,-397.19 z" id="path282" style="fill:none;stroke:#231f20;stroke-width:2.89557004;stroke-linecap:butt;stroke-linejoin:miter;stroke-miterlimit:2.61310005;stroke-opacity:1;stroke-dasharray:none" inkscape:connector-curvature="0"/></g><path d="m 952.973,1179.21 0,398.46 0,-398.46" id="path284" style="fill:#231f20;fill-opacity:1;fill-rule:nonzero;stroke:none" inkscape:connector-curvature="0"/><g id="g286"><path d="m 952.973,1179.21 0,398.46 0,-398.46 z" id="path288" style="fill:none;stroke:#231f20;stroke-width:2.89557004;stroke-linecap:butt;stroke-linejoin:miter;stroke-miterlimit:2.61310005;stroke-opacity:1;stroke-dasharray:none" inkscape:connector-curvature="0"/></g><path d="m 804.914,991.863 c 0,0 28.106,20.547 37.848,25.987 0,0 30.234,19.43 60.488,-3.27 l 19.445,-10.81 c 0,0 -4.3,-19.458 -19.445,-23.762 0,0 -15.113,-20.531 -78.895,3.207 l -19.441,8.648" id="path290" style="fill:#231f20;fill-opacity:1;fill-rule:nonzero;stroke:none" inkscape:connector-curvature="0"/><path d="m 823.262,990.801 c 0,0 16.254,16.209 20.554,10.799 0,0 -4.3,-7.553 5.399,-19.432 0,0 -12.945,-1.106 -25.953,8.633" id="path292" style="fill:#edf4a0;fill-opacity:1;fill-rule:nonzero;stroke:none" inkscape:connector-curvature="0"/><path d="m 867.602,995.668 c 0,0 -9.747,-0.563 -9.747,4.852 0,0 -14.039,7.57 -3.246,-10.813 0,0 14.614,-12.41 24.844,-4.301 0,0 8.684,5.395 10.289,10.793 0,0 5.965,19.451 -8.625,5.401 0,0 -3.25,-6.495 -13.515,-5.932" id="path294" style="fill:#edf4a0;fill-opacity:1;fill-rule:nonzero;stroke:none" inkscape:connector-curvature="0"/><path d="m 893.535,992.422 c 0,0 -8.648,-16.227 2.695,-10.828 0,0 9.747,2.191 10.27,11.359 0,0 0.57,5.434 -4.305,7.02 0,0 -8.66,6.507 -8.66,-7.551" id="path296" style="fill:#edf4a0;fill-opacity:1;fill-rule:nonzero;stroke:none" inkscape:connector-curvature="0"/><path d="m 845.438,1044.29 c 0,0 -7.02,-11.35 -16.758,-14.07 0,0 -20.52,-15.64 7.59,-9.7 0,0 22.117,12.94 24.312,16.76 0,0 17.285,8.08 33.5,1.05 0,0 17.82,-5.39 22.688,-14.03 0,0 12.949,-17.29 12.418,-2.16 0,0 -13.477,31.86 -37.805,31.33 0,0 -21.063,8.64 -45.945,-9.18" id="path298" style="fill:#231f20;fill-opacity:1;fill-rule:nonzero;stroke:none" inkscape:connector-curvature="0"/><path d="m 842.191,963.781 c 0,0 -18.929,14.039 -10.261,-5.922 0,0 9.207,-12.468 32.425,-8.648 0,0 19.965,-4.867 29.727,4.832 0,0 23.219,14.078 -3.793,9.738 0,0 -7.043,-9.211 -25.934,-7.023 0,0 -20.015,2.152 -22.164,7.023" id="path300" style="fill:#231f20;fill-opacity:1;fill-rule:nonzero;stroke:none" inkscape:connector-curvature="0"/><path d="m 921.641,917.305 c 0,0 -7.594,14.054 -8.121,-3.778 0,0 1.097,-6.488 5.968,-7.019 0,0 7.02,-2.192 2.153,10.797" id="path302" style="fill:#231f20;fill-opacity:1;fill-rule:nonzero;stroke:none" inkscape:connector-curvature="0"/><path d="m 944.855,982.691 c 0,0 4.872,7.016 -6.496,9.172 0,0 -6.488,5.41 -5.394,-14.043 0,0 4.34,-8.078 -1.094,-30.8 0,0 -10.797,-16.754 2.715,-36.739 0,0 8.117,-10.828 23.262,-4.336 0,0 5.941,2.715 0.543,7.016 0,0 -16.258,-3.773 -16.258,3.797 0,0 -11.852,11.359 -0.528,25.965 0,0 7.028,-4.34 3.25,39.968" id="path304" style="fill:#231f20;fill-opacity:1;fill-rule:nonzero;stroke:none" inkscape:connector-curvature="0"/><path d="m 983.797,915.152 c 0,0 -20.008,-5.964 -1.098,-7.023 0,0 17.821,-0.567 21.071,5.93 0,0 6.49,16.207 -5.403,16.753 0,0 -5.398,0 -3.242,-6.488 0,0 2.715,-12.422 -11.328,-9.172" id="path306" style="fill:#231f20;fill-opacity:1;fill-rule:nonzero;stroke:none" inkscape:connector-curvature="0"/><path d="m 995.688,1005.39 c 0,0 15.102,3.77 28.632,15.13 0,0 24.84,22.16 54.55,-2.67 l 27.54,-21.127 c 0,0 6.53,-22.149 -57.78,-21.582 0,0 -36.76,-8.118 -52.942,30.249" id="path308" style="fill:#231f20;fill-opacity:1;fill-rule:nonzero;stroke:none" inkscape:connector-curvature="0"/><path d="m 1012.98,1047.54 c 0,0 -35.714,-24.86 -17.292,-28.64 0,0 8.602,1.62 21.052,15.14 0,0 9.17,8.64 34.05,6.49 0,0 16.23,-0.57 29.7,-15.14 0,0 24.9,-14.05 6.51,5.93 0,0 -14.59,20.56 -46.49,22.68 0,0 -16.19,-1.59 -27.53,-6.46" id="path310" style="fill:#231f20;fill-opacity:1;fill-rule:nonzero;stroke:none" inkscape:connector-curvature="0"/><path d="m 1014.04,1004.84 c 0,0 -12.42,-5.399 2.15,-18.379 0,0 16.77,-5.399 11.91,3.812 0,0 -3.25,3.774 -4.34,11.867 0,0 -2.68,3.8 -9.72,2.7" id="path312" style="fill:#edf4a0;fill-opacity:1;fill-rule:nonzero;stroke:none" inkscape:connector-curvature="0"/><path d="m 1047.54,998.387 c 0,0 -7.56,-4.34 -8.12,6.453 0,0 -8.08,8.66 -8.08,-5.922 0,0 1.62,-11.363 15.11,-14.606 0,0 15.13,-1.621 16.23,4.868 0,0 8.08,8.093 -2.19,9.207 0,0 -10.8,-0.567 -12.95,0" id="path314" style="fill:#edf4a0;fill-opacity:1;fill-rule:nonzero;stroke:none" inkscape:connector-curvature="0"/><path d="m 1080.49,1003.22 c 0,0 -17.81,-11.357 -3.77,-17.286 0,0 25.39,-2.719 16.24,8.644 0,0 -1.65,9.192 -12.47,8.642" id="path316" style="fill:#edf4a0;fill-opacity:1;fill-rule:nonzero;stroke:none" inkscape:connector-curvature="0"/><path d="m 1042.14,959.477 c 0,0 -27.01,1.585 -11.89,-4.907 0,0 11.89,-9.699 32.95,-5.359 0,0 16.77,3.203 22.71,9.172 0,0 7.05,10.265 -11.91,2.679 0,0 -17.81,-5.925 -31.86,-1.585" id="path318" style="fill:#231f20;fill-opacity:1;fill-rule:nonzero;stroke:none" inkscape:connector-curvature="0"/><path d="m 919.488,853.516 c 0,0 -27.578,3.816 -12.418,-6.469 0,0 15.625,-5.922 19.965,-2.695 0,0 10.797,4.847 23.766,3.246 0,0 13.515,-7.043 21.633,0 0,0 11.89,4.855 16.23,0 0,0 8.606,-6.473 17.256,0 l 12.99,3.769 c 0,0 13.49,7.59 -12.99,4.891 0,0 -11.897,-4.34 -12.951,2.152 0,0 -21.063,4.863 -30.274,-6.492 0,0 -17.312,-3.246 -17.312,5.414 0,0 -19.969,3.781 -25.895,-3.816" id="path320" style="fill:#231f20;fill-opacity:1;fill-rule:nonzero;stroke:none" inkscape:connector-curvature="0"/><path d="m 956.223,828.141 c 0,0 -10.84,2.718 -7.043,-16.192 0,0 13.515,-5.437 21.062,0 0,0 -0.488,8.078 6.492,10.227 0,0 13.559,2.715 2.188,8.683 0,0 -11.887,-5.968 -22.699,-2.718" id="path322" style="fill:#231f20;fill-opacity:1;fill-rule:nonzero;stroke:none" inkscape:connector-curvature="0"/><g id="g324"><path d="m 963.789,749.207 c 118.501,0 214.571,96.097 214.571,214.574 0,118.509 -96.07,214.579 -214.571,214.579 -118.523,0 -214.578,-96.07 -214.578,-214.579 0,-118.477 96.055,-214.574 214.578,-214.574 z" id="path326" style="fill:none;stroke:#231f20;stroke-width:10.66300011;stroke-linecap:butt;stroke-linejoin:miter;stroke-miterlimit:2.61310005;stroke-opacity:1;stroke-dasharray:none" inkscape:connector-curvature="0"/></g><path d="m 1082.57,550.914 c 0,0 22.17,12.984 17.29,-5.41 0,0 -2.14,-2.152 -11.88,-3.774 l -54.03,-8.117 0,8.649 c 0,0 38.37,4.867 48.62,8.652" id="path328" style="fill:#231f20;fill-opacity:1;fill-rule:nonzero;stroke:none" inkscape:connector-curvature="0"/><path d="m 866.504,1345.84 -15.664,-10.26 c 0,0 -11.891,-12.42 7.015,-8.11 0,0 22.731,0.52 48.645,22.68 0,0 20.008,12.98 -1.059,10.26 0,0 -20.027,-11.36 -38.937,-14.57" id="path330" style="fill:#231f20;fill-opacity:1;fill-rule:nonzero;stroke:none" inkscape:connector-curvature="0"/><path d="m 845.438,1372.3 c 0,0 -38.938,-23.78 -43.243,-36.72 0,0 -11.855,-16.76 5.438,-15.13 0,0 22.14,5.92 39.426,35.62 0,0 28.617,24.89 -1.621,16.23" id="path332" style="fill:#231f20;fill-opacity:1;fill-rule:nonzero;stroke:none" inkscape:connector-curvature="0"/><path d="m 794.113,1303.14 c 0,0 84.813,11.34 37.817,-3.25 0,0 -19.465,-19.43 -44.832,-12.41 -25.426,7.02 11.847,17.81 7.015,15.66" id="path334" style="fill:#231f20;fill-opacity:1;fill-rule:nonzero;stroke:none" inkscape:connector-curvature="0"/><path d="m 763.289,1327.99 c 0,0 -19.477,-22.7 -21.059,-36.74 0,0 -5.398,-20.53 7.02,-5.93 l 37.277,39.43 c 0,0 18.914,23.77 -3.773,15.13 l -19.465,-11.89" id="path336" style="fill:#231f20;fill-opacity:1;fill-rule:nonzero;stroke:none" inkscape:connector-curvature="0"/><path d="m 767.086,1288.01 c 0,0 -11.906,0 -4.336,-8.12 0,0 8.66,-3.77 11.887,0 0,0 13.515,8.65 -7.551,8.12" id="path338" style="fill:#231f20;fill-opacity:1;fill-rule:nonzero;stroke:none" inkscape:connector-curvature="0"/><path d="m 797.328,1272.35 c 0,0 -17.824,-5.4 -4.305,-10.27 0,0 14.61,0 16.192,5.92 0,0 5.398,8.12 -11.887,4.35" id="path340" style="fill:#231f20;fill-opacity:1;fill-rule:nonzero;stroke:none" inkscape:connector-curvature="0"/><path d="m 729.242,1263.14 c 0,0 -15.668,-4.3 -27.558,-15.1 0,0 -10.25,-15.7 9.214,-11.36 0,0 14.04,-5.41 38.352,14.04 0,0 38.375,17.28 5.93,15.66 l -25.938,-3.24" id="path342" style="fill:#231f20;fill-opacity:1;fill-rule:nonzero;stroke:none" inkscape:connector-curvature="0"/><path d="m 705.484,1304.22 c 0,0 -14.05,-9.72 -20.539,-31.87 0,0 -1.097,-18.91 19.457,0 0,0 17.821,11.88 28.618,36.21 0,0 8.679,15.66 18.378,23.78 0,0 24.86,27.54 -9.168,3.77 l -36.746,-31.89" id="path344" style="fill:#231f20;fill-opacity:1;fill-rule:nonzero;stroke:none" inkscape:connector-curvature="0"/><path d="m 662.254,1277.21 c 0,0 -15.137,-5.96 -25.953,-28.12 0,0 -13.52,-42.65 5.941,-18.89 0,0 13.52,3.76 25.41,32.94 0,0 15.668,24.34 -5.398,14.07" id="path346" style="fill:#231f20;fill-opacity:1;fill-rule:nonzero;stroke:none" inkscape:connector-curvature="0"/><path d="m 653.043,1221 c 0,0 -5.926,-10.27 -17.273,-15.66 0,0 -20.004,-20 7.57,-17.33 0,0 16.726,15.17 21.062,15.17 0,0 18.391,-3.81 24.317,6.46 0,0 11.886,12.98 -1.098,13.51 0,0 -23.746,-16.19 -15.101,7.05 0,0 5.925,30.26 -7.547,11.35 0,0 -4.907,-17.84 -11.93,-20.55" id="path348" style="fill:#231f20;fill-opacity:1;fill-rule:nonzero;stroke:none" inkscape:connector-curvature="0"/><path d="m 632.527,1170.73 c 0,0 -32.429,-25.93 -8.121,-25.93 0,0 22.711,16.76 33.543,20 0,0 24.844,0.55 32.922,14.04 0,0 20.559,34.57 -3.25,14.08 0,0 -23.219,-19.47 -55.094,-22.19" id="path350" style="fill:#231f20;fill-opacity:1;fill-rule:nonzero;stroke:none" inkscape:connector-curvature="0"/><path d="m 608.172,1224.95 c 0,0 -26.988,-36.94 -32.934,-88.25 0,0 -2.699,-12.98 3.797,-23.24 0,0 9.172,-22.69 8.649,12.98 0,0 11.882,40.52 20.488,49.2 0,0 15.707,55.47 0,49.31" id="path352" style="fill:#231f20;fill-opacity:1;fill-rule:nonzero;stroke:none" inkscape:connector-curvature="0"/><path d="m 543.379,1129.69 c 0,0 -16.766,-25.4 -5.961,-45.93 0,0 16.754,-23.23 18.34,2.15 0,0 -1.586,28.11 5.437,35.14 0,0 15.649,25.92 3.246,45.38 0,0 -8.117,17.28 -10.269,-6.5 0,0 -3.246,-24.84 -10.793,-30.24" id="path354" style="fill:#231f20;fill-opacity:1;fill-rule:nonzero;stroke:none" inkscape:connector-curvature="0"/><path d="m 571.469,1051.32 c 0,0 -17.297,-40.53 0,-24.31 0,0 43.765,34.04 44.297,43.22 0,0 13.515,13.53 -0.532,13.53 0,0 -8.117,2.15 3.207,12.42 0,0 18.426,8.11 22.18,23.77 0,0 11.363,25.93 -6.476,7.59 0,0 -11.887,-12.99 -24.836,-19.48 0,0 -43.243,-16.23 -35.149,-35.69 0,0 12.422,-7.54 -2.691,-21.05" id="path356" style="fill:#231f20;fill-opacity:1;fill-rule:nonzero;stroke:none" inkscape:connector-curvature="0"/><path d="m 538.504,1044.83 c 0,0 -2.672,-35.67 0.527,-42.69 0,0 8.121,-15.113 11.367,8.65 l 4.829,45.92 c 0,0 -1.344,18.66 -11.321,3.25 -5.968,-9.17 -5.402,-15.13 -5.402,-15.13" id="path358" style="fill:#231f20;fill-opacity:1;fill-rule:nonzero;stroke:none" inkscape:connector-curvature="0"/><path d="m 491.492,997.82 c 0,0 -10.84,-11.359 3.242,-41.625 0,0 25.938,-28.629 23.235,0 0,0 0.527,2.188 -8.664,17.848 0,0 -5.922,38.367 -17.813,23.777" id="path360" style="fill:#231f20;fill-opacity:1;fill-rule:nonzero;stroke:none" inkscape:connector-curvature="0"/><path d="m 512.559,1014.58 c 0,0 -9.747,12.43 -7.555,-8.1 0,0 -4.344,-15.152 11.34,-29.183 0,0 18.918,-12.988 20.008,-25.934 0,0 -1.09,-34.605 13.519,-21.097 0,0 7.547,24.871 -3.289,49.179 l -17.25,19.473 c 0,0 -16.773,-1.098 -16.773,15.662" id="path362" style="fill:#231f20;fill-opacity:1;fill-rule:nonzero;stroke:none" inkscape:connector-curvature="0"/><path d="m 561.727,921.074 c 0,0 -28.614,-37.808 -3.25,-17.812 0,0 37.316,28.097 37.316,74.035 0,0 -5.434,55.643 -22.727,13.504 0,0 0.547,-52.949 -11.339,-69.727" id="path364" style="fill:#231f20;fill-opacity:1;fill-rule:nonzero;stroke:none" inkscape:connector-curvature="0"/><path d="m 567.121,879.488 c 0,0 -7.547,-49.199 11.914,-18.375 0,0 11.324,19.996 30.274,29.696 0,0 8.605,3.812 12.382,20.57 0,0 10.836,34.547 -15.629,14.039 0,0 -3.246,-8.66 -9.214,-11.891 0,0 -25.914,-21.054 -29.727,-34.039" id="path366" style="fill:#231f20;fill-opacity:1;fill-rule:nonzero;stroke:none" inkscape:connector-curvature="0"/><path d="m 517.426,919.453 c 0,0 0,23.27 12.433,7.047 0,0 18.352,-13.539 12.953,-34.594 0,0 -3.781,-10.265 2.715,-15.668 0,0 11.891,-24.32 -8.109,-8.113 0,0 -26.508,15.141 -19.992,51.328" id="path368" style="fill:#231f20;fill-opacity:1;fill-rule:nonzero;stroke:none" inkscape:connector-curvature="0"/><path d="m 495.789,905.414 c 0,0 -21.594,19.473 -10.793,-3.777 0,0 11.32,-16.754 5.965,-27.547 0,0 -2.195,-31.906 21.598,-49.199 0,0 28.097,-23.211 22.703,-1.051 0,0 -4.875,21.058 -5.403,31.867 0,0 -3.246,26.496 -34.07,49.707" id="path370" style="fill:#231f20;fill-opacity:1;fill-rule:nonzero;stroke:none" inkscape:connector-curvature="0"/><path d="m 520.672,813.535 c 0,0 -19.481,7.055 -4.328,-14.008 0,0 2.152,-29.187 36.207,-47.609 0,0 12.945,-8.07 9.176,3.816 0,0 -6.5,15.668 2.714,16.758 0,0 7.028,-5.957 4.301,10.813 0,0 -2.148,38.343 0,43.742 0,0 -2.148,16.762 -9.168,21.094 0,0 -7.594,11.871 -9.176,-4.887 0,0 -8.117,-17.262 -6.492,-24.285 0,0 2.149,-32.418 -8.074,-15.133 0,0 -10.82,11.324 -15.16,9.699" id="path372" style="fill:#231f20;fill-opacity:1;fill-rule:nonzero;stroke:none" inkscape:connector-curvature="0"/><path d="m 587.113,841.125 c 0,0 5.434,31.344 8.114,6.473 0,0 0,-8.664 3.812,-14.063 0,0 11.324,-18.902 4.832,-46.457 0,0 -4.305,-7.566 -3.246,-18.398 0,0 -2.152,-29.172 -10.266,-6.45 l -1.062,30.247 c 0,0 -3.77,11.359 -5.945,26.492 l 3.761,22.156" id="path374" style="fill:#231f20;fill-opacity:1;fill-rule:nonzero;stroke:none" inkscape:connector-curvature="0"/><path d="m 552.551,737.363 c 0,0 -39.453,11.356 -8.645,-10.265 0,0 25.934,-25.403 38.375,-31.895 0,0 7.016,-6.473 18.914,-12.965 0,0 28.614,-4.871 13.473,8.645 0,0 -21.594,29.73 -62.117,46.48" id="path376" style="fill:#231f20;fill-opacity:1;fill-rule:nonzero;stroke:none" inkscape:connector-curvature="0"/><path d="m 608.742,733.016 c 0,0 8.645,-36.172 23.215,-38.891 0,0 9.215,-3.773 8.137,23.227 0,0 -1.621,15.136 -12.442,28.652 0,0 -8.64,10.785 -6.492,16.75 0,0 -2.719,20.551 -11.851,1.625 0,0 -4.911,-17.813 -0.567,-31.363" id="path378" style="fill:#231f20;fill-opacity:1;fill-rule:nonzero;stroke:none" inkscape:connector-curvature="0"/><path d="m 589.297,675.219 c 0,0 -21.613,-4.344 -25.387,7.543 0,0 -12.457,11.363 -12.457,-5.926 0,0 8.649,-12.981 19.481,-15.133 l 43.207,-7.543 c 0,0 16.234,-3.808 18.386,-9.742 0,0 12.438,-7.582 9.192,5.398 0,0 1.621,17.289 -21.614,22.68 0,0 -27.558,5.965 -30.808,2.723" id="path380" style="fill:#231f20;fill-opacity:1;fill-rule:nonzero;stroke:none" inkscape:connector-curvature="0"/><path d="m 649.27,763.281 c 0,0 12.457,31.348 11.363,-2.152 0,0 -1.625,-11.883 1.621,-29.695 0,0 11.891,-32.989 -4.305,-37.86 0,0 -12.457,-8.664 -15.172,9.742 0,0 5.434,11.356 2.188,30.266 0,0 -3.246,20.531 4.305,29.699" id="path382" style="fill:#231f20;fill-opacity:1;fill-rule:nonzero;stroke:none" inkscape:connector-curvature="0"/><path d="m 690.34,729.242 c 0,0 -4.301,19.477 -14.57,17.324 0,0 -5.399,-2.156 1.058,-10.832 0,0 2.149,-3.777 -2.683,-17.812 0,0 -5.399,-17.305 2.683,-30.289 0,0 4.34,-24.871 12.984,-19.438 0,0 9.172,-0.558 5.922,25.379 l -5.394,35.668" id="path384" style="fill:#231f20;fill-opacity:1;fill-rule:nonzero;stroke:none" inkscape:connector-curvature="0"/><path d="m 658.441,671.969 c 0,0 -13.476,19.433 -6.984,-7.586 0,0 0.527,-16.192 21.063,-31.852 0,0 21.597,-9.758 23.746,-15.676 0,0 16.785,-18.914 15.164,-1.625 0,0 2.144,24.325 -18.371,34.586 0,0 -30.274,10.27 -34.618,22.153" id="path386" style="fill:#231f20;fill-opacity:1;fill-rule:nonzero;stroke:none" inkscape:connector-curvature="0"/><path d="m 719.012,717.922 c 0,0 -15.157,19.965 -11.91,-7.586 0,0 7.57,-21.606 5.414,-32.969 0,0 -3.246,-10.793 4.308,-18.914 0,0 3.774,-11.355 -3.25,-13.508 0,0 -7.543,-15.133 6.492,-12.414 0,0 24.313,5.926 24.313,29.699 0,0 -2.68,25.926 -16.191,37.836 0,0 -8.122,10.27 -9.176,17.856" id="path388" style="fill:#231f20;fill-opacity:1;fill-rule:nonzero;stroke:none" inkscape:connector-curvature="0"/><path d="m 624.406,629.281 c 0,0 -33.48,-10.277 -0.527,-14.586 0,0 24.859,4.309 41.094,0 0,0 25.898,-1.09 -1.664,14.586 0,0 -24.836,3.25 -38.903,0" id="path390" style="fill:#231f20;fill-opacity:1;fill-rule:nonzero;stroke:none" inkscape:connector-curvature="0"/><path d="m 631.43,596.32 c 0,0 -44.848,16.758 -15.102,-4.871 0,0 25.391,-18.906 43.738,-12.414 0,0 26.5,14.039 32.993,12.414 0,0 5.398,0.528 8.625,-3.773 0,0 10.269,-6.492 12.988,-1.059 0,0 7.023,4.832 -3.242,11.324 0,0 -16.785,16.754 -47.028,4.34 0,0 -28.632,-12.453 -32.972,-5.961" id="path392" style="fill:#231f20;fill-opacity:1;fill-rule:nonzero;stroke:none" inkscape:connector-curvature="0"/><path d="m 703.328,570.387 c 0,0 -46.512,-20.543 -5.437,-17.848 0,0 10.285,-5.937 34.066,-2.695 0,0 27.035,12.961 31.883,8.117 0,0 18.39,-1.629 3.246,7.566 0,0 -20.555,12.418 -41.09,9.735 0,0 -11.324,-1.094 -22.668,-4.875" id="path394" style="fill:#231f20;fill-opacity:1;fill-rule:nonzero;stroke:none" inkscape:connector-curvature="0"/><path d="m 734.109,609.262 c 0,0 -15.097,13.511 -9.171,-4.871 0,0 4.832,-18.911 24.312,-27.508 0,0 17.289,-9.207 38.375,-5.434 0,0 5.93,2.719 -4.34,12.985 0,0 -14.027,13.507 -3.25,16.226 0,0 15.664,-0.57 6.492,16.715 0,0 1.625,10.285 -22.687,20.027 0,0 -15.688,21.051 -15.117,1.625 0,0 30.781,-45.425 -1.094,-32.445 0,0 -11.367,3.25 -13.52,2.68" id="path396" style="fill:#231f20;fill-opacity:1;fill-rule:nonzero;stroke:none" inkscape:connector-curvature="0"/><path d="m 777.887,653.586 c 0,0 -1.059,44.859 10.265,1.102 0,0 6.496,-13.512 25.934,-28.102 0,0 20.016,-18.383 3.246,-37.809 0,0 -22.156,-32.445 -21.062,-4.343 0,0 7.585,15.128 5.398,24.828 0,0 -31.879,32.441 -23.781,44.324" id="path398" style="fill:#231f20;fill-opacity:1;fill-rule:nonzero;stroke:none" inkscape:connector-curvature="0"/><path d="m 780.602,548.219 c 0,0 -27.055,-3.778 -10.813,-9.168 0,0 8.098,-3.813 18.891,-5.965 0,0 36.203,-4.871 43.25,4.867 0,0 10.832,6.488 15.129,5.399 0,0 15.668,0.527 9.707,9.742 0,0 -2.157,12.433 -23.219,11.336 0,0 -13.531,-5.946 -28.106,-10.246 0,0 -17.816,-9.207 -24.839,-5.965" id="path400" style="fill:#231f20;fill-opacity:1;fill-rule:nonzero;stroke:none" inkscape:connector-curvature="0"/><path d="m 838.418,610.926 c 0,0 -19.465,18.355 10.27,8.601 0,0 17.816,-7.543 18.914,-20.531 0,0 1.621,-12.379 -0.571,-20.492 0,0 -3.207,-7.582 4.34,-7.582 0,0 7.555,-12.438 -7.547,-12.438 0,0 -28.109,2.704 -19.484,34.024 0,0 2.719,13.508 -5.922,18.418" id="path402" style="fill:#231f20;fill-opacity:1;fill-rule:nonzero;stroke:none" inkscape:connector-curvature="0"/><path d="m 982.133,551.992 c 0,0 13.555,-6.488 11.89,11.906 0,0 -12.421,25.93 -40.523,4.875 0,0 -16.719,-17.308 -12.422,-39.988 0,0 2.723,-5.398 -10.266,-5.961 0,0 -38.355,-12.414 -70.765,-34.043 0,0 -22.727,-11.343 -1.094,-20.551 0,0 6.985,-7.55 19.973,10.282 0,0 18.402,22.722 56.191,37.285 0,0 9.215,5.394 12.457,-1.617 0,0 1.606,-11.364 23.801,-10.266 0,0 9.703,-1.625 17.82,9.738 0,0 9.172,15.133 -9.215,7.02 0,0 -24.308,-9.734 -21.062,11.32 0,0 -1.07,25.969 8.117,28.137 0,0 11.363,4.871 15.098,-8.137" id="path404" style="fill:#231f20;fill-opacity:1;fill-rule:nonzero;stroke:none" inkscape:connector-curvature="0"/><path d="m 889.191,550.914 c 0,0 -22.16,12.984 -17.289,-5.41 0,0 2.188,-2.152 11.891,-3.774 l 54.039,-8.117 0,8.649 c 0,0 -38.355,4.867 -48.641,8.652" id="path406" style="fill:#231f20;fill-opacity:1;fill-rule:nonzero;stroke:none" inkscape:connector-curvature="0"/><path d="m 1007.54,541.199 c 0,0 -15.669,-6.492 -16.728,-3.246 0,0 -8.679,-9.168 2.688,-10.797 0,0 8.12,1.059 8.12,-4.332 0,0 -5.405,-5.933 1.61,-8.117 0,0 37.28,-13.473 67.53,-34.57 0,0 10.83,-11.907 19.49,-5.414 0,0 11.86,10.285 -2.71,18.394 0,0 -14.07,11.848 -51.89,22.153 0,0 -39.962,8.648 -19.99,17.816 0,0 31.88,3.242 50.27,22.148 0,0 2.67,-3.242 18.9,20.555 0,0 7.01,24.301 17.84,34.574 0,0 8.65,17.297 14.01,18.918 0,0 15.7,15.137 -14.57,5.403 0,0 -19.43,-8.668 -39.96,-64.297 0,0 -15.14,-24.883 -54.61,-29.188" id="path408" style="fill:#231f20;fill-opacity:1;fill-rule:nonzero;stroke:none" inkscape:connector-curvature="0"/><path d="m 1281.55,1228.2 -5.04,0 c -5.06,-12.22 -15.86,8.64 -15.86,8.64 -5.08,12.98 -11.58,10.11 -11.58,10.11 -6.46,-8.65 -28.05,0 -28.05,0 -2.18,5.02 -12.22,2.87 -12.22,2.87 -15.18,-2.87 -38.22,10.07 -38.22,10.07 -16.58,12.26 5.01,4.34 5.01,4.34 0,-3.62 19.47,-2.15 19.47,-2.15 15.13,4.3 1.44,10.79 1.44,10.79 -5.04,7.22 -43.93,3.62 -43.93,3.62 -4.35,0 -20.91,7.92 -20.91,7.92 -20.14,-3.62 -10.8,5.75 -10.8,5.75 7.93,2.15 3.58,6.49 3.58,6.49 -12.92,-1.41 -6.47,6.49 -6.47,6.49 2.89,6.49 -5.03,7.2 -5.03,7.2 l -41.09,14.41 c -25.21,23.77 26.67,2.19 26.67,2.19 26.64,-2.9 -33.85,31.69 -33.85,31.69 -29.55,37.47 25.18,-2.89 25.18,-2.89 0,0 7.96,-10.09 25.25,-14.39 l 1.46,-16.6 c 0,0 -10.15,-3.62 16.57,-7.19 0,0 25.9,0 11.52,-8.65 0,0 -15.14,2.89 -7.97,-6.49 l 14.42,-5.77 5.09,-8.64 c 0,0 42.46,2.15 43.93,-5.75 0,0 12.26,-3.62 11.51,-10.11 0,0 -3.57,-12.96 5.77,-10.07 0,0 10.12,-7.21 17.3,-5.77 0,0 1.46,-2.87 6.49,10.07 0,0 7.88,5.77 9.35,-9.36 0,0 13.71,-12.22 20.2,-13.69 0,0 24.49,-17.28 10.81,-15.13" id="path410" style="fill:#231f20;fill-opacity:1;fill-rule:nonzero;stroke:none" inkscape:connector-curvature="0"/><path d="m 1135.61,1348 c 0,0 -23.24,7.54 -2.16,-9.21 0,0 40.02,-23.21 44.86,-31.32 0,0 25.93,-28.1 14.05,1.09 0,0 -18.36,32.94 -56.75,39.44" id="path412" style="fill:#231f20;fill-opacity:1;fill-rule:nonzero;stroke:none" inkscape:connector-curvature="0"/><path d="m 1213.45,1323.69 c 0,0 -13.53,30.23 -4.87,-11.36 0,0 11.88,-26.47 23.81,-36.74 0,0 9.74,-12.45 6.45,12.42 0,0 -25.39,31.35 -25.39,35.68" id="path414" style="fill:#231f20;fill-opacity:1;fill-rule:nonzero;stroke:none" inkscape:connector-curvature="0"/><path d="m 1260.98,1298.8 c 0,0 -10.25,18.93 -7,-8.12 0,0 8.63,-25.35 19.46,-41.59 0,0 15.13,-21.6 18.39,-10.79 0,0 3.21,11.89 -2.73,19.44 0,0 -21.61,20.53 -28.12,41.06" id="path416" style="fill:#231f20;fill-opacity:1;fill-rule:nonzero;stroke:none" inkscape:connector-curvature="0"/><path d="m 1238.32,1224.25 c 0,0 -18.92,8.09 -22.17,8.09 0,0 -14.61,0 -2.7,-9.72 0,0 21.62,-2.72 26.49,-10.26 0,0 7.55,-4.34 10.23,-7.55 0,0 43.81,-28.12 41.66,-8.64 0,0 -8.65,22.11 -53.51,28.08" id="path418" style="fill:#231f20;fill-opacity:1;fill-rule:nonzero;stroke:none" inkscape:connector-curvature="0"/><path d="m 1279.04,1177.79 c 0,0 -36.05,4.67 -19.13,-6.86 0,0 27.39,-6.87 29.91,-10.11 0,0 19.1,-16.92 26.28,-17.97 0,0 20.9,-13.73 11.88,3.2 0,0 -8.97,28.49 -48.94,31.74" id="path420" style="fill:#231f20;fill-opacity:1;fill-rule:nonzero;stroke:none" inkscape:connector-curvature="0"/><path d="m 1345.69,1238.66 c 0,0 -12.61,34.94 -9.41,-10.07 0,0 -0.37,-13.71 2.19,-21.63 0,0 6.46,-9.37 3.58,-25.93 0,0 -1.05,-27.76 9.74,-11.93 0,0 9.02,11.56 0.73,39.66 0,0 -7.93,16.56 -6.83,29.9" id="path422" style="fill:#231f20;fill-opacity:1;fill-rule:nonzero;stroke:none" inkscape:connector-curvature="0"/><path d="m 1290.73,1136.18 c 0,0 -17.84,20.51 -12.99,-1.67 0,0 9.17,-17.8 48.1,-33.47 0,0 14.59,-3.24 15.16,-9.74 0,0 16.19,-21.07 14.57,-1.05 0,0 7.55,15.66 -32.98,30.23 -40.5,14.61 -20.5,13.51 -31.86,15.7" id="path424" style="fill:#231f20;fill-opacity:1;fill-rule:nonzero;stroke:none" inkscape:connector-curvature="0"/><path d="m 1184.8,685.484 c 0,0 -9.71,-5.394 -20.54,-39.964 0,0 -1.06,-15.161 -10.79,-24.34 0,0 -22.67,-19.992 1.62,-10.254 0,0 17.29,9.16 24.87,25.379 l 11.33,36.191 c 0,0 4.83,17.328 7.56,17.328 0,0 14.05,16.188 -0.53,8.071 0,0 -9.75,-8.645 -13.52,-12.411" id="path426" style="fill:#231f20;fill-opacity:1;fill-rule:nonzero;stroke:none" inkscape:connector-curvature="0"/><path d="m 1271.27,782.219 c 0,0 8.66,21.617 -5.42,1.086 0,0 -11.34,-23.27 -14.59,-34.059 0,0 -7.02,-4.836 -3.2,-32.949 0,0 2.67,-13.531 -2.2,-26.473 0,0 -4.3,-22.187 7.55,-2.191 0,0 6.5,4.34 16.76,37.312 0,0 1.63,45.903 1.1,57.274" id="path428" style="fill:#231f20;fill-opacity:1;fill-rule:nonzero;stroke:none" inkscape:connector-curvature="0"/><path d="m 1335.03,711.953 c 0,0 -14.59,-1.074 -18.37,-5.941 0,0 -8.07,-3.246 -8.64,-2.696 0,0 -9.74,-5.421 6.46,-5.941 0,0 21.63,-0.531 24.34,1.621 0,0 5.42,7.016 17.81,5.942 0,0 15.7,5.398 21.62,14.562 l 32.45,25.445 c 0,0 12.91,7.547 10.8,16.184 0,0 -6.5,6.492 -10.8,-1.621 0,0 -6.49,-6.449 -18.93,-13.504 0,0 -32.96,-14.57 -39.45,-20.539 0,0 -5.93,-10.793 -17.29,-13.512" id="path430" style="fill:#231f20;fill-opacity:1;fill-rule:nonzero;stroke:none" inkscape:connector-curvature="0"/><path d="m 1422.03,888.656 c 0,0 -23.78,-24.301 -28.64,-35.668 0,0 -23.78,-33.488 -4.3,-21.078 0,0 51.29,54.031 54.53,67.012 0,0 18.4,25.965 0.57,15.66 0,0 -7.59,-16.184 -22.16,-25.926" id="path432" style="fill:#231f20;fill-opacity:1;fill-rule:nonzero;stroke:none" inkscape:connector-curvature="0"/><path d="m 1343.68,999.973 c 0,0 -9.73,14.607 -7.01,-4.868 0,0 4.33,-8.644 15.65,-22.683 0,0 9.18,-14.563 10.27,-27.031 0,0 -2.15,-29.18 7.02,-17.825 0,0 6.5,1.094 4.3,27.004 0,0 0.57,12.981 -30.23,45.403" id="path434" style="fill:#231f20;fill-opacity:1;fill-rule:nonzero;stroke:none" inkscape:connector-curvature="0"/><path d="m 1430.71,1097.8 c 0,0 -5.97,13.5 -9.21,-2.16 0,0 -1.1,-31.38 -12.42,-40.55 0,0 -7.59,-5.92 -4.87,-25.36 0,0 7.02,-20 9.74,-3.81 0,0 -1.1,15.66 3.73,18.91 0,0 8.65,7.05 10.32,15.7 0,0 7.55,30.77 2.71,37.27" id="path436" style="fill:#231f20;fill-opacity:1;fill-rule:nonzero;stroke:none" inkscape:connector-curvature="0"/><path d="m 1398.79,1162.66 c 0,0 -8.11,17.8 -7.55,-8.12 0,0 5.96,-32.97 3.23,-45.38 l -3.79,-30.82 c 0,0 -5.4,-26.46 4.34,-12.45 0,0 9.74,8.13 11.87,36.25 0,0 -3.78,25.93 -5.93,43.21 -2.17,17.31 -2.17,17.31 -2.17,17.31" id="path438" style="fill:#231f20;fill-opacity:1;fill-rule:nonzero;stroke:none" inkscape:connector-curvature="0"/><path d="m 1221.02,630.359 c 8.08,19.457 30.81,3.246 30.81,3.246 47.55,-1.617 88.07,30.778 88.07,30.778 4.34,9.211 31.86,14.078 31.86,14.078 33,11.891 36.75,35.117 36.75,35.117 -0.53,4.871 -27.53,-14.062 -27.53,-14.062 -11.9,-8.114 -32.43,-10.266 -32.43,-10.266 -11.37,2.723 -44.31,-4.863 -44.31,-4.863 -14.61,-1.625 -26.5,-12.985 -26.5,-12.985 -17.27,-16.191 25.41,-4.828 25.41,-4.828 16.19,-1.094 -22.69,-12.988 -22.69,-12.988 -7.02,-2.148 -24.89,-3.77 -24.89,-3.77 -14.58,-1.089 -0.53,11.887 -0.53,11.887 16.76,5.934 44.34,43.781 44.34,43.781 0,0 0,0.528 10.79,15.68 10.79,15.129 18.92,4.301 18.92,4.301 17.85,-5.965 41.09,18.383 41.09,18.383 3.21,8.644 23.21,23.773 23.21,23.773 0.53,4.309 31.88,34.594 31.88,34.594 11.33,19.433 -21.06,-4.871 -21.06,-4.871 -10.82,-9.739 -27.05,-21.074 -27.05,-21.074 -15.66,-9.176 -42.13,-32.422 -42.13,-32.422 -15.12,-10.266 4.34,18.382 4.34,18.382 4.31,15.114 19.44,12.942 19.44,12.942 13.52,2.172 36.74,25.949 36.74,25.949 12.43,9.203 40,33.508 40,33.508 33.49,30.816 16.18,30.816 16.18,30.816 -2.67,5.403 -14.57,-9.738 -16.71,-14.078 -2.2,-4.32 -32.44,-24.32 -32.44,-24.32 -16.21,-8.078 -40.52,-41.063 -40.52,-41.063 -12.99,-10.812 -8.65,8.645 -8.65,8.645 11.9,16.758 14.58,38.379 14.58,38.379 11.36,14.039 15.13,44.289 15.13,44.289 0.57,14.609 26.98,33.515 26.98,33.515 27.6,27.571 27.06,42.172 27.06,42.172 2.16,9.7 16.24,39.438 16.24,39.438 -1.11,17.308 -15.17,-10.254 -15.17,-10.254 -6.99,-23.258 -18.93,-32.957 -18.93,-32.957 -16.19,-12.981 -21.59,-33.527 -21.59,-33.527 -16.73,-33.481 -4.84,30.242 -4.84,30.242 2.15,10.832 21.6,16.758 21.6,16.758 17.83,15.136 23.76,78.366 23.76,78.366 1.09,34.05 -5.93,10.83 -5.93,10.83 -9.18,-32.98 -12.43,-41.09 -12.43,-41.09 -2.19,-8.65 -17.29,-30.782 -17.29,-30.782 -12.97,-25.965 -11.34,32.402 -11.34,32.402 0.53,19.47 -11.89,58.91 -11.89,58.91 -1.67,9.19 -4.87,20.51 -4.87,20.51 -5.4,11.36 5.4,30.27 5.4,30.27 11.36,28.65 -0.53,85.39 -0.53,85.39 -11.36,36.74 -9.17,-8.12 -9.17,-8.12 l -2.19,-70.25 c 0,-21.59 -14.05,10.27 -14.05,10.27 -7.55,20.54 -25.39,36.77 -25.39,36.77 -10.79,12.42 -22.72,31.33 -22.72,31.33 0,0 -8.12,8.64 -9.7,-3.78 0,0 -0.53,-5.39 7.55,-11.89 0,0 36.75,-43.23 43.26,-60.51 0,0 21.05,-43.77 23.77,-58.94 0,0 18.38,-46.45 -6.5,-27.01 0,0 -63.21,51.91 -49.73,28.12 0,0 9.18,-14.62 17.86,-21.6 0,0 21.6,-12.45 25.91,-27.02 l 8.68,-13.52 c 0,0 3.78,-27.028 8.64,-8.65 0,0 0.54,20.55 4.88,2.7 0,0 16.75,-40.515 -3.82,-108.62 0,0 -6.45,-38.36 -11.32,-5.961 0,0 5.92,21.093 -24.31,52.968 0,0 -16.79,25.399 -9.77,-1.625 0,0 23.28,-44.851 23.81,-63.722 0,0 -6.49,-14.075 3.77,-19.473 0,0 10.8,-1.102 3.25,-15.703 0,0 -5.97,-14.055 -8.65,2.172 0,0 -1.62,17.301 -17.83,43.23 0,0 -19.48,36.231 -10.84,-8.64 0,0 7.6,-18.903 15.16,-38.891 l 2.68,-43.25 c 0,0 -8.63,-43.762 -11.35,-15.133 0,0 0,31.36 -10.79,44.871 0,0 -2.12,4.867 -0.53,17.285 0,0 -7.02,23.227 -9.21,-0.546 0,0 -1.59,-24.852 3.25,-40.516 0,0 7.01,-15.703 5.39,-25.945 0,0 -5.39,-9.211 2.72,-16.235 0,0 -8.11,-38.871 -14.57,-9.164 l 2.68,28.645 c 0,0 -2.15,15.113 -8.08,22.699 0,0 -4.91,13.512 0,26.453 0,0 0.53,21.629 -8.68,-2.148 0,0 -6.5,-10.793 -2.68,-34.043 0,0 4.87,-23.758 1.62,-36.211 0,0 -7.03,-7.586 1.63,-27.547 0,0 8.64,-2.68 -2.15,-16.762 -10.82,-14.062 -10.82,-13.512 -10.82,-13.512 0,0 -34.1,-38.89 -64.33,-57.269 0,0 -20.56,-20.547 -10.82,-0.527 0,0 20.57,19.433 25.96,43.214 0,0 1.09,25.946 0,30.813 0,0 12.42,24.828 -6.46,5.398 0,0 -7.57,-5.398 -6.52,-15.683 0,0 4.33,-9.742 -6.46,-19.469 0,0 -17.32,-16.195 -17.88,-42.125 0,0 1.1,-4.863 -3.73,-6.488 0,0 -5.43,-4.868 -1.1,-11.914 0,0 10.84,0 0,-7.539 0,0 -25.93,-24.348 -47.02,-29.172 0,0 -39.98,-19.438 -17.82,7.543 0,0 18.39,20.007 23.79,45.949 0,0 0,9.742 5.91,21.058 0,0 5.4,20.532 -8.63,1.055 0,0 -3.25,-15.625 -15.1,-22.113 0,0 -24.39,-26.512 -23.78,-47.57 0,0 -5.98,-1.098 -3.25,-14.043 0,0 11.33,-1.09 2.15,-5.922 0,0 -16.75,-3.246 -14.61,-11.364 0,0 2.15,-21.636 14.61,-7.019 0,0 2.68,9.703 22.12,14.043 0,0 5.41,11.363 14.61,1.621 0,0 -6.5,-8.113 22.14,-10.828 0,0 23.78,-2.68 52.42,12.984 0,0 2.72,4.336 11.89,7.016 0,0 23.79,6.492 -6.99,8.644 0,0 -35.68,0.567 -46.52,-8.074 0,0 -36.74,-14.082 -19.97,1.047 0,0 12.42,13.516 38.88,20.008 0,0 8.68,0.574 15.16,-2.152 0,0 20.54,-7.059 39.41,-1.626 0,0 22.2,-0.566 44.91,17.813 0,0 4.3,3.805 11.32,3.25 0,0 15.14,5.391 0,11.363 0,0 -23.21,1.617 -36.75,-10.269 0,0 -17.82,-6.489 -28.61,-2.192 0,0 -14.05,3.801 -24.88,-4.297 0,0 -12.99,-4.867 -2.16,8.637 l 8.12,6.492" id="path440" style="fill:#231f20;fill-opacity:1;fill-rule:nonzero;stroke:none" inkscape:connector-curvature="0"/></g></g></svg>