<svg id="Layer_1" data-name="Layer 1" xmlns="http://www.w3.org/2000/svg" viewBox="0 0 130.1186 26.2505">
  <title>Untitled-1</title>
  <g>
    <g>
      <g>
        <g>
          <path d="M242.83913,403.761a13.2727,13.2727,0,0,0,3.184,3.1845l4.3492-7.5342-7.5332,4.3497" transform="translate(-240.48753 -383.04713)" fill="#8cc640"/>
          <path d="M246.02313,385.39823a13.19208,13.19208,0,0,0-3.184,3.1845l7.5332,4.3477-4.3492-7.5322" transform="translate(-240.48753 -383.04713)" fill="#8cc640"/>
          <path d="M259.14863,384.21113a13.04279,13.04279,0,0,0-4.3496-1.164v8.6982l4.3496-7.5342" transform="translate(-240.48753 -383.04713)" fill="#8cc640"/>
          <path d="M248.07593,408.132a13.09291,13.09291,0,0,0,4.351,1.1656v-8.7002l-4.351,7.5346" transform="translate(-240.48753 -383.04713)" fill="#8cc640"/>
          <path d="M264.38693,388.58273a13.19071,13.19071,0,0,0-3.1841-3.1845l-4.3491,7.5322,7.5332-4.3477" transform="translate(-240.48753 -383.04713)" fill="#8cc640"/>
          <path d="M261.20233,406.94553a13.24226,13.24226,0,0,0,3.1836-3.1845l-7.5327-4.3497,4.3491,7.5342" transform="translate(-240.48753 -383.04713)" fill="#8cc640"/>
        </g>
        <g>
          <path d="M266.73753,394.98513a13.16769,13.16769,0,0,0-1.1626-4.3501l-7.5361,4.3501h8.6987" transform="translate(-240.48753 -383.04713)" fill="#038543"/>
          <path d="M240.48753,397.35673a13.0829,13.0829,0,0,0,1.1631,4.3486l7.5366-4.3486h-8.6997" transform="translate(-240.48753 -383.04713)" fill="#038543"/>
          <path d="M241.65063,390.635a13.108,13.108,0,0,0-1.1631,4.3501h8.6997l-7.5366-4.3501" transform="translate(-240.48753 -383.04713)" fill="#038543"/>
          <path d="M258.03883,397.35673l7.5361,4.3486a13.06085,13.06085,0,0,0,1.1626-4.3486h-8.6987" transform="translate(-240.48753 -383.04713)" fill="#038543"/>
          <path d="M252.42693,383.04713a13.02441,13.02441,0,0,0-4.351,1.164l4.351,7.5342v-8.6982" transform="translate(-240.48753 -383.04713)" fill="#038543"/>
          <path d="M254.799,409.29763a13.08756,13.08756,0,0,0,4.3496-1.1656l-4.3496-7.5346v8.7002" transform="translate(-240.48753 -383.04713)" fill="#038543"/>
        </g>
      </g>
      <path d="M263.56513,384.62963a1.58621,1.58621,0,1,1,1.5904,1.5903A1.58951,1.58951,0,0,1,263.56513,384.62963Zm2.9199,0a1.3337,1.3337,0,1,0-1.3295,1.3369A1.28292,1.28292,0,0,0,266.485,384.62963Zm-1.6928.8984h-.2324v-1.8134h.7812c.4727,0,.6333.1762.6333.5014,0,.3496-.2456.481-.561.5059l.539.8061h-.2602l-.5113-.8061h-.3886Zm.3203-1.0175c.2539,0,.6084.0424.6084-.2989,0-.2529-.2105-.2876-.4302-.2876h-.4985v.5865Z" transform="translate(-240.48753 -383.04713)" fill="#038543"/>
    </g>
    <g>
      <g>
        <g>
          <path d="M281.85523,393.24043a2.41745,2.41745,0,0,0-2.564-1.9282c-2.9844,0-3.5371,2.732-3.5371,4.8613,0,2.4971.7568,4.8555,3.3872,4.8555a2.45417,2.45417,0,0,0,2.6616-1.9238h1.7588c-.1665,2.0278-2.2114,3.3638-4.5713,3.3638-3.5698,0-4.9912-2.9122-4.9912-6.2955,0-2.9653,1.3032-6.4179,5.3569-6.3007,2.3282.0673,4.0728,1.207,4.2554,3.3676h-1.7563" transform="translate(-240.48753 -383.04713)"/>
          <path d="M286.508,398.31613c-.1162,1.4756.4878,2.9986,2.1103,2.9986a1.77036,1.77036,0,0,0,2.0464-1.7076h1.6744c-.2525,1.9097-1.7247,2.8619-3.7359,2.8619-2.6968,0-3.7685-1.9068-3.7685-4.3858,0-2.4624,1.2378-4.5239,3.9008-4.5239,2.5142.0488,3.7017,1.6411,3.7017,3.9673v.7895H286.508m4.2563-1.102c.0323-1.4107-.6054-2.5-2.146-2.5a2.23137,2.23137,0,0,0-2.1103,2.5Z" transform="translate(-240.48753 -383.04713)"/>
          <path d="M295.62813,395.04953h.0327a2.91787,2.91787,0,0,1,2.5454-1.4902c.5874,0,3.1861.1518,3.1861,2.8486v5.8091H299.799v-5.292c0-1.3906-.5845-2.1435-1.9282-2.1435a2.1822,2.1822,0,0,0-1.5396.6201c-.2338.2329-.6704.6045-.6704,2.2456v4.5698h-1.5923v-8.4067h1.5596v1.2392" transform="translate(-240.48753 -383.04713)"/>
          <path d="M303.90743,393.80733v-1.788l1.5923-.5044v2.2924h1.9434v1.1553h-1.9434v5.3984c0,.6006.4692.8858,1.0395.8858a3.63275,3.63275,0,0,0,.8345-.0986v1.2221c-.3657.0186-.7207.0987-1.0849.0987a5.89835,5.89835,0,0,1-1.0723-.0801,1.50689,1.50689,0,0,1-.9385-.5547c-.2851-.4019-.3706-.4341-.3706-1.5566v-5.315h-1.4385v-1.1553h1.4385" transform="translate(-240.48753 -383.04713)"/>
          <path d="M314.43823,393.81033h1.5898v8.4067h-1.5561v-1.2363h-.0337a3.19307,3.19307,0,0,1-2.8819,1.4883,2.75535,2.75535,0,0,1-2.7656-3.0308v-5.6279h1.5933v4.9741c0,1.4595.334,2.5303,1.8593,2.5303a1.9987,1.9987,0,0,0,1.8775-1.2071,6.24106,6.24106,0,0,0,.3174-1.9751v-4.3222" transform="translate(-240.48753 -383.04713)"/>
          <path d="M319.74583,402.217H318.155v-8.4067h1.5908v1.623h.0351a2.32883,2.32883,0,0,1,2.461-1.7407c.2007,0,.3706.0185.5522.0185v1.5069a1.96224,1.96224,0,0,0-.6855-.082c-2.0117.0644-2.3628,1.1367-2.3628,2.914v4.167" transform="translate(-240.48753 -383.04713)"/>
          <polyline points="87.015 22.39 85.386 22.39 86.66 19.139 83.162 10.763 84.933 10.763 87.565 17.397 90.249 10.763 91.955 10.763 87.015 22.39"/>
        </g>
        <g>
          <polyline points="93.148 19.17 93.148 7.076 95.745 7.076 95.745 17.163 100.988 17.163 100.988 19.17 93.148 19.17"/>
          <path d="M342.96453,390.12333h2.6807v2.1621h-2.6807Zm.084,3.687h2.5127v8.4067h-2.5127Z" transform="translate(-240.48753 -383.04713)"/>
          <path d="M350.46553,394.78153l.0332.0512a2.86635,2.86635,0,0,1,2.5801-1.2734c.8369,0,2.4624.6172,2.7627,1.8423a5.708,5.708,0,0,1,.1704,1.3413v5.4741h-2.5142v-5.0557c-.0151-.9062-.269-1.9253-1.5073-1.9253-.7886,0-1.4741.7032-1.5083,1.9253v5.0557h-2.5117v-8.4067h2.4951v.9712" transform="translate(-240.48753 -383.04713)"/>
          <polyline points="120.468 14.167 120.5 14.197 122.979 10.664 125.776 10.664 122.878 14.348 125.96 19.17 123.03 19.17 120.5 14.566 120.468 14.6 120.468 19.17 117.956 19.17 117.956 7.076 120.468 7.076 120.468 14.167"/>
        </g>
      </g>
      <path d="M367.43383,395.29273a1.58616,1.58616,0,1,1,1.5908,1.5923A1.58916,1.58916,0,0,1,367.43383,395.29273Zm2.9199,0a1.33351,1.33351,0,1,0-1.3291,1.3384A1.28286,1.28286,0,0,0,370.35373,395.29273Zm-1.6919.8994h-.2329v-1.8149h.7822c.4717,0,.6314.1777.6314.5024,0,.3501-.2447.4824-.5606.5064l.5396.8061h-.2613l-.5107-.8061h-.3877Zm.3198-1.0176c.2544,0,.6084.043.6084-.2988,0-.2529-.2114-.2871-.4301-.2871h-.4981v.5859Z" transform="translate(-240.48753 -383.04713)"/>
    </g>
  </g>
</svg>