<svg height="2500" viewBox="0 0 192.756 192.756" width="2500" xmlns="http://www.w3.org/2000/svg"><g clip-rule="evenodd" fill-rule="evenodd"><path d="m0 0h192.756v192.756h-192.756z" fill="#fff"/><path d="m168.035 42.014h-143.315c-6.618 0-12.003 5.385-12.003 12.003v84.721c0 6.619 5.385 12.004 12.003 12.004h143.315c6.619 0 12.002-5.385 12.002-12.004v-84.721c0-6.618-5.383-12.003-12.002-12.003z" fill="#fff"/><path d="m168.035 32.131h-143.315c-12.068 0-21.886 9.818-21.886 21.886v84.721c0 12.068 9.818 21.887 21.886 21.887h143.315c12.068 0 21.887-9.818 21.887-21.887v-84.721c0-12.068-9.818-21.886-21.887-21.886z" fill="#cc2229"/><path d="m180.037 138.738c0 6.619-5.383 12.004-12.002 12.004h-143.315c-6.618 0-12.003-5.385-12.003-12.004v-84.721c0-6.618 5.385-12.003 12.003-12.003h143.315c6.619 0 12.002 5.385 12.002 12.003z" fill="#fff"/><path d="m26.846 53.316h36.716c19.05 0 29.637 14.818 29.637 40.225 0 25.426-8.48 45.901-29.637 45.901h-36.716zm19.751 12.693h10.588c9.886 0 16.262 7.078 16.262 29.657 0 22.599-6.376 30.359-16.262 30.359h-10.588zm56.489-12.693h40.967c18.348 0 32.465 28.955 4.23 41.648 28.916 3.53 24.002 44.477-6.377 44.477h-38.82zm19.771 12.693h9.164c14.838 0 14.838 21.877 0 21.877h-9.164zm0 36.716h11.309c15.502 0 15.502 23.301 0 23.301h-11.309z" fill="#cc2229"/></g></svg>