<?xml version="1.0" encoding="UTF-8"?>
<!DOCTYPE svg PUBLIC "-//W3C//DTD SVG 1.1//EN" "http://www.w3.org/Graphics/SVG/1.1/DTD/svg11.dtd">
<!-- Creator: CorelDRAW X6 -->
<svg xmlns="http://www.w3.org/2000/svg" xml:space="preserve" width="40.64mm" height="23.2832mm" version="1.1" style="shape-rendering:geometricPrecision; text-rendering:geometricPrecision; image-rendering:optimizeQuality; fill-rule:evenodd; clip-rule:evenodd" viewBox="0 0 4064 2328" xmlns:xlink="http://www.w3.org/1999/xlink">
 <defs>
  <style type="text/css">
   <![CDATA[
    .fil0 {fill:#002A5D}
   ]]>
  </style>
 </defs>
 <g id="Camada_x0020_1">
  <metadata id="CorelCorpID_0Corel-Layer"/>
  <g id="logohavan.svg">
   <g>
    <path class="fil0" d="M1903 4c-345,25 -634,128 -777,276 -64,66 -92,127 -92,200 -1,205 272,394 670,467 118,21 203,28 342,28 141,1 221,-6 342,-28 263,-48 488,-154 597,-280 81,-94 97,-190 48,-289 -96,-196 -434,-346 -845,-374 -60,-4 -227,-4 -285,0zm251 43c365,22 666,140 778,305 30,43 43,86 43,133 0,68 -25,123 -85,186 -198,206 -679,310 -1112,242 -268,-42 -498,-148 -601,-276 -40,-49 -63,-106 -63,-153 0,-23 10,-67 21,-92 52,-116 200,-216 415,-281 175,-53 400,-76 604,-64l0 0z"/>
    <path class="fil0" d="M1700 164c-2,1 -3,9 -3,19l0 16 25 5c33,5 42,10 51,25l8 13 1 238c1,171 0,242 -2,252 -8,28 -21,35 -69,43 -14,2 -14,2 -14,20l0 18 142 0 141 0 0 -18c0,-19 2,-18 -30,-23 -28,-5 -38,-11 -46,-30 -8,-16 -8,-21 -8,-112l0 -95 151 -1 152 0 -1 97c-1,82 -2,100 -7,111 -8,16 -24,27 -44,30 -36,5 -34,4 -34,23l0 18 141 0 141 0 0 -18c0,-18 0,-18 -13,-20 -45,-8 -54,-12 -64,-33 -6,-13 -7,-26 -8,-242 -1,-253 0,-261 19,-280 10,-10 16,-12 39,-16l27 -4 0 -19 0 -20 -141 0 -141 0 0 19 0 19 24 5c35,5 42,10 51,29 8,15 9,21 10,112l1 96 -152 0 -153 0 0 -82c0,-136 5,-148 69,-157l17 -2 0 -19 0 -20 -139 0c-76,0 -140,1 -141,3l0 0z"/>
    <polygon class="fil0" points="0,1103 0,1178 2032,1178 4064,1178 4064,1103 4064,1028 2032,1028 0,1028 "/>
    <path class="fil0" d="M64 1303c0,20 1,22 9,23 4,1 18,4 31,6 31,5 42,13 54,34l9 18 0 294c0,293 0,293 -8,308 -4,7 -11,17 -15,20 -9,9 -33,16 -58,19l-22 3 0 22 0 23 172 0 172 0 0 -22 0 -22 -26 -5c-37,-5 -50,-12 -61,-28 -14,-21 -17,-50 -17,-162l0 -101 187 0 186 0 0 98c0,108 -3,140 -16,162 -11,18 -26,25 -63,32l-27 4 -1 22 -1 22 174 0 174 0 -1 -22 -1 -22 -28 -5c-37,-6 -54,-16 -64,-36l-8 -17 0 -295 0 -296 9 -16c10,-19 30,-30 60,-34 33,-4 33,-3 33,-27l0 -21 -174 0 -174 0 0 21c0,24 -1,23 34,27 25,4 46,14 55,26 15,22 16,31 18,149l1 114 -186 0 -187 0 1 -114c2,-124 3,-133 22,-154 11,-11 41,-22 62,-22 17,0 19,-4 19,-26l0 -21 -172 0 -172 0 0 21 0 0z"/>
    <path class="fil0" d="M1386 1290c-11,30 -282,646 -291,662 -14,27 -29,44 -47,55 -15,9 -58,20 -78,20l-10 0 0 23 0 23 171 0 172 0 0 -22 0 -23 -27 -4c-22,-4 -30,-7 -38,-15 -16,-16 -12,-39 18,-107l16 -36 134 0 135 1 19 47c23,54 28,82 16,94 -8,8 -26,14 -51,18l-17 2 -1 22 -1 23 173 0 172 0 0 -23 0 -22 -18 -2c-55,-6 -80,-19 -104,-53 -10,-13 -66,-138 -161,-355l-146 -334 -16 -1c-15,-1 -17,0 -20,7l0 0zm63 367l40 92 -41 1c-22,1 -60,1 -83,0l-43 -1 42 -94c22,-51 42,-93 43,-92 1,2 20,44 42,94l0 0z"/>
    <path class="fil0" d="M1565 1303c0,24 -1,23 34,27 48,6 76,26 103,74 6,13 75,168 153,346l141 324 16 -1 16 -1 140 -325c78,-178 146,-332 151,-343 24,-46 55,-68 103,-74 35,-4 34,-3 34,-27l0 -21 -174 0 -174 0 3 20c3,26 3,27 17,27 7,0 20,2 31,5 25,7 32,21 26,50 -2,11 -31,81 -63,155 -32,74 -70,161 -84,192 -13,32 -26,57 -27,57 -2,0 -8,-11 -13,-23 -5,-13 -43,-99 -83,-192 -41,-92 -76,-176 -78,-186 -9,-37 4,-52 49,-58l21 -2 1 -23 1 -22 -172 0 -172 0 0 21 0 0z"/>
    <path class="fil0" d="M2612 1301c-5,10 -70,160 -145,332 -142,326 -154,350 -183,370 -14,11 -60,24 -81,24l-12 0 0 23 0 23 172 0 172 0 0 -23 0 -22 -20 -3c-24,-3 -47,-11 -52,-20 -10,-19 -1,-59 27,-114l13 -25 134 0 133 0 17 34c27,58 33,88 22,105 -7,10 -18,14 -48,20l-24 4 -1 22 -1 22 174 0 174 0 -1 -22 -1 -22 -28 -4c-53,-9 -77,-23 -100,-62 -7,-11 -73,-160 -148,-330 -74,-171 -139,-319 -144,-331 -9,-20 -9,-20 -25,-20 -15,0 -15,0 -24,19l0 0zm71 364l37 84 -40 1c-22,1 -60,1 -84,0l-43 -1 36 -82c20,-46 38,-88 42,-95l5 -13 5 11c3,6 22,49 42,95l0 0z"/>
    <path class="fil0" d="M3126 1303c0,21 0,22 10,24 56,10 68,17 78,44 6,16 7,37 7,308l0 293 -9 17c-11,21 -25,29 -60,35l-24 5 -1 22 -1 22 159 0 160 0 0 -22 0 -23 -25 -4c-35,-5 -50,-14 -61,-35l-9 -17 -1 -221 -1 -220 8 9c18,21 245,303 294,366 28,37 68,90 89,117l36 50 64 0 64 0 1 -345c1,-326 1,-345 7,-359 10,-22 23,-32 50,-37 12,-2 26,-5 31,-6 7,-1 8,-3 8,-23l0 -21 -160 0 -159 0 0 21c0,21 0,22 10,24 42,8 56,13 66,23 18,20 18,20 19,281l2 244 -10 -12c-6,-5 -111,-139 -235,-296l-225 -285 -91 0 -91 0 0 21 0 0z"/>
    <polygon class="fil0" points="0,2252 0,2328 2032,2328 4064,2328 4064,2252 4064,2177 2032,2177 0,2177 "/>
   </g>
  </g>
 </g>
</svg>