<svg height="141" viewBox="0 0 400 141" width="400" xmlns="http://www.w3.org/2000/svg"><path d="M45.82.691c9.535 0 12.531 6.83 15.036 13.66 1.064 2.894 25.831 70.717 26.569 72.752.208.562.072 1.5-.804 1.834-.877.33-13.747 5.337-14.457 5.606-.712.265-1.513-.13-1.775-.837-.263-.703-5.598-15.49-6.2-17.142H27.494c-.604 1.652-5.994 16.468-6.242 17.142-.245.68-1.02 1.133-1.771.837-.755-.3-13.683-5.308-14.447-5.606-.738-.283-1.08-1.125-.814-1.834.907-2.544 25.298-69.273 26.546-72.752C33.181 7.631 36.287.691 45.82.691zM2.256 122.038c-.769 0-1.39.64-1.39 1.427v15.846c0 .791.622 1.423 1.39 1.423h87.128c.763 0 1.378-.632 1.378-1.423v-15.846c0-.785-.615-1.427-1.378-1.427zm43.49-99.201l-12.41 37.256h25.015L45.9 22.837zm186.166 61.082c-1.824.625-3.03.777-4.47.777-2.965 0-4.616-1.175-4.616-4.22 0-3.168 2.099-4.236 6.206-4.236.99 0 1.989.146 2.449.307v2.267c0 2.452.128 4.06.431 5.105zm10.543 3.64c-2.187-3.33-2.758-5.29-2.758-9.49v-8.505c0-4.593-.532-6.243-1.75-7.92-1.682-2.367-4.49-3.393-9.665-3.393-3.653 0-7.208.398-10.643 1.27l1.229 6.058c2.33-.324 4.767-.608 6.486-.608 5.495 0 6.129.799 6.129 4.916v1.54a16.017 16.017 0 00-4.192-.562c-8.266 0-12.63 4.043-12.63 10.733 0 6.279 4.657 9.7 10.344 9.7 2.13 0 4.343-.391 6.097-1.1 1.057-.468 1.518-.736 2.896-1.631.817 1.208 2.48 2.435 3.155 2.655zm81.768-3.64c-1.83.625-3.027.777-4.472.777-2.97 0-4.65-1.175-4.65-4.22 0-3.168 2.125-4.236 6.241-4.236.994 0 1.985.146 2.437.307v2.267c0 2.452.134 4.06.444 5.105zm10.543 3.64c-2.198-3.33-2.763-5.29-2.763-9.49v-8.505c0-4.593-.533-6.243-1.754-7.92-1.68-2.367-4.486-3.393-9.665-3.393-3.658 0-7.244.398-10.67 1.27l1.223 6.058c2.329-.324 4.774-.608 6.53-.608 5.477 0 6.112.799 6.112 4.916v1.54a15.87 15.87 0 00-4.187-.562c-8.293 0-12.662 4.043-12.662 10.733 0 6.279 4.663 9.7 10.38 9.7 2.127 0 4.342-.391 6.092-1.1 1.068-.468 1.52-.736 2.891-1.631.827 1.208 2.493 2.435 3.165 2.655zm64.368 3.031s-4.527-9.661-5.631-11.851c-1.253-2.48-2.404-4.193-4.96-4.795v-.149c1.71-.324 3.074-1.362 4.54-4.52 1.429-3.083 1.843-3.747 2.668-4.474.819-.739 1.931-.463 1.931-.463l.425-5.706c-1.19-.156-2.508-.16-3.865-.082-2.245.134-3.411.772-4.516 1.892-.857.854-1.448 2.128-2.173 3.586-.778 1.596-1.39 2.884-2.182 4.511-.79 1.66-1.184 2.407-3.332 2.407h-1.392v-25.22h-8.293v44.863h8.293V77.692l1.125-.024c2.378 0 2.79.587 4.041 3.09 1.475 2.989 4.28 9.832 4.28 9.832zm-233.154 0h9.555L161.09 46.482c-1.515-.512-3.407-.831-5.415-.831-2.193 0-2.972.292-4.691.831L135.708 90.59h9.16s1.232-3.867 2.697-8.67h15.836c1.42 4.799 2.579 8.67 2.579 8.67zm-16.088-16.067s2.636-8.847 3.043-10.232c1.068-3.562 2.66-9.23 2.66-9.23h.267s1.469 5.875 2.437 9.178l2.895 10.284zm106.666-5.036a5.304 5.304 0 00-5.296 5.305 5.29 5.29 0 005.296 5.299 5.288 5.288 0 005.29-5.3c0-2.924-2.37-5.304-5.29-5.304zm-69.68-23.761h-8.295v44.863h8.295zm164.867 19.653c4.578.105 5.14 1.045 5.14 4.898V90.59h8.22V69.563c0-4.593-.532-6.243-1.75-7.92-1.682-2.367-5.008-3.393-10.613-3.393-5.546 0-9.074.59-13.629 1.944V90.59h8.305V65.77c2.19-.316 2.564-.39 4.327-.39zm-144.35-20.45c-5.177 0-7.99 1.02-9.67 3.389-1.217 1.676-1.751 3.37-1.751 7.966v3.91h-4.123V66.9h4.123v23.69h8.217l-.019-23.689h8.209v-6.706h-8.209l.019-3.596c0-4.111.637-4.91 6.13-4.91.59 0 1.257.032 1.972.087l1.298-6.441a46.384 46.384 0 00-6.197-.404zm66.029.415c2.823-.164 9.125-.4 13.094-.4.705 0 1.446.007 2.205.04 7.795 0 12.252 5.675 12.252 12.326 0 4.523-2.07 7.526-6.925 9.319 5.721 1.264 8.715 5.73 8.715 11.182 0 4.005-1.142 7.182-3.223 9.354-2.68 2.654-6.747 4.133-12.158 4.131-4.836 0-10.878-.145-13.961-.328V45.344zm13.095 7.356c-1.39 0-3.072.022-4.763.083v10.773h4.77c1.87 0 3.395-.526 4.433-1.54.978-.949 1.485-2.301 1.485-3.905 0-3.439-1.86-5.395-5.322-5.411h-.603zm.158 30.868h.383c4.289 0 6.95-2.298 6.977-6.924-.049-1.67-.68-3.197-1.811-4.304-1.258-1.254-3.024-1.91-5.092-1.91h-5.379v13.086c1.517.032 3.184.045 4.922.052z" fill="#e3e8f0"/></svg>