<svg height="248" viewBox="0 0 400 248" width="400" xmlns="http://www.w3.org/2000/svg"><path d="M337.002 245.616v-53.09h-21.91v53.09zm-115.993-22.044V193.33h-21.237v23.117c0 6.72-.268 8.604-.67 10.351-1.48 4.84-6.588 6.986-11.828 6.986-7.256 0-10.618-2.82-11.962-7.256-.403-1.475-.537-3.088-.671-4.702-.135-1.747 0-3.631 0-5.642v-22.852h-21.505v30.377c0 6.858 2.287 11.963 6.048 15.456 6.45 6.32 17.339 8.2 27.418 8.2 12.231 0 21.64-1.747 28.36-8.332 3.496-3.363 6.047-7.798 6.047-15.461zm-104.298-3.763a18.055 18.055 0 00-3.224-.267H89.295c-1.21 0-2.555.135-3.226.267.402-.405 1.21-1.209 2.016-2.284l10.885-18.013c1.48-2.417 2.15-4.03 2.419-4.701.268.671.94 2.284 2.419 4.84l11.156 18.145c.54.804 1.345 1.608 1.747 2.013zm40.591 25.807l-48.386-72.576H81.768l7.122 8.467c.134.133.405.267.671.405-.268.134-.537.265-.671.4l-42.202 63.304h24.46l6.588-10.888c.269-.537.403-1.075.403-1.342.268 0 .942.267 1.613.267h43.68c.672 0 1.21-.135 1.478-.267-.025.377.069.754.268 1.075l6.856 11.155zm151.879-27.283c0-5.915-2.421-12.772-9.946-22.314l-18.147-22.981h-25.269l14.381 16.127c2.421 2.69 5.512 5.107 5.512 5.107-3.493-2.02-7.928-2.821-11.423-2.821-8.333 0-16.803 1.747-24.326 5.916-8.067 4.43-13.444 11.824-13.444 21.638 0 7.525 3.362 13.307 7.662 17.74 9.68 9.676 27.282 10.618 33.735 10.618 9.54 0 24.461-2.149 32.931-9.81 4.974-4.572 8.334-10.886 8.334-19.22zm-20.969.672c0 5.51-3.631 9.676-8.2 11.96-3.763 2.017-8.2 2.554-12.096 2.554-3.895 0-8.467-.807-12.23-2.69-4.568-2.283-8.067-6.718-8.067-11.557 0-5.777 4.435-10.35 9.68-12.635 3.227-1.476 7.124-2.014 10.212-2.014 2.96 0 7.26.4 10.622 1.747 6.05 2.551 10.08 7.39 10.08 12.635zm41.83-219a69.59 69.59 0 00-43.349 15.06 69.585 69.585 0 00-43.35-15.06 69.596 69.596 0 00-43.345 15.06A69.57 69.57 0 00156.651.006a69.597 69.597 0 00-43.346 15.06A69.593 69.593 0 0069.96.006C31.343.005.049 31.296.049 69.915c0 38.613 31.292 69.909 69.91 69.909a69.6 69.6 0 0043.346-15.061 69.594 69.594 0 0043.346 15.06 69.575 69.575 0 0043.347-15.06 69.597 69.597 0 0043.346 15.06 69.589 69.589 0 0043.349-15.06 69.581 69.581 0 0043.35 15.06c38.613 0 69.906-31.293 69.906-69.909C399.95 31.3 368.656.005 330.042.005zM101.867 113.342c-8.909 6.5-20.038 10.465-31.908 10.465-29.79 0-53.895-24.103-53.895-53.893S40.169 16.02 69.959 16.02c11.87 0 22.993 3.969 31.908 10.47a69.499 69.499 0 00-15.123 43.425 70.013 70.013 0 0015.123 43.428zm11.44-11.406a53.57 53.57 0 01-10.546-32.022 53.479 53.479 0 0110.546-32.021 53.5 53.5 0 0110.547 32.021 53.581 53.581 0 01-10.547 32.022zm75.254 11.406a53.663 53.663 0 01-31.946 10.45 53.5 53.5 0 01-31.871-10.45 69.993 69.993 0 0015.122-43.426 69.499 69.499 0 00-15.122-43.425 53.484 53.484 0 0131.871-10.451c11.957 0 23.004 3.868 31.946 10.45a69.496 69.496 0 00-15.122 43.426 69.995 69.995 0 0015.122 43.426zm11.437-11.406a53.568 53.568 0 01-10.547-32.022 53.49 53.49 0 0110.547-32.021 53.489 53.489 0 0110.548 32.021 53.567 53.567 0 01-10.548 32.022zm75.256 11.406c-8.942 6.586-19.99 10.45-31.943 10.45-11.957 0-22.932-3.871-31.874-10.45a69.983 69.983 0 0015.12-43.426 69.502 69.502 0 00-15.12-43.425c8.942-6.58 19.917-10.451 31.874-10.451 11.954 0 23.001 3.868 31.943 10.45a69.515 69.515 0 00-15.122 43.426 70.02 70.02 0 0015.122 43.426zm11.44-11.406a53.566 53.566 0 01-10.545-32.022 53.463 53.463 0 0110.546-32.021 53.503 53.503 0 0110.547 32.021 53.606 53.606 0 01-10.547 32.022zm43.348 21.871c-11.875 0-23.003-3.966-31.909-10.465a70.02 70.02 0 0015.123-43.426 69.515 69.515 0 00-15.123-43.425c8.916-6.499 20.035-10.47 31.91-10.47 29.783 0 53.894 24.106 53.894 53.895 0 29.786-24.11 53.891-53.895 53.891z" fill="#e3e8f0" fill-rule="evenodd"/></svg>