<svg fill="none" height="30" viewBox="0 0 172 30" width="172" xmlns="http://www.w3.org/2000/svg"><clipPath id="a"><path d="M0 0h172v30H0z"/></clipPath><g clip-path="url(#a)" fill="#e3e8f0"><path d="M25 10.8l1-3.9h-.4l-1.1 3.9zm1.2 0l1-3.9h-.6l-1 3.9z"/><path d="M46.8 6.9H28.1l-1 3.9H34c-.8.5-9.8 6.4-15 9.9l-1.5 5.6zm-21.6 0h-2v3.9h.9zM16.3 0H16l-1.1 3.9h.4zm.9 0h-.5l-1.1 3.9h.5zm.5 0l-1 3.9h.6l1-3.9z"/><path d="M39.3 0h-20l-1 3.9h8.9c-1.2.8-15 9.9-15 9.9l2.1 3.2L40 0zM2 16.9L3 13h-.4l-1.1 3.9zm.2-3.9h-.3L.8 16.9h.3zm1 3.9l1-3.9h-.6l-1 3.9z"/><path d="M25.8 13H5l-1 3.9h8.8c-.8.5-7.1 4.7-11.3 7.4L0 30zm34.3 1.4v-.2c2.1-.4 3.6-1.1 4.4-1.8.9-.8 1.4-1.9 1.4-3.2 0-1.8-.6-3.1-1.9-3.9S60.7 4 58 4H47.3v.7h3.1v20.1h-3.1v.7H58c2.8 0 4.9-.5 6.4-1.4 1.5-1 2.2-2.4 2.2-4.2 0-1.6-.6-2.8-1.7-3.8-1.1-.9-2.8-1.5-4.8-1.7zm0-1.5c-.5.5-1.6 1.2-3.7 1.2h-1.6V4.8h2.3c1.8 0 2.8.9 3.2 1.4.5.6.8 1.8.8 3.4 0 1.5-.3 2.6-1 3.3zm-5.3 1.9h1.8c2.3 0 3.5.8 4 1.3.8.7 1.2 1.9 1.2 3.6 0 1.8-.3 3.1-.9 3.7-.4.4-1.5 1.5-3.5 1.5h-2.6zm25-1.7c-.5-.4-1.1-.6-1.8-.6-.9 0-1.8.3-2.5.8s-1.3 1.3-1.8 2.3v-2.8h-5.8v.6H70v11.5h-2.2v.6h8.6v-.6h-2.8v-6.7c0-1.1.3-2.2 1-3.1.6-.9 1.3-1.4 2-1.4.1 0 .2.1.3.1v.6l-.1.6c0 .5.2.9.5 1.2s.8.4 1.4.4c.5 0 1-.2 1.3-.5.3-.4.5-.8.5-1.4s-.2-1.1-.7-1.6zm22.1-.1l-.2-.1h-5.6v.6h2.1v11.4h-2.4v.6h8.4v-.6H102c0-.3-.1-11.9-.1-11.9zm18.4 3.4c0-1.3-.4-2.2-1-2.9-.7-.6-1.7-1-3-1-1 0-1.8.2-2.6.7-.7.5-1.4 1.2-2 2.2V13l-.2-.1h-5.6v.6h2.2v11.4h-2.2v.6h7.9v-.6h-2v-6.7c0-1.2.4-2.4 1.1-3.4.7-.9 1.5-1.4 2.4-1.4.5 0 .9.1 1.1.3s.3.8.3 1.5v9.6h-1.9v.6h7.6v-.6h-2v-8.4zm13.6-.5c3 0 5.3-.5 6.8-1.4 1.5-1 2.2-2.5 2.2-4.4 0-2-.7-3.5-2.2-4.5-1.4-1-3.6-1.5-6.4-1.5h-10.6v.7h3.1v20.1h-3.1v.7h10.8v-.7h-3.3v-9zm-2.6-11.1h2.4c2 0 3.1 1 3.5 1.4.6.7.9 1.9.9 3.6 0 1.9-.4 3.2-1.1 3.9-.6.6-1.9 1.5-4 1.5h-1.7zM93.5 24.5c-.1 0-.2.2-.4.2-.3 0-.5-.1-.5-.1-.1-.1-.2-.2-.2-.4v-7.6s0-1.6-.2-2.1c-.2-.6-.8-.9-.8-.9s-.5-.4-1.8-.7c-1.4-.3-2.5-.2-2.5-.2-1.5 0-2.7.3-3.7.9s-1.5 1.4-1.5 2.3c0 .5.1.9.4 1.2s.7.4 1.2.4c.3 0 .9 0 1.3-.4s.5-.8.5-1.4c0-.5-.3-1.1-.4-1.3s-.2-.4-.3-.5c0-.1.2-.3.6-.4.3-.1.9-.3 1.7-.3.7 0 1.2.1 1.4.4.2.2.4.8.4 2.2v2.3h-1.1c-1.9 0-3.5.4-4.8 1.2s-1.9 1.9-1.9 3.2c0 1.1.3 2 .9 2.6s1.5.9 2.6.9c.9 0 1.7-.2 2.5-.5.7-.3 1.4-.9 2-1.6.1.7.3 1.2.8 1.6.4.4 1 .5 1.6.5.7 0 1.3-.2 1.9-.5s1-.8 1.3-1.4l.1-.2-.4-.2c-.2.4-.6.7-.7.8zM84.6 22c0-.9.3-2 1-2.4s1.8-.7 3.2-.7v3.5c0 .8-.1 1.1-.6 1.6s-1 .7-1.6.7-1.1-.2-1.5-.5c-.5-.7-.5-1.6-.5-2.2zm85.4 3.1v-21l-.2-.1h-5.6v.6h2v9.9h-.2c-.4-.6-1-1.1-1.6-1.4s-1.3-.5-2.1-.5c-1.7 0-3.2.6-4.3 1.9-1.2 1.3-1.7 2.9-1.7 4.8s.6 3.5 1.7 4.8 2.5 1.9 4.2 1.9c.8 0 1.5-.2 2.2-.5.6-.3 1.2-.8 1.7-1.5h.1v1.7l.2.1h5.6v-.6zm-9.1-.5c-.3-.5-.5-1.7-.5-3v-4.4c0-1.6.2-2.9.5-3.4s.8-.7 1.6-.7c.9 0 1.8.4 2.5 1.2s1.1 1.7 1.1 2.7v4.2c0 1.2-.4 2.2-1.1 2.9s-1.7 1.1-2.7 1.1c-.7.1-1.1-.1-1.4-.6zM110 4.9h-8.3v.6h4.2L97 11.8h5.1l9.8-6.9zm44.1 19.6c-.1 0-.2.2-.4.2-.3 0-.5-.1-.5-.1-.1-.1-.2-.2-.2-.4v-7.6s0-1.6-.2-2.1c-.2-.6-.8-.9-.8-.9s-.5-.4-1.8-.7c-1.4-.3-2.5-.2-2.5-.2-1.5 0-2.7.3-3.7.9s-1.5 1.4-1.5 2.3c0 .5.1.9.4 1.2s.7.4 1.2.4c.3 0 .9 0 1.3-.4s.5-.8.5-1.4c0-.5-.3-1.1-.4-1.3s-.2-.4-.3-.5c0-.1.2-.3.6-.4.3-.1.9-.3 1.7-.3.7 0 1.2.1 1.4.4.2.2.4.8.4 2.2v2.3h-1.1c-1.9 0-3.5.4-4.8 1.2s-1.9 1.9-1.9 3.2c0 1.1.3 2 .9 2.6s1.5.9 2.6.9c.9 0 1.7-.2 2.5-.5.7-.3 1.4-.9 2-1.6.1.7.3 1.2.8 1.6.4.4 1 .5 1.6.5.7 0 1.3-.2 1.9-.5s1-.8 1.3-1.4l.1-.2-.4-.2c-.2.4-.6.7-.7.8zm-8.9-2.5c0-.9.3-2 1-2.4s1.8-.7 3.2-.7v3.5c0 .8-.1 1.1-.6 1.6s-1 .7-1.6.7-1.1-.2-1.5-.5c-.5-.7-.5-1.6-.5-2.2z"/></g></svg>