<svg fill="none" height="191" viewBox="0 0 662 191" width="662" xmlns="http://www.w3.org/2000/svg"><path d="M283.422 111.178v28.513c5.504 0 11.012-.119 15.862-.119 14.158 0 17.041-8.13 17.041-14.14 0-5.89-3.801-14.254-17.827-14.254zm0-9.659h13.766c12.321 0 15.072-6.6 15.072-12.137 0-5.77-2.49-12.134-14.811-12.134-3.672 0-9.833 0-14.027-.118zm14.287-33.813c19.272 0 28.58 8.012 28.58 21.324 0 7.424-4.983 13.901-12.323 16.496 8.912 2.354 16.65 10.482 16.65 20.617 0 13.076-9.442 22.973-31.2 22.973-10.619 0-19.14-.238-28.972-.354l-.787-.824V68.883l.787-.824c9.57-.119 18.614-.353 27.265-.353m57.132 38.525c5.11-.118 10.878-.237 14.55-.237 12.848 0 15.994-7.303 15.994-14.136 0-7.188-3.146-14.256-15.994-14.256-3.804 0-10.093 0-14.55-.119zm28.184 7.068c4.325 1.416 7.47 5.419 9.306 10.016l5.768 13.783c1.312 3.181 2.883 6.361 5.898 8.484-1.832 2.471-5.898 3.887-9.436 3.887-5.244 0-7.08-2.594-9.176-7.659l-6.558-15.905c-2.225-5.419-5.11-9.659-13.24-9.659h-10.746v32.399c-2.096.352-4.723.472-6.947.472-2.1 0-4.851-.12-6.819-.472V68.883l.787-.824c9.832-.118 19.272-.353 28.183-.353 18.222 0 29.76 8.484 29.76 24.152 0 10.84-7.212 18.733-16.78 21.441m51.891 5.656c2.1 0 5.64-.119 6.687-.119h13.108c.917 0 4.456.119 6.558.119l-6.034-17.083c-2.356-6.833-5.111-15.08-6.947-21.324h-.653c-1.31 5.3-3.672 12.724-5.115 17.084zm-3.539 10.131l-6.946 19.676c-1.706.354-3.932.472-6.03.472-2.493 0-4.982-.356-6.818-.824l-.394-.591 29.628-79.641c2.096-.354 5.768-.472 7.998-.472 2.228 0 5.896.118 7.864.472l29.366 79.641c-1.969 1.177-5.114 1.649-8.129 1.649-4.325 0-6.555-1.416-8.257-6.596l-4.851-13.786c-2.229 0-6.819.118-7.868.118h-17.959c-1.05 0-5.374-.118-7.604-.118m67.107 2.594c7.604 4.473 17.305 8.012 26.348 8.012 10.618 0 16.646-4.598 16.78-11.078 0-5.537-4.326-9.777-11.931-12.721l-15.468-6.009c-11.012-4.243-17.959-10.368-17.959-20.383 0-12.842 12.058-22.855 29.627-22.855 10.88 0 20.972 3.063 27.792 6.124-.133 3.535-2.229 7.422-5.115 9.782-6.816-3.066-15.729-5.54-22.416-5.54-9.7 0-15.73 4.83-15.73 11.077 0 5.184 4.458 8.127 10.88 10.603l15.209 5.889c11.271 4.24 19.661 11.428 19.661 21.915 0 13.548-10.486 23.68-32.116 23.68-10.884 0-22.681-3.302-31.464-8.838.394-3.649 3.015-7.541 5.902-9.658m73.967-63.502c1.97-.353 4.851-.472 6.947-.472 2.1 0 4.851.119 6.951.472v80.466c-2.1.352-4.851.472-6.951.472-2.096 0-4.977-.12-6.947-.472zm88.369 69.626c0 1.297-.134 3.419-.394 4.949-.786 4.007-4.065 6.01-9.046 6.01h-34.214c-4.717 0-8.129-2.71-8.129-7.778V68.412l.919-.706h5.242c5.768 0 7.87 2.476 7.87 8.013v62.557c4.058-.353 8.124-.472 11.664-.472zM277.611 35.078c1.962-.062 4.099-.122 4.988-.122 5.283 0 6.351-4.333 6.351-7.477 0-3.207-1.068-7.483-6.351-7.483-1.482 0-3.205 0-4.988-.06zm5.462 6.054h-5.462v13.476c-1.245.239-2.849.295-3.976.295-1.068 0-2.729-.056-3.978-.295v-40.25l.417-.357c4.748-.12 8.727-.237 12.999-.237 8.193 0 14.069 4.453 14.069 13.715 0 8.964-5.876 13.653-14.069 13.653zm25.529-2.017c.832 0 2.078-.06 2.672-.06h5.104c.534 0 1.662.06 2.495.06l-1.783-6.058c-1.006-3.384-2.316-7.955-3.205-11.516h-.356c-.593 3.026-1.84 7.304-2.611 10.032zm-1.961 6.29l-2.789 9.264c-1.01.234-2.194.296-3.444.296-1.244 0-2.848-.179-3.799-.535l-.295-.416 13.238-39.955c1.305-.178 3.266-.296 4.633-.296 1.244 0 3.323.118 4.571.356l12.998 39.956c-1.126.651-3.026 1.011-4.57 1.011-2.552 0-3.8-.893-4.75-4.277l-1.661-5.404c-.889 0-2.316.061-2.911.061h-8.31c-.594 0-1.96 0-2.911-.061m33.367-20.36c0-1.605.056-2.732.056-4.393h-.056c-.833 0-2.733.056-3.565.056h-6.588c-.239-1.184-.3-2.372-.3-3.323 0-.89.061-2.137.3-3.327h28.379c.234.834.413 2.078.413 3.09 0 2.61-1.363 3.56-4.273 3.56h-2.788c-.834 0-2.734-.056-3.566-.056h-.057c0 1.661.057 2.788.057 4.393v29.563c-1.368.24-2.85.296-4.034.296-1.132 0-2.616-.056-3.978-.296zm31.641 7.833a113.57 113.57 0 015.461-.177c5.166 0 6.35-3.145 6.35-6.41 0-3.323-1.184-6.413-6.35-6.413-1.428 0-3.621 0-5.461-.06zm12.584 4.278c2.137.772 3.56 2.788 4.392 5.221l2.2 5.999c.589 1.661 1.483 3.265 2.789 4.333-1.01 1.423-3.206 2.376-5.284 2.376-2.91 0-3.921-1.604-5.048-4.692l-2.494-7.067c-.89-2.372-2.078-4.272-5.522-4.272h-3.617v15.554c-1.309.24-2.853.296-3.981.296-1.006 0-2.671-.056-3.918-.296v-40.25l.418-.356c4.749-.121 9.26-.238 13.536-.238 8.25 0 13.949 4.094 13.949 12.526 0 5.639-3.561 9.499-7.42 10.866m15.791-23.097c1.189-.235 2.911-.295 3.977-.295 1.128 0 2.672.06 3.978.295v40.549c-1.306.239-2.85.295-3.978.295-1.066 0-2.788-.056-3.977-.295zm26.18 25.056c.833 0 2.078-.06 2.672-.06h5.105c.533 0 1.661.06 2.493.06l-1.782-6.058c-1.007-3.384-2.315-7.955-3.204-11.516h-.356c-.595 3.026-1.84 7.304-2.612 10.032zm-1.96 6.29l-2.79 9.264c-1.009.234-2.198.296-3.444.296-1.244 0-2.848-.179-3.798-.535l-.296-.416 13.238-39.955c1.306-.178 3.266-.296 4.632-.296 1.246 0 3.323.118 4.567.356l13.004 39.956c-1.127.651-3.027 1.011-4.571 1.011-2.552 0-3.8-.893-4.75-4.277l-1.662-5.404c-.889 0-2.314.061-2.91.061h-8.31c-.593 0-1.961 0-2.91-.061m52.126-6.29c.832 0 2.078-.06 2.671-.06h5.105c.534 0 1.662.06 2.494.06l-1.783-6.058c-1.005-3.384-2.315-7.955-3.204-11.516h-.356c-.595 3.026-1.84 7.304-2.612 10.032zm-1.961 6.29l-2.789 9.264c-1.01.234-2.195.296-3.444.296-1.244 0-2.848-.179-3.799-.535l-.295-.416L477.32 14.06c1.305-.178 3.265-.296 4.633-.296 1.244 0 3.321.118 4.569.356l13 39.956c-1.126.651-3.026 1.011-4.57 1.011-2.552 0-3.8-.893-4.751-4.277l-1.661-5.404c-.888 0-2.315.061-2.911.061h-8.309c-.594 0-1.962 0-2.911-.061m32.886-31.286c1.723-.295 3.981-.417 5.344-.417 1.427 0 3.383.122 5.048.416l4.572 16.447c.416 1.663 1.899 7.777 2.255 10.15h.417c.355-2.373 1.839-8.487 2.255-10.15l4.512-16.447a32.84 32.84 0 015.044-.416c1.426 0 3.621.122 5.404.416l3.144 40.372c-1.128.295-2.728.412-4.034.412-1.249 0-2.377-.056-3.504-.234l-1.128-19.058c-.238-3.682-.472-9.144-.472-12.881h-.417l-6.948 25.824c-1.185.177-2.967.295-4.095.295-1.072 0-2.849-.118-4.037-.295l-6.944-25.824h-.417c-.062 3.737-.239 9.199-.476 12.881L511.69 54.67c-1.128.178-2.312.234-3.562.234-1.245 0-2.85-.117-3.977-.412zm54.919 24.995c.832 0 2.079-.06 2.672-.06h5.105c.532 0 1.66.06 2.494.06l-1.783-6.058c-1.007-3.384-2.316-7.955-3.205-11.516h-.356c-.594 3.026-1.839 7.304-2.611 10.032zm-1.961 6.29l-2.79 9.264c-1.009.234-2.193.296-3.442.296-1.246 0-2.85-.179-3.799-.535l-.296-.416 13.237-39.955c1.306-.178 3.267-.296 4.634-.296 1.244 0 3.322.118 4.57.356l12.999 39.956c-1.127.651-3.027 1.011-4.571 1.011-2.552 0-3.8-.893-4.749-4.277l-1.661-5.404c-.89 0-2.316.061-2.911.061h-8.311c-.593 0-1.96 0-2.91-.061m45.296-25.348c-2.255 0-4.095 0-6.472-.06v28.674c2.377-.058 4.217-.058 6.472-.058 7.776 0 8.904-7.78 8.904-14.308 0-6.532-1.128-14.248-8.904-14.248zm10.626 31.879c-2.61 2.139-7.422 2.967-10.626 2.967-4.988 0-8.844-.118-14.011-.235l-.415-.355V14.36l.415-.358c5.105-.177 9.023-.237 14.011-.237 3.204 0 8.016.832 10.626 2.967 5.46 4.393 6.471 10.686 6.471 17.574 0 6.944-.951 13.238-6.471 17.631m21.491-12.822c.833 0 2.079-.06 2.672-.06h5.105c.534 0 1.662.06 2.494.06l-1.783-6.058c-1.007-3.384-2.316-7.955-3.204-11.516h-.357c-.594 3.026-1.839 7.304-2.611 10.032zm-1.96 6.29l-2.789 9.264c-1.01.234-2.199.296-3.444.296-1.244 0-2.85-.179-3.799-.535l-.296-.416 13.239-39.955c1.304-.178 3.265-.296 4.632-.296 1.244 0 3.322.118 4.566.356l13.004 39.956c-1.128.651-3.028 1.011-4.57 1.011-2.552 0-3.8-.893-4.751-4.277l-1.661-5.404c-.89 0-2.316.061-2.911.061h-8.309c-.595 0-1.962 0-2.911-.061M321.228.175c1.174.616 2.776 2.474 3.192 4.239l-9.833 5.845c-.992-.361-1.899-1.674-2.193-2.66zm-41.761 173.148l4.53-.029c2.04 0 3.059.962 3.059 2.885v7.591c-2.481.786-5.088 1.181-7.82 1.181-1.385 0-2.611-.231-3.68-.692a7.109 7.109 0 01-2.683-1.991c-.72-.865-1.265-1.929-1.629-3.189-.367-1.259-.549-2.688-.549-4.285 0-1.75.254-3.275.765-4.574.509-1.298 1.192-2.38 2.048-3.246s1.841-1.515 2.959-1.948a9.572 9.572 0 013.49-.648c2.502 0 4.85.69 7.042 2.076a3.096 3.096 0 01-.216.938c-.126.318-.28.626-.462.923a4.31 4.31 0 01-.636.808 5.298 5.298 0 01-.736.621c-1.597-1.038-3.213-1.56-4.846-1.56-3.138 0-4.706 2.195-4.706 6.582 0 4.368 1.607 6.549 4.819 6.549.444 0 .872-.019 1.285-.056.414-.04.823-.096 1.227-.173v-1.934c0-.444.004-.829.015-1.156.009-.325.024-.605.042-.836h-1.442c-.827 0-1.4-.158-1.718-.476-.317-.318-.474-.812-.474-1.486 0-.578.105-1.203.316-1.875m25.423 5.829c.52 1.5 1.568 2.25 3.145 2.25.79 0 1.43-.196 1.92-.591s.875-.895 1.154-1.5a7.038 7.038 0 00.564-2.035c.094-.752.142-1.492.142-2.222 0-.674-.022-1.423-.07-2.252a9.51 9.51 0 00-.42-2.322c-.231-.721-.596-1.326-1.096-1.817s-1.232-.736-2.194-.736c-.922 0-1.629.235-2.12.705a4.35 4.35 0 00-1.097 1.746 8.647 8.647 0 00-.448 2.209 28.594 28.594 0 00-.085 2.064c0 .884.042 1.672.129 2.364.087.693.245 1.405.476 2.137zm-2.337 3.982c-2.059-1.712-3.087-4.531-3.087-8.455 0-1.693.196-3.179.591-4.459.394-1.278.961-2.352 1.701-3.217a7.12 7.12 0 012.7-1.963c1.057-.442 2.251-.662 3.577-.662 1.328 0 2.526.22 3.594.662a7.083 7.083 0 012.712 1.976c.741.876 1.308 1.954 1.702 3.232.394 1.28.592 2.756.592 4.431 0 1.673-.198 3.149-.592 4.429s-.961 2.352-1.702 3.218a7.112 7.112 0 01-2.712 1.962c-1.068.442-2.266.663-3.594.663-2.192 0-4.02-.605-5.482-1.817m33.877-2.481l3.78-15.843c.463-.116 1.058-.174 1.79-.174 1 0 1.789.106 2.365.317l.175.232-5.398 19.333a31.365 31.365 0 01-3.304.174c-1.105 0-1.904-.139-2.394-.419-.491-.279-.862-.832-1.111-1.659l-4.791-17.4c1.039-.442 1.895-.665 2.568-.665.808 0 1.404.184 1.79.549.384.364.682.943.894 1.731l2.222 8.225c.346 1.29.712 3.039 1.097 5.251.037.231.144.348.317.348m24.99-1.963l-.028 2.078v.028c.881-.037 1.59-.058 2.126-.058h6.674c0 .713-.028 1.261-.087 1.646-.229 1.482-1.212 2.222-2.943 2.222h-7.676c-.828 0-1.477-.24-1.948-.722-.472-.481-.706-1.136-.706-1.962v-16.91l.201-.202h12.437c.116.558.174 1.165.174 1.818 0 .652-.135 1.336-.404 2.048h-7.848l.028 2.078v2.02a53.56 53.56 0 011.953-.028h4.396c.172.537.259 1.153.259 1.846 0 .692-.087 1.327-.259 1.904h-6.349zm26.461-10.62v5.685c.865 0 1.606-.015 2.221-.043.616-.029 1.112-.145 1.487-.348.376-.204.658-.489.852-.856.19-.366.289-.898.289-1.596 0-1.876-.905-2.812-2.712-2.812h-1.199c-.356 0-.669-.009-.938-.03zm9.552 2.828c0 .636-.096 1.236-.29 1.804a5.93 5.93 0 01-.764 1.529 5.454 5.454 0 01-1.125 1.184 5.126 5.126 0 01-1.343.764c1 .367 1.742 1.252 2.222 2.655l.868 2.453c.325.963.806 1.672 1.441 2.135-.288.385-.721.708-1.299.966-.576.262-1.212.391-1.904.391s-1.23-.199-1.616-.593c-.385-.394-.741-1.082-1.068-2.063l-1.038-3.029c-.212-.578-.496-1.02-.852-1.327-.356-.308-.89-.463-1.6-.463h-1.184v7.215c-.616.115-1.386.173-2.308.173-.924 0-1.684-.058-2.279-.173v-19.565l.201-.203c1.674-.037 3.082-.065 4.227-.087 1.144-.018 2.044-.028 2.699-.028 1.057 0 2.02.13 2.885.39s1.603.649 2.208 1.169 1.076 1.173 1.413 1.961c.336.79.506 1.703.506 2.742m29.03-6.29l.201.202v19.622c-.771.174-1.679.26-2.728.26-1.048 0-1.976-.057-2.783-.173l-4.532-10.331a53.772 53.772 0 01-1.644-4.068l-.088.028c.232 2.81.347 5.686.347 8.628v5.743c-.596.116-1.317.173-2.164.173s-1.559-.057-2.134-.173v-19.623c.73-.173 1.61-.26 2.64-.26 1.028 0 1.947.059 2.755.174l4.474 10.301c.806 1.905 1.404 3.368 1.789 4.387l.115-.059a98.987 98.987 0 01-.347-8.511v-3.52c0-1.001.201-1.718.607-2.15.404-.435 1.057-.65 1.962-.65zm18.728 14.544c.518 1.5 1.568 2.25 3.144 2.25.789 0 1.429-.196 1.92-.591.49-.395.874-.895 1.153-1.5.28-.605.467-1.285.564-2.035.095-.752.144-1.492.144-2.222 0-.674-.024-1.423-.072-2.252a9.37 9.37 0 00-.419-2.322c-.232-.721-.596-1.326-1.096-1.817-.501-.491-1.232-.736-2.194-.736-.923 0-1.63.235-2.12.705a4.374 4.374 0 00-1.098 1.746 8.733 8.733 0 00-.448 2.209 28.594 28.594 0 00-.085 2.064c0 .884.043 1.672.131 2.364.085.693.244 1.405.476 2.137zm-2.339 3.982c-2.059-1.712-3.087-4.531-3.087-8.455 0-1.693.196-3.179.591-4.459.395-1.278.963-2.352 1.703-3.217a7.128 7.128 0 012.698-1.963c1.059-.442 2.251-.662 3.578-.662 1.328 0 2.526.22 3.593.662a7.064 7.064 0 012.713 1.976c.74.876 1.307 1.954 1.702 3.232.394 1.28.592 2.756.592 4.431 0 1.673-.198 3.149-.592 4.429-.395 1.28-.962 2.352-1.702 3.218a7.092 7.092 0 01-2.713 1.962c-1.067.442-2.265.663-3.593.663-2.192 0-4.02-.605-5.483-1.817m48.017-14.4l.028 2.25v1.818h6.207c.152.578.23 1.208.23 1.891 0 .684-.078 1.312-.23 1.891h-6.207v7.934c-.611.116-1.375.174-2.293.174s-1.683-.058-2.294-.174v-19.534l.202-.174h12.35c.116.48.174 1.082.174 1.803s-.198 1.255-.594 1.603c-.394.345-1.017.518-1.868.518zm25.336 9.956l-.028 2.078v.028a53.902 53.902 0 012.128-.058h6.672c0 .713-.028 1.261-.085 1.646-.231 1.482-1.214 2.222-2.943 2.222h-7.677c-.827 0-1.478-.24-1.948-.722-.472-.481-.707-1.136-.707-1.962v-16.91l.203-.202h12.437c.115.558.172 1.165.172 1.818 0 .652-.135 1.336-.403 2.048h-7.849l.028 2.078v2.02a53.673 53.673 0 011.953-.028h4.396c.174.537.259 1.153.259 1.846 0 .692-.085 1.327-.259 1.904h-6.349zm29.319 2.395c2.537 0 3.808-2.136 3.808-6.406 0-4.288-1.271-6.435-3.808-6.435h-1.632c-.471 0-.88-.009-1.227-.028v12.897c.347-.018.756-.028 1.227-.028zm5.309 2.163c-.616.501-1.424.867-2.425 1.097-1 .232-2.105.347-3.317.347-.596 0-1.458-.011-2.583-.029a915.5 915.5 0 01-4.228-.086l-.201-.202v-19.422l.201-.201c1.116-.039 2.275-.067 3.477-.087 1.203-.02 2.467-.029 3.795-.029 1.636 0 3 .26 4.099.78 1.096.519 1.97 1.231 2.624 2.135s1.116 1.966 1.386 3.188c.27 1.224.403 2.536.403 3.94 0 1.924-.221 3.588-.663 4.992-.442 1.405-1.297 2.598-2.568 3.577m20.949-4.558l-.028 2.078v.028a53.999 53.999 0 012.128-.058h6.673c0 .713-.029 1.261-.087 1.646-.23 1.482-1.213 2.222-2.942 2.222h-7.676c-.828 0-1.479-.24-1.948-.722-.474-.481-.707-1.136-.707-1.962v-16.91l.201-.202h12.438c.114.558.173 1.165.173 1.818 0 .652-.135 1.336-.404 2.048h-7.849l.028 2.078v2.02a53.658 53.658 0 011.954-.028h4.395c.173.537.26 1.153.26 1.846a6.61 6.61 0 01-.26 1.904h-6.349zm26.462-10.62v5.685c.865 0 1.607-.015 2.221-.043.616-.029 1.111-.145 1.487-.348.376-.204.659-.489.852-.856.191-.366.289-.898.289-1.596 0-1.876-.906-2.812-2.713-2.812h-1.199c-.356 0-.668-.009-.937-.03zm9.551 2.828c0 .636-.096 1.236-.288 1.804s-.447 1.078-.766 1.529a5.407 5.407 0 01-1.125 1.184c-.432.336-.88.591-1.341.764 1 .367 1.741 1.252 2.221 2.655l.867 2.453c.326.963.808 1.672 1.442 2.135-.288.385-.721.708-1.298.966-.576.262-1.212.391-1.904.391s-1.231-.199-1.616-.593c-.386-.394-.742-1.082-1.068-2.063l-1.039-3.029c-.212-.578-.496-1.02-.852-1.327-.356-.308-.889-.463-1.6-.463h-1.184v7.215c-.616.115-1.385.173-2.308.173-.924 0-1.684-.058-2.28-.173v-19.565l.203-.203c1.673-.037 3.081-.065 4.226-.087 1.144-.018 2.043-.028 2.699-.028 1.056 0 2.02.13 2.884.39.867.26 1.603.649 2.209 1.169s1.076 1.173 1.414 1.961c.336.79.504 1.703.504 2.742m18.208 5.859l1.155-.03h2.107c.097 0 .265.006.504.015.241.009.42.015.536.015l-.492-1.79a212.678 212.678 0 01-1.587-5.944h-.173c-.154.827-.616 2.664-1.384 5.512zm.087 3.636c-.519 0-.903-.01-1.155-.028l-1.24 4.182c-.461.115-1.106.174-1.933.174-.924 0-1.673-.106-2.251-.318l-.145-.23 6.349-19.363c.751-.115 1.626-.173 2.627-.173 1.133 0 2.037.068 2.712.202l6.233 19.391c-.674.367-1.433.549-2.28.549-1.001 0-1.701-.173-2.106-.521-.404-.345-.751-1.009-1.039-1.989l-.549-1.904c-.25.018-.624.028-1.124.028zm30.8.229h5.011c0 .771-.048 1.43-.144 1.976-.098.551-.404 1.023-.924 1.415-.519.395-1.202.592-2.048.592h-6.522c-.828 0-1.481-.239-1.962-.721-.482-.482-.722-1.136-.722-1.963V164.81l.202-.202h1.692c1.796 0 2.694.982 2.694 2.942v13.187c.85-.075 1.756-.115 2.723-.115" fill="#e3e8f0"/><path d="M3.783 12.427v174.45h244.68V12.427z" stroke="#e3e8f0" stroke-width="5"/><g fill="#e3e8f0"><path d="M100.766 25.389c-.849 0-1.69.285-2.373.837L2.286 103.773a3.778 3.778 0 00-1.406 2.941v65.897a3.78 3.78 0 006.266 2.847c.075-.065 7.711-6.695 21.634-15.944a3.783 3.783 0 001.64-2.547c3.189-19.82 13.376-37.982 28.685-51.145a85.43 85.43 0 0155.675-20.627c18.694 0 36.45 5.928 51.346 17.143a3.78 3.78 0 002.958.699 368.302 368.302 0 0166.598-6.104c3.44 0 6.93.049 10.374.146.036.002.072.002.108.002a3.78 3.78 0 001.524-7.238L102.292 25.71a3.784 3.784 0 00-1.526-.321zm-.001 3.778l145.397 64.134A370.745 370.745 0 00168.4 99.32c-14.928-11.24-33.495-17.905-53.62-17.905-44.422 0-81.255 32.459-88.092 74.951-14.339 9.527-22.028 16.245-22.028 16.245v-65.897z"/><path d="M168.438 99.32c-65.853 12.118-115.338 39.4-141.942 57.046-14.363 9.527-22.064 16.246-22.064 16.246v12.145s7.08-5.899 20.92-14.045c28.067-16.522 83.989-42.31 165.385-47.027 17.377-1.007 35.915-1.055 55.591.156v-30.54a371.75 371.75 0 00-77.89 6.019"/></g></svg>