<svg fill="none" height="91" viewBox="0 0 400 91" width="400" xmlns="http://www.w3.org/2000/svg"><g fill="#e3e8f0"><path d="M122.42 30.135l-10.352 25.794h14.322l-3.924-25.903zM67.584 89.341l42.464-87.414h32.095l17.907 87.414h-28.188l-2.071-11.647h-27.345l-6.291 11.647zm105.806 0l12.301-87.414h28.399l-12.298 87.414zm188.872-59.315l-10.393 25.903h14.322zM307.383 89.34l42.463-87.414h32.092l17.906 87.414h-28.185l-2.073-11.647h-27.344l-6.291 11.647zm-62.779-40.873h35.58l24.384 40.385h-35.59z"/><path d="M248.3 42.264h36.78l31.942-40.21h-36.78zm-36.78 46.834h36.78l31.942-40.706h-36.78z"/><path d="M224.782 1.563h34.33l23.518 40.7H248.3zM68.428 5.059l-2.733 25.708c-10.468-14.438-34.725-4.476-36.63 13.512-2.422 22.832 20.926 28.16 33.633 14.713l-2.74 25.77c-3.792 1.866-7.5 3.308-11.158 4.288a45.676 45.676 0 01-10.909 1.575c-4.55.095-8.671-.384-12.388-1.43a30.23 30.23 0 01-10.05-4.867C9.715 80.135 5.568 74.804 3.01 68.313.458 61.803-.386 54.458.487 46.248c.7-6.595 2.365-12.612 5.013-18.067 2.625-5.456 6.262-10.408 10.893-14.9C20.772 8.993 25.54 5.763 30.7 3.565 35.837 1.39 41.448.228 47.511.102A41.52 41.52 0 0158.135 1.22c3.464.829 6.882 2.122 10.293 3.839z"/></g></svg>