<svg fill="none" height="65" viewBox="0 0 480 65" width="480" xmlns="http://www.w3.org/2000/svg"><g fill="#e3e8f0"><path d="M28.216 63.831c-4.213 0-8.049-.692-11.511-2.077s-6.435-3.419-8.914-6.102c-2.482-2.683-4.401-5.957-5.756-9.824C.678 41.964 0 37.52 0 32.5s.75-9.477 2.25-13.372c1.499-3.894 3.548-7.169 6.145-9.823a26.38 26.38 0 019.001-6.059C20.8 1.863 24.407 1.17 28.215 1.17c2.596 0 4.919.172 6.967.519 2.048.346 3.822.75 5.323 1.211 1.499.462 2.711.924 3.635 1.385.923.462 1.558.808 1.905 1.038l-2.511 6.925c-.519-.347-1.269-.721-2.25-1.125a42.028 42.028 0 00-3.419-1.212 32.734 32.734 0 00-4.284-.995 30.056 30.056 0 00-4.933-.389c-2.943 0-5.626.549-8.049 1.645a17.314 17.314 0 00-6.232 4.76c-1.731 2.078-3.072 4.602-4.024 7.573-.952 2.972-1.428 6.305-1.428 9.996 0 3.579.418 6.838 1.255 9.781.835 2.943 2.105 5.467 3.808 7.573 1.701 2.107 3.808 3.736 6.318 4.89 2.511 1.155 5.466 1.731 8.872 1.731 3.808 0 6.967-.404 9.477-1.212 2.511-.807 4.399-1.528 5.669-2.164l2.164 6.924c-.404.289-1.125.649-2.164 1.082s-2.337.853-3.895 1.254c-1.557.404-3.375.75-5.453 1.04-2.077.287-4.327.431-6.75.431zM81.53 2.554c2.076 4.328 4.067 8.698 5.971 13.112s3.822 9.044 5.755 13.891 3.908 9.969 5.93 15.363a2082.843 2082.843 0 016.49 17.613h-9.174c-.982-2.596-1.904-5.163-2.77-7.702s-1.76-5.106-2.683-7.703H63.87l-5.453 15.406h-8.742a1980.37 1980.37 0 016.491-17.613 770.256 770.256 0 015.93-15.363 542.195 542.195 0 015.754-13.891 356.875 356.875 0 015.972-13.112l7.704-.001zm-4.068 9.607a224.028 224.028 0 00-5.756 13.502 485.39 485.39 0 00-5.409 14.627h22.33a960.288 960.288 0 00-5.496-14.584 260.603 260.603 0 00-5.669-13.545zm77.808 50.372a474.143 474.143 0 00-4.371-7.184 297.887 297.887 0 00-5.324-8.266 525.753 525.753 0 00-5.929-8.698c-2.048-2.943-4.082-5.785-6.102-8.526s-3.981-5.324-5.885-7.747-3.666-4.558-5.279-6.405V62.53h-8.222V2.554h6.664c2.712 2.885 5.611 6.246 8.698 10.083 3.086 3.838 6.145 7.789 9.174 11.857s5.885 8.064 8.568 11.988c2.683 3.925 4.947 7.415 6.795 10.472v-44.4h8.222v59.978l-7.01.001zm131.03 0a482.462 482.462 0 00-4.371-7.184 300.114 300.114 0 00-5.323-8.266 538.42 538.42 0 00-5.929-8.698 393.247 393.247 0 00-6.102-8.526c-2.019-2.74-3.981-5.324-5.885-7.747s-3.665-4.558-5.279-6.405V62.53h-8.222V2.554h6.664c2.713 2.885 5.612 6.246 8.699 10.083a401.458 401.458 0 019.174 11.857 364.833 364.833 0 018.568 11.988c2.683 3.925 4.947 7.415 6.795 10.472v-44.4h8.222v59.978l-7.02.001zm22.25-59.979h8.396v59.978h-8.396zm49.42 61.277c-4.213 0-8.049-.692-11.512-2.077-3.461-1.385-6.435-3.419-8.914-6.102-2.482-2.683-4.402-5.957-5.756-9.824-1.355-3.865-2.034-8.309-2.034-13.329s.75-9.477 2.25-13.372c1.5-3.894 3.549-7.169 6.145-9.823a26.39 26.39 0 019.001-6.059c3.404-1.383 7.011-2.076 10.819-2.076 2.596 0 4.918.172 6.967.519 2.048.346 3.822.75 5.323 1.211 1.5.462 2.711.924 3.635 1.385.921.462 1.558.808 1.904 1.038l-2.509 6.925c-.519-.347-1.271-.721-2.251-1.125a42.12 42.12 0 00-3.418-1.212 32.696 32.696 0 00-4.284-.995 30.064 30.064 0 00-4.933-.389c-2.942 0-5.626.549-8.049 1.645-2.424 1.097-4.5 2.683-6.232 4.76-1.731 2.078-3.073 4.602-4.024 7.573-.952 2.972-1.429 6.305-1.429 9.996 0 3.579.418 6.838 1.254 9.781s2.106 5.467 3.808 7.573c1.701 2.107 3.808 3.736 6.318 4.89 2.511 1.155 5.467 1.731 8.872 1.731 3.808 0 6.967-.404 9.478-1.212 2.509-.807 4.399-1.528 5.668-2.164l2.164 6.924c-.405.289-1.125.649-2.164 1.082s-2.336.853-3.894 1.254c-1.558.404-3.375.75-5.453 1.04-2.1.288-4.35.432-6.77.432zm53.31-61.277a360.124 360.124 0 015.973 13.112 538.684 538.684 0 015.754 13.891 786.432 786.432 0 015.93 15.363 2114.377 2114.377 0 016.491 17.613h-9.175c-.982-2.596-1.904-5.163-2.77-7.702s-1.76-5.106-2.683-7.703h-27.176l-5.454 15.406h-8.741c2.307-6.346 4.47-12.217 6.491-17.613a770.256 770.256 0 015.929-15.363 538.545 538.545 0 015.756-13.891 355.209 355.209 0 015.972-13.112l7.71-.001zm-4.07 9.607a222.75 222.75 0 00-5.756 13.502 482.68 482.68 0 00-5.409 14.627h22.33a960.122 960.122 0 00-5.497-14.584 253.84 253.84 0 00-5.66-13.545zM480 55.522v7.011h-36.091V2.554h8.396v52.968h27.69zM203.74 52.45c-11.018 0-19.95-8.929-19.95-19.95 0-11.019 8.932-19.949 19.95-19.949 11.019 0 19.95 8.931 19.95 19.949 0 11.021-8.93 19.95-19.95 19.95z"/><path d="M235.07 32.501c0 17.303-14.028 31.33-31.331 31.33-17.304 0-31.331-14.028-31.331-31.33 0-17.304 14.026-31.331 31.331-31.331 17.3 0 31.33 14.027 31.33 31.331zm-31.33-23.71c-13.095 0-23.709 10.616-23.709 23.71 0 13.096 10.614 23.709 23.709 23.709s23.709-10.613 23.709-23.709c0-13.095-10.62-23.71-23.71-23.71z"/></g></svg>