<svg fill="none" height="80" viewBox="0 0 382 80" width="382" xmlns="http://www.w3.org/2000/svg"><g fill="#e3e8f0"><path d="M7.156 62.8a40.22 40.22 0 009.649 9.65l13.18-22.831zm9.649-55.645a39.977 39.977 0 00-9.649 9.65L29.984 29.98zm39.774-3.597A39.523 39.523 0 0043.399.03v26.358zM23.025 76.045a39.674 39.674 0 0013.185 3.532V53.213zm49.428-59.24a39.974 39.974 0 00-9.649-9.65L49.624 29.98zM62.802 72.45a40.129 40.129 0 009.648-9.65L49.623 49.619zm16.774-36.244a39.903 39.903 0 00-3.523-13.182L53.216 36.206zM.03 43.393A39.645 39.645 0 003.555 56.57l22.838-13.177zm3.525-20.369A39.721 39.721 0 00.03 36.206h26.363zm49.661 20.369L76.053 56.57a39.578 39.578 0 003.523-13.177zM36.21.03a39.468 39.468 0 00-13.185 3.528l13.185 22.83zm7.188 79.547a39.66 39.66 0 0013.18-3.532l-13.18-22.832zm81.989-48.658a7.325 7.325 0 00-7.77-5.843c-9.043 0-10.718 8.279-10.718 14.731 0 7.567 2.293 14.714 10.264 14.714a7.438 7.438 0 008.066-5.83h5.329c-.504 6.145-6.701 10.194-13.852 10.194-10.818 0-15.125-8.825-15.125-19.078 0-8.986 3.949-19.448 16.233-19.093 7.055.204 12.342 3.658 12.895 10.205z" clip-rule="evenodd" fill-rule="evenodd"/><path d="M139.486 46.3c-.352 4.471 1.478 9.087 6.395 9.087a5.364 5.364 0 006.201-5.175h5.074c-.765 5.787-5.226 8.672-11.321 8.672-8.172 0-11.419-5.778-11.419-13.29 0-7.462 3.751-13.709 11.82-13.709 7.619.148 11.218 4.973 11.218 12.023V46.3zm12.898-3.34c.098-4.274-1.834-7.575-6.503-7.575a6.761 6.761 0 00-6.395 7.576z"/><path d="M167.123 36.401h.099a8.842 8.842 0 017.713-4.516c1.78 0 9.655.46 9.655 8.633V58.12h-4.828V42.085c0-4.214-1.771-6.496-5.843-6.496a6.61 6.61 0 00-4.665 1.88c-.709.705-2.032 1.831-2.032 6.804v13.848h-4.825V32.646h4.726zm25.089-3.764v-5.418l4.825-1.529v6.947h5.889v3.5h-5.889v16.36c0 1.82 1.422 2.684 3.15 2.684.852-.002 1.7-.102 2.529-.299v3.703c-1.108.057-2.184.3-3.288.3a17.874 17.874 0 01-3.249-.243 4.566 4.566 0 01-2.844-1.681c-.864-1.218-1.123-1.316-1.123-4.717V36.138h-4.359v-3.501zm31.911.009h4.818v25.475h-4.716v-3.747h-.102a9.676 9.676 0 01-8.733 4.51 8.348 8.348 0 01-8.38-9.184V32.646h4.828V47.72c0 4.423 1.012 7.668 5.634 7.668a6.056 6.056 0 005.689-3.658c.641-1.93.966-3.952.962-5.985zm16.084 25.474h-4.821V32.647h4.821v4.918h.106a7.057 7.057 0 017.458-5.275c.608 0 1.123.056 1.673.056v4.567a5.944 5.944 0 00-2.077-.249c-6.096.195-7.16 3.445-7.16 8.83zm23.505 9.759h-4.936l3.86-9.852-10.6-25.382h5.367l7.976 20.103 8.133-20.103h5.17zm18.585-9.758V21.473h7.87v30.566h15.887v6.082z" clip-rule="evenodd" fill-rule="evenodd"/><path d="M310.567 21.473h8.123v6.552h-8.123zm.254 11.173h7.614v25.475h-7.614z"/><path clip-rule="evenodd" d="M333.297 35.589l.101.155a8.685 8.685 0 017.818-3.859c2.536 0 7.462 1.87 8.372 5.583a17.3 17.3 0 01.516 4.065V58.12h-7.619V42.8c-.045-2.747-.815-5.835-4.567-5.835-2.39 0-4.467 2.131-4.571 5.834v15.32h-7.611V32.647h7.561zm31.788 7.371l.097.091 7.512-10.706h8.476l-8.782 11.164 9.339 14.612h-8.879l-7.666-13.951-.097.103V58.12h-7.612V21.473h7.612z" fill-rule="evenodd"/></g></svg>