<svg height="200" viewBox="0 0 400 200" width="400" xmlns="http://www.w3.org/2000/svg"><path d="M203.815 5.292c-2.707-3.2-5.661-5.292-9.6-5.292-3.938 0-7.384 1.6-10.83 4.185L19.938 128.123H307.2zM348.8 197.415c1.23 1.354 2.954 2.339 4.923 2.339 3.57 0 6.4-2.83 6.4-6.4 0-1.6-.615-3.077-1.477-4.185l-39.015-46.4c-2.831-3.323-7.016-5.415-11.816-5.415h-1.723c-4.677 0-8.984 2.092-11.815 5.415l-39.139 46.4c-.984 1.108-1.476 2.585-1.476 4.185 0 3.57 2.83 6.4 6.4 6.4 1.969 0 3.692-.862 4.923-2.339l39.138-46.4c.615-.738 1.723-1.23 2.708-1.23 1.107 0 2.092.492 2.707 1.23zm-50.585-17.6h17.477c3.446 0 6.277-2.83 6.277-6.277 0-3.446-2.83-6.276-6.277-6.276h-17.477c-3.446 0-6.277 2.83-6.277 6.276.124 3.447 2.831 6.277 6.277 6.277zm-96-178.092l187.693 101.292s9.477 5.17 9.477 15.139v26.584zM76.923 149.785c3.446 0 6.277-2.831 6.277-6.277s-2.83-6.277-6.277-6.277H17.477C7.877 137.23 0 145.108 0 154.708v27.446c0 9.6 7.877 17.477 17.477 17.477h59.446c3.446 0 6.277-2.831 6.277-6.277s-2.83-6.277-6.277-6.277H17.477c-2.708 0-5.046-2.215-5.046-5.046v-27.446c0-2.708 2.215-5.047 5.046-5.047h59.446zm25.354 49.969c-9.6 0-17.477-7.877-17.477-17.477V154.83c0-9.6 7.877-17.477 17.477-17.477h53.292c9.6 0 17.477 7.877 17.477 17.477v.861c0 9.6-7.877 17.477-17.477 17.477h-45.784c-3.447 0-6.277-2.83-6.277-6.277s2.83-6.277 6.277-6.277h45.784c2.708 0 5.046-2.215 5.046-5.046v-.861c0-2.708-2.215-5.046-5.046-5.046h-53.292c-2.708 0-5.046 2.215-5.046 5.046v27.446c0 2.708 2.215 5.046 5.046 5.046h64.492c3.446 0 6.277 2.83 6.277 6.277s-2.83 6.277-6.277 6.277zm83.815-60.185c-1.23-1.354-2.954-2.338-4.923-2.338-3.569 0-6.4 2.83-6.4 6.4 0 1.6.616 3.077 1.477 4.184l39.139 46.4c2.83 3.323 7.015 5.416 11.815 5.416h1.723c4.677 0 8.985-2.093 11.815-5.416l39.139-46.4c.985-1.107 1.477-2.584 1.477-4.184 0-3.57-2.83-6.4-6.4-6.4-1.97 0-3.692.861-4.923 2.338l-39.139 46.4c-.615.739-1.723 1.231-2.707 1.231-1.108 0-2.093-.492-2.708-1.23z" fill="#e3e8f0" fill-rule="evenodd"/></svg>