<svg height="52" viewBox="0 0 400 52" width="400" xmlns="http://www.w3.org/2000/svg"><g fill="#e3e8f0" fill-rule="evenodd"><path d="M390.407 50.732c-6.83 0-11.057-1.626-16.098-6.017-2.764-2.439-5.203-5.365-6.83-8.13-1.788-3.414-2.113-3.577-6.666-3.577h-4.878a.35.35 0 00-.325.325v10.57c0 2.438.975 3.089 4.715 3.089h3.415c0 .813 0 1.788-.325 2.114-.326.325-.813.487-1.464.487h-22.276c0-.487-.163-1.3 0-2.113 6.016-.488 7.805-1.301 7.805-5.854V8.456c0-3.09-1.301-3.578-4.228-3.578H340c-.163-.813-.163-1.463.163-1.789.325-.487 1.3-.813 2.601-.975 3.415-.325 7.643-.325 17.724-.325 13.17 0 21.138 6.016 21.138 16.097 0 5.854-3.415 10.57-9.43 13.17-.163 0-.163.164-.163.164 0 .162 0 .162.162.325 0 0 5.366 5.04 8.13 7.154 9.431 7.48 12.683 8.293 18.862 8.293.163.813 0 1.3-.325 1.788-1.301 1.301-4.065 1.952-8.455 1.952zm-34.31-45.366a.35.35 0 00-.325.325v23.577a.35.35 0 00.326.325h3.414c6.667 0 13.17-.813 13.17-11.219 0-8.78-4.715-13.008-14.145-13.008zm-185.69 5.366c0-.163-.163-.163-.326-.163a.35.35 0 00-.325.325L167.48 43.09c-.163 1.139-.163 2.114.487 2.765.813.813 2.602 1.138 7.318 1.138h3.577c.162 1.138.162 1.788-.163 2.114-.325.325-.65.487-1.463.487h-23.252a4.64 4.64 0 010-2.113c7.642-.488 8.618-1.952 8.78-5.204l2.927-33.82c0-.814.163-1.627-.488-2.277-.813-.813-2.601-1.301-6.992-1.464-.162-.813 0-1.3.326-1.788.487-.488 1.3-.813 2.439-.813h14.309l17.886 34.309c0 .162.162.162.325.162s.163 0 .325-.162l16.423-34.31h16.585a4.64 4.64 0 010 2.115c-3.74.325-5.69.813-6.504 1.788-.65.65-.488 1.464-.488 2.277l3.415 35.122c.163 2.601 1.789 2.764 6.992 3.414.163 1.138 0 1.789-.325 2.277-.326.325-.65.487-1.464.487h-25.04a4.64 4.64 0 010-2.113l3.577-.163c3.415-.163 5.366-.488 6.341-1.626.813-.813.65-2.114.65-3.415l-3.251-31.382c0-.162-.163-.325-.325-.325s-.163 0-.326.163l-17.235 36.26c-1.139 2.439-1.79 2.764-3.09 2.764zm116.26 38.861a4.64 4.64 0 010-2.113c7.48-.488 9.105-.976 9.105-6.017V8.293c0-2.927-.975-3.415-4.227-3.415h-3.09c-.162-.976 0-1.463.325-1.789.488-.487 1.301-.65 2.602-.65h33.821c.163 2.927.65 6.179 1.138 9.43.163.977 0 1.79-.325 2.277-.325.326-.813.65-1.626.65h-.325l-.813-3.089c-1.3-4.39-2.764-5.69-6.992-5.69h-11.545a.35.35 0 00-.325.324v18.537a.35.35 0 00.325.325h7.48c2.44 0 2.927-.975 3.09-2.927l.487-3.414h.65c.651 0 1.139.162 1.302.325.325.325.487.976.325 1.951a200.48 200.48 0 000 13.984c-.325.163-.65.163-.976.163-.325 0-.65 0-.975-.163-.976-5.366-1.79-6.342-4.065-6.342h-7.48a.35.35 0 00-.325.326v12.683c0 2.764.813 4.065 5.853 4.065h6.18c5.365 0 6.178-.326 9.267-6.992l1.952-4.228c.975 0 1.463.163 1.788.65.325.488.325 1.139 0 1.952-1.626 4.878-2.927 8.943-3.74 12.683zm-45.854 0a4.64 4.64 0 010-2.113c6.667-.488 8.618-1.301 8.618-6.342V8.293c0-2.765-1.138-3.415-4.228-3.415h-3.252c-.162-.813-.162-1.463.163-1.789.325-.487 1.3-.813 2.601-.813h22.114c.163.65.163 1.626 0 2.114-7.317.488-9.105 1.138-9.105 6.017v31.87c0 2.926 1.95 3.414 3.577 3.414h4.553c5.366 0 6.179-.325 9.268-6.992l1.951-4.227c.976 0 1.626.162 1.789.65.325.488.325 1.138 0 1.951-1.789 4.878-2.927 8.943-3.74 12.683h-34.309zm-119.187 0c-.163-.65-.163-1.463 0-2.276 5.528-.976 7.154-1.626 7.154-4.878V8.13c0-2.927-.975-3.415-4.227-3.415H121.3c-.163-.813-.163-1.463.162-1.788.326-.488 1.301-.813 2.602-.813h20.325c.163.65.163 1.626 0 2.114-6.179.487-7.317 1.95-7.317 5.04v34.147c0 2.764 1.138 3.414 4.065 3.414h3.577c.163 1.138.163 1.789 0 2.114-.325.325-.813.488-1.463.488zm-30.244 0a4.64 4.64 0 010-2.113c5.366-.163 7.317-.488 7.968-1.464.325-.488.162-1.138 0-1.788l-4.553-10.895c0-.162-.163-.162-.325-.162H75.935c-.163 0-.325.162-.325.162l-2.927 7.805c-.976 2.602-1.3 3.903-.813 4.878.488.65 1.463.976 3.415.976h5.853c.163.975.163 1.626-.162 2.114-.326.325-.65.487-1.301.487H59.35a4.64 4.64 0 010-2.113c5.528-.65 6.178-1.301 8.13-5.854L81.626 7.967c2.439-5.528 3.252-6.504 6.341-6.504h2.602c.163 1.464.813 2.765 1.789 5.204l16.585 37.886c.813 1.951 1.789 2.764 5.529 2.764h1.463c.163.976.163 1.789-.163 2.114-.325.325-.65.488-1.463.488zM84.878 10.57c-.163 0-.325.163-.325.163l-7.48 18.699v.325s.163.163.325.163h15.285c.163 0 .163 0 .325-.163v-.325l-7.805-18.7s-.162-.162-.325-.162zM.488 49.593a4.64 4.64 0 010-2.113c7.48-.488 9.105-.976 9.105-6.017V7.48c0-3.09-.975-3.578-4.227-3.578H2.114c-.163-.975-.163-1.626.162-1.95.65-.814 3.09-1.139 9.594-1.139h14.634c19.512 0 29.268 8.13 29.268 24.39 0 15.935-9.918 24.39-28.618 24.39zM18.21 4.39a.35.35 0 00-.325.325v36.098c0 4.715 1.951 5.366 8.618 5.366 18.049 0 20.488-9.919 20.488-19.675 0-14.309-7.642-22.114-21.3-22.114z" fill-rule="nonzero"/><path d="M55.61 25.203c0-15.935-9.756-24.065-28.943-24.065H12.033c-5.366 0-8.618.163-9.431.976-.163.325-.326.65-.163 1.463v.325l-.488.326C1.463 1.138 1.79.488 12.033.488h14.634c20.65 0 29.593 9.268 29.593 24.715l-.325.325z"/><path d="M55.61 25.203c0 15.773-9.756 24.065-28.293 24.065H.488l-.163.65h26.992c20.488 0 28.943-9.918 28.943-24.715z"/><path d="M25.691 46.667h.813c10.244 0 20.813-2.44 20.813-20 0-14.472-7.642-22.44-21.626-22.44l-.488.326.488.325c13.821 0 20.976 7.968 20.976 21.789 0 15.447-7.805 19.35-20.163 19.35h-.813l-.325.324z"/><path d="M17.724 26.504V4.715c0-.325.325-.65.65-.65h7.317v.65h-7.48v21.79l-.325.162z"/><path d="M18.211 26.504v14.309c0 4.228 1.464 5.04 7.48 5.04v.651c-6.179 0-7.967-.976-7.967-5.691V26.504zm41.464 22.764v-1.626c5.366-.65 6.179-1.463 8.13-6.016L81.95 7.967c2.277-5.528 3.09-6.341 6.016-6.341h2.277l.325-.163.163-.487H88.13c-3.415 0-4.39 1.138-6.667 6.666L67.317 41.301c-1.951 4.553-2.602 5.04-8.13 5.69-.163.976-.163 2.115 0 2.765z"/><path d="M59.675 49.268h20c.488 0 .975-.162 1.138-.325.163-.325.325-.813.163-1.626v-.325l.65-.325c.488 2.113 0 3.252-1.789 3.252H59.35z"/><path d="M73.008 39.512l-.65 1.626c-1.138 2.764-1.464 4.065-.813 5.04.65.976 1.95 1.14 3.577 1.14h5.691l.488-.651h-6.179c-3.902 0-3.902-1.139-2.276-5.366l.65-1.951-.163-.326z"/><path d="M73.008 39.512l2.277-6.179c.162-.325.325-.487.65-.487h9.106l.162.325-.162.325h-9.106l-2.276 5.854z"/><path d="M97.561 39.512l-2.602-6.179c-.162-.162-.325-.325-.65-.325h-9.431v.65h9.43l2.44 5.854.488.325z"/><path d="M97.561 39.512l1.951 4.716c.325.65.488 1.3 0 1.95-.65.976-2.601 1.464-7.967 1.627v1.788l-.65.326c-.163-.65-.163-1.952 0-2.765 7.804-.162 8.617-.813 7.804-2.764l-2.114-5.04z"/><path d="M91.707 49.268h22.765c.487 0 .975-.162 1.138-.325.162-.325.325-.813.162-1.626v-.325l.488-.325c.488 2.113 0 3.252-1.788 3.252H91.22z"/><path d="M115.772 47.317h-1.138c-3.74 0-4.878-.65-5.854-2.927L92.195 6.504c-.975-2.276-1.626-3.577-1.788-4.878l.487-.65c.163 1.626.65 2.764 1.789 5.365l16.585 37.887c.813 1.788 1.626 2.439 5.204 2.439h1.626zM84.878 10.244c-.325 0-.488.163-.65.325l-7.48 18.7v.65c.163.162.325.325.488.325h7.48l.162-.325-.163-.326h-7.48l7.48-18.699.163-.325z"/><path d="M84.878 10.244c.325 0 .488.163.65.325l7.805 18.7c.163.162 0 .487 0 .65-.162.162-.325.325-.487.325h-7.968v-.65h7.805l-7.805-18.7zm59.187-7.642h-20c-1.138 0-1.951.162-2.276.65-.163.325-.326.65-.163 1.3l.163.326-.65.325c-.489-1.788 0-3.252 3.089-3.252h20.487l-.325.65z"/><path d="M121.789 49.268c-.163-.488 0-.975 0-1.626 5.203-.813 7.154-1.626 7.154-5.203V8.13c0-3.09-1.138-3.74-4.553-3.74h-2.927l-.487.65h3.414c3.252 0 3.903.488 3.903 3.09v34.31c0 2.927-1.301 3.74-7.155 4.553-.325.975-.325 2.114 0 2.764l.488-.325z"/><path d="M144.553 47.317c.162.813.162 1.3 0 1.626-.163.163-.65.325-1.301.325h-21.3l-.489.65h21.789c2.114 0 2.44-1.138 1.789-3.251l-.65.325z"/><path d="M136.748 26.504v17.073c0 3.09 1.3 3.74 4.39 3.74h3.415l.488-.65h-3.903c-3.09 0-3.74-.488-3.74-3.09V26.504l-.325-.325z"/><path d="M144.065 4.228c-5.528.487-7.317 1.788-7.317 5.365v17.074h.65V9.593c0-3.089.976-4.39 7.155-4.878l-.325-.65z"/><path d="M144.065 2.602v1.626l.488.65c.162-.65.162-2.114 0-2.764zm31.22 0H161.3c-1.138 0-1.951.162-2.277.65-.162.325-.325.65-.162 1.3l.162.326-.65.325c-.488-1.626 0-3.252 3.09-3.252h14.471v.65z"/><path d="M154.309 49.268v-1.626c7.317-.488 8.618-1.788 8.943-5.528l2.927-33.821c.162-.813.162-1.789-.488-2.44-.813-.975-2.602-1.3-6.992-1.463l-.488.65c7.155.163 7.48.976 7.317 3.253l-2.926 33.82c-.163 3.09-.813 4.391-8.78 4.879a7.893 7.893 0 000 2.764l.65-.325z"/><path d="M178.7 47.317c.162.813.162 1.3-.163 1.626-.163.163-.65.325-1.139.325h-23.09l-.487.65h23.577c1.952 0 2.277-1.138 1.789-3.251l-.488.325z"/><path d="M170.244 10.244c-.488 0-.65.325-.65.65l-2.277 32.195c-.163 1.139-.163 2.277.488 2.927.813.976 2.602 1.301 7.48 1.301h3.414l.488-.65h-3.902c-7.643 0-7.643-.65-7.318-3.578l2.277-32.195.163-.162z"/><path d="M190.407 49.43l-19.675-38.86c-.163-.163-.325-.326-.65-.326v.65l19.837 39.187.325-.162z"/><path d="M210.894 10.244c-.325 0-.65.163-.65.325l-17.236 36.26c-1.138 2.277-1.626 2.602-2.601 2.602l-.326.65c1.626 0 2.277-.488 3.578-3.09l17.235-36.26.163-.324z"/><path d="M203.902 49.268a2.256 2.256 0 010-1.463l3.415-.163c3.415-.162 5.529-.488 6.667-1.788.813-.976.813-2.277.65-3.578l-3.252-31.382c0-.325-.325-.487-.488-.487l-.162.65 3.252 31.382c.325 3.577-.65 4.39-6.667 4.715l-3.902.163c-.326.976-.326 1.789 0 2.764l.487-.325z"/><path d="M230.244 47.317c0 .65 0 1.463-.325 1.626-.163.163-.65.325-1.139.325h-24.878l-.487.65h25.365c1.952 0 2.277-1.138 1.952-3.251l-.488.162zM226.83 4.228c-3.74.325-5.692.813-6.505 1.788-.65.813-.65 1.789-.488 2.602l1.789 18.049h.65l-1.788-18.212c-.163-2.114.162-3.252 6.83-3.74l-.164-.65z"/><path d="M221.626 26.504l1.626 16.91c.325 2.765 1.951 3.09 6.992 3.74l.65-.65c-5.528-.65-6.666-.976-6.829-3.252l-1.626-16.91-.325-.488zm5.204-23.902c.162.487.162.975 0 1.626l.487.65c.325-.976.325-1.789 0-2.764l-.65.325z"/><path d="M210.732 2.602h16.097l.488-.65h-16.91v.65z"/><path d="M193.821 37.236c.325 0 .488-.163.65-.325l16.423-34.147-.325-.65-16.748 34.471-.325.163z"/><path d="M175.285 2.602l17.886 34.146c.162.163.325.325.65.325v-.65L175.772 1.95zm65.853 46.666c0-.488-.162-.975 0-1.626 6.504-.488 8.618-1.463 8.618-6.666V8.13c0-3.09-1.463-3.74-4.553-3.74h-3.252l-.162.65h3.414c3.09 0 3.903.488 3.903 3.09v32.846c0 4.715-1.626 5.528-8.618 6.016a7.893 7.893 0 000 2.764l.65-.325z"/><path d="M241.138 49.268h33.984c.813-3.74 1.951-7.642 3.577-12.52.163-.488.325-1.3 0-1.626-.325-.325-.813-.488-1.463-.488h-.488v-.65c2.114 0 3.09.813 2.439 3.09-1.463 4.39-2.764 8.454-3.74 13.007h-35.122z"/><path d="M277.398 34.634L275.61 38.7c-3.09 6.504-3.903 7.155-9.594 7.155l-.325-.326.325-.325c5.366 0 6.017-.325 9.106-6.829l1.951-4.39z"/><path d="M257.398 26.504v15.61c0 3.252 2.277 3.74 3.903 3.74h4.553v-.65H261.3c-1.951 0-3.252-.651-3.252-3.09v-15.61l-.325-.488z"/><path d="M257.398 26.504V10.407c0-5.204 2.277-6.017 9.106-6.342h.325l.325.65c-7.48.488-8.943 1.139-8.943 5.692v16.097z"/><path d="M266.504 4.228V2.764l-.163-.325.65-.325c.163.65.163 2.114 0 2.764z"/><path d="M266.504 2.602h-21.789c-1.138 0-1.95.162-2.276.65-.163.325-.325.65-.163 1.3l-.487.651c-.488-1.788 0-3.252 3.089-3.252h22.114zm58.374 0H291.22c-1.139 0-1.952.162-2.277.65-.163.325-.325.65-.325 1.3v.326l-.65.325c-.326-1.788 0-3.252 3.089-3.252h34.146l-.162.488z"/><path d="M286.992 49.268a2.256 2.256 0 010-1.463c6.992-.325 9.106-.976 9.106-6.342V8.293c0-3.09-1.139-3.74-4.553-3.74h-2.927l-.65.65h3.414c3.252 0 3.903.488 3.903 3.09v33.17c0 4.878-1.301 5.366-8.944 5.691-.325.976-.325 1.79 0 2.765l.488-.163z"/><path d="M327.805 34.634c.488 0 1.138.163 1.3.488.326.488.163 1.138 0 1.626-1.625 4.715-2.764 8.78-3.577 12.52H286.83l-.488.65h39.675c.976-4.39 2.277-8.78 3.74-13.007.65-2.114-.325-3.09-2.439-3.09v.488z"/><path d="M310.244 45.854h6.179c5.69 0 6.666-.65 9.593-7.155l1.789-4.065-.488-.65-1.951 4.39c-3.09 6.504-3.74 6.83-9.106 6.83h-6.179l-.162.324z"/><path d="M304.065 37.073v4.553c0 3.252 1.463 4.228 6.179 4.228v-.65c-4.878 0-5.529-1.139-5.529-3.74V36.91l-.162-.163z"/><path d="M308.293 28.293h-3.578c-.325 0-.65.325-.65.65v8.13h.65v-8.13h3.578l.162-.325zm8.292 6.504c-.813-5.04-1.788-6.342-4.227-6.342h-3.903v.65h3.903c1.788 0 2.764.651 3.74 6.18l.487-.163z"/><path d="M317.724 34.797h-1.301l-.65.488c.812.325 1.788.325 2.438 0l-.162-.326zm-1.626-15.773h.325c.813 0 .975.163 1.138.326.325.325.325.813.325 1.788-.162 4.39-.162 9.106 0 13.659l.65.488a205.168 205.168 0 010-14.147c.163-2.276-.65-2.764-2.113-2.764h-.813l.162.488z"/><path d="M308.455 25.203h3.74c2.602 0 3.252-1.138 3.415-3.09l.488-3.089-.488-.65-.488 3.74c-.163 1.788-.65 2.601-2.764 2.601h-3.74l-.163.163zm-4.39-10.081v9.43c0 .326.325.651.65.651h3.74v-.65h-3.74v-9.431l-.162-.163z"/><path d="M308.455 5.528h-3.74c-.325 0-.65.326-.65.65v8.944h.65V6.179h3.74l.163-.325z"/><path d="M324.228 14.309l-.813-2.764c-1.301-4.553-2.927-6.017-7.317-6.017h-7.643v.65h7.643c3.902 0 5.528 1.14 6.666 5.53l.976 3.251.488-.162z"/><path d="M324.878 2.602c.163 2.764.65 6.016 1.138 9.105.163.65.163 1.464-.325 2.114-.325.325-.813.488-1.463.488l-.488.65c2.276.163 3.09-.975 2.764-3.252-.488-3.09-.976-6.504-1.138-9.756zm47.317 28.618c6.016-2.44 9.756-7.318 9.756-13.496 0-9.92-7.642-16.423-21.463-16.423-10.081 0-14.31 0-17.886.325-2.927.163-3.415 1.626-2.927 3.415l.488-.65c-.163-.651 0-.976.162-1.302.325-.487 1.138-.813 2.277-.813 3.414-.325 7.642-.325 17.723-.325 13.008 0 20.813 5.854 20.813 15.773 0 5.69-3.414 10.406-9.268 12.845-.163.163-.325.325-.325.488z"/><path d="M340.325 4.553h2.927c3.09 0 4.553.65 4.553 3.902v33.171c0 5.04-2.114 5.691-7.805 6.179v1.626l-.163.488-.487.162c-.163-.813-.163-1.95 0-2.764 6.178-.488 7.642-1.138 7.642-5.528V8.618c0-2.764-.976-3.252-3.903-3.252h-3.414z"/><path d="M363.577 47.317c0 .65 0 1.3-.325 1.626-.163.163-.65.325-1.3.325h-22.115l-.487.65h22.601c2.114 0 2.277-1.138 2.114-3.251z"/><path d="M355.447 39.837v4.065c0 2.602 1.138 3.415 5.04 3.415h3.09l.65-.65h-3.74c-3.739 0-4.39-.65-4.39-2.765v-4.065l-.325-.162z"/><path d="M360.976 32.683h-4.878c-.326 0-.65.325-.65.65v6.504h.65v-6.504h4.878l.162-.325zm29.594 17.724c-.163 0-.163 0 0 0-6.83 0-11.058-1.464-15.936-5.854-2.764-2.44-5.04-5.203-6.667-8.13-1.95-3.415-2.276-3.74-6.829-3.74v.65c4.39 0 4.553.163 6.342 3.415s4.39 6.179 6.829 8.293c5.366 4.552 9.756 6.016 16.423 6.016l.325-.325z"/><path d="M398.7 47.317c0 .488 0 .976-.326 1.3-.65.814-2.439 1.79-7.805 1.79v.65c7.642 0 9.431-1.789 8.78-4.39l-.325.162z"/><path d="M371.545 31.22c0 .162 0 .487.162.65 0 0 5.366 5.04 8.13 7.154 9.269 7.48 12.683 8.293 18.7 8.456l.487-.65c-6.178 0-9.43-.651-18.861-8.293-2.765-2.277-8.13-7.155-8.13-7.155l-.163-.162zm-13.171-1.464h1.138c6.504 0 13.496-.813 13.496-11.545 0-8.943-4.715-13.333-14.471-13.333h-.163l-.163.325.163.325h.163c8.13 0 13.82 3.09 13.82 12.683 0 9.756-5.69 10.895-12.845 10.895h-1.138l-.163.325z"/><path d="M355.447 18.374V5.691c0-.325.325-.65.65-.65h2.277v.65h-2.276v12.683l-.326.163z"/><path d="M355.447 18.374v10.894c0 .325.325.65.65.65h2.277v-.65h-2.276V18.374z"/></g></svg>