<svg fill="none" height="267" viewBox="0 0 389 267" width="389" xmlns="http://www.w3.org/2000/svg"><g fill="#e3e8f0"><path clip-rule="evenodd" d="M343.259.593c25.014 0 45.362 20.348 45.362 45.36V221.54c0 25.013-20.351 45.362-45.362 45.362H46.233c-25.011 0-45.36-20.351-45.36-45.362V45.952c0-25.011 20.349-45.36 45.36-45.36zm24.875 220.947V45.952c0-13.716-11.157-24.876-24.875-24.876H46.233c-13.716 0-24.877 11.16-24.877 24.876V221.54c0 13.718 11.161 24.879 24.877 24.879H343.26c13.718 0 24.875-11.161 24.875-24.879z" fill-rule="evenodd"/><path d="M91.574 70.306h-.5v125.386h22.444c5.188 0 9.942-1.019 14.149-3.306 4.209-2.288 7.844-5.83 10.816-10.835 5.934-9.992 9.239-25.832 9.239-49.279 0-23.425-3.304-38.907-9.243-48.544-5.97-9.688-14.572-13.422-24.961-13.422zm197.532 152.191H209.15V44.999h84.405c18.752 0 35.399 14.815 40.104 32.92 2.348 9.036 1.715 18.875-3.115 28.08-4.829 9.207-13.877 17.821-28.427 24.362l-1.635.735 1.78.217c14.857 1.814 25.327 8.425 31.726 17.286 6.406 8.869 8.762 20.031 7.314 30.986-2.894 21.898-20.983 42.912-52.196 42.912zm-39.48-152.19h-.5v46.34h19.493c7.82 0 13.724-2.887 17.669-7.249 3.936-4.353 5.895-10.145 5.895-15.921s-1.959-11.568-5.895-15.922c-3.945-4.361-9.849-7.249-17.669-7.249zm0 76.095h-.5v49.292h23.938c8.168 0 14.331-3.075 18.446-7.714 4.108-4.63 6.151-10.79 6.151-16.932 0-6.143-2.043-12.302-6.151-16.933-4.115-4.639-10.278-7.713-18.446-7.713zM51.139 44.999h75.596c19.594 0 34.794 7.612 45.114 21.733 10.335 14.143 15.809 34.866 15.809 61.135 0 26.306-4.388 49.989-14.202 67.078-9.796 17.059-24.996 27.554-46.721 27.554H51.139z" stroke="#e3e8f0"/></g></svg>