<svg fill="none" height="88" viewBox="0 0 511 88" width="511" xmlns="http://www.w3.org/2000/svg"><path d="M155.435 15.994c.271.14.467.32.675.337 3.857.32 7.673.091 11.38-1.086 2.537-.807 3.997-2.659 4.608-5.199.765-3.185-.371-5.303-3.601-5.944-2.824-.56-5.738-.727-8.623-.92-1.884-.128-2.047.08-2.48 2.03a486.418 486.418 0 00-1.944 9.19c-.104.512-.015 1.063-.015 1.592zm-3.806 16.467c.805.188 1.325.437 1.83.408 3.515-.203 7.047-.31 10.536-.745 3.504-.438 5.53-2.68 6.287-6.1.815-3.67-.488-5.866-4.12-6.911-3.281-.944-6.652-.979-10.025-1.025-1.047-.014-1.556.431-1.767 1.451-.868 4.215-1.781 8.42-2.741 12.922zm19.002-15.408c1.124.466 1.742.728 2.363.98.436.176.887.321 1.316.51 4.599 2.03 5.749 6.248 2.832 10.398-1.365 1.942-3.323 3.052-5.484 3.885-3.275 1.26-6.727 1.613-10.167 1.71-5.805.16-11.617.069-17.426.07-.299 0-.596-.112-1.14-.221.169-1.112.277-2.172.496-3.207 1.9-8.973 3.818-17.941 5.734-26.91.098-.46.255-.911.314-1.377.122-.98.733-1.332 1.626-1.314 7.602.137 15.231-.515 22.79.805.768.135 1.542.313 2.272.583 1.993.734 3.746 1.833 4.112 4.114.422 2.631-.116 5.107-2.414 6.712-1.389.971-3.057 1.547-4.616 2.266-.681.313-1.404.54-2.608.996m189.135-2.566c-.104-1.012-.108-2.045-.328-3.03-1.315-5.884-6.339-9.287-12.848-9.042-8.628.326-16.436 6.88-18.211 15.986-.47 2.409-.618 4.833.132 7.22 1.718 5.464 6.111 8.384 12.583 8.158 9.993-.345 18.512-9.312 18.672-19.292zm-19.929 20.818c-3.179.02-6.59-.323-9.88-1.523-2.386-.868-4.563-2.076-6.472-3.747-4.147-3.625-5.366-8.134-3.643-13.372 1.033-3.138 2.877-5.74 5.352-7.881 5.451-4.717 11.779-7.383 18.987-7.825 4.156-.255 8.304-.195 12.357.99 2.82.826 5.396 2.09 7.639 4.012 4.001 3.428 5.064 7.763 3.896 12.746-.834 3.564-2.856 6.425-5.608 8.766-6.434 5.472-13.951 7.91-22.628 7.834zm-77.818-.965c-2.872.75-4.528-.068-6.149-1.99-6.221-7.383-12.627-14.61-18.968-21.89-.648-.742-1.333-1.452-2.404-2.613-2.252 9.115-3.771 17.801-5.847 26.619l-3.662.174c.152-1.004.225-1.748.38-2.474a15596.84 15596.84 0 016.082-28.516c.428-2 .487-2.027 2.442-2.084 5.705-.171 5.706-.172 9.512 4.205 4.841 5.57 9.676 11.143 14.521 16.708.551.635 1.149 1.228 2.104 2.24 2.036-7.852 3.249-15.393 5.099-22.957h3.816l-6.926 32.578zm-71.031 31.869c.09-4.579-1.388-7.972-4.911-10.259-2.741-1.779-5.832-2.24-9.029-1.777-9.168 1.326-16.178 9.277-16.474 18.673-.262 8.36 5.643 13.179 13.584 12.236 9.478-1.125 16.82-9.703 16.83-18.873zm-18.551 20.486c-4.484.035-8.479-.562-12.212-2.446-9.009-4.544-10.499-12.855-5.133-20.61 3.236-4.677 7.926-7.538 13.212-9.388 6.706-2.348 13.529-2.569 20.318-.416 1.91.606 3.776 1.583 5.42 2.735 4.846 3.393 6.51 8.619 4.826 14.312-1.138 3.85-3.535 6.784-6.643 9.181-5.928 4.572-12.665 6.75-19.788 6.632m129.886-26.869c-1.854 8.621-3.71 17.242-5.576 25.91h-3.598c.574-2.837 1.082-5.429 1.625-8.014 1.516-7.208 3.044-14.415 4.571-21.62.129-.614.329-1.215.414-1.834.134-.969.707-1.33 1.614-1.33 1.726.002 3.454.022 5.18-.007 1.214-.021 1.777.863 2.424 1.639 5.329 6.388 10.65 12.781 15.981 19.168.54.646 1.121 1.26 1.956 2.193.329-.865.604-1.38.723-1.93 1.318-6.129 2.606-12.265 3.918-18.394.624-2.913.952-3.093 4.191-2.281-.588 2.801-1.176 5.616-1.772 8.429-1.561 7.36-3.128 14.717-4.687 22.077-.174.828-.109 1.892-1.226 2.018-1.212.136-2.543.47-3.579-.551-.613-.603-1.141-1.295-1.695-1.957-6.036-7.228-12.068-14.46-18.106-21.686-.542-.648-1.126-1.261-1.69-1.892-.222.022-.445.042-.668.062zm101.765 15.667c.264-1.12.55-2.235.788-3.36 1.174-5.52 2.323-11.044 3.502-16.563.614-2.87 1.033-3.092 4.169-2.213-.605 2.957-1.196 5.934-1.828 8.902-1.52 7.128-3.059 14.254-4.593 21.38-.191.883-.044 2.08-1.294 2.22-1.284.143-2.693.472-3.734-.757-.407-.479-.816-.955-1.219-1.437-6.136-7.35-12.269-14.702-18.411-22.048-.538-.644-1.124-1.25-2.017-2.242-.335 1.091-.599 1.776-.752 2.486-1.559 7.2-3.101 14.404-4.645 21.606-.575 2.683-.72 2.772-3.812 2.178 0-.49-.09-1.022.013-1.514 1.983-9.513 3.988-19.02 5.993-28.53.096-.46.274-.907.338-1.37.114-.84.586-1.24 1.406-1.284.156-.009.315-.005.471-.014 5.661-.362 5.66-.36 9.311 4.025 4.721 5.67 9.444 11.337 14.173 17 .488.584 1.027 1.127 1.543 1.688.2-.05.398-.103.598-.153zM209.611 59.285c-2.212 9.056-3.716 17.75-5.816 26.47h-3.584c2.318-11.004 4.586-21.766 6.909-32.784 2.431 0 4.693-.12 6.931.072.697.06 1.434.871 1.962 1.5 5.402 6.423 10.762 12.882 16.143 19.324.532.636 1.127 1.222 1.931 2.088.314-.945.558-1.504.684-2.088 1.269-5.897 2.517-11.797 3.774-17.697.098-.459.2-.917.318-1.372.47-1.833.505-1.87 2.348-1.859.45.003.902.102 1.524.178-.106.881-.138 1.65-.296 2.393-2.003 9.424-4.02 18.844-6.042 28.263-.176.817-.118 1.924-1.196 2.058-1.272.16-2.681.562-3.749-.648-.468-.529-.919-1.073-1.371-1.614-6.081-7.287-12.16-14.578-18.248-21.859-.585-.7-1.232-1.348-2.222-2.425zM33.315 71.323h6.794c.092.363.272.672.22.935-.586 2.916-1.168 5.836-1.86 8.728-.122.508-.672 1.06-1.165 1.31-7.996 4.05-16.337 5.905-25.25 3.733a21.01 21.01 0 01-3.98-1.398C.942 81.26-1.57 74.743 1.353 67.391c1.216-3.058 3.124-5.617 5.65-7.696 7.586-6.246 16.293-8.084 25.822-6.301 3.763.704 6.616 2.728 8.761 5.84l-2.282 1.141c-.287-.434-.527-.833-.8-1.206-2.307-3.15-5.542-4.46-9.32-4.722-8.946-.621-17.366 4.556-19.828 15.11a21.678 21.678 0 00-.555 4.888c-.003 5.08 2.843 8.628 7.79 9.822 4.429 1.072 8.71.484 12.88-1.257 1.045-.437 1.56-1.117 1.78-2.247.6-3.07 1.327-6.113 2.065-9.44M370.407 53.16c.105 1.355-.428 1.796-1.508 1.779-1.805-.03-3.611-.006-5.416-.004h-13.431l-2.654 12.516c1.206.13 2.104.306 3.001.312 4.317.03 8.633.01 12.951.02.625.001 1.27-.016 1.868.132.273.066.641.522.625.781-.019.281-.393.704-.681.77-.599.14-1.244.107-1.871.107-4.631.007-9.261-.006-13.892.01-2.396.008-2.425.024-2.957 2.368a580.627 580.627 0 00-2.046 9.421c-.141.679-.156 1.384-.262 2.396 2.24.333 4.41.13 6.558.165 2.196.038 4.395.008 6.592.008h6.583c.044 1.324-.295 1.968-1.415 1.992-.393.01-.785.014-1.177.014-7.771.001-15.541.004-23.312-.006-.689 0-1.379-.088-2.208-.145 0-.75-.104-1.37.016-1.943 1.997-9.59 4.019-19.177 6.045-28.76.415-1.965.546-2.145 2.163-2.149 8.476-.023 16.953-.008 25.431.004.297.001.593.123.997.212zM316.776 7.325l-2.375 1.033c-.352-.248-.589-.345-.724-.52-3.9-5.049-9.308-5.862-15.064-4.996-9.167 1.38-15.76 8.891-16.315 18.892-.35 6.346 4.324 11.135 10.636 11.36 6.916.244 12.998-1.714 18.09-6.497.224-.21.496-.37.814-.607.351.155.712.291 1.05.474.196.105.352.286.566.466-.084.224-.102.484-.242.624-4.194 4.2-9.292 6.62-15.111 7.543-4.635.735-9.253.585-13.727-.91-1.842-.618-3.665-1.447-5.309-2.478-5.011-3.143-6.789-7.828-5.4-13.608 1.181-4.915 4.153-8.55 8.155-11.436 7.204-5.193 15.337-6.545 23.954-5.527 2.984.354 5.799 1.44 8.168 3.384.936.77 1.735 1.707 2.834 2.803zM192.53 23.975c4.66.144 9.071.088 13.904.06a126.656 126.656 0 00-4.514-12.377c-2.035 1.637-8.652 10.28-9.39 12.317zm-12.473 10.347l25.988-32.784c1.189 1.433 12.365 29.525 13.075 32.703-1.007.293-7.055.668-7.838.314-.493-.222-.985-.752-1.188-1.26-.756-1.89-1.377-3.833-2.08-5.745-.674-1.84-.69-1.86-2.704-1.868-4.393-.017-8.786.032-13.178-.028-1.227-.017-2.072.376-2.786 1.356-1.384 1.903-2.954 3.677-4.237 5.643-1.153 1.765-2.568 2.38-5.052 1.669m-29.979 24.621c-.378.251-.617.467-.897.583-.425.177-.88.287-1.445.463-2.018-3.07-4.843-4.923-8.432-5.492-9.63-1.526-18.264 3.878-21.116 13.222-.923 3.027-1.455 6.088-.575 9.26 1.173 4.235 4.588 7.148 8.967 7.454 6.834.478 12.868-1.404 17.898-6.175.282-.267.594-.501.97-.816l1.638.875c-.13.316-.164.57-.308.717-3.441 3.493-7.545 5.848-12.316 6.987-5.545 1.324-11.065 1.273-16.414-.839-1.802-.71-3.574-1.67-5.107-2.844-3.779-2.896-5.007-6.863-4.241-11.499.674-4.093 2.518-7.604 5.578-10.376 7.974-7.224 17.288-9.52 27.726-7.136 3.649.834 6.105 2.691 8.074 5.616zm314.409 16.359c-.318-2.712-3.201-10.588-4.51-12.143-2.846 4.026-6.07 7.674-8.868 12.143zm12.683 10.535h-8.532c-.607-1.718-1.256-3.538-1.891-5.364-.257-.739-.469-1.494-.718-2.235-.252-.748-.755-1.143-1.578-1.141-4.704.01-9.408-.04-14.11.061-.631.013-1.396.641-1.843 1.193-1.528 1.887-2.937 3.871-4.4 5.811-1.532 2.032-1.536 2.03-4.696 1.543 8.433-10.972 16.8-21.756 25.435-32.942 4.182 11.218 8.209 22.016 12.333 33.074zm-224.717.11l6.545-30.927H247.39c-.558-1.268-.32-1.875.712-2.037.462-.072.939-.05 1.41-.05 9.336-.003 18.67-.006 28.006.003.606.001 1.211.099 1.866.155.22 1.334-.264 1.856-1.479 1.845a576.72 576.72 0 00-8.001.004c-.846.007-1.69.081-2.719.133-.695 3.182-1.373 6.227-2.024 9.276-1.388 6.512-2.749 13.028-4.151 19.538-.433 2.013-.474 2.025-2.437 2.053-1.863.028-3.727.007-6.12.007zm170.673-.521c1.779-10 4.3-19.912 6.19-30.047-2.023-.834-3.987-.34-5.891-.425-1.945-.088-3.897-.02-5.88-.02-.257-1.37.163-1.99 1.392-1.997.157-.002.315-.006.471-.006 9.566 0 19.133 0 28.7.004.389.002.836-.033 1.149.14.277.152.564.578.556.875-.009.305-.313.775-.587.863-.505.16-1.082.114-1.629.117-2.588.01-5.176-.012-7.764.01-2.129.02-2.229.09-2.664 2.122-1.277 5.972-2.529 11.95-3.792 17.925-.631 2.988-1.251 5.978-1.895 8.963-.41 1.904-.489 1.975-2.516 1.99-1.645.011-3.289-.037-4.933-.087-.209-.006-.412-.187-.907-.427zm-350.6.569l6.386-30.839c-4.052-.41-7.8-.012-11.571-.268-.477-1.053-.345-1.725.832-1.91.461-.071.939-.046 1.41-.046 9.097-.003 18.195-.003 27.293-.001.392 0 .83-.1 1.165.041.432.184 1.04.515 1.11.872.149.752-.44 1.087-1.17 1.1-.548.01-1.097.023-1.645.023-2.354.004-4.707-.016-7.06.01-2.126.022-2.288.143-2.696 2.107-1.752 8.435-3.448 16.881-5.244 25.307-.872 4.082-.026 3.561-4.436 3.602-1.315.012-2.628.002-4.374.002zm418.4-2.192c6.652.33 13.131-.016 19.65.207.324 1.259-.052 1.89-1.296 1.927-.392.01-.784.01-1.178.01-7.766 0-15.532.003-23.298-.004-.756 0-1.512-.068-2.554-.117.632-3.024 1.202-5.763 1.778-8.501 1.565-7.435 3.129-14.87 4.702-22.306.43-2.024.454-2.052 2.418-2.082 1.862-.028 3.726-.006 5.92-.006-.139 1.155-.175 1.983-.344 2.784-1.819 8.663-3.663 17.32-5.49 25.98-.125.595-.178 1.204-.308 2.108zM54.552 68.364c1.536-.84 2.31-2.16 2.785-3.674.441-1.406-.041-2.78-1.172-3.524-.913-.603-1.865-.786-2.853-.12-1.096.738-1.625 2.105-1.163 3.537.456 1.407 1.17 2.697 2.403 3.781zm-3.67 4.327c-2.163 1.14-3.122 2.787-2.85 4.77.323 2.357 1.64 4.238 4.025 5.083 2.105.746 3.93.239 5.71-1.44-2.36-2.884-4.623-5.65-6.886-8.413zm-1.326-.343c-.565-1.216-1.121-2.174-1.468-3.202-.837-2.491-1.012-5.018.95-7.066 2.08-2.17 4.82-2.65 7.611-1.89 3.861 1.052 4.75 5.654 1.764 8.656-.816.82-1.754 1.517-2.87 2.47l6.169 7.227c2.136-2.11 2.937-4.6 4.216-7.157l1.97 2.129c-1.51 2.283-3.002 4.54-4.6 6.96 1.563 1.883 3.132 3.77 5.067 6.099-2.481 0-4.402.056-6.316-.04-.456-.024-.916-.52-1.321-.86-.53-.446-1.005-.954-1.21-1.151-2.623.964-4.915 1.94-7.287 2.636-1.958.575-3.91.01-5.691-.876-3.067-1.525-4.21-4.848-2.892-8.232.64-1.645 1.67-3.007 3.192-3.96.856-.536 1.701-1.09 2.716-1.743m228.543 13.21c.986-4.657 1.92-9.092 2.865-13.525 1.224-5.743 2.445-11.485 3.696-17.223.395-1.808.463-1.842 2.345-1.873 1.863-.03 3.726-.007 5.831-.007-.152 1.06-.217 1.81-.371 2.54-1.99 9.422-3.986 18.842-6 28.258-.469 2.197-.504 2.245-2.782 2.201-1.768-.033-3.575.302-5.584-.37z" fill="#e3e8f0"/></svg>