<svg height="230" viewBox="0 0 400 230" width="400" xmlns="http://www.w3.org/2000/svg"><g fill="#e3e8f0" fill-rule="evenodd"><path d="M187.303.295c-33.957 2.46-62.401 12.599-76.476 27.166-6.3 6.496-9.055 12.5-9.055 19.685-.099 20.177 26.771 38.78 65.945 45.964 11.614 2.067 19.98 2.756 33.661 2.756 13.878.099 21.752-.59 33.661-2.756 25.886-4.724 48.032-15.157 58.76-27.559 7.973-9.252 9.547-18.7 4.725-28.445-9.45-19.291-42.717-34.055-83.17-36.81-5.905-.394-22.342-.394-28.05 0zm24.705 4.233c35.925 2.165 65.551 13.78 76.575 30.02 2.952 4.232 4.232 8.464 4.232 13.09 0 6.693-2.46 12.106-8.366 18.307C264.96 86.22 217.619 96.457 175 89.764c-26.378-4.134-49.016-14.567-59.154-27.166-3.937-4.822-6.2-10.433-6.2-15.059 0-2.263.984-6.594 2.067-9.055 5.118-11.417 19.685-21.26 40.846-27.657 17.224-5.217 39.37-7.48 59.449-6.3z"/><path d="M167.323 16.043c-.197.099-.295.886-.295 1.87v1.575l2.46.492c3.248.492 4.134.985 5.02 2.46l.787 1.28.099 23.426c.098 16.83 0 23.819-.197 24.803-.788 2.756-2.067 3.445-6.791 4.232-1.378.197-1.378.197-1.378 1.969v1.771h27.854V78.15c0-1.87.197-1.772-2.953-2.264-2.756-.492-3.74-1.083-4.527-2.953-.788-1.575-.788-2.067-.788-11.024v-9.35l14.862-.098h14.961l-.098 9.547c-.099 8.07-.197 9.842-.69 10.925-.787 1.575-2.362 2.658-4.33 2.953-3.543.492-3.347.394-3.347 2.264v1.771h27.756V78.15c0-1.772 0-1.772-1.28-1.969-4.428-.787-5.314-1.181-6.298-3.248-.59-1.28-.69-2.559-.788-23.819-.098-24.901 0-25.689 1.87-27.559.985-.984 1.575-1.181 3.839-1.575l2.657-.393v-3.839h-27.756v3.74l2.363.492c3.445.492 4.134.985 5.02 2.855.787 1.476.885 2.067.984 11.023l.098 9.45h-30.02v-8.072c0-13.386.492-14.567 6.792-15.453l1.673-.196v-3.839H181.2c-7.48 0-13.78.098-13.878.295zM0 108.465v7.381h400v-14.763H0zm6.3 19.685c0 1.968.098 2.165.885 2.263.394.099 1.772.394 3.051.59 3.051.493 4.134 1.28 5.315 3.347l.886 1.772v28.937c0 28.839 0 28.839-.787 30.315-.394.689-1.083 1.673-1.477 1.969-.886.885-3.248 1.574-5.708 1.87l-2.166.295v4.429h33.858v-4.331l-2.559-.492c-3.641-.492-4.92-1.18-6.004-2.756-1.377-2.067-1.673-4.921-1.673-15.945v-9.94h36.713v9.645c0 10.63-.295 13.78-1.575 15.945-1.083 1.772-2.559 2.46-6.2 3.15l-2.658.393-.099 2.166-.098 2.165h34.252l-.099-2.165-.098-2.166-2.756-.492c-3.642-.59-5.315-1.575-6.3-3.543l-.786-1.673v-58.17l.885-1.574c.985-1.87 2.953-2.953 5.906-3.347 3.248-.394 3.248-.295 3.248-2.657v-2.067H56.004v2.067c0 2.362-.098 2.263 3.346 2.657 2.461.394 4.528 1.378 5.414 2.56 1.476 2.164 1.575 3.05 1.771 14.664l.099 11.221H29.92l.099-11.22c.197-12.205.295-13.091 2.165-15.158 1.083-1.083 4.035-2.165 6.102-2.165 1.674 0 1.87-.394 1.87-2.56v-2.066H6.3zm130.117-1.28c-1.082 2.953-27.756 63.583-28.641 65.158-1.378 2.657-2.855 4.33-4.626 5.413-1.477.886-5.71 1.968-7.678 1.968h-.984v4.528h33.76v-4.429l-2.657-.394c-2.166-.394-2.953-.689-3.74-1.476-1.575-1.575-1.182-3.839 1.771-10.532l1.575-3.543h13.189l13.287.098 1.87 4.626c2.264 5.315 2.756 8.071 1.575 9.252-.787.788-2.559 1.378-5.02 1.772l-1.673.197-.098 2.165-.099 2.264h33.957v-4.429l-1.772-.197c-5.413-.59-7.874-1.87-10.236-5.217-.984-1.279-6.496-13.582-15.846-34.94l-14.37-32.874-1.575-.099c-1.477-.098-1.673 0-1.969.69zm6.201 36.122l3.937 9.055-4.035.099c-2.166.098-5.906.098-8.17 0l-4.232-.099 4.134-9.252c2.165-5.02 4.134-9.153 4.232-9.055.099.197 1.969 4.33 4.134 9.252zm11.417-34.842c0 2.362-.098 2.263 3.347 2.657 4.724.59 7.48 2.56 10.138 7.284.59 1.28 7.382 16.535 15.059 34.055l13.878 31.89 1.574-.099 1.575-.098 13.78-31.989c7.677-17.52 14.37-32.677 14.862-33.76 2.362-4.527 5.413-6.692 10.138-7.283 3.445-.394 3.346-.295 3.346-2.657v-2.067H207.48l.296 1.968c.295 2.56.295 2.658 1.673 2.658.689 0 1.968.197 3.051.492 2.46.689 3.15 2.067 2.56 4.921-.198 1.083-3.052 7.972-6.202 15.256-3.15 7.283-6.89 15.846-8.267 18.898-1.28 3.15-2.56 5.61-2.658 5.61-.197 0-.787-1.083-1.28-2.264-.492-1.28-4.232-9.744-8.169-18.898-4.035-9.055-7.48-17.322-7.677-18.307-.886-3.641.394-5.118 4.823-5.708l2.067-.197.098-2.264.099-2.165h-33.859zm103.052-.197c-.493.984-6.89 15.748-14.272 32.677-13.976 32.087-15.158 34.449-18.012 36.417-1.378 1.083-5.905 2.362-7.972 2.362h-1.181v4.528h33.858v-4.429l-1.969-.295c-2.362-.296-4.626-1.083-5.118-1.969-.984-1.87-.098-5.807 2.658-11.22l1.28-2.461h26.278l1.674 3.346c2.658 5.71 3.248 8.662 2.165 10.335-.689.984-1.771 1.378-4.724 1.969l-2.362.393-.099 2.166-.098 2.165h34.252l-.099-2.165-.098-2.166-2.756-.393c-5.216-.886-7.579-2.264-9.842-6.103-.69-1.082-7.185-15.748-14.567-32.48-7.284-16.83-13.681-31.398-14.174-32.579-.885-1.968-.885-1.968-2.46-1.968-1.477 0-1.477 0-2.362 1.87zm6.988 35.827l3.642 8.267-3.937.099c-2.166.098-5.906.098-8.268 0l-4.232-.099 3.543-8.07c1.968-4.528 3.74-8.662 4.134-9.351l.492-1.28.492 1.083c.295.59 2.165 4.823 4.134 9.35zm43.602-35.63c0 2.067 0 2.165.984 2.362 5.512.984 6.693 1.673 7.678 4.33.59 1.575.689 3.642.689 30.315v28.84l-.886 1.672c-1.083 2.067-2.46 2.855-5.906 3.445l-2.362.492-.098 2.166-.099 2.165h31.398v-4.429l-2.46-.394c-3.446-.492-4.922-1.378-6.005-3.445l-.886-1.673-.098-21.752-.098-21.653.787.885c1.772 2.067 24.114 29.823 28.937 36.024 2.756 3.642 6.693 8.858 8.76 11.516l3.543 4.921h12.599l.098-33.957c.098-32.086.098-33.956.689-35.334.984-2.166 2.264-3.15 4.921-3.642 1.181-.197 2.56-.492 3.051-.59.69-.099.788-.296.788-2.264v-2.067h-31.398v2.067c0 2.067 0 2.165.984 2.362 4.134.787 5.512 1.28 6.496 2.264 1.772 1.968 1.772 1.968 1.87 27.657l.197 24.016-.984-1.181c-.59-.492-10.925-13.681-23.13-29.134l-22.145-28.051h-17.914zM0 221.555v7.48h400v-14.862H0z"/></g></svg>