<svg height="264" viewBox="0 0 400 264" width="400" xmlns="http://www.w3.org/2000/svg"><g fill="#e3e8f0"><path d="M189.865 234.971c-78.983 7.287-161.306-4.19-172.836-65.916-5.64-30.428 8.24-62.695 26.629-82.75v-10.71C10.532 104.647-7.42 141.407 2.92 184.831c13.208 55.696 83.844 87.236 191.688 76.763 42.687-4.137 98.513-17.862 137.35-39.195v-30.282c-35.248 21.002-93.535 38.35-142.093 42.854zm208.068-160.1C379.2-16.595 201.603-22.393 87.121 47.294v7.696C201.471-3.799 363.671-3.442 378.44 80.816c4.956 27.872-10.745 56.91-38.794 73.63v21.863c33.741-12.376 68.35-52.406 58.288-101.437z"/><path d="M325.572 61.552h-20.709v92.233c0 10.81 5.225 20.21 20.709 21.711zM78.99 95.228H58.244l-.012 60.259c0 10.847 5.242 20.237 20.758 21.71zm-20.746-30.87h20.682v19.63H58.244zM203.01 176.244c-16.762 0-23.855-11.651-23.855-23.127v-80.01h20.528v22.121h15.46v16.581h-15.46v40.04c0 4.68 2.222 7.286 7.101 7.286h8.36v17.11zm37.775-34.088c0 10.506 6.57 18.227 18.193 18.227 9.108 0 13.597-2.528 18.855-7.72l12.685 12.083c-8.133 8.034-16.654 12.92-31.692 12.92-19.645 0-38.468-10.723-38.468-41.982 0-26.723 16.447-41.83 38.013-41.83 21.923 0 34.521 17.685 34.521 40.898v7.407h-52.107zm16.686-31.323c-7.026 0-12.425 3.619-14.713 8.5-1.333 2.934-1.821 5.22-1.974 8.826h31.638c-.4-8.826-4.401-17.326-14.95-17.326zm-122.726.976c6.02 0 8.522 2.976 8.522 7.806v56.749H163.8v-56.868c0-11.523-6.14-24.246-24.17-24.246l-42.415-.022v81.136h20.541v-64.555zm213.107-33.776c-4.565 0-8.208-3.681-8.208-8.24 0-4.538 3.643-8.24 8.208-8.24 4.543 0 8.273 3.702 8.273 8.24 0 4.559-3.73 8.24-8.273 8.24zm0-15.107c-3.762 0-6.788 3.11-6.788 6.866 0 3.779 3.026 6.833 6.788 6.833 3.762 0 6.885-3.054 6.885-6.833 0-3.756-3.123-6.866-6.885-6.866zm3.654 11.805h-1.54a.347.347 0 01-.313-.205l-2.083-3.54a.62.62 0 00-.292-.163h-.953v3.53c0 .173-.12.379-.347.379h-1.389c-.207 0-.346-.206-.346-.38v-8.901c0-.521.173-.735.628-.8.5-.055 1.8-.12 2.528-.12 2.57 0 4.077.757 4.077 3.14v.173c0 1.472-.726 2.274-1.854 2.632l2.169 3.692a.663.663 0 01.054.26c-.003.14-.078.303-.34.303zm-1.995-7.06c0-.995-.618-1.31-1.941-1.31h-1.312v2.824c.206 0 1.139.044 1.312.044 1.323 0 1.941-.442 1.941-1.385z"/></g></svg>