<svg fill="none" height="70" viewBox="0 0 219 70" width="219" xmlns="http://www.w3.org/2000/svg"><g fill="#e3e8f0"><path clip-rule="evenodd" d="M3.053 9h5.13l-2.015 9.532h4.765l-.733 3.662H.3zm25.657-.184c4.583 0 6.233 2.75 5.316 6.782-.916 4.032-3.664 6.782-8.247 6.782-4.4 0-6.05-2.75-5.133-6.782.735-4.032 3.667-6.782 8.064-6.782zm-2.199 10.26c.917 0 1.469-.546 2.2-3.48.55-2.934.183-3.485-.734-3.485-.733 0-1.468.551-2.015 3.485-.735 2.936-.183 3.48.55 3.48zm29.143-1.83c-.733 3.668-3.848 5.132-7.147 5.132-4.584 0-6.05-2.75-5.133-6.782.733-4.216 3.665-6.782 8.064-6.782 3.3 0 5.866 1.282 4.949 5.132h-4.765c.368-1.47-.184-1.835-.733-1.835-1.468 0-1.833 1.47-2.198 3.485-.552 2.015-.733 3.48.549 3.48.732 0 1.284-.362 1.65-1.83zM68.669 9h4.948l-1.1 5.68L76.367 9h5.498L77.1 15.23l2.382 6.964h-5.5l-1.833-5.863-1.282 5.863H65.92zm29.326 8.246h-2.201l-.917 4.948h-5.132L92.495 9h5.132l-.916 4.397h2.198L99.83 9h5.129l-2.75 13.194h-5.132zM116.689 9h9.899l-.735 3.48h-4.948l-.368 1.469h4.583l-.733 3.297h-4.583l-.365 1.47h5.132l-.735 3.478h-10.079zM138.5 9h9.897l-.732 3.48h-4.949l-.368 1.469h4.584l-.55 3.297h-4.766l-.184 1.47h5.134l-.735 3.478H135.75zm21.812 0h6.23c5.133 0 6.234 2.934 5.501 6.782-.918 3.848-4.033 6.414-8.065 6.414h-6.414zm2.931 10.077h.549c.917 0 1.466-.184 1.834-.731.548-.551.733-1.47 1.1-2.75.183-1.286.366-2.199 0-2.75-.184-.551-.548-.735-1.468-.735h-.365z" fill-rule="evenodd"/><path d="M26.145 48.998l3.849-9.348-2.015 9.348h4.397l2.75-13.194h-7.147l-3.117 7.878.183-7.878h-7.147l-2.751 13.194h4.4l2.015-9.348-.184 9.348zm67.818-9.53h3.117l-2.017 9.53h5.313l2.015-9.53h3.118l.735-3.664H94.696zm28.955-3.664h-5.127l-2.751 13.194h5.133zm18.512 0h-6.23l-2.75 13.194h4.216l1.647-8.066h.185l.918 8.066h6.23l2.751-13.194h-4.032l-1.831 7.878z"/><g clip-rule="evenodd" fill-rule="evenodd"><path d="M49.425 35.804h6.598L57.488 49h-5.315l-.184-2.199h-3.664L47.405 49h-4.943zm2.562 2.933v4.945h-2.2zm19.43-2.933h7.702c2.745 0 4.216.914 3.664 3.297-.368 1.651-1.102 2.75-3.302 3.117v.184c1.287 0 1.836.551 1.836 1.647.083.51.01 1.177-.073 1.945-.097.892-.21 1.921-.11 3.004h-4.95c-.184-1.098 0-2.75.184-3.848 0-.552-.368-.92-1.102-.92h-.73l-.92 4.766h-5.131zm6.23 4.213c-.182.915-.91 1.282-2.014 1.282v-.002h-.369l.552-2.382h.367c1.097 0 1.65.184 1.465 1.102z"/><path d="M218.876 27.76H189.55C193.398 13.28 196.879 1 196.879 1s-13.196 14.113-24.928 26.76H55.747c-.73 0-.73.367 0 .367.368 0 114.005 2.015 114.005 2.015-9.165 9.714-14.114 15.214-14.293 15.397-.368.368 0 .552.364.184.183-.184 6.786-6.235 16.128-15.58l14.482.183c-.92 4.216-1.648 8.064-2.75 12.647a48844.496 48844.496 0 00-46.736 25.11c-.368.184-.183.552.184.368.183-.183 27.125-13.747 46-23.28-3.112 14.114-5.128 23.825-5.128 24.009-.183.184.184.367.369 0 0-.184 2.744-9.895 6.78-24.927 16.859-8.61 33.724-16.493 33.724-16.493zm-44.541 0c8.796-8.615 16.129-15.58 16.129-15.58s-1.282 6.048-3.48 15.58zm14.483 2.568l17.593.366s-8.797 4.764-20.712 11.179c1.101-4.032 2.015-7.513 3.119-11.545z"/></g></g></svg>