<svg height="68" viewBox="0 0 400 68" width="400" xmlns="http://www.w3.org/2000/svg"><path d="M19.26 66.627H0V1.131h33.31l38.213 48.897V1.131h19.26v65.496H58.148L19.26 16.896zm163.675-20.251c0 9.104-1.608 12.241-4.276 15.253-4.086 4.483-10.029 5.83-21.486 5.83H124.29c-11.457 0-17.407-1.348-21.49-5.83-2.662-3.01-4.275-6.15-4.275-15.253V21.127c0-9.103 1.613-12.239 4.275-15.254C106.882 1.387 112.833.04 124.289.04h32.885c11.456 0 17.4 1.348 21.485 5.833 2.666 3.014 4.276 6.15 4.276 15.254zm-26.57 4.487c4.398 0 5.95-.257 7.002-1.217.99-.897 1.425-2.051 1.425-5.899V23.753c0-3.846-.435-4.994-1.425-5.895-1.053-.962-2.604-1.216-7.003-1.216h-31.269c-4.399 0-5.949.254-7 1.216-.99.901-1.424 2.05-1.424 5.895v19.994c0 3.847.432 5.002 1.425 5.899 1.05.96 2.6 1.217 7 1.217zm54.56-49.732v65.496h-20.124V1.131zm34 0h26.568l-35.856 30.636 40.441 34.86h-28.43L210.926 32.47zm34.865 0h20.13v65.496h-20.13zm96.864 65.496l-5.955-11.41h-38.944l-5.884 11.41h-22.234L339.311 1.13h25.016L400 66.627zm-37.906-25.635h25.025l-12.515-23.713z" fill="#e3e8f0"/></svg>