<svg fill="none" height="65" viewBox="0 0 227 65" width="227" xmlns="http://www.w3.org/2000/svg"><path d="M.43 33.889c0-5.842-.121-10.14-.359-14.025h9.555l.414 8.288h.306c2.148-6.143 7.242-9.278 11.95-9.278 1.076 0 1.704.043 2.589.238v10.39a16.659 16.659 0 00-3.327-.31c-5.258 0-8.906 3.347-9.89 8.346-.2 1.1-.296 2.217-.29 3.336V63.5H.339zM38.2 44.656c.297 7.899 6.414 11.363 13.485 11.363 5.071 0 8.7-.793 12.036-2.024l1.641 7.6c-3.74 1.577-8.919 2.767-15.258 2.767-14.163 0-22.467-8.751-22.467-22.125 0-12.049 7.305-23.442 21.343-23.442 14.19 0 18.809 11.669 18.809 21.226 0 2.05-.175 3.697-.397 4.712zm19.199-7.69c.049-4.045-1.712-10.635-9.102-10.635-6.795 0-9.62 6.165-10.11 10.635zm139.328 16.316c0 3.406.133 6.927.626 10.22h-3.923l-.621-6.165h-.206c-2.087 3.318-6.883 7.15-13.722 7.15-8.655 0-12.683-6.099-12.683-11.831 0-9.928 8.764-15.912 26.27-15.737v-1.143c0-4.252-.83-12.75-11.008-12.68-3.765 0-7.687 1.007-10.801 3.206l-1.358-3.096c3.936-2.663 8.732-3.718 12.625-3.718 12.418 0 14.799 9.318 14.799 17.006v16.788zm-4.259-12.778c-9.369-.271-21.746 1.152-21.746 11.485 0 6.181 4.08 8.96 8.563 8.96 7.173 0 11.247-4.441 12.728-8.627a8.08 8.08 0 00.455-2.579zm21.799-29.514v9.483h12.265v3.455h-12.265v27.965c0 5.472 1.703 8.897 6.323 8.897 2.216 0 3.784-.288 4.886-.671l.517 3.297c-1.393.583-3.346 1.03-5.937 1.03-3.148 0-5.745-.985-7.425-3.047-1.949-2.267-2.623-5.872-2.623-10.267V23.928h-7.255v-3.455h7.255V12.56zm-70.086 8.498a16.403 16.403 0 00-8.669 2.465 15.728 15.728 0 00-5.876 6.205h-.18V6.868l-4.255-1.16V63.5h4.255V37.19c0-1.749.134-2.96.585-4.24 1.835-5.35 6.877-9.745 12.977-9.745 8.806 0 11.857 7.07 11.857 14.815v25.483h4.257v-25.95c.001-16.03-10.873-18.066-14.951-18.066zm-28.85-16.453L104.301.048v24.514h-.179c-1.952-3.222-6.256-5.688-12.233-5.688-10.49 0-19.634 8.684-19.563 23.307 0 13.417 8.254 22.306 18.674 22.306 6.298 0 11.565-3.005 14.17-7.891h.201l.496 6.905h9.828a202.35 202.35 0 01-.364-12.24zm-11.03 41.542c0 1.16-.082 2.241-.332 3.222-1.114 4.778-5.017 7.854-9.528 7.854-6.949 0-10.925-5.859-10.925-13.875 0-8.096 3.944-14.361 11.05-14.361 4.963 0 8.51 3.502 9.49 7.745.188.898.245 2 .245 2.88z" fill="#e3e8f0"/></svg>