<svg height="133" viewBox="0 0 400 133" width="400" xmlns="http://www.w3.org/2000/svg"><path d="M399.31 31.582C393.876.386 300.142-9.349 189.941 9.837c-46.28 8.062-88.07 19.952-120.613 33.33 5 .109 8.707 1.255 10.96 3.502 1.76 1.763 2.65 4.183 2.65 7.198v3.094H72.133V54.23c0-2.277-1.365-3.688-3.783-3.688-2.032 0-3.283.918-3.687 2.725a5.234 5.234 0 00.043 2.157c1.157 4.726 17.202 7.662 18.948 16.384.229 1.122.539 3.524.05 6.961-1.002 7.035-7.183 9.75-15.051 9.75-10.983 0-15.445-5.203-15.445-12.375l.008-3.393H64.8l.006 4.227c0 2.376 1.727 3.688 4.08 3.688 2.228 0 3.53-.898 3.98-2.733.209-.843.3-2.087-.08-3.038-2.143-5.378-17.126-7.889-18.971-16.584-.412-1.954-.446-3.617-.104-5.72.176-1.044.499-2.056.96-3.008C18.573 66.464-2.543 85.04.247 101.077c5.439 31.2 99.17 40.925 209.369 21.739 48.442-8.432 91.992-21.055 125.136-35.2-.48.024-.945.076-1.443.076-7.542 0-14.276-2.826-14.975-10.536-.123-1.403-.145-1.99-.149-2.79l.004-17.723c0-.764.09-2.106.175-2.798.894-7.451 6.784-10.524 14.95-10.524 6.318 0 14.065 1.813 14.917 10.53.113 1.094.101 2.262.1 2.647v1.673h-10.914v-2.497c0-.054-.016-.987-.135-1.57-.18-.89-.938-2.952-4.046-2.952-3.07 0-3.867 2.066-4.066 2.953-.113.488-.167 1.189-.167 1.965v19.26c-.01.669.024 1.192.092 1.576.053.303.605 2.958 4.179 2.958 3.548 0 4.097-2.655 4.147-2.958.093-.52.105-1.142.101-1.576v-5.968h-4.294v-6.428h15.186V74.37c-.004.778-.016 1.353-.147 2.786-.183 2.022-.82 3.734-1.82 5.196 35.151-16.69 55.617-34.965 52.862-50.77zm-285.748 55.29l-5.528-37.565h-.2l-5.669 37.565H90.513L98.35 44.45h19.011l7.79 42.422zm56.044 0l-.257-36.838h-.187l-6.856 36.838h-10.935l-6.822-36.838h-.195l-.249 36.838H133.27l.939-42.422h17.429l5.074 31.512h.25l5.088-31.512h17.42l.936 42.422zm51.027-8.221c-1.166 8.217-9.216 9.653-14.906 9.653-9.446 0-15.29-4.037-15.29-12.254l.007-3.351h11.445l.008 4.175c0 2.266 1.598 3.653 4.065 3.653 2.201 0 3.49-.883 3.938-2.698.207-.846.293-2.08-.073-3.011-2.11-5.276-16.975-7.86-18.782-16.42-.414-1.94-.444-3.588-.104-5.67 1.258-7.759 8.705-9.37 14.699-9.37 5.361 0 9.263 1.17 11.604 3.51 1.745 1.747 2.629 4.145 2.629 7.128v3.06H209.17v-2.7c0-2.312-1.435-3.65-3.741-3.65-2.046 0-3.284.91-3.69 2.699a5.154 5.154 0 00.052 2.133c1.146 4.705 17.05 7.58 18.792 16.221.225 1.103.533 3.469.05 6.892zm39.638-3.855c.016.796-.062 2.386-.106 2.794-.653 6.99-5.652 10.541-14.82 10.541-9.204 0-14.207-3.552-14.855-10.541a33.745 33.745 0 01-.106-2.786V44.44h10.95v31.32c-.013.7.023 1.218.093 1.578.135.697.828 2.958 3.918 2.958 3.08 0 3.773-2.263 3.919-2.95.061-.37.1-.913.1-1.588V44.44h10.907zm47.174 11.644h-15.236l-10.227-33.602h-.171l.567 33.602H271.76V44.45h15.875l9.453 32.278h.22l-.559-32.278h10.697z" fill="#e3e8f0"/></svg>