<svg fill="none" height="32" viewBox="0 0 128 32" width="128" xmlns="http://www.w3.org/2000/svg"><g fill="#e3e8f0"><path d="M22.137 14.492c-.869.766-1.538.896-1.83.584-.193-.204-.231-.598-.086-1.107.461-1.618.82-3.25 1.117-4.91a.07.07 0 00.008-.003c1.751-.827 3.51-1.585 5.455-1.79-.919 2.646-2.584 5.392-4.663 7.226zm-.899 5.43c-1.097-.245-1.622-.741-1.589-1.193.023-.295.278-.58.727-.78 1.38-.618 2.743-1.297 4.026-2.11a.084.084 0 00.007.003c1.7.875 3.333 1.985 4.646 3.391-2.388.939-5.345 1.24-7.817.689zm-4.54 2.878c-.529-1.168-.49-1.96-.13-2.234.235-.18.61-.146 1.048.114 1.334.794 2.71 1.536 4.15 2.125l.002.009c.519 2.183.82 4.475.687 6.723-2.4-1.585-4.577-4.136-5.756-6.737zm-5.154-2.095c.595-1.277 1.23-1.757 1.668-1.623.288.087.498.437.576 1 .244 1.776.6 3.52 1.03 5.265l-.005.007c-1.493 2.136-3.094 4.193-5.104 5.866-.237-3.452.384-7.402 1.835-10.515zM9.99 14.834c1.362-.29 2.105-.052 2.272.402.11.297-.026.695-.412 1.119-1.274 1.401-2.442 2.874-3.563 4.408h-.01c-2.744.204-5.599.09-8.276-.583 2.728-2.437 6.426-4.589 9.99-5.346zm3.478-4.76c1.019.92 1.298 1.654 1.07 2.054-.149.263-.52.387-1.066.322-1.826-.217-3.647-.301-5.49-.315l-.006-.008C6.235 10.04 4.662 7.688 3.65 5.149c3.448.824 7.18 2.543 9.817 4.924zm5.41.075c-.008 1.304-.343 1.96-.759 2.009-.272.032-.586-.195-.87-.667a53.711 53.711 0 00-3.039-4.463l.002-.009c.421-2.28 1.095-4.606 2.247-6.629 1.441 2.928 2.436 6.502 2.418 9.76z"/><path d="M22.111 2.262c-.102 1.737-.226 3.478-.46 5.177-.063.461-.135.998-.207 1.422l.008-.003c1.747-.825 3.503-1.582 5.443-1.787a15.321 15.321 0 00-4.784-4.81zm6.931 10.066c-1.12.93-2.273 1.83-3.491 2.617-.34.22-.727.486-1.05.683a.118.118 0 01.007.004c1.697.873 3.326 1.98 4.637 3.384.31-2.32.286-4.38-.102-6.688zM27.17 24.337c-1.396-.357-2.787-.762-4.122-1.293-.38-.151-.824-.312-1.175-.463l.001.009c.518 2.18.82 4.466.686 6.71a15.421 15.421 0 004.61-4.963zm-10.047 7.22c-.65-1.652-1.274-3.316-1.77-4.993-.138-.466-.3-1.007-.413-1.446l-.006.008c-1.49 2.131-3.087 4.183-5.092 5.853 2.42.715 4.772 1.05 7.281.578zm-12.891-4.19c1.01-1.856 2.074-3.695 3.239-5.428.31-.46.657-.99.95-1.397H8.41c-2.737.205-5.585.091-8.257-.58.684 2.777 2.085 5.364 4.079 7.405zM0 12.56c2.147-.265 4.305-.507 6.443-.58.552-.02 1.178-.047 1.673-.048l-.007-.009C6.373 9.84 4.803 7.493 3.794 4.96A16.223 16.223 0 000 12.56zM16.573.21c-1.149 2.018-1.82 4.339-2.24 6.615a.217.217 0 01-.003.01c-.288-.378-.671-.835-1.002-1.25-1.256-1.575-2.643-3.05-4.047-4.498A14.05 14.05 0 0116.573.21z"/><path clip-rule="evenodd" d="M41.222 16.894c-2.925-1.208-4.002-3.06-3.603-6.193.641-4.731 3.34-5.628 8.098-5.628h6.989l-.584 4.168h-7.83c-1.06.076-1.569.38-1.785 1.782-.187 1.26.074 1.474 1.488 2.011l3.652 1.414c3.51 1.383 3.993 3.419 3.636 6.254-.58 4.492-2.5 5.862-8.216 5.862H35.73l.584-4.168h6.562c2.7 0 3.31-.426 3.548-2.017.158-1.234-.113-1.466-1.34-1.922zm19.227-11.82l-.574 4.167h-4.748l.574-4.168zm66.977 4.167L128 5.073h-4.748l-.574 4.168zm-10.044 17.326l2.991-21.464h-4.774l-.865 6.207a30.805 30.805 0 00-4.393-.34c-3.514 0-5.867 1.287-6.743 7.697-.443 3.419-.115 5.712 1.005 7.01.725.84 1.755 1.25 3.148 1.25 1.984 0 3.942-.928 5.827-2.759v2.4zM63.368 12.764c1.268-1.224 3.116-1.794 5.816-1.794 3.604 0 5.621.676 5.621.676l-.468 3.401s-3.6-.063-4.564-.063c-2.38 0-3.441.56-3.857 4.034-.233 1.874-.151 2.84.28 3.337.347.4.97.557 2.222.557 1.809 0 3.345-.09 4.564-.267l.316-.054-.494 3.586-.124.041c-1.753.586-3.702.709-5.027.709-2.699 0-4.537-.617-5.62-1.885-1.123-1.316-1.472-3.373-1.064-6.288.407-2.933 1.147-4.78 2.4-5.99zm38.191-.108c.725.85.969 2.041.744 3.643-.464 3.231-2.693 4.034-6.139 4.282l-4.096.313c.11 1.75 1.008 2.079 2.698 2.079 1.457 0 4.969-.175 5.542-.323l.231-.06.027.24c.142 1.268.557 2.67.561 2.683l.054.183-.172.074c-1.864.795-4.803 1.157-6.744 1.157-2.752 0-4.645-.634-5.787-1.94-1.163-1.33-1.563-3.406-1.222-6.348.684-5.734 2.862-7.67 8.629-7.67 2.85 0 4.707.552 5.674 1.687zM52.741 26.567h4.748l2.09-15.178h-4.748zM87.784 11.39h-.921c-1.748 0-3.459.88-5.664 2.928V11.39h-3.776l-2.09 15.178h4.78l1.158-8.73c.601-.78 2.275-1.698 3.52-1.698h1.02l.036-.166c.004-.02.435-1.97 1.754-4.266zm32.508 15.178h4.748l2.09-15.178h-4.748zm-8.125-12.062c-2.651 0-3.216.343-3.74 4.277-.268 2.017-.346 3.274.047 3.731.163.19.438.269.858.25 1.448-.03 2.598-.806 4.082-2.14l.84-6.118zm-14.487 1.32c-.162 1.34-.808 1.617-2.198 1.73l-3.115.303c.438-2.457.99-3.233 3.226-3.233.158-.002.307-.004.446-.004.757 0 1.27.048 1.487.288.147.164.194.448.154.916z" fill-rule="evenodd"/></g></svg>