<svg fill="none" height="50" viewBox="0 0 291 50" width="291" xmlns="http://www.w3.org/2000/svg"><path d="M82.942 31.284c0-2.496-.74-3.854-2.628-3.854s-2.777 1.468-2.962 3.854zm-10.55 1.395c0-5.69 2.887-9.287 7.848-9.287 5.071 0 7.848 4.038 7.256 11.158h-9.959c.407 2.57 1.962 3.597 4.517 3.597 1.48 0 2.887-.183 4.368-.77v3.67c-1.444.66-3.073.917-5.035.917-5.812 0-8.996-3.523-8.996-9.285zm17.5 8.699h4.96V14.585h-4.96zm17.72-10.203c0-2.496-.741-3.854-2.629-3.854s-2.776 1.468-2.961 3.854zM97.061 32.57c0-5.69 2.887-9.286 7.848-9.286 5.072 0 7.848 4.037 7.256 11.157h-9.958c.407 2.57 1.962 3.597 4.516 3.597 1.481 0 2.888-.183 4.369-.77v3.67c-1.444.66-3.073.917-5.035.917-5.812 0-8.996-3.523-8.996-9.285zm22.302 3.193c.592 1.1 1.517 1.798 2.702 1.798 2.11 0 2.925-1.798 2.925-4.991 0-3.194-.815-4.992-2.925-4.992-1.185 0-2.11.697-2.702 1.798zm4.146 6.093c-1.999 0-3.295-.845-4.146-1.8v9.397h-4.961V23.76h4.442v1.798c.815-1.138 2.259-2.276 4.554-2.276 4.775 0 6.515 4.331 6.515 9.287 0 5.431-1.999 9.285-6.404 9.285zm18.454-10.681c0-2.496-.741-3.854-2.629-3.854s-2.776 1.468-2.961 3.854zm-10.551 1.395c0-5.69 2.887-9.286 7.848-9.286 5.072 0 7.849 4.037 7.256 11.157h-9.958c.407 2.57 1.962 3.597 4.516 3.597 1.481 0 2.888-.183 4.369-.77v3.67c-1.444.66-3.073.917-5.035.917-5.812 0-8.996-3.523-8.996-9.285zm17.097-8.81h4.442v2.68c1.074-2.239 3.073-3.266 5.738-3.046v4.991c-2.369-.293-4.257.551-5.22 3.01v9.983h-4.96zm14.304 4.258h-2.332v-4.257h2.332v-2.312c0-4.588 2.925-6.24 6.108-6.24 1.296 0 2.222.184 3.221.587v4.038c-.592-.257-1.296-.367-1.999-.367-1.407 0-2.369.66-2.369 2.165v2.129h3.554v4.257h-3.554v13.36h-4.961zm14.189 4.552c0 3.23.851 4.99 2.999 4.99 2.11 0 2.961-1.76 2.961-4.99 0-3.23-.851-5.029-2.961-5.029-2.148 0-2.999 1.798-2.999 5.028zm10.958 0c0 5.799-2.85 9.285-7.959 9.285-5.146 0-7.996-3.486-7.996-9.285s2.85-9.286 7.996-9.286c5.109 0 7.959 3.45 7.959 9.285zm1.785-8.81h4.442v2.68c1.073-2.239 3.072-3.266 5.738-3.046v4.991c-2.369-.293-4.257.551-5.22 3.01v9.983h-4.96zm35.274 5.176v12.442h-4.886V29.963c0-1.431-.667-2.128-1.852-2.128-1.036 0-1.851.587-2.48 1.578v11.965h-4.849V29.963c0-1.431-.704-2.128-1.851-2.128-1 0-1.852.587-2.481 1.652v11.891h-4.886V23.761h4.442v1.651c1.037-1.32 2.554-2.129 4.479-2.129 1.926 0 3.369.808 4.22 2.13 1.296-1.505 2.888-2.13 4.813-2.13 3.591 0 5.331 2.496 5.331 5.653zm11.727 8.552V34.11a7.577 7.577 0 00-1.776-.22c-1.815 0-3.036.587-3.036 2.349 0 1.578.963 2.275 2.147 2.275 1.111 0 1.888-.33 2.665-1.027zm6.59.367v3.45c-.74.22-1.481.33-2.369.33-1.37 0-2.628-.404-3.369-1.358-1.333 1.064-2.925 1.578-4.776 1.578-3.035 0-5.664-1.762-5.664-5.469 0-3.78 2.777-5.652 6.738-5.652.963 0 1.777.11 2.85.33v-.954c0-1.431-.666-2.679-3.109-2.679-1.999 0-3.887.477-5.368 1.1v-4.22c1.629-.587 3.813-1.028 5.849-1.028 4.924 0 7.478 2.166 7.478 7.194v6.276c0 .881.444 1.175 1.148 1.175.185 0 .407-.036.592-.073zm1.833-14.095h4.443v1.652c.999-1.174 2.48-2.128 4.812-2.128 2.814 0 5.368 1.945 5.368 5.615v12.48h-4.961V29.963c0-1.505-.74-2.13-2.036-2.13-1.295 0-2.184.845-2.665 1.762v11.782h-4.961zm16.693 8.956c0-6.055 3.554-9.432 8.44-9.432 1.518 0 2.666.22 3.888.807v4.148c-.926-.478-1.889-.734-3.11-.734-2.592 0-4.221 1.871-4.221 5.065s1.444 4.99 3.999 4.99c1.517 0 2.591-.33 3.517-.733v4.257c-1.111.515-2.481.771-4.295.771-4.775 0-8.218-3.266-8.218-9.139zm24.384-1.541c0-2.496-.741-3.854-2.628-3.854-1.888 0-2.777 1.468-2.962 3.854zm-10.551 1.395c0-5.69 2.888-9.286 7.849-9.286 5.071 0 7.848 4.037 7.255 11.157h-9.958c.407 2.57 1.962 3.597 4.517 3.597 1.48 0 2.887-.183 4.368-.77v3.67c-1.444.66-3.073.917-5.035.917-5.812 0-8.996-3.523-8.996-9.285zM31.446.046H2.744C1.78.046 1 .82 1 1.775v8.48c0 .709.139 1.1.474 1.432l9.922 9.836c.157.156.388.058.388-.14V11.346a.387.387 0 00-.389-.385H3.55a.92.92 0 01-.924-.916V2.57a.92.92 0 01.924-.916h26.31c.51 0 .925.41.925.916v7.474a.92.92 0 01-.924.916h-7.844a.388.388 0 00-.39.386v29.112a.92.92 0 01-.923.915h-7.8c-.205 0-.342.253-.197.396l6.89 6.83c.468.465 1.076.853 1.86.853h7.494c.71 0 1.284-.57 1.284-1.274v-17.34c0-.213.174-.386.39-.386h.821c8.42 0 16.595-5.092 16.595-15.262 0-9.054-6.295-15.144-16.595-15.144zm31.541 21.74H57V17h17v4.786h-5.988V42h-5.025z" clip-rule="evenodd" fill="#e3e8f0" fill-rule="evenodd"/></svg>