<svg height="80" viewBox="0 0 398 80" width="398" xmlns="http://www.w3.org/2000/svg"><g fill="#e3e8f0" fill-rule="evenodd"><path d="M372.628 78.053h-19.362V.126h44.392v17.467h-25.03V31.29h25.03v16.53h-25.03zM0 .125h49.122v17.472H34.948v60.455H15.115V17.597H0z"/><path d="M324.928 30.23c-.447 1.35-.803 2.152-1.77 3.181-.956 1.03-1.696 1.414-2.952 2.015-1.226.587-1.975.822-3.307 1.067h-7.553v-18.9h7.553c2.832.712 2.789.726 4.255 1.774 1.649 1.179 2.216 1.683 3.062 3.184.607 1.067.852 1.74 1.063 2.961.327 1.813.23 2.962-.351 4.717zm18.775-10.983c-1.058-4.168-2.077-6.625-4.841-9.923-2.106-2.495-3.669-3.66-6.496-5.303-2.495-1.457-4.058-2.087-6.847-2.838-3.27-.897-5.236-.874-8.62-1.057-2.942-.168-4.616-.168-7.553 0h-20.314v77.928h20.314V52.542c2.942 0 4.605.058 7.553 0 3.688-.072 5.775-.053 9.442-.35 2.832-.232 4.173-1.27 6.496-2.722 2.683-1.668 3.933-3.071 5.905-5.553 1.932-2.418 2.874-3.962 4.013-6.842 1.482-3.74 1.737-6.134 1.77-10.15.024-3.018-.082-4.758-.822-7.678z" fill-rule="nonzero"/><path d="M194.345.125v77.927h17.949V29.64l16.525 48.412h12.985L258.34 29.64v48.412h18.885V.125h-26.208l-15.352 47.694L220.318.125zm-31.405 0v51.007c.09 1.779-.164 2.88-.943 4.475-.679 1.39-1.308 2.093-2.48 3.074-1.059.904-1.774 1.317-3.068 1.773-1.539.534-2.524.645-4.135.472-1.236-.13-1.938-.337-3.077-.822-1.461-.649-2.355-1.048-3.418-2.25-.976-1.087-1.27-1.933-1.775-3.308-.466-1.274-.577-2.063-.702-3.414V.125H123.74v47.694h-.12l.12 3.313c.125 1.573.232 2.452.477 4.005.375 2.466.529 3.89 1.293 6.264.841 2.612 1.423 4.097 2.947 6.372 1.88 2.783 3.433 4.048 6.145 6.024 3.11 2.27 5.149 3.322 8.856 4.365 3.649 1.035 5.89 1.035 9.678.943 2.876-.063 4.538-.11 7.323-.823 3.043-.763 4.707-1.524 7.433-3.062 2.754-1.568 4.298-2.578 6.5-4.847 2.453-2.528 3.538-4.327 4.958-7.563 1.302-2.96 1.639-4.812 2.124-8.024.217-1.42.274-2.231.35-3.654V.125H162.94z"/><path d="M75.802 17.778h11.572c1.948.543 3.024 1.198 4.485 2.601 1.069 1.03 1.617 1.731 2.24 3.073.78 1.654.824 2.769.948 4.596.097 1.39.173 2.197-.12 3.543-.198.962-.384 1.496-.827 2.366-.62 1.226-1.08 1.923-2.12 2.841-1.496 1.294-2.649 1.838-4.606 2.115v.12H75.802zm20.78 33.53v-.374c1.187-.217 2.374-.558 3.777-1.149 2.52-1.063 3.839-1.995 5.91-3.794 2.269-1.948 3.48-3.27 4.953-5.89 1.74-3.106 2.106-5.226 2.6-8.745.496-3.553.472-5.66-.12-9.198-.519-3.159-1.092-4.933-2.48-7.794-1.563-3.25-2.732-5.053-5.313-7.558-3.02-2.947-5.183-4.423-9.208-5.668C93.216.051 90.911-.05 87.374.302H56.439v77.926h19.363v-25.5l16.057 25.5h23.612l-18.89-26.92z" fill-rule="nonzero"/></g></svg>