<svg height="62" viewBox="0 0 400 62" width="400" xmlns="http://www.w3.org/2000/svg"><g fill="#e3e8f0" fill-rule="evenodd"><path d="M188.252 13.461c0 6.206-3.56 9.431-8.883 9.431-5.263 0-8.853-3.225-8.853-9.248V1.262h2.404v12.23c0 4.594 2.434 7.18 6.51 7.18 3.924 0 6.419-2.374 6.419-7.028V1.262h2.403zm7.02 9.095h-2.342V6.83h2.342v2.738c1.035-1.703 2.678-3.072 5.385-3.072 3.802 0 6.023 2.555 6.023 6.297v9.766h-2.342V13.37c0-2.92-1.582-4.745-4.35-4.745-2.709 0-4.716 1.977-4.716 4.928z"/><path d="M211.115 3.392V.806h2.678v2.586zm.153 19.164V6.83h2.342v15.727z" fill-rule="nonzero"/><path d="M230.096 6.829h2.525l-6.844 15.85h-2.07l-6.814-15.85h2.586l5.293 13.051z"/><path d="M241.711 20.883c2.159 0 3.68-.882 4.959-2.22l1.46 1.308c-1.582 1.764-3.498 2.951-6.48 2.951-4.319 0-7.848-3.316-7.848-8.214 0-4.563 3.195-8.213 7.544-8.213 4.655 0 7.333 3.71 7.333 8.335 0 .212 0 .456-.03.73h-12.472c.332 3.408 2.766 5.323 5.534 5.323zm4.593-7.057c-.243-2.86-1.886-5.354-5.02-5.354-2.736 0-4.806 2.283-5.11 5.354z" fill-rule="nonzero"/><path d="M254.512 22.556h-2.342V6.83h2.342v4.107c1.156-2.615 3.438-4.502 6.42-4.38V9.08h-.184c-3.437 0-6.236 2.464-6.236 7.21zm14.568.306c-2.251 0-4.746-.882-6.51-2.313l1.186-1.673c1.704 1.277 3.59 2.007 5.445 2.007 1.887 0 3.256-.973 3.256-2.494v-.06c0-1.583-1.856-2.191-3.925-2.77-2.464-.7-5.202-1.55-5.202-4.441v-.06c0-2.708 2.251-4.503 5.354-4.503 1.917 0 4.047.669 5.658 1.734l-1.065 1.764c-1.46-.944-3.133-1.522-4.654-1.522-1.856 0-3.042.973-3.042 2.282v.06c0 1.49 1.947 2.068 4.047 2.708 2.434.73 5.05 1.673 5.05 4.502v.06c0 2.984-2.465 4.719-5.598 4.719z"/><path d="M278.476 3.392V.806h2.677v2.586zm.151 19.164V6.83h2.342v15.727z" fill-rule="nonzero"/><path d="M288.968 18.086c0 1.917 1.065 2.616 2.647 2.616.791 0 1.46-.153 2.282-.548v2.008c-.822.425-1.704.668-2.83.668-2.524 0-4.441-1.246-4.441-4.441V8.897h-2.19v-2.07h2.19V2.083h2.342v4.746h4.99v2.07h-4.99zm16.18 4.988c-1.339 3.255-2.86 4.441-5.233 4.441-1.308 0-2.28-.273-3.346-.79l.791-1.856c.761.395 1.46.578 2.465.578 1.399 0 2.281-.73 3.225-2.951L295.9 6.829h2.586l5.718 13.112 5.05-13.112h2.495z"/><path d="M330.541 22.922c-4.715 0-8.152-3.71-8.152-8.183s3.468-8.244 8.213-8.244c4.715 0 8.183 3.71 8.183 8.183s-3.498 8.244-8.244 8.244zm0-14.36c-3.407 0-5.75 2.709-5.75 6.116 0 3.407 2.495 6.145 5.81 6.145 3.407 0 5.78-2.708 5.78-6.085.001-3.437-2.524-6.175-5.84-6.175z" fill-rule="nonzero"/><path d="M350.583 6.89v2.007h-4.959v13.66h-2.342V8.897h-2.16V6.861h2.16V5.49c0-3.438 1.734-5.263 4.746-5.263 1.095 0 1.824.122 2.585.395V2.66c-.851-.243-1.491-.395-2.282-.395-1.825 0-2.737 1.096-2.737 3.347V6.89h4.989zM180.585 58.406c-6.145 0-10.677-4.836-10.677-10.981 0-6.085 4.502-11.043 10.768-11.043 3.864 0 6.176 1.37 8.306 3.377l-1.643 1.764c-1.795-1.703-3.802-2.92-6.693-2.92-4.715 0-8.245 3.803-8.245 8.761 0 4.959 3.56 8.823 8.245 8.823 2.92 0 4.837-1.126 6.876-3.073l1.58 1.551c-2.219 2.251-4.653 3.741-8.517 3.741z"/><path d="M193.204 45.325l-.7-1.917c1.733-.791 3.437-1.308 5.718-1.308 4.289 0 6.693 2.189 6.693 6.328v9.612h-2.251v-2.372c-1.096 1.43-2.92 2.708-5.689 2.708-2.92 0-5.87-1.643-5.87-4.929 0-3.346 2.736-5.11 6.722-5.11 2.008 0 3.439.274 4.837.67v-.548c0-2.829-1.734-4.289-4.685-4.289-1.854 0-3.315.486-4.775 1.155zm.274 8.031c0 2.008 1.824 3.164 3.954 3.164 2.89 0 5.262-1.764 5.262-4.259V50.74a16.417 16.417 0 00-4.623-.668c-2.95 0-4.593 1.278-4.593 3.285z" fill-rule="nonzero"/><path d="M209.504 58.042V35.833h2.342v22.209z"/><path d="M216.742 38.877V36.29h2.678v2.586h-2.678zm.151 19.165V42.314h2.342v15.728z" fill-rule="nonzero"/><path d="M232.254 42.375v2.007h-4.96v13.66h-2.341v-13.66h-2.16v-2.039h2.16v-1.368c0-3.438 1.735-5.263 4.745-5.263 1.096 0 1.825.121 2.586.395v2.038c-.852-.243-1.49-.395-2.281-.395-1.825 0-2.737 1.095-2.737 3.347v1.278z"/><path d="M241.498 58.406c-4.716 0-8.153-3.71-8.153-8.183 0-4.472 3.469-8.244 8.215-8.244 4.715 0 8.183 3.71 8.183 8.183s-3.5 8.244-8.245 8.244zm0-14.358c-3.407 0-5.75 2.708-5.75 6.115s2.494 6.145 5.81 6.145c3.407 0 5.78-2.708 5.78-6.085 0-3.437-2.524-6.175-5.84-6.175z" fill-rule="nonzero"/><path d="M255.698 58.042h-2.342V42.314h2.342v4.107c1.156-2.617 3.438-4.502 6.42-4.38v2.524h-.184c-3.437 0-6.236 2.465-6.236 7.21zm11.709 0h-2.342V42.314h2.342v2.738c1.035-1.703 2.678-3.072 5.385-3.072 3.802 0 6.023 2.555 6.023 6.298v9.765h-2.342v-9.187c0-2.92-1.582-4.746-4.35-4.746-2.708 0-4.716 1.977-4.716 4.928z"/><path d="M283.25 38.877V36.29h2.678v2.586h-2.678zm.153 19.165V42.314h2.342v15.728zm8.09-12.717l-.7-1.917c1.733-.791 3.437-1.308 5.718-1.308 4.289 0 6.693 2.189 6.693 6.328v9.612h-2.251v-2.372c-1.096 1.43-2.92 2.708-5.689 2.708-2.92 0-5.87-1.643-5.87-4.929 0-3.346 2.736-5.11 6.722-5.11 2.008 0 3.439.274 4.837.67v-.548c0-2.829-1.734-4.289-4.685-4.289-1.855 0-3.315.486-4.775 1.155zm.274 8.031c0 2.008 1.824 3.164 3.954 3.164 2.89 0 5.262-1.764 5.262-4.259V50.74a16.417 16.417 0 00-4.623-.668c-2.952 0-4.593 1.278-4.593 3.285z" fill-rule="nonzero"/><path d="M308.4 58.042h-1.095v-3.194h2.798v2.737c0 2.464-1.065 3.65-3.376 4.168l-.366-1.065c1.523-.547 2.161-1.338 2.039-2.646zm17.548-21.295v21.295h-2.402V36.747zm7.572 21.295h-2.341V42.314h2.342v4.107c1.155-2.617 3.437-4.502 6.418-4.38v2.524h-.183c-3.437 0-6.235 2.465-6.235 7.21zm21.018-15.728h2.524l-6.844 15.85h-2.07l-6.813-15.85h2.586l5.293 13.051z"/><path d="M360.19 38.877V36.29h2.678v2.586h-2.677zm.153 19.165V42.314h2.342v15.728z" fill-rule="nonzero"/><path d="M369.861 58.042h-2.342V42.314h2.342v2.738c1.035-1.703 2.678-3.072 5.386-3.072 3.802 0 6.022 2.555 6.022 6.298v9.765h-2.342v-9.187c0-2.92-1.582-4.746-4.35-4.746-2.708 0-4.716 1.977-4.716 4.928z"/><path d="M392.58 56.368c2.16 0 3.681-.882 4.96-2.22l1.46 1.308c-1.583 1.764-3.498 2.95-6.481 2.95-4.32 0-7.849-3.315-7.849-8.213 0-4.563 3.194-8.213 7.545-8.213 4.653 0 7.33 3.71 7.33 8.335 0 .212 0 .456-.028.731h-12.473c.334 3.406 2.768 5.322 5.536 5.322zm4.595-7.057c-.244-2.86-1.887-5.354-5.021-5.354-2.738 0-4.806 2.281-5.11 5.354z" fill-rule="nonzero"/><path d="M0 33.136V1.256h15.9V32.81c0 8.193 4.135 12.087 10.463 12.087 6.41 0 10.547-3.73 10.547-11.682V1.256h15.9v31.473c0 18.253-10.466 26.365-26.608 26.365C10.139 59.094 0 50.901 0 33.136zm60.433-3.326v-.16C60.433 13.1 73.088.121 90.286.121c11.6 0 19.062 4.867 24.091 11.762l-11.842 9.167c-3.247-3.973-6.978-6.652-12.411-6.652-7.951 0-13.546 6.815-13.546 15.089v.162c0 8.518 5.596 15.168 13.546 15.168 5.92 0 9.41-2.759 12.817-6.892l11.843 8.435c-5.356 7.383-12.575 12.816-25.065 12.816-16.226-.002-29.286-12.414-29.286-29.366zm63.19-28.554h15.737v56.782h-15.737z"/></g></svg>