<svg width="14" height="15" viewBox="0 0 14 15" fill="none" xmlns="http://www.w3.org/2000/svg"><g clip-path="url(#clip0)"><path d="M1 13.106c0-3.783 4.5-3.027 4.5-4.54 0 0 .086-1.005-.41-1.513C4.472 6.423 4 5.665 4 4.405 4 2.524 5.343 1 7 1s3 1.524 3 3.405c0 1.243-.46 2.017-1.105 2.648-.471.496-.395 1.513-.395 1.513 0 1.513 4.5.757 4.5 4.54 0 0-1.195.894-6 .894s-6-.894-6-.894v0z" stroke="#6B7D99" stroke-width="1.5"/></g><defs><clipPath id="clip0"><path fill="#fff" d="M0 0h14v15H0z"/></clipPath></defs></svg>