<svg height="32" viewBox="0 0 32 32" width="32" xmlns="http://www.w3.org/2000/svg"><g fill="none"><rect fill="#77c158" height="32" rx="7.467" width="32"/><rect height="31" rx="7.467" stroke="#5d9b41" width="31" x=".5" y=".5"/><path d="M10.395 12.21a5.134 5.134 0 012.985-4.516l-.85-1.512a.193.193 0 01.081-.242l.136-.016.107.085.85 1.524a6.357 6.357 0 012.308-.403 5.949 5.949 0 012.308.444l.891-1.56.107-.085.136.016a.193.193 0 01.081.242l-.891 1.536a5.087 5.087 0 012.956 4.475H10.394v.012zm0 .484v8.064a1.35 1.35 0 001.365 1.331h8.505a1.345 1.345 0 001.336-1.331v-8.064zm8.707-2.903a.501.501 0 00-.486-.484.48.48 0 00-.486.484.472.472 0 00.486.484.492.492 0 00.486-.484zm-5.184 0a.485.485 0 00-.972 0 .485.485 0 00.972 0zm9.344 2.702a1.26 1.26 0 011.255 1.25v5.161c0 .69-.562 1.25-1.255 1.25s-1.255-.56-1.255-1.25v-5.161a1.261 1.261 0 011.255-1.25zm-9.437 5.926a1.26 1.26 0 011.255 1.25v5.161c0 .328-.133.642-.37.87s-.556.351-.885.34a1.25 1.25 0 01-.905-.332 1.23 1.23 0 01-.391-.877V19.67a1.27 1.27 0 011.296-1.249zm-5.09-5.926a1.262 1.262 0 011.268 1.25v5.161c0 .697-.568 1.262-1.268 1.262s-1.268-.565-1.268-1.262v-5.161a1.26 1.26 0 011.268-1.25zm9.545 5.926c.339-.006.666.122.909.356.243.235.383.556.387.893v5.161c0 .701-.571 1.27-1.276 1.27s-1.276-.569-1.276-1.27v-5.161a1.261 1.261 0 011.255-1.25z" fill="#fff"/></g></svg>