<svg width="185" height="28" viewBox="0 0 185 28" fill="none" xmlns="http://www.w3.org/2000/svg">
<path d="M155.2 1H4.8C2.14903 1 0 2.74609 0 4.9V23.1C0 25.2539 2.14903 27 4.8 27H155.2C157.851 27 160 25.2539 160 23.1V4.9C160 2.74609 157.851 1 155.2 1Z" fill="#0069FF"/>
<path d="M41 1V27" stroke="white" stroke-linecap="square"/>
<path fill-rule="evenodd" clip-rule="evenodd" d="M21.5074 21V18.0947C24.5934 18.0947 26.9673 15.0411 25.7952 11.8097C25.3501 10.609 24.4005 9.64554 23.1988 9.21568C19.9644 8.04465 16.908 10.4163 16.908 13.4995H14C14 8.59311 18.7478 4.76876 23.8961 6.36965C26.1513 7.06633 27.9317 8.85992 28.629 11.0982C30.2314 16.2566 26.4183 21 21.5074 21Z" fill="white"/>
<path fill-rule="evenodd" clip-rule="evenodd" d="M21.1739 17.7391H18.5652V15.1304H21.1739V17.7391Z" fill="white"/>
<path fill-rule="evenodd" clip-rule="evenodd" d="M18.5652 20.3478H16.6087V18.3912H18.5652V20.3478Z" fill="white"/>
<path fill-rule="evenodd" clip-rule="evenodd" d="M16.6087 18.3912H14.6522V16.4347H16.6087V18.3912Z" fill="white"/>
<path d="M61.8711 15.0674C61.7568 16.0449 61.395 16.8003 60.7856 17.3335C60.1805 17.8625 59.3743 18.127 58.3672 18.127C57.2754 18.127 56.3994 17.7355 55.7393 16.9526C55.0833 16.1698 54.7554 15.1224 54.7554 13.8105V12.9219C54.7554 12.0628 54.9077 11.3075 55.2124 10.6558C55.5213 10.0041 55.9572 9.50472 56.52 9.15771C57.0828 8.80648 57.7345 8.63086 58.4751 8.63086C59.4569 8.63086 60.244 8.90592 60.8364 9.45605C61.4289 10.002 61.7738 10.7594 61.8711 11.7285H60.646C60.5402 10.9922 60.3096 10.459 59.9541 10.1289C59.6029 9.79883 59.1099 9.63379 58.4751 9.63379C57.6965 9.63379 57.085 9.92155 56.6406 10.4971C56.2005 11.0726 55.9805 11.8914 55.9805 12.9536V13.8486C55.9805 14.8516 56.1899 15.6493 56.6089 16.2417C57.0278 16.8341 57.6139 17.1304 58.3672 17.1304C59.0443 17.1304 59.5627 16.978 59.9224 16.6733C60.2863 16.3644 60.5275 15.8291 60.646 15.0674H61.8711ZM66.6763 12.1855C66.4985 12.1559 66.306 12.1411 66.0986 12.1411C65.3285 12.1411 64.8058 12.4691 64.5308 13.125V18H63.3564V11.1318H64.499L64.5181 11.9253C64.9032 11.3117 65.4491 11.0049 66.1558 11.0049C66.3843 11.0049 66.5578 11.0345 66.6763 11.0938V12.1855ZM70.4849 18.127C69.5539 18.127 68.7964 17.8223 68.2124 17.2129C67.6284 16.5993 67.3364 15.7804 67.3364 14.7563V14.5405C67.3364 13.8592 67.4655 13.252 67.7236 12.7188C67.986 12.1813 68.3499 11.7624 68.8154 11.4619C69.2852 11.1572 69.793 11.0049 70.3389 11.0049C71.2318 11.0049 71.9258 11.299 72.4209 11.8872C72.916 12.4754 73.1636 13.3175 73.1636 14.4136V14.9023H68.5107C68.5277 15.5794 68.7244 16.1274 69.1011 16.5464C69.4819 16.9611 69.9644 17.1685 70.5483 17.1685C70.9631 17.1685 71.3143 17.0838 71.6021 16.9146C71.8898 16.7453 72.1416 16.521 72.3574 16.2417L73.0747 16.8003C72.4992 17.6847 71.6359 18.127 70.4849 18.127ZM70.3389 11.9697C69.8649 11.9697 69.4671 12.1432 69.1455 12.4902C68.8239 12.833 68.625 13.3154 68.5488 13.9375H71.9893V13.8486C71.9554 13.252 71.7946 12.7907 71.5068 12.4648C71.2191 12.1348 70.8298 11.9697 70.3389 11.9697ZM78.7686 18C78.7008 17.8646 78.6458 17.6234 78.6035 17.2764C78.0576 17.8434 77.4059 18.127 76.6484 18.127C75.9714 18.127 75.4149 17.9365 74.979 17.5557C74.5474 17.1706 74.3315 16.6839 74.3315 16.0957C74.3315 15.3805 74.6024 14.8262 75.144 14.4326C75.6899 14.0348 76.4559 13.8359 77.4419 13.8359H78.5845V13.2964C78.5845 12.8859 78.4618 12.5601 78.2163 12.3188C77.9709 12.0734 77.609 11.9507 77.1309 11.9507C76.7119 11.9507 76.3607 12.0565 76.0771 12.2681C75.7936 12.4797 75.6519 12.7357 75.6519 13.0361H74.4712C74.4712 12.6934 74.5918 12.3633 74.833 12.0459C75.0785 11.7243 75.4085 11.4704 75.8232 11.2842C76.2422 11.098 76.7013 11.0049 77.2007 11.0049C77.992 11.0049 78.612 11.2038 79.0605 11.6016C79.5091 11.9951 79.7419 12.5389 79.7588 13.2329V16.394C79.7588 17.0246 79.8392 17.526 80 17.8984V18H78.7686ZM76.8198 17.105C77.188 17.105 77.5371 17.0098 77.8672 16.8193C78.1973 16.6289 78.4364 16.3813 78.5845 16.0767V14.6675H77.6641C76.2253 14.6675 75.5059 15.0885 75.5059 15.9307C75.5059 16.2988 75.6286 16.5866 75.874 16.7939C76.1195 17.0013 76.4347 17.105 76.8198 17.105ZM83.1929 9.46875V11.1318H84.4751V12.0396H83.1929V16.2988C83.1929 16.5739 83.25 16.7812 83.3643 16.9209C83.4785 17.0563 83.6732 17.124 83.9482 17.124C84.0837 17.124 84.2699 17.0986 84.5068 17.0479V18C84.1979 18.0846 83.8975 18.127 83.6055 18.127C83.0807 18.127 82.6851 17.9683 82.4185 17.6509C82.1519 17.3335 82.0186 16.8828 82.0186 16.2988V12.0396H80.7681V11.1318H82.0186V9.46875H83.1929ZM88.7026 18.127C87.7716 18.127 87.0142 17.8223 86.4302 17.2129C85.8462 16.5993 85.5542 15.7804 85.5542 14.7563V14.5405C85.5542 13.8592 85.6833 13.252 85.9414 12.7188C86.2038 12.1813 86.5677 11.7624 87.0332 11.4619C87.5029 11.1572 88.0107 11.0049 88.5566 11.0049C89.4495 11.0049 90.1436 11.299 90.6387 11.8872C91.1338 12.4754 91.3813 13.3175 91.3813 14.4136V14.9023H86.7285C86.7454 15.5794 86.9422 16.1274 87.3188 16.5464C87.6997 16.9611 88.1821 17.1685 88.7661 17.1685C89.1808 17.1685 89.5321 17.0838 89.8198 16.9146C90.1076 16.7453 90.3594 16.521 90.5752 16.2417L91.2925 16.8003C90.717 17.6847 89.8537 18.127 88.7026 18.127ZM88.5566 11.9697C88.0827 11.9697 87.6849 12.1432 87.3633 12.4902C87.0417 12.833 86.8428 13.3154 86.7666 13.9375H90.207V13.8486C90.1732 13.252 90.0124 12.7907 89.7246 12.4648C89.4368 12.1348 89.0475 11.9697 88.5566 11.9697ZM100.211 18C100.143 17.8646 100.088 17.6234 100.046 17.2764C99.5 17.8434 98.8483 18.127 98.0908 18.127C97.4137 18.127 96.8573 17.9365 96.4214 17.5557C95.9897 17.1706 95.7739 16.6839 95.7739 16.0957C95.7739 15.3805 96.0448 14.8262 96.5864 14.4326C97.1323 14.0348 97.8983 13.8359 98.8843 13.8359H100.027V13.2964C100.027 12.8859 99.9041 12.5601 99.6587 12.3188C99.4132 12.0734 99.0514 11.9507 98.5732 11.9507C98.1543 11.9507 97.8031 12.0565 97.5195 12.2681C97.236 12.4797 97.0942 12.7357 97.0942 13.0361H95.9136C95.9136 12.6934 96.0342 12.3633 96.2754 12.0459C96.5208 11.7243 96.8509 11.4704 97.2656 11.2842C97.6846 11.098 98.1437 11.0049 98.6431 11.0049C99.4344 11.0049 100.054 11.2038 100.503 11.6016C100.951 11.9951 101.184 12.5389 101.201 13.2329V16.394C101.201 17.0246 101.282 17.526 101.442 17.8984V18H100.211ZM98.2622 17.105C98.6304 17.105 98.9795 17.0098 99.3096 16.8193C99.6396 16.6289 99.8787 16.3813 100.027 16.0767V14.6675H99.1064C97.6676 14.6675 96.9482 15.0885 96.9482 15.9307C96.9482 16.2988 97.071 16.5866 97.3164 16.7939C97.5618 17.0013 97.8771 17.105 98.2622 17.105ZM106.451 18V8.75781H109.06C109.864 8.75781 110.575 8.93555 111.192 9.29102C111.81 9.64648 112.286 10.1522 112.621 10.8081C112.959 11.464 113.131 12.2173 113.135 13.0679V13.6582C113.135 14.5299 112.965 15.2938 112.627 15.9497C112.293 16.6056 111.812 17.1092 111.186 17.4604C110.564 17.8117 109.838 17.9915 109.009 18H106.451ZM107.669 9.76074V17.0034H108.952C109.891 17.0034 110.621 16.7114 111.142 16.1274C111.666 15.5435 111.929 14.7119 111.929 13.6328V13.0933C111.929 12.0438 111.681 11.2292 111.186 10.6494C110.695 10.0654 109.997 9.76921 109.091 9.76074H107.669ZM118.118 12.1855C117.94 12.1559 117.747 12.1411 117.54 12.1411C116.77 12.1411 116.247 12.4691 115.972 13.125V18H114.798V11.1318H115.94L115.959 11.9253C116.345 11.3117 116.89 11.0049 117.597 11.0049C117.826 11.0049 117.999 11.0345 118.118 11.0938V12.1855ZM118.765 14.5024C118.765 13.8296 118.896 13.2244 119.159 12.687C119.425 12.1496 119.793 11.7349 120.263 11.4429C120.737 11.1509 121.277 11.0049 121.882 11.0049C122.817 11.0049 123.572 11.3286 124.148 11.9761C124.728 12.6235 125.018 13.4847 125.018 14.5596V14.6421C125.018 15.3107 124.889 15.9116 124.63 16.4448C124.376 16.9738 124.01 17.3864 123.532 17.6826C123.058 17.9788 122.512 18.127 121.895 18.127C120.964 18.127 120.208 17.8032 119.628 17.1558C119.053 16.5083 118.765 15.6514 118.765 14.585V14.5024ZM119.946 14.6421C119.946 15.4038 120.121 16.0153 120.473 16.4766C120.828 16.9378 121.302 17.1685 121.895 17.1685C122.491 17.1685 122.965 16.9357 123.316 16.4702C123.668 16.0005 123.843 15.3446 123.843 14.5024C123.843 13.7492 123.663 13.1398 123.304 12.6743C122.948 12.2046 122.474 11.9697 121.882 11.9697C121.302 11.9697 120.834 12.2004 120.479 12.6616C120.124 13.1229 119.946 13.783 119.946 14.6421ZM132.292 14.6421C132.292 15.6873 132.053 16.5295 131.575 17.1685C131.097 17.8075 130.449 18.127 129.632 18.127C128.799 18.127 128.143 17.8625 127.665 17.3335V20.6406H126.49V11.1318H127.563L127.62 11.8936C128.098 11.3011 128.763 11.0049 129.613 11.0049C130.438 11.0049 131.09 11.3159 131.568 11.938C132.051 12.5601 132.292 13.4255 132.292 14.5342V14.6421ZM131.118 14.5088C131.118 13.7344 130.953 13.1229 130.623 12.6743C130.292 12.2257 129.84 12.0015 129.264 12.0015C128.553 12.0015 128.02 12.3167 127.665 12.9473V16.229C128.016 16.8553 128.553 17.1685 129.277 17.1685C129.84 17.1685 130.286 16.9463 130.616 16.502C130.951 16.0534 131.118 15.389 131.118 14.5088ZM135.066 18H133.892V8.25H135.066V18ZM139.801 18.127C138.87 18.127 138.113 17.8223 137.529 17.2129C136.945 16.5993 136.653 15.7804 136.653 14.7563V14.5405C136.653 13.8592 136.782 13.252 137.04 12.7188C137.302 12.1813 137.666 11.7624 138.132 11.4619C138.602 11.1572 139.109 11.0049 139.655 11.0049C140.548 11.0049 141.242 11.299 141.737 11.8872C142.232 12.4754 142.48 13.3175 142.48 14.4136V14.9023H137.827C137.844 15.5794 138.041 16.1274 138.417 16.5464C138.798 16.9611 139.281 17.1685 139.865 17.1685C140.279 17.1685 140.631 17.0838 140.918 16.9146C141.206 16.7453 141.458 16.521 141.674 16.2417L142.391 16.8003C141.816 17.6847 140.952 18.127 139.801 18.127ZM139.655 11.9697C139.181 11.9697 138.784 12.1432 138.462 12.4902C138.14 12.833 137.941 13.3154 137.865 13.9375H141.306V13.8486C141.272 13.252 141.111 12.7907 140.823 12.4648C140.535 12.1348 140.146 11.9697 139.655 11.9697ZM145.438 9.46875V11.1318H146.72V12.0396H145.438V16.2988C145.438 16.5739 145.495 16.7812 145.609 16.9209C145.724 17.0563 145.918 17.124 146.193 17.124C146.329 17.124 146.515 17.0986 146.752 17.0479V18C146.443 18.0846 146.143 18.127 145.851 18.127C145.326 18.127 144.93 17.9683 144.664 17.6509C144.397 17.3335 144.264 16.8828 144.264 16.2988V12.0396H143.013V11.1318H144.264V9.46875H145.438Z" fill="white"/>
</svg>
