<svg height="40" viewBox="0 0 43 40" width="43" xmlns="http://www.w3.org/2000/svg"><g fill="none"><path d="M2.006 0h38.74a2.253 2.253 0 012.253 2.253v35.493a2.253 2.253 0 01-2.253 2.253H2.006A2.006 2.006 0 010 37.993V2.006C0 .898.898 0 2.006 0z" fill="#1baff9"/><g fill="#fff"><path d="M22.407 0c-4.436 10.938-4.404 19.063-4.404 19.063a.92.92 0 00.919.938h4.484c.412 0 .729.313.713.734 0 0-.665 10.344 1.774 19.266h15.104a2.006 2.006 0 002.006-2.006V2.008A2.006 2.006 0 0040.997.002H22.408z"/><rect height="4.622" opacity=".1" rx=".805" width="1.765" x="11.071" y="10.199"/><rect height="4.622" opacity=".1" rx=".805" width="1.765" x="30.164" y="10.199"/></g><rect fill="#030c1a" height="4.622" rx=".882" width="1.765" x="11.071" y="10.04"/><rect fill="#030c1a" height="4.622" rx=".882" width="1.765" x="30.164" y="10.04"/><g stroke-linecap="round" stroke-width="1.61"><path d="M8.905 26.215s4.091 5.339 13.237 5.02 11.953-5.02 11.953-5.02" opacity=".1" stroke="#fff"/><path d="M8.905 26.056s4.091 5.339 13.237 5.02 11.953-5.02 11.953-5.02" stroke="#030c1a"/></g></g></svg>