<svg viewBox="0 0 1366 768" xmlns="http://www.w3.org/2000/svg" xmlns:xlink="http://www.w3.org/1999/xlink"><style>.st1{fill:#15273f}.st2{fill:#e3cec8}.st3{fill:#030c1a}.st6{opacity:.3}.st8{fill:none;stroke:#ef4848;stroke-width:5;stroke-miterlimit:10}.st10,.st9{fill:#e3cec8}.st9{opacity:.4}.st10{opacity:.2}.st11{fill:#0b182b}.st12{fill:#384a66}.st13{fill:#fff}.st14{fill:#1a324c}.st15{fill:#030d19}.st16{opacity:.2}</style><defs><path id="g" d="M0 0h1365v768H0z"/></defs><clipPath id="f"><use xlink:href="#g"/></clipPath><g clip-path="url(#f)"><path class="st1" d="M1010.2 530.88l1.15 2.74-59.34 8.99s-3.95-2.99-5.67-4.67-2.3-3.16-2.3-3.16c.62.89 7.43 2.92 8.35 2.72.93-.2.44-.43-1.18-1.09s-1.3-1.04-1.3-1.04c2.51-.77 9.91 1.39 9.91 1.39.06-.65-4.52-2.51-4.12-2.59.4-.07 1.67.31 1.79.16s-.33-.77-.33-.77c1.73-.44 7.41 2.54 7.41 2.54.15-.55-3.81-2.76-3.07-3.07s3.93 1.46 3.92.99c-.01-.48-1.94-1.87-1-1.79.95.08 3.72 2.56 4.01 2.1s-1.5-2.54-1.5-2.54 2.91 1.32 3.04 1.5 3.04.59 3.1.18c.07-.41-1.31-.94-1.54-1.03s-2.76-.51-.92-.81 8.87 2.12 8.94 1.94-1.75-1.52-2-2.13l-.45-1.06c.86.55 5.67 3.18 5.67 3.18s-2.43-3.43-1.88-2.56 5.23 2.19 5.23 2.19c-1.46-.85-3.86-3.5-3.86-3.5 2.06 1.42 9.28 2.68 9.28 2.68-.28-.89-2.59-1.57-2.59-1.57 1.63-1.79 6.49.84 6.49.84.3-.59-.62-1.48-.62-1.48.89-.28 2.08.59 2.08.59-.49-1.17-2.74-2.14-2.74-2.14 4.13-1.93 9.24 3.43 9.24 3.43-1.29-1.1-2.57-4.14-2.57-4.14.77.96 5 2.29 5 2.29 1.25-.07 3.6.5 3.6.5"/><ellipse class="st2" cx="144.81" cy="487.93" rx="1.1" ry="1.08"/><ellipse class="st2" cx="322.32" cy="468.93" rx="1.1" ry="1.08"/><path class="st3" d="M-.45.09h1366.1v768.2H-.45z"/><circle cx="553.49" cy="544.5" r="146.44" fill="#ffcd52"/><linearGradient id="e" x1="510.48" x2="295.77" y1="-59.124" y2="-273.83" gradientTransform="rotate(-9.53 4532.101 -461.795)" gradientUnits="userSpaceOnUse"><stop stop-color="#ED8A30" offset="0"/><stop stop-color="#EA9B57" stop-opacity=".785" offset=".215"/><stop stop-color="#E6B793" stop-opacity=".415" offset=".585"/><stop stop-color="#E4C8BA" stop-opacity=".143" offset=".857"/><stop stop-color="#E3CEC8" stop-opacity="0" offset="1"/></linearGradient><circle cx="553.49" cy="544.5" r="146.44" fill="url(#e)"/><g class="st6"><defs><circle id="d" class="st6" cx="553.49" cy="544.5" r="146.44"/></defs><clipPath id="c"><use xlink:href="#d"/></clipPath><g clip-path="url(#c)"><path class="st8" d="M370.72 409c11.94-.42 11.81-4.14 23.74-4.56 11.94-.42 12.07 3.29 24.01 2.86 11.94-.42 12.05 2.82 23.99 2.4s11.84-3.33 23.77-3.75c11.94-.42 12 1.42 23.94 1s11.78-4.89 23.72-5.31 12.06 2.94 23.99 2.52c11.94-.42 11.86-2.76 23.79-3.18 11.94-.42 11.92-1.06 23.85-1.49 11.94-.42 12.11 4.29 24.05 3.87s11.95-.12 23.89-.54 11.83-3.44 23.77-3.87c11.94-.42 11.86-2.59 23.8-3.01s11.96.05 23.9-.37 12.06 2.97 24 2.55"/><path class="st8" d="M370.72 415.34c11.94-.42 11.81-4.14 23.74-4.56 11.94-.42 12.07 3.29 24.01 2.86 11.94-.42 12.05 2.82 23.99 2.4s11.84-3.33 23.77-3.75c11.94-.42 12 1.42 23.94 1s11.78-4.89 23.72-5.31 12.06 2.94 23.99 2.52c11.94-.42 11.86-2.76 23.79-3.18 11.94-.42 11.92-1.06 23.85-1.49 11.94-.42 12.11 4.29 24.05 3.87s11.95-.12 23.89-.54 11.83-3.44 23.77-3.87c11.94-.42 11.86-2.59 23.8-3.01s11.96.05 23.9-.37 12.06 2.97 24 2.55"/><path class="st8" d="M370.72 421.69c11.94-.42 11.81-4.14 23.74-4.56 11.94-.42 12.07 3.29 24.01 2.86 11.94-.42 12.05 2.82 23.99 2.4s11.84-3.33 23.77-3.75c11.94-.42 12 1.42 23.94 1s11.78-4.89 23.72-5.31 12.06 2.94 23.99 2.52c11.94-.42 11.86-2.76 23.79-3.18 11.94-.42 11.92-1.06 23.85-1.49 11.94-.42 12.11 4.29 24.05 3.87s11.95-.12 23.89-.54 11.83-3.44 23.77-3.87c11.94-.42 11.86-2.59 23.8-3.01s11.96.05 23.9-.37 12.06 2.97 24 2.55"/><path class="st8" d="M370.72 428.03c11.94-.42 11.81-4.14 23.74-4.56 11.94-.42 12.07 3.29 24.01 2.86 11.94-.42 12.05 2.82 23.99 2.4s11.84-3.33 23.77-3.75c11.94-.42 12 1.42 23.94 1s11.78-4.89 23.72-5.31 12.06 2.94 23.99 2.52c11.94-.42 11.86-2.76 23.79-3.18 11.94-.42 11.92-1.06 23.85-1.49 11.94-.42 12.11 4.29 24.05 3.87s11.95-.12 23.89-.54 11.83-3.44 23.77-3.87c11.94-.42 11.86-2.59 23.8-3.01s11.96.05 23.9-.37 12.06 2.97 24 2.55"/><path class="st8" d="M370.72 434.37c11.94-.42 11.81-4.14 23.74-4.56 11.94-.42 12.07 3.29 24.01 2.86 11.94-.42 12.05 2.82 23.99 2.4s11.84-3.33 23.77-3.75c11.94-.42 12 1.42 23.94 1s11.78-4.89 23.72-5.31 12.06 2.94 23.99 2.52c11.94-.42 11.86-2.76 23.79-3.18 11.94-.42 11.92-1.06 23.85-1.49 11.94-.42 12.11 4.29 24.05 3.87s11.95-.12 23.89-.54 11.83-3.44 23.77-3.87c11.94-.42 11.86-2.59 23.8-3.01s11.96.05 23.9-.37 12.06 2.97 24 2.55"/><path class="st8" d="M370.72 440.71c11.94-.42 11.81-4.14 23.74-4.56 11.94-.42 12.07 3.29 24.01 2.86 11.94-.42 12.05 2.82 23.99 2.4s11.84-3.33 23.77-3.75c11.94-.42 12 1.42 23.94 1s11.78-4.89 23.72-5.31 12.06 2.94 23.99 2.52c11.94-.42 11.86-2.76 23.79-3.18 11.94-.42 11.92-1.06 23.85-1.49 11.94-.42 12.11 4.29 24.05 3.87s11.95-.12 23.89-.54 11.83-3.44 23.77-3.87c11.94-.42 11.86-2.59 23.8-3.01s11.96.05 23.9-.37 12.06 2.97 24 2.55"/><path class="st8" d="M370.72 447.05c11.94-.42 11.81-4.14 23.74-4.56 11.94-.42 12.07 3.29 24.01 2.86 11.94-.42 12.05 2.82 23.99 2.4s11.84-3.33 23.77-3.75c11.94-.42 12 1.42 23.94 1s11.78-4.89 23.72-5.31 12.06 2.94 23.99 2.52c11.94-.42 11.86-2.76 23.79-3.18 11.94-.42 11.92-1.06 23.85-1.49 11.94-.42 12.11 4.29 24.05 3.87s11.95-.12 23.89-.54 11.83-3.44 23.77-3.87c11.94-.42 11.86-2.59 23.8-3.01s11.96.05 23.9-.37 12.06 2.97 24 2.55"/><path class="st8" d="M370.72 453.39c11.94-.42 11.81-4.14 23.74-4.56 11.94-.42 12.07 3.29 24.01 2.86 11.94-.42 12.05 2.82 23.99 2.4s11.84-3.33 23.77-3.75c11.94-.42 12 1.42 23.94 1s11.78-4.89 23.72-5.31 12.06 2.94 23.99 2.52c11.94-.42 11.86-2.76 23.79-3.18 11.94-.42 11.92-1.06 23.85-1.49 11.94-.42 12.11 4.29 24.05 3.87s11.95-.12 23.89-.54 11.83-3.44 23.77-3.87c11.94-.42 11.86-2.59 23.8-3.01s11.96.05 23.9-.37 12.06 2.97 24 2.55"/><path class="st8" d="M370.72 459.73c11.94-.42 11.81-4.14 23.74-4.56 11.94-.42 12.07 3.29 24.01 2.86 11.94-.42 12.05 2.82 23.99 2.4s11.84-3.33 23.77-3.75c11.94-.42 12 1.42 23.94 1s11.78-4.89 23.72-5.31 12.06 2.94 23.99 2.52c11.94-.42 11.86-2.76 23.79-3.18 11.94-.42 11.92-1.06 23.85-1.49 11.94-.42 12.11 4.29 24.05 3.87s11.95-.12 23.89-.54 11.83-3.44 23.77-3.87c11.94-.42 11.86-2.59 23.8-3.01s11.96.05 23.9-.37 12.06 2.97 24 2.55"/><path class="st8" d="M370.72 466.07c11.94-.42 11.81-4.14 23.74-4.56 11.94-.42 12.07 3.29 24.01 2.86 11.94-.42 12.05 2.82 23.99 2.4s11.84-3.33 23.77-3.75c11.94-.42 12 1.42 23.94 1s11.78-4.89 23.72-5.31 12.06 2.94 23.99 2.52c11.94-.42 11.86-2.76 23.79-3.18 11.94-.42 11.92-1.06 23.85-1.49 11.94-.42 12.11 4.29 24.05 3.87s11.95-.12 23.89-.54 11.83-3.44 23.77-3.87c11.94-.42 11.86-2.59 23.8-3.01s11.96.05 23.9-.37 12.06 2.97 24 2.55"/><path class="st8" d="M370.72 472.42c11.94-.42 11.81-4.14 23.74-4.56 11.94-.42 12.07 3.29 24.01 2.86 11.94-.42 12.05 2.82 23.99 2.4s11.84-3.33 23.77-3.75c11.94-.42 12 1.42 23.94 1s11.78-4.89 23.72-5.31 12.06 2.94 23.99 2.52c11.94-.42 11.86-2.76 23.79-3.18 11.94-.42 11.92-1.06 23.85-1.49 11.94-.42 12.11 4.29 24.05 3.87s11.95-.12 23.89-.54 11.83-3.44 23.77-3.87c11.94-.42 11.86-2.59 23.8-3.01s11.96.05 23.9-.37 12.06 2.97 24 2.55"/><path class="st8" d="M370.72 478.76c11.94-.42 11.81-4.14 23.74-4.56 11.94-.42 12.07 3.29 24.01 2.86 11.94-.42 12.05 2.82 23.99 2.4s11.84-3.33 23.77-3.75c11.94-.42 12 1.42 23.94 1s11.78-4.89 23.72-5.31 12.06 2.94 23.99 2.52c11.94-.42 11.86-2.76 23.79-3.18 11.94-.42 11.92-1.06 23.85-1.49 11.94-.42 12.11 4.29 24.05 3.87s11.95-.12 23.89-.54 11.83-3.44 23.77-3.87c11.94-.42 11.86-2.59 23.8-3.01s11.96.05 23.9-.37 12.06 2.97 24 2.55"/><path class="st8" d="M370.72 485.1c11.94-.42 11.81-4.14 23.74-4.56 11.94-.42 12.07 3.29 24.01 2.86 11.94-.42 12.05 2.82 23.99 2.4s11.84-3.33 23.77-3.75c11.94-.42 12 1.42 23.94 1s11.78-4.89 23.72-5.31 12.06 2.94 23.99 2.52c11.94-.42 11.86-2.76 23.79-3.18 11.94-.42 11.92-1.06 23.85-1.49 11.94-.42 12.11 4.29 24.05 3.87s11.95-.12 23.89-.54 11.83-3.44 23.77-3.87c11.94-.42 11.86-2.59 23.8-3.01s11.96.05 23.9-.37 12.06 2.97 24 2.55"/><path class="st8" d="M370.72 491.44c11.94-.42 11.81-4.14 23.74-4.56 11.94-.42 12.07 3.29 24.01 2.86 11.94-.42 12.05 2.82 23.99 2.4s11.84-3.33 23.77-3.75c11.94-.42 12 1.42 23.94 1s11.78-4.89 23.72-5.31 12.06 2.94 23.99 2.52c11.94-.42 11.86-2.76 23.79-3.18 11.94-.42 11.92-1.06 23.85-1.49 11.94-.42 12.11 4.29 24.05 3.87s11.95-.12 23.89-.54 11.83-3.44 23.77-3.87c11.94-.42 11.86-2.59 23.8-3.01s11.96.05 23.9-.37 12.06 2.97 24 2.55"/><path class="st8" d="M370.72 497.78c11.94-.42 11.81-4.14 23.74-4.56 11.94-.42 12.07 3.29 24.01 2.86 11.94-.42 12.05 2.82 23.99 2.4s11.84-3.33 23.77-3.75c11.94-.42 12 1.42 23.94 1s11.78-4.89 23.72-5.31 12.06 2.94 23.99 2.52c11.94-.42 11.86-2.76 23.79-3.18 11.94-.42 11.92-1.06 23.85-1.49 11.94-.42 12.11 4.29 24.05 3.87s11.95-.12 23.89-.54 11.83-3.44 23.77-3.87c11.94-.42 11.86-2.59 23.8-3.01s11.96.05 23.9-.37 12.06 2.97 24 2.55"/><path class="st8" d="M370.72 504.12c11.94-.42 11.81-4.14 23.74-4.56 11.94-.42 12.07 3.29 24.01 2.86 11.94-.42 12.05 2.82 23.99 2.4s11.84-3.33 23.77-3.75c11.94-.42 12 1.42 23.94 1s11.78-4.89 23.72-5.31 12.06 2.94 23.99 2.52c11.94-.42 11.86-2.76 23.79-3.18 11.94-.42 11.92-1.06 23.85-1.49 11.94-.42 12.11 4.29 24.05 3.87s11.95-.12 23.89-.54 11.83-3.44 23.77-3.87c11.94-.42 11.86-2.59 23.8-3.01s11.96.05 23.9-.37 12.06 2.97 24 2.55"/><path class="st8" d="M370.72 510.46c11.94-.42 11.81-4.14 23.74-4.56 11.94-.42 12.07 3.29 24.01 2.86 11.94-.42 12.05 2.82 23.99 2.4s11.84-3.33 23.77-3.75c11.94-.42 12 1.42 23.94 1s11.78-4.89 23.72-5.31 12.06 2.94 23.99 2.52c11.94-.42 11.86-2.76 23.79-3.18 11.94-.42 11.92-1.06 23.85-1.49 11.94-.42 12.11 4.29 24.05 3.87s11.95-.12 23.89-.54 11.83-3.44 23.77-3.87c11.94-.42 11.86-2.59 23.8-3.01s11.96.05 23.9-.37 12.06 2.97 24 2.55"/><path class="st8" d="M370.72 516.81c11.94-.42 11.81-4.14 23.74-4.56 11.94-.42 12.07 3.29 24.01 2.86 11.94-.42 12.05 2.82 23.99 2.4s11.84-3.33 23.77-3.75c11.94-.42 12 1.42 23.94 1s11.78-4.89 23.72-5.31 12.06 2.94 23.99 2.52c11.94-.42 11.86-2.76 23.79-3.18 11.94-.42 11.92-1.06 23.85-1.49 11.94-.42 12.11 4.29 24.05 3.87s11.95-.12 23.89-.54 11.83-3.44 23.77-3.87c11.94-.42 11.86-2.59 23.8-3.01s11.96.05 23.9-.37 12.06 2.97 24 2.55"/><path class="st8" d="M370.72 523.15c11.94-.42 11.81-4.14 23.74-4.56 11.94-.42 12.07 3.29 24.01 2.86 11.94-.42 12.05 2.82 23.99 2.4s11.84-3.33 23.77-3.75c11.94-.42 12 1.42 23.94 1s11.78-4.89 23.72-5.31 12.06 2.94 23.99 2.52c11.94-.42 11.86-2.76 23.79-3.18 11.94-.42 11.92-1.06 23.85-1.49 11.94-.42 12.11 4.29 24.05 3.87s11.95-.12 23.89-.54 11.83-3.44 23.77-3.87c11.94-.42 11.86-2.59 23.8-3.01s11.96.05 23.9-.37 12.06 2.97 24 2.55"/><path class="st8" d="M370.72 529.49c11.94-.42 11.81-4.14 23.74-4.56 11.94-.42 12.07 3.29 24.01 2.86 11.94-.42 12.05 2.82 23.99 2.4s11.84-3.33 23.77-3.75c11.94-.42 12 1.42 23.94 1s11.78-4.89 23.72-5.31 12.06 2.94 23.99 2.52c11.94-.42 11.86-2.76 23.79-3.18 11.94-.42 11.92-1.06 23.85-1.49 11.94-.42 12.11 4.29 24.05 3.87s11.95-.12 23.89-.54 11.83-3.44 23.77-3.87c11.94-.42 11.86-2.59 23.8-3.01s11.96.05 23.9-.37 12.06 2.97 24 2.55"/><path class="st8" d="M370.72 535.83c11.94-.42 11.81-4.14 23.74-4.56 11.94-.42 12.07 3.29 24.01 2.86 11.94-.42 12.05 2.82 23.99 2.4s11.84-3.33 23.77-3.75c11.94-.42 12 1.42 23.94 1s11.78-4.89 23.72-5.31 12.06 2.94 23.99 2.52c11.94-.42 11.86-2.76 23.79-3.18 11.94-.42 11.92-1.06 23.85-1.49 11.94-.42 12.11 4.29 24.05 3.87s11.95-.12 23.89-.54 11.83-3.44 23.77-3.87c11.94-.42 11.86-2.59 23.8-3.01s11.96.05 23.9-.37 12.06 2.97 24 2.55"/><path class="st8" d="M370.72 542.17c11.94-.42 11.81-4.14 23.74-4.56 11.94-.42 12.07 3.29 24.01 2.86 11.94-.42 12.05 2.82 23.99 2.4s11.84-3.33 23.77-3.75c11.94-.42 12 1.42 23.94 1s11.78-4.89 23.72-5.31 12.06 2.94 23.99 2.52c11.94-.42 11.86-2.76 23.79-3.18 11.94-.42 11.92-1.06 23.85-1.49 11.94-.42 12.11 4.29 24.05 3.87s11.95-.12 23.89-.54 11.83-3.44 23.77-3.87c11.94-.42 11.86-2.59 23.8-3.01s11.96.05 23.9-.37 12.06 2.97 24 2.55"/><path class="st8" d="M370.72 548.51c11.94-.42 11.81-4.14 23.74-4.56 11.94-.42 12.07 3.29 24.01 2.86 11.94-.42 12.05 2.82 23.99 2.4s11.84-3.33 23.77-3.75c11.94-.42 12 1.42 23.94 1s11.78-4.89 23.72-5.31 12.06 2.94 23.99 2.52c11.94-.42 11.86-2.76 23.79-3.18 11.94-.42 11.92-1.06 23.85-1.49 11.94-.42 12.11 4.29 24.05 3.87s11.95-.12 23.89-.54 11.83-3.44 23.77-3.87c11.94-.42 11.86-2.59 23.8-3.01s11.96.05 23.9-.37 12.06 2.97 24 2.55"/><path class="st8" d="M370.72 554.85c11.94-.42 11.81-4.14 23.74-4.56 11.94-.42 12.07 3.29 24.01 2.86 11.94-.42 12.05 2.82 23.99 2.4s11.84-3.33 23.77-3.75c11.94-.42 12 1.42 23.94 1s11.78-4.89 23.72-5.31 12.06 2.94 23.99 2.52c11.94-.42 11.86-2.76 23.79-3.18 11.94-.42 11.92-1.06 23.85-1.49 11.94-.42 12.11 4.29 24.05 3.87s11.95-.12 23.89-.54 11.83-3.44 23.77-3.87c11.94-.42 11.86-2.59 23.8-3.01s11.96.05 23.9-.37 12.06 2.97 24 2.55"/><path class="st8" d="M370.72 561.2c11.94-.42 11.81-4.14 23.74-4.56 11.94-.42 12.07 3.29 24.01 2.86 11.94-.42 12.05 2.82 23.99 2.4s11.84-3.33 23.77-3.75c11.94-.42 12 1.42 23.94 1s11.78-4.89 23.72-5.31 12.06 2.94 23.99 2.52c11.94-.42 11.86-2.76 23.79-3.18 11.94-.42 11.92-1.06 23.85-1.49 11.94-.42 12.11 4.29 24.05 3.87s11.95-.12 23.89-.54 11.83-3.44 23.77-3.87c11.94-.42 11.86-2.59 23.8-3.01s11.96.05 23.9-.37 12.06 2.97 24 2.55"/><path class="st8" d="M370.72 567.54c11.94-.42 11.81-4.14 23.74-4.56 11.94-.42 12.07 3.29 24.01 2.86 11.94-.42 12.05 2.82 23.99 2.4s11.84-3.33 23.77-3.75c11.94-.42 12 1.42 23.94 1s11.78-4.89 23.72-5.31 12.06 2.94 23.99 2.52c11.94-.42 11.86-2.76 23.79-3.18 11.94-.42 11.92-1.06 23.85-1.49 11.94-.42 12.11 4.29 24.05 3.87s11.95-.12 23.89-.54 11.83-3.44 23.77-3.87c11.94-.42 11.86-2.59 23.8-3.01s11.96.05 23.9-.37 12.06 2.97 24 2.55"/><path class="st8" d="M370.72 573.88c11.94-.42 11.81-4.14 23.74-4.56 11.94-.42 12.07 3.29 24.01 2.86 11.94-.42 12.05 2.82 23.99 2.4s11.84-3.33 23.77-3.75c11.94-.42 12 1.42 23.94 1s11.78-4.89 23.72-5.31 12.06 2.94 23.99 2.52c11.94-.42 11.86-2.76 23.79-3.18 11.94-.42 11.92-1.06 23.85-1.49 11.94-.42 12.11 4.29 24.05 3.87s11.95-.12 23.89-.54 11.83-3.44 23.77-3.87c11.94-.42 11.86-2.59 23.8-3.01s11.96.05 23.9-.37 12.06 2.97 24 2.55"/><path class="st8" d="M370.72 580.22c11.94-.42 11.81-4.14 23.74-4.56 11.94-.42 12.07 3.29 24.01 2.86 11.94-.42 12.05 2.82 23.99 2.4s11.84-3.33 23.77-3.75c11.94-.42 12 1.42 23.94 1s11.78-4.89 23.72-5.31 12.06 2.94 23.99 2.52c11.94-.42 11.86-2.76 23.79-3.18 11.94-.42 11.92-1.06 23.85-1.49 11.94-.42 12.11 4.29 24.05 3.87s11.95-.12 23.89-.54 11.83-3.44 23.77-3.87c11.94-.42 11.86-2.59 23.8-3.01s11.96.05 23.9-.37 12.06 2.97 24 2.55"/><path class="st8" d="M370.72 586.56c11.94-.42 11.81-4.14 23.74-4.56 11.94-.42 12.07 3.29 24.01 2.86 11.94-.42 12.05 2.82 23.99 2.4s11.84-3.33 23.77-3.75c11.94-.42 12 1.42 23.94 1s11.78-4.89 23.72-5.31 12.06 2.94 23.99 2.52c11.94-.42 11.86-2.76 23.79-3.18 11.94-.42 11.92-1.06 23.85-1.49 11.94-.42 12.11 4.29 24.05 3.87s11.95-.12 23.89-.54 11.83-3.44 23.77-3.87c11.94-.42 11.86-2.59 23.8-3.01s11.96.05 23.9-.37 12.06 2.97 24 2.55"/><path class="st8" d="M370.72 592.9c11.94-.42 11.81-4.14 23.74-4.56 11.94-.42 12.07 3.29 24.01 2.86 11.94-.42 12.05 2.82 23.99 2.4s11.84-3.33 23.77-3.75c11.94-.42 12 1.42 23.94 1s11.78-4.89 23.72-5.31 12.06 2.94 23.99 2.52c11.94-.42 11.86-2.76 23.79-3.18 11.94-.42 11.92-1.06 23.85-1.49 11.94-.42 12.11 4.29 24.05 3.87s11.95-.12 23.89-.54 11.83-3.44 23.77-3.87c11.94-.42 11.86-2.59 23.8-3.01s11.96.05 23.9-.37 12.06 2.97 24 2.55"/><path class="st8" d="M370.72 599.24c11.94-.42 11.81-4.14 23.74-4.56 11.94-.42 12.07 3.29 24.01 2.86 11.94-.42 12.05 2.82 23.99 2.4s11.84-3.33 23.77-3.75c11.94-.42 12 1.42 23.94 1s11.78-4.89 23.72-5.31 12.06 2.94 23.99 2.52c11.94-.42 11.86-2.76 23.79-3.18 11.94-.42 11.92-1.06 23.85-1.49 11.94-.42 12.11 4.29 24.05 3.87s11.95-.12 23.89-.54 11.83-3.44 23.77-3.87c11.94-.42 11.86-2.59 23.8-3.01s11.96.05 23.9-.37 12.06 2.97 24 2.55"/><path class="st8" d="M370.72 605.59c11.94-.42 11.81-4.14 23.74-4.56 11.94-.42 12.07 3.29 24.01 2.86 11.94-.42 12.05 2.82 23.99 2.4s11.84-3.33 23.77-3.75c11.94-.42 12 1.42 23.94 1s11.78-4.89 23.72-5.31 12.06 2.94 23.99 2.52c11.94-.42 11.86-2.76 23.79-3.18 11.94-.42 11.92-1.06 23.85-1.49 11.94-.42 12.11 4.29 24.05 3.87s11.95-.12 23.89-.54 11.83-3.44 23.77-3.87c11.94-.42 11.86-2.59 23.8-3.01s11.96.05 23.9-.37 12.06 2.97 24 2.55"/><path class="st8" d="M370.72 611.93c11.94-.42 11.81-4.14 23.74-4.56 11.94-.42 12.07 3.29 24.01 2.86 11.94-.42 12.05 2.82 23.99 2.4s11.84-3.33 23.77-3.75c11.94-.42 12 1.42 23.94 1s11.78-4.89 23.72-5.31 12.06 2.94 23.99 2.52c11.94-.42 11.86-2.76 23.79-3.18 11.94-.42 11.92-1.06 23.85-1.49 11.94-.42 12.11 4.29 24.05 3.87s11.95-.12 23.89-.54 11.83-3.44 23.77-3.87c11.94-.42 11.86-2.59 23.8-3.01s11.96.05 23.9-.37 12.06 2.97 24 2.55"/><path class="st8" d="M370.72 618.27c11.94-.42 11.81-4.14 23.74-4.56 11.94-.42 12.07 3.29 24.01 2.86 11.94-.42 12.05 2.82 23.99 2.4s11.84-3.33 23.77-3.75c11.94-.42 12 1.42 23.94 1s11.78-4.89 23.72-5.31 12.06 2.94 23.99 2.52c11.94-.42 11.86-2.76 23.79-3.18 11.94-.42 11.92-1.06 23.85-1.49 11.94-.42 12.11 4.29 24.05 3.87s11.95-.12 23.89-.54 11.83-3.44 23.77-3.87c11.94-.42 11.86-2.59 23.8-3.01s11.96.05 23.9-.37 12.06 2.97 24 2.55"/><path class="st8" d="M370.72 624.61c11.94-.42 11.81-4.14 23.74-4.56 11.94-.42 12.07 3.29 24.01 2.86 11.94-.42 12.05 2.82 23.99 2.4s11.84-3.33 23.77-3.75c11.94-.42 12 1.42 23.94 1s11.78-4.89 23.72-5.31 12.06 2.94 23.99 2.52c11.94-.42 11.86-2.76 23.79-3.18 11.94-.42 11.92-1.06 23.85-1.49 11.94-.42 12.11 4.29 24.05 3.87s11.95-.12 23.89-.54 11.83-3.44 23.77-3.87c11.94-.42 11.86-2.59 23.8-3.01s11.96.05 23.9-.37 12.06 2.97 24 2.55"/><path class="st8" d="M370.72 630.95c11.94-.42 11.81-4.14 23.74-4.56 11.94-.42 12.07 3.29 24.01 2.86 11.94-.42 12.05 2.82 23.99 2.4s11.84-3.33 23.77-3.75c11.94-.42 12 1.42 23.94 1s11.78-4.89 23.72-5.31 12.06 2.94 23.99 2.52c11.94-.42 11.86-2.76 23.79-3.18 11.94-.42 11.92-1.06 23.85-1.49 11.94-.42 12.11 4.29 24.05 3.87s11.95-.12 23.89-.54 11.83-3.44 23.77-3.87c11.94-.42 11.86-2.59 23.8-3.01s11.96.05 23.9-.37 12.06 2.97 24 2.55"/><path class="st8" d="M370.72 637.29c11.94-.42 11.81-4.14 23.74-4.56 11.94-.42 12.07 3.29 24.01 2.86 11.94-.42 12.05 2.82 23.99 2.4s11.84-3.33 23.77-3.75c11.94-.42 12 1.42 23.94 1s11.78-4.89 23.72-5.31 12.06 2.94 23.99 2.52c11.94-.42 11.86-2.76 23.79-3.18 11.94-.42 11.92-1.06 23.85-1.49 11.94-.42 12.11 4.29 24.05 3.87s11.95-.12 23.89-.54 11.83-3.44 23.77-3.87c11.94-.42 11.86-2.59 23.8-3.01s11.96.05 23.9-.37 12.06 2.97 24 2.55"/><path class="st8" d="M370.72 643.63c11.94-.42 11.81-4.14 23.74-4.56 11.94-.42 12.07 3.29 24.01 2.86 11.94-.42 12.05 2.82 23.99 2.4s11.84-3.33 23.77-3.75c11.94-.42 12 1.42 23.94 1s11.78-4.89 23.72-5.31 12.06 2.94 23.99 2.52c11.94-.42 11.86-2.76 23.79-3.18 11.94-.42 11.92-1.06 23.85-1.49 11.94-.42 12.11 4.29 24.05 3.87s11.95-.12 23.89-.54 11.83-3.44 23.77-3.87c11.94-.42 11.86-2.59 23.8-3.01s11.96.05 23.9-.37 12.06 2.97 24 2.55"/><path class="st8" d="M370.72 649.98c11.94-.42 11.81-4.14 23.74-4.56 11.94-.42 12.07 3.29 24.01 2.86 11.94-.42 12.05 2.82 23.99 2.4s11.84-3.33 23.77-3.75c11.94-.42 12 1.42 23.94 1s11.78-4.89 23.72-5.31 12.06 2.94 23.99 2.52c11.94-.42 11.86-2.76 23.79-3.18 11.94-.42 11.92-1.06 23.85-1.49 11.94-.42 12.11 4.29 24.05 3.87s11.95-.12 23.89-.54 11.83-3.44 23.77-3.87c11.94-.42 11.86-2.59 23.8-3.01s11.96.05 23.9-.37 12.06 2.97 24 2.55"/><path class="st8" d="M370.72 656.32c11.94-.42 11.81-4.14 23.74-4.56 11.94-.42 12.07 3.29 24.01 2.86 11.94-.42 12.05 2.82 23.99 2.4s11.84-3.33 23.77-3.75c11.94-.42 12 1.42 23.94 1s11.78-4.89 23.72-5.31 12.06 2.94 23.99 2.52c11.94-.42 11.86-2.76 23.79-3.18 11.94-.42 11.92-1.06 23.85-1.49 11.94-.42 12.11 4.29 24.05 3.87s11.95-.12 23.89-.54 11.83-3.44 23.77-3.87c11.94-.42 11.86-2.59 23.8-3.01s11.96.05 23.9-.37 12.06 2.97 24 2.55"/><path class="st8" d="M370.72 662.66c11.94-.42 11.81-4.14 23.74-4.56 11.94-.42 12.07 3.29 24.01 2.86 11.94-.42 12.05 2.82 23.99 2.4s11.84-3.33 23.77-3.75c11.94-.42 12 1.42 23.94 1s11.78-4.89 23.72-5.31 12.06 2.94 23.99 2.52c11.94-.42 11.86-2.76 23.79-3.18 11.94-.42 11.92-1.06 23.85-1.49 11.94-.42 12.11 4.29 24.05 3.87s11.95-.12 23.89-.54 11.83-3.44 23.77-3.87c11.94-.42 11.86-2.59 23.8-3.01s11.96.05 23.9-.37 12.06 2.97 24 2.55"/><path class="st8" d="M370.72 669c11.94-.42 11.81-4.14 23.74-4.56 11.94-.42 12.07 3.29 24.01 2.86 11.94-.42 12.05 2.82 23.99 2.4s11.84-3.33 23.77-3.75c11.94-.42 12 1.42 23.94 1s11.78-4.89 23.72-5.31 12.06 2.94 23.99 2.52c11.94-.42 11.86-2.76 23.79-3.18 11.94-.42 11.92-1.06 23.85-1.49 11.94-.42 12.11 4.29 24.05 3.87s11.95-.12 23.89-.54 11.83-3.44 23.77-3.87c11.94-.42 11.86-2.59 23.8-3.01s11.96.05 23.9-.37 12.06 2.97 24 2.55"/><path class="st8" d="M370.72 675.34c11.94-.42 11.81-4.14 23.74-4.56 11.94-.42 12.07 3.29 24.01 2.86 11.94-.42 12.05 2.82 23.99 2.4s11.84-3.33 23.77-3.75c11.94-.42 12 1.42 23.94 1s11.78-4.89 23.72-5.31 12.06 2.94 23.99 2.52c11.94-.42 11.86-2.76 23.79-3.18 11.94-.42 11.92-1.06 23.85-1.49 11.94-.42 12.11 4.29 24.05 3.87s11.95-.12 23.89-.54 11.83-3.44 23.77-3.87c11.94-.42 11.86-2.59 23.8-3.01s11.96.05 23.9-.37 12.06 2.97 24 2.55"/><path class="st8" d="M370.72 681.68c11.94-.42 11.81-4.14 23.74-4.56 11.94-.42 12.07 3.29 24.01 2.86 11.94-.42 12.05 2.82 23.99 2.4s11.84-3.33 23.77-3.75c11.94-.42 12 1.42 23.94 1s11.78-4.89 23.72-5.31 12.06 2.94 23.99 2.52c11.94-.42 11.86-2.76 23.79-3.18 11.94-.42 11.92-1.06 23.85-1.49 11.94-.42 12.11 4.29 24.05 3.87s11.95-.12 23.89-.54 11.83-3.44 23.77-3.87c11.94-.42 11.86-2.59 23.8-3.01s11.96.05 23.9-.37 12.06 2.97 24 2.55"/><path class="st8" d="M370.72 688.02c11.94-.42 11.81-4.14 23.74-4.56 11.94-.42 12.07 3.29 24.01 2.86 11.94-.42 12.05 2.82 23.99 2.4s11.84-3.33 23.77-3.75c11.94-.42 12 1.42 23.94 1s11.78-4.89 23.72-5.31 12.06 2.94 23.99 2.52c11.94-.42 11.86-2.76 23.79-3.18 11.94-.42 11.92-1.06 23.85-1.49 11.94-.42 12.11 4.29 24.05 3.87s11.95-.12 23.89-.54 11.83-3.44 23.77-3.87c11.94-.42 11.86-2.59 23.8-3.01s11.96.05 23.9-.37 12.06 2.97 24 2.55"/><path class="st8" d="M370.72 694.37c11.94-.42 11.81-4.14 23.74-4.56 11.94-.42 12.07 3.29 24.01 2.86 11.94-.42 12.05 2.82 23.99 2.4s11.84-3.33 23.77-3.75c11.94-.42 12 1.42 23.94 1s11.78-4.89 23.72-5.31 12.06 2.94 23.99 2.52c11.94-.42 11.86-2.76 23.79-3.18 11.94-.42 11.92-1.06 23.85-1.49 11.94-.42 12.11 4.29 24.05 3.87s11.95-.12 23.89-.54 11.83-3.44 23.77-3.87c11.94-.42 11.86-2.59 23.8-3.01s11.96.05 23.9-.37 12.06 2.97 24 2.55"/></g></g><circle class="st9" cx="283.6" cy="237.73" r=".4"/><circle class="st2" cx="389.76" cy="200.29" r=".4"/><circle class="st2" cx="349.31" cy="275.3" r=".4"/><ellipse class="st2" cx="256.38" cy="147.67" rx=".41" ry=".4"/><ellipse class="st2" cx="262.02" cy="281.11" rx=".41" ry=".4"/><circle class="st2" cx="432.63" cy="177.54" r=".4"/><circle class="st2" cx="455.4" cy="267.47" r=".4"/><ellipse class="st2" cx="125.11" cy="193.86" rx=".41" ry=".4"/><ellipse class="st2" cx="73.45" cy="246.47" rx=".41" ry=".4"/><ellipse class="st2" cx="-.25" cy="155.85" rx=".41" ry=".4"/><ellipse class="st2" cx="69.35" cy="188.63" rx=".41" ry=".4"/><ellipse class="st2" cx="307.88" cy="153.4" rx=".41" ry=".4"/><ellipse class="st2" cx="36.75" cy="225.7" rx=".41" ry=".4"/><circle class="st2" cx="995.65" cy="400.05" r=".4"/><circle class="st9" cx="1101.8" cy="362.6" r=".4"/><circle class="st2" cx="1061.4" cy="437.62" r=".4"/><ellipse class="st2" cx="968.43" cy="309.99" rx=".41" ry=".4"/><ellipse class="st2" cx="974.07" cy="443.42" rx=".41" ry=".4"/><circle class="st2" cx="1144.7" cy="339.85" r=".4"/><circle class="st2" cx="1167.4" cy="429.79" r=".4"/><ellipse class="st2" cx="837.16" cy="356.18" rx=".41" ry=".4"/><ellipse class="st2" cx="785.5" cy="408.78" rx=".41" ry=".4"/><ellipse class="st2" cx="711.8" cy="318.17" rx=".41" ry=".4"/><ellipse class="st2" cx="781.4" cy="350.94" rx=".41" ry=".4"/><ellipse class="st2" cx="1019.9" cy="315.71" rx=".41" ry=".4"/><ellipse class="st10" cx="748.8" cy="388.01" rx=".41" ry=".4"/><circle class="st2" cx="1034.2" cy="81.83" r=".4"/><circle class="st2" cx="928.01" cy="119.28" r=".4"/><circle class="st2" cx="968.46" cy="44.26" r=".4"/><ellipse class="st2" cx="1061.4" cy="171.89" rx=".41" ry=".4"/><ellipse class="st10" cx="1055.8" cy="38.45" rx=".41" ry=".4"/><circle class="st2" cx="885.14" cy="142.02" r=".4"/><circle class="st10" cx="862.37" cy="52.09" r=".4"/><ellipse class="st2" cx="1192.7" cy="125.7" rx=".41" ry=".4"/><ellipse class="st2" cx="1244.3" cy="73.09" rx=".41" ry=".4"/><ellipse class="st2" cx="1318" cy="163.71" rx=".41" ry=".4"/><ellipse class="st2" cx="1248.4" cy="130.94" rx=".41" ry=".4"/><ellipse class="st2" cx="1009.9" cy="166.17" rx=".41" ry=".4"/><ellipse class="st2" cx="1281" cy="93.87" rx=".41" ry=".4"/><circle class="st2" cx="190.59" cy="348.72" r=".4"/><circle class="st10" cx="84.44" cy="386.17" r=".4"/><circle class="st2" cx="124.88" cy="311.15" r=".4"/><ellipse class="st2" cx="217.81" cy="438.78" rx=".41" ry=".4"/><ellipse class="st2" cx="212.17" cy="305.35" rx=".41" ry=".4"/><circle class="st2" cx="41.57" cy="408.92" r=".4"/><circle class="st2" cx="18.79" cy="318.98" r=".4"/><ellipse class="st2" cx="349.08" cy="392.59" rx=".41" ry=".4"/><ellipse class="st2" cx="400.74" cy="339.99" rx=".41" ry=".4"/><ellipse class="st2" cx="474.44" cy="430.6" rx=".41" ry=".4"/><ellipse class="st2" cx="404.84" cy="397.83" rx=".41" ry=".4"/><ellipse class="st2" cx="166.31" cy="433.06" rx=".41" ry=".4"/><ellipse class="st2" cx="437.44" cy="360.76" rx=".41" ry=".4"/><circle class="st2" cx="226.03" cy="108.04" r=".4"/><circle class="st9" cx="119.88" cy="145.49" r=".4"/><circle class="st9" cx="160.32" cy="70.47" r=".4"/><ellipse class="st2" cx="253.25" cy="198.1" rx=".41" ry=".4"/><ellipse class="st2" cx="247.61" cy="64.67" rx=".41" ry=".4"/><circle class="st2" cx="77.01" cy="168.24" r=".4"/><circle class="st2" cx="54.24" cy="78.3" r=".4"/><ellipse class="st2" cx="384.52" cy="151.91" rx=".41" ry=".4"/><ellipse class="st2" cx="436.19" cy="99.31" rx=".41" ry=".4"/><ellipse class="st2" cx="509.88" cy="189.92" rx=".41" ry=".4"/><ellipse class="st2" cx="440.29" cy="157.15" rx=".41" ry=".4"/><ellipse class="st2" cx="201.76" cy="192.38" rx=".41" ry=".4"/><ellipse class="st2" cx="472.89" cy="120.08" rx=".41" ry=".4"/><circle class="st2" cx="964.3" cy="331.86" r=".4"/><circle class="st2" cx="858.15" cy="369.3" r=".4"/><circle class="st2" cx="898.59" cy="294.29" r=".4"/><ellipse class="st2" cx="991.52" cy="421.92" rx=".41" ry=".4"/><ellipse class="st2" cx="985.88" cy="288.48" rx=".41" ry=".4"/><circle class="st2" cx="815.28" cy="392.05" r=".4"/><circle class="st10" cx="792.51" cy="302.12" r=".4"/><ellipse class="st9" cx="1122.8" cy="375.73" rx=".41" ry=".4"/><ellipse class="st2" cx="1248.2" cy="413.74" rx=".41" ry=".4"/><ellipse class="st2" cx="1178.6" cy="380.96" rx=".41" ry=".4"/><ellipse class="st2" cx="940.03" cy="416.2" rx=".41" ry=".4"/><ellipse class="st2" cx="891.34" cy="343.89" rx=".41" ry=".4"/><circle class="st2" cx="1280.3" cy="261.81" r=".4"/><circle class="st2" cx="1274.1" cy="359.15" r=".4"/><circle class="st2" cx="1346" cy="299.38" r=".4"/><ellipse class="st2" cx="1253.1" cy="171.75" rx=".41" ry=".4"/><ellipse class="st2" cx="1287.8" cy="309.99" rx=".41" ry=".4"/><circle class="st2" cx="1317" cy="336.4" r=".4"/><circle class="st2" cx="1339.7" cy="426.33" r=".4"/><ellipse class="st2" cx="1121.8" cy="217.94" rx=".41" ry=".4"/><ellipse class="st2" cx="1070.2" cy="270.55" rx=".41" ry=".4"/><ellipse class="st2" cx="996.46" cy="179.93" rx=".41" ry=".4"/><ellipse class="st2" cx="1087.3" cy="232.81" rx=".41" ry=".4"/><ellipse class="st2" cx="1304.6" cy="177.47" rx=".41" ry=".4"/><ellipse class="st2" cx="1033.4" cy="249.77" rx=".41" ry=".4"/><path class="st11" d="M165.42 477.46l40.53-20.74a4.47 4.47 0 015.49 1.13l.6.72c2.65 3.2 7.23 4.01 10.83 1.92l9.13-5.3c1.93-1.12 4.11-1.71 6.34-1.71h4.2c3.4 0 6.74-.8 9.78-2.32l63.19-31.82c3.57-1.8 7.81-1.71 11.3.24 5.1 2.85 11.27 3.05 16.54.54l18.22-8.66a8.722 8.722 0 017.61.05l37.6 18.42a77.89 77.89 0 017.31 4.08l85.67 54.1a26.4 26.4 0 0014.11 4.08h3.45c3.75 0 7.47-.8 10.89-2.35l40.57-18.34c2-.9 4.3-.81 6.21.26l31.49 17.54c2.75 1.53 5.85 2.34 9 2.34h42.15c2.91 0 5.76.8 8.26 2.3l17.53 10.59c3.19 1.93 6.96 2.66 10.64 2.07l6.92-1.12c3.86-.62 7.81-.35 11.55.79 2.63.8 5.47.54 7.92-.71l79.31-40.81c2.86-1.47 6.23-1.54 9.15-.18l107.75 50.18c3.52 1.64 7.55 1.8 11.19.43l20.87-7.83c2.62-.98 5.52-.95 8.12.1l15.4 6.23c5.92 2.4 12.26 3.63 18.65 3.63h4.78c6.26 0 12.46-1.18 18.28-3.48l22.75-8.99c3.53-1.39 7.48-1.26 10.91.36l6.25 2.96 13.57.79s8.43.95 20.42.81c8.33-.1 16.64-1.03 24.78-2.77l100.25-21.4c12.3-2.63 25.14-.79 36.21 5.18l74.97 40.4 41.65-3.85-.76 105.66-1041.5-52.72-323.76-7.08-.1-32.28 165.86-63.44z"/><path class="st1" d="M318.54 418.13l8.85 7.19c.86.7 2.05.86 3.07.41l6.62-3.75s-3.56-.6-8.6-1.57c-1.58-.31-2.84-1.96-4.3-2.28-2.26-.49-4.54.38-5.64 0zm197.1 89.27c-29.11-5.86-44.37-12.17-51.19-15.63-1.16-.59-.7-2.35.6-2.29 2.92.12 5.14.08 6.74-.01.88-.05 1.12-1.24.32-1.63-31.96-15.4-106.45-77.23-106.45-77.23 15.38 3.2 26.38 11.37 26.38 11.37 22.05 12.03 36 20.18 64.02 36.26 0 0 58.44 39.83 62.67 42.22 2.5 1.41 12.31 5.77 19.92 9.1 1.25.55.66 2.42-.68 2.16l-22.33-4.32zm141.98-15.76l18.37 21.2a9.324 9.324 0 0010.66 2.49l24.11-10.14s-3.76-.42-8.66.14c-5.15.59-11.52 2.15-14.31 1.24-5.45-1.76-20.32-11.85-22.6-13.02-3.72-1.91-7.57-1.91-7.57-1.91zm-450.13-35.38s-8.45 8.58-2.01 8.92 14.81-3.71 14.81-3.71-4.61.14-8.26-2.9c.01 0-1.95-2.68-4.54-2.31z"/><path class="st12" d="M1096.4 455.05c0-.49-1.3-4.37-1.3-4.37s-1.46-3.4-1.46-5.67-1.3-6.32-1.3-6.96c0-.21-4.1-10.14-6.15-12.31-1.76-1.85-4.88-3.12-7.24-3.86-.06-.05-.1-.09-.1-.09 3-2.28 4.77-4.55 4.53-9.38-.11-2.2-1.1-5.58-3.26-7.95-1.79-1.95-4.48-3.5-8.12-4.14-8.04-1.41-11.95 3.78-13.31 9.17s1.01 9.21 1.01 9.21c-.48 0-.8.57-.99 1.06-.58-1.21-1.21-2.66-1.31-3.43-.19-1.48-1.98-3.37-2.01-4.78-.04-1.41-1.25-2.09-1.48-2.66s-.8-2.93-.79-3.61-.88-1.86-.88-3.76-.42-2.51-.42-3.88-.23-1.9-.23-2.55-.68-1.89-.68-2.34l-.08-2.28-.31-1.65-.58-.93c.32-.48.73-1.03.85-1.22.22-.33.99-2.01.99-2.12 0-.08.23-1.03.35-1.5.04-.17.05-.35.04-.53-.07-.65-.25-2.28-.25-2.43 0-.09-.1-.57-.3-1.1-.07-.18-.15-.37-.24-.55-.22-.45-.52-.85-.87-.97-.91-.3-1.13.39-1.13.39l-.8-.17h-.99s-.83.47-1.27.47-1.87.72-1.9.85c-.03.14-1.82.96-1.82.96s-.58.41-.58.5c0 .08-.41.94-.41 1.16s.55 1.93.63 2.23.83 2.89.83 2.89.03.06.07.15c-.03.27-.07.55-.13.84-.04.21.27.49.48.75-.06.25-.12.52-.12.61 0 .17-.11 1.53-.11 1.53h.16c-.2.73-.46 1.24-.52 1.49-.25 1-.45 9.77-.61 10.75-.16.97 1.13 4.7 1.13 5.18s1.3 4.37 1.3 4.37 1.46 3.4 1.46 5.67 1.3 6.32 1.3 6.96c0 .65 3.33 9.06 6.41 12.29.26 1.66.48 2.94.48 3.08 0 .33 2.05 4.68 2.05 5.18 0 .49 1.15 6.16 1.15 7.07 0 .9-1.23 2.79-1.23 6.33 0 3.53.08 3.37.08 6.82s-1.31 6.33-1.31 8.05c0 1.73-.16 11.09-.16 11.09l.58 1.81v3.86s-.49 3.53-.49 4.44c0 .9-.9 3.61-1.06 6.16s1.06 2.05 1.06 4.68.82 3.2.82 5.67c0 2.46-.33 1.89-.33 2.79s-.74 3.53-.74 5.83.49 3.86.49 4.6.33 1.48.33 2.22 1.15 1.73 1.4 1.81.58 1.73.58 1.73-2.22-1.07-3.37 2.38 2.3 5.92 2.3 5.92c6.16-.33 10.19-2.38 10.19-2.38l-.33-3.29s-.82-3.04-1.12-3.61c-.3-.58.39-2.71.1-3.29-.28-.58.12-2.14.04-2.71-.08-.58 0-3.86 0-3.86s.9-2.46.9-3.94.82-4.68.9-5.34.82-4.52.91-5.26 1.06-5.34 1.06-6.41-.25-4.85-.33-5.67-.08-1.97 0-3.94 1.07-8.38 1.07-8.38v5.42s.99 3.62.99 6.16c0 2.55 2.46 3.86 2.63 5.18.16 1.31.9 2.88.99 4.44.08 1.56.9 2.3.9 3.04s1.48 2.38 1.48 3.45.66 3.29.66 5.42c0 2.14.33 2.46.33 4.93s.82 2.46.9 3.53-.41 2.38-.41 2.63.49 7.39 1.23 8.38 3.94.58 5.92 0c1.97-.58 1.89-4.03 1.89-4.6 0-.58-.41-4.68-.7-6.66-.29-1.97.86-10.93.86-10.93s.16-3.12.16-3.61-.41-3.37-.41-6.33-.49-6.41-.62-7.31c-.12-.9-.21-2.71 0-5.75s-.29-2.3-.53-6.65c-.25-4.35-1.24-13.66-1.24-13.66s-.34-1.1-.38-2.47-.87-1.82-.87-2.09c0-.12-.12-.72-.26-1.47l1.56-.02c.46-.01.83-.38.83-.84V454c.05.07.1.14.12.21.23.57.8 2.93.79 3.61s.88 1.86.88 3.76.42 2.51.42 3.88.23 1.9.23 2.55-.23 2.01-.23 2.47v3.27c0 .84.46 3.5.38 4.37s1.37 1.18 1.52.27 1.29-2.01 1.29-2.01.49.68.53 1.41c.04.72-1.25 2.58-1.41 3.57-.15.99.27 1.25.27 1.25 1.29.42 2.58-.34 2.58-.34-.15.95.87.72.87.72.68-.34 1.25-1.82 1.25-1.82.49.15.88-.2.88-.2 1.16-2.08.5-8.99.75-9.98.12-.5.24-2.94.34-5.38s.19-4.88.27-5.36c.14-.99-1.15-4.71-1.15-5.2z"/><path class="st13" d="M1082.8 430.84l-19.7-.46 3.5 2.51 19.9.24z"/><path class="st14" d="M1049.6 378.77s.15-.9.6-.9.9.14 1.56 1.56c0 0-.47-2.01-1.48-2s-1.05.78-1.05.78.43.26.37.56z"/><path class="st1" d="M479.68 600.45s-22.25-1.3-31.46-2.68c-.3-.04-.47.32-.25.53.73.67 1.98 1.67 3.45 2.26 0 0-10.45-1-18.85-3.27-.6-.16-.94.66-.4.97 3.71 2.12 9.54 5.14 14.95 6.72l32.56-4.53z"/><path class="st1" d="M446.55 604.8s6.98 1.81 11.25 1.41c0 0-8.13 1.07-16.13-.8l4.88-.61zM155 617.06s-21.51-5.83-30.25-9.06c-.28-.1-.53.22-.35.46.57.8 1.59 2.04 2.91 2.91 0 0-7.88-2.45-15.07-5.75-.98-.45-1.81.85-.98 1.55 3.07 2.57 7.04 5.57 10.94 7.65l32.8 2.24z"/><path class="st1" d="M121.68 614.52s6.46 3.2 10.72 3.68c0 0-8.18-.62-15.63-4.09l4.91.41zm72.4 3.83l-12.07-.31s-4.39-2.44-8.64-2.87c-.14-.01-.18.18-.05.23.88.32 2.07.86 1.96 1.43l-8.99-.6c-.8-.05-1.59-.17-2.36-.34-2.67-.6-9.03-2.03-9.69-2.32-.84-.36 1.83 1.3 3.67 1.86 0 0-4.85-.42-9.67-3.7 0 0 .59 1.33 2.1 2.46.79.59 1.49 1.3 2.11 2.07l.86 1.05 39.19 2.14 1.58-1.1zm160.26-3.87s-2.26-.1-6.89.69-20.6 1.2-25.47-.56c0 0 .25 1.29 1.32 1.9 0 0-17.64.74-23.2.68s-9.5.18-12.26-1.24c0 0 1.12 1.38 2.1 1.73.61.22-1.52-.33-3.72-1.14-1.32-.48-2.66-1.06-3.45-1.61 0 0 2.39 2.89 4.37 3.41l-6.93.14-8.48-3.81s-1.61-6.34-4.15-5.61c-2.53.73 2.11 4.45 2.11 4.45s-5.5-2.53-8.32-2.91c0 0-.4-4.32-2.45-4.48s1.08 3.95 1.08 3.95l-3.02-.31-.06.61 4.3 1.25s-.86 1.19-2.19 1.7c-1.33.5.03 2.66 1.81 2 1.79-.66 1.76-3.32 1.76-3.32s5.59 1.21 7.23 2.5c0 0-.47 1.23-1.71 1.3-.8.05-.43.94.49 1.18.98.26 1.95-.46 2.08-1.46l.09-.73 6.24 4.03 10.95 2.98 61.05-1.58 5.32-5.74zm371.59-47.01s-2.28-.55-3.55-.5c-.04 0-.07 0-.1-.01-.36-.12-2.6-.85-3.98-1.58-.28-.15-.58.15-.44.43.49.98 1.27 2.35 2.05 3.02 0 0-4.52-4.75-8.5-3.7-.28.07-.32.46-.07.6.3.16.66.38 1.01.63.28.21.07.64-.27.57h-.02c-.28-.05-.49.27-.32.5.07.1.13.21.18.33.12.28-.18.55-.45.42-1.12-.53-3.9-1.7-5.44-.99-.26.12-.25.5.02.6.36.14.84.34 1.24.58.31.19.13.67-.23.6-1.56-.31-4.62-.96-6.7-1.73-.33-.12-.59.29-.34.53.36.36.77.75 1.18 1.11.27.23.02.66-.32.55-1.39-.46-3.15-1.13-3.48-1.65s.41.5 1.06 1.41c.2.28-.12.64-.42.47-1.07-.59-2.59-1.43-3.58-2-.27-.16-.58.12-.46.41l.06.15c.26.61 2.08 1.96 2 2.13s-7.09-2.24-8.94-1.94c-1.84.3.69.72.92.81s1.61.62 1.54 1.03-2.98.01-3.1-.18c-.07-.1-1-.55-1.81-.94-.3-.14-.6.21-.4.49.42.59.82 1.25.67 1.48-.29.46-3.06-2.02-4.01-2.1s.99 1.31 1 1.79-3.19-1.3-3.92-.99c-.39.17.57.88 1.52 1.6.31.23.02.72-.33.56-1.55-.71-3.68-1.59-4.95-1.66a.325.325 0 00-.31.47c.07.15.12.29.06.35-.13.15-1.39-.23-1.79-.16-.26.05 1.6.86 2.9 1.59.33.19.13.69-.24.6-2.13-.54-6.07-1.43-8.06-1.09-.28.05-.36.4-.14.58.19.15.52.34 1.05.55 1.62.66 2.1.89 1.18 1.09-.74.16-5.25-1.11-7.34-2.07-.29-.14-.59.2-.41.47.36.56.91 1.28 1.69 2.05 1.55 1.51 4.92 4.1 5.56 4.59.07.05.16.07.24.06l58.8-8.91c.21-.03.33-.25.25-.45l-.99-2.35"/><path class="st13" d="M1081.1 504.92c-.45-1.23-1.38-2.2-2.16-3.25s-1.43-2.33-1.19-3.61c.17-.9.78-1.7.83-2.62.09-2-2.45-3.32-2.53-5.32-.05-1.31 1-2.61.53-3.83-.06-.15-.14-.29-.14-.45-.03-.54.66-.75 1.18-.9.85-.25 1.64-.83 1.97-1.65.33-.83.2-1.85-.9-2.12l-6.25-.24c-.64-.02-1.18-.14-1.76-.2-.35-.03-.72-.24-.89.06l.08 4.31c.08.28-.15.82-.08 1.11.29 1.12.38 1.94.73 3.15.18 1.04.33 2.19.33 3.18 0 2.55 2.46 3.86 2.63 5.18.16 1.31.9 2.88.99 4.44.08 1.56.9 2.3.9 3.04s1.48 2.38 1.48 3.45.66 3.29.66 5.42c0 2.14.33 2.46.33 4.93 0 1.36.25 1.96.49 2.42 1.33-.65 2.21-2.24 2.44-3.78.29-1.92-.11-3.87.03-5.8.17-2.33 1.1-4.73.3-6.92z"/><path class="st14" d="M1069.8 483.07l.06-.4c-.02.13-.05.26-.06.4z"/><path class="st13" d="M1059.5 456.91c-.46-3.49.2-7.03.05-10.55-.06-1.32-.27-2.67-.67-3.95.08-.19.14-.39.16-.61.09-.8-.26-1.57-.6-2.29l-4.17-8.82c-2.59-5.49-5.24-11.24-5.03-17.3.06-1.65.26-3.52-.86-4.74-.97-1.07-2.92-1.73-2.63-3.15.1-.5.48-.88.71-1.34 1.1-2.16-1.52-4.41-1.71-6.82-.2-2.59 2.44-5.15 1.29-7.48l-.51-.34c.41 0 .82-.01 1.24-.03.2-.01.24-.29.05-.36-.58-.21-1.17-.42-1.75-.62-.35-.12-.72-.27-.9-.6-.26-.48.06-1.05.22-1.57.16-.51.17-1.06.04-1.57-.2-.76-.73-1.46-.66-2.24.03-.33.16-.64.3-.94.43-.98.98-2.07 2-2.4.26-.09.55-.12.76-.29.22-.17.3-.55.07-.7-.09-.06-.22-.07-.33-.06-.64.02-1.25.31-1.83.59l-.06.03c-.2.11-.34.21-.35.25-.03.14-1.82.96-1.82.96s-.58.41-.58.5c0 .08-.41.94-.41 1.16s.55 1.93.63 2.23.83 2.89.83 2.89.03.06.07.15c-.03.27-.07.55-.13.84-.04.21.27.49.48.75-.06.25-.12.52-.12.61v.08c.09.07.18.13.27.2-.13 1.34-.65 2.3-.74 2.66-.25 1-.45 9.77-.61 10.75-.16.97 1.13 4.7 1.13 5.18s1.3 4.37 1.3 4.37 1.46 3.4 1.46 5.67 1.3 6.32 1.3 6.96c0 .65 3.33 9.06 6.41 12.29.26 1.66.48 2.94.48 3.08 0 .22.89 2.19 1.5 3.64h.01c.34.82.62 1.51.62 1.69 0 .49 1.15 6.16 1.15 7.07 0 .9-1.23 2.79-1.23 6.33 0 3.53.08 3.37.08 6.82s-1.31 6.33-1.31 8.05c0 1.73-.16 11.09-.16 11.09l.58 1.81v3.86s-.49 3.53-.49 4.44c0 .9-.9 3.61-1.06 6.16-.15 2.55 1.06 2.05 1.06 4.68s.82 3.2.82 5.67c0 2.46-.33 1.89-.33 2.79s-.74 3.53-.74 5.83c0 .37.01.73.04 1.06.92.36 1.86 3.85 2.74 3.43 1.79-.85 2.41-6.62 2.23-8.59-.26-2.94-1.53-5.76-1.45-8.7.08-3.04 1.58-5.9 1.67-8.94.1-3.04-1.21-5.98-1.27-9.02-.05-2.7.9-5.36.68-8.05-.17-2.13-1.07-4.17-1.05-6.3.02-3.23 2.1-6.12 2.44-9.34.31-3.01-.91-5.93-1.31-8.91z"/><path class="st3" d="M526.44 649.42s-3.01-1.59-4.81-1.97c-.05-.01-.09-.03-.14-.05-.47-.29-3.35-2.11-5.02-3.64-.34-.31-.87 0-.78.45.34 1.55.93 3.74 1.79 4.95 0 0-4.64-8.26-10.62-8.21-.42 0-.62.53-.31.81.36.34.8.77 1.19 1.25.32.39-.13.92-.59.7-.01 0-.02-.01-.03-.01-.38-.18-.78.2-.64.59.06.17.11.35.14.52.07.43-.45.71-.79.43-1.38-1.15-4.87-3.77-7.3-3.33-.41.07-.53.61-.19.85.46.32 1.05.77 1.53 1.26.37.38-.06.98-.54.76-2.09-.99-6.15-2.99-8.79-4.81-.42-.29-.94.19-.68.63.38.63.81 1.32 1.25 1.97.29.42-.21.94-.64.66-1.79-1.15-4.02-2.71-4.29-3.54-.27-.84.4.85.98 2.35.18.47-.4.85-.76.51-1.29-1.21-3.13-2.93-4.31-4.07-.32-.31-.86-.04-.8.41l.03.23c.14.95 2.21 3.48 2.05 3.7s-9.16-5.67-11.86-5.91.71 1.25 1 1.47c.29.21 2.03 1.44 1.79 1.99s-4.19-1.05-4.3-1.36c-.06-.17-1.2-1.13-2.2-1.96a.472.472 0 00-.74.54c.38.97.7 2.04.41 2.31-.57.54-3.58-3.92-4.88-4.37s.91 2.19.75 2.86-4.02-2.95-5.16-2.78c-.61.09.48 1.44 1.56 2.78.35.44-.23 1.01-.67.66-1.92-1.55-4.6-3.53-6.36-4.09a.475.475 0 00-.61.54c.05.23.06.44-.04.51-.24.16-1.88-.82-2.47-.86-.39-.03 1.93 1.77 3.5 3.27.4.38-.07 1.02-.55.75-2.8-1.52-8.02-4.16-10.93-4.4-.4-.03-.65.44-.4.76.22.28.61.66 1.27 1.15 2.04 1.5 2.64 2 1.27 1.94-1.1-.04-6.98-3.42-9.56-5.52-.36-.3-.89.07-.75.51.31.92.81 2.12 1.63 3.47 1.63 2.67 5.43 7.48 6.16 8.4.08.1.19.16.32.17l85.9 8.55c.31.03.56-.23.52-.54l-.54-3.64"/><path class="st15" d="M1058.3 413.82s-2.7-10.71 8.57-13.78h2.07l-.56 6.33-5.11 7.45h-4.97z"/><path class="st13" d="M1080.1 404.14c-1.79-1.95-4.48-3.5-8.12-4.14-3.4-.6-6.06-.01-8.11 1.27.77-.34 1.63-.62 2.6-.81l-.13 4.42c-.01.24-.07.47-.19.68l-3.34 6.04c-.16.3-.42.53-.74.66l-3.77 1.56c.12 1.19.38 2.2.65 2.95.52.91 1.17 1.74 1.98 2.41 3.11 2.59 7.61 2.41 11.64 2.1-2.3-.26-4.56-.84-6.7-1.71-.53-.21-1.14-.61-1.05-1.17.12-.77 1.36-.76 1.77-1.42.27-.43.1-.99.1-1.49.01-1.43 1.43-2.46 2.81-2.79 1.39-.33 2.86-.19 4.24-.54s2.77-1.45 2.7-2.87c-.03-.64-.35-1.23-.49-1.86s-.02-1.41.55-1.7c.31-.16.69-.13 1.04-.1 1.3.13 2.6.25 3.91.38-.37-.67-.83-1.3-1.35-1.87zm10.5 63.84c-.14-.54-.35-1.06-.45-1.61-.1-.61-.04-1.24.01-1.86.15-1.59.29-3.18.44-4.78.1-1.13.19-2.35-.35-3.34-.41-.74-1.14-1.33-1.55-2.04a4.983 4.983 0 00-1.94-1.87l-.12-.07c-.37.54-.56 1.16-.63 1.8.23.57.8 2.93.79 3.61s.88 1.86.88 3.76.42 2.51.42 3.88.23 1.9.23 2.55-.23 2.01-.23 2.47v3.27c0 .84.46 3.5.38 4.37-.06.68.79 1.01 1.25.7.11-.45.07-1.01.03-1.48-.25-3.14 1.61-6.29.84-9.36z"/><path class="st15" d="M1064.6 461.83s13.08 8.42 20.51 8.49c0 0 .1-4.61-1.77-8.49h-18.74zm23.9-8.47c.38-.88.28-1.89.18-2.84-.22-2.07-.32-9.4-.55-11.47 0 0-.21-2.83-1.03-4.68-.34-1-.64-1.23-.64-1.23l-.74 20.88.67 3.19-.34 5.67v1.78c.63-1.34 1.27-2.67 1.9-4.01.27-.56.54-1.15.5-1.77-.06-.84-.68-1.56-.96-2.34l.15-1.71c.25-.5.63-.96.86-1.47z"/><path class="st13" d="M1066.9 400.04s-4.15 0-7.61 5.6c0 0 3.81-4.92 7.61-4.96"/><path class="st15" d="M1070.2 423.79s7.57 2.54 15.97 1.95c0 0-1.71-2.8-7.34-3.95.01 0-1.6 1.91-8.63 2z"/><path class="st13" d="M1091.2 476.38s1.47.86 1.43 1.76-1.03 1.89-1.03 2.31c0 .43-1.39 1.46-.63 2.25 0 0-1.14-.02-.53-1.75s1.25-2.17 1.3-3.16c-.01-.01-.22-1.26-.54-1.41z"/><path class="st1" d="M1048.1 381.34h-.38c-.67 0-1.21-.54-1.21-1.21v-8.07h2.8v8.07c0 .67-.54 1.21-1.21 1.21z"/><path class="st1" d="M1049.6 374.06h-3.34c-.09 0-.16-.07-.16-.16v-8.72c1.2-.29 2.46-.29 3.66 0v8.72c0 .09-.07.16-.16.16z"/><path class="st13" d="M1049.7 367.77s-2.68 1.21-3.66 3.42v-6.01s2.05-.47 3.66 0v2.59z"/><path class="st15" d="M1046.2 374.06l3.1 2.47v-2.47zm.2 46.69s2.37-4.79 10.64-5.34l-.01-.06a2.68 2.68 0 00-.84-1.54s-6.94.52-10.1 5.27l.31 1.67z"/><path class="st12" d="M1046.5 420.71c.14-.25 1-1.73 3.11-3.06-.09-.53-.16-1.06-.21-1.59-1.19.73-2.32 1.69-3.18 2.95.06.54.16 1.12.28 1.7z"/><path class="st15" d="M1046.1 417.73s1.32-4.7 9.6-5.24v-.02c.07-.56-.05-1.13-.34-1.61 0 0-6.4.46-9.57 5.2l.31 1.67z"/><path class="st12" d="M1046.1 417.73c.14-.25 1.11-2.19 3.23-3.53-.09-.53-.12-.84.01-1.41-1.19.73-2.59 1.86-3.45 3.12.06.54.1 1.24.21 1.82z"/><path class="st15" d="M1086.5 439.06s1.19.27 5.84-1.02l.29 1.41s-2.14.95-6.39 1.03m.26 1.64s1.07.35 6.5-.94l.31 1.46s-2.14.83-7.11.92"/><path class="st11" d="M1055.5 509.2s4.4 2.4 11.65 1.24l-.36 1.78s-5.43 1.16-11.03-1.15l-.26-1.87z"/><path class="st12" d="M1058.6 510.27c-1.73-.39-2.8-.89-3.07-1.03.14.55.26 1.12.3 1.89 1.08.44 2.15.74 3.17.96-.15-.61-.29-1.21-.4-1.82z"/><path class="st11" d="M1055.3 513.25s4.4 2.4 11.65 1.24l-.36 1.78s-5.43 1.16-11.03-1.15l-.26-1.87z"/><path class="st12" d="M1059.6 514.54c-1.77-.48-3.7-.98-3.97-1.11.14.55-.17.82-.22 1.71 1.08.44 2.22.81 4.44 1.18-.15-.6-.14-1.17-.25-1.78z"/><path class="st11" d="M1077.1 510.67s5.54 1.23 10.47-.2l.04.12c.16.53.09 1.1-.19 1.58 0 0-3.34 1.19-10.08 0l-.24-1.5z"/><path class="st14" d="M1109.2 471.74l.06-.4c-.03.13-.05.26-.06.4z"/><path class="st12" d="M1077.3 512.17c1.25.22 2.38.36 3.39.43 0-.26.01-.51.03-.77.02-.24.04-.47.07-.71-1.98-.1-3.45-.39-3.73-.45.09.47.17.98.24 1.5z"/><path class="st11" d="M1077.1 513.97s5.54 1.23 10.47-.2l.04.12c.16.53.09 1.1-.19 1.58 0 0-3.34 1.19-10.08 0l-.24-1.5z"/><path class="st12" d="M1077.6 515.5c1.25.22 2.28.33 3.3.4 0-.26-.12-.52-.1-.77.02-.24.02-.47.05-.71-2.13-.17-3.04-.32-3.32-.38-.02.54 0 .94.07 1.46z"/><path class="st3" d="M-.34 573.18v309.93H1365.6l.1-355.82z"/><g class="st16"><path class="st1" d="M156.09 436.44c12.66 59.38 12.01 93.03 12.01 93.03S81.71 422.09 85.47 335.83c0 0 57.96 41.23 70.62 100.61z"/></g><path class="st1" d="M746.19 558.61c.04.07.11.14.2.22-.26-.36-.39-.51-.2-.22zm58.54-8.14c.04.07.11.14.2.22-.26-.36-.38-.51-.2-.22zm63.39-4.76c.04.06.1.13.18.19-.24-.31-.35-.45-.18-.19zm-362.24 46.61c.04.07.11.14.2.21-.26-.35-.39-.5-.2-.21zm34.53-7.32c.05.08.12.15.22.24-.29-.39-.42-.56-.22-.24zm63.9-8.88c.05.08.12.15.22.24-.29-.39-.42-.56-.22-.24zM466.1 604.37c.06.05.15.1.25.14-.35-.25-.52-.35-.25-.14zm208.19-37.13c.05.08.12.15.22.24-.29-.4-.43-.57-.22-.24zm356.11-43.65c.04.06.1.13.18.2-.23-.33-.34-.47-.18-.2zm-63.08 6.69c.05.09.13.18.24.27-.31-.44-.46-.64-.24-.27zM1097 517.07c.04.06.1.13.18.2-.24-.33-.35-.47-.18-.2zm53.1-6.68c.04.06.1.13.18.2-.23-.32-.34-.47-.18-.2zm58-6.61c.04.06.1.13.18.2-.23-.32-.34-.47-.18-.2zm38.3-6.92c.04.06.1.13.18.2-.23-.33-.34-.47-.18-.2zm53-6.67c.04.06.1.13.18.2-.24-.33-.35-.47-.18-.2z"/><path class="st1" d="M1365.7 486.72v-.9h-.01l.01-3.86s-.92-.26-2.25-.2c-.04 0-.07 0-.11-.01-.38-.11-2.71-.83-4.13-1.57-.29-.15-.62.15-.48.44.42.85 1.04 1.98 1.72 2.71-1.12-1.05-4.93-4.26-8.47-3.34-.3.08-.36.47-.09.6.31.16.68.38 1.04.63.29.21.05.64-.3.58h-.02c-.3-.05-.52.27-.36.51.07.1.13.21.18.33.12.28-.21.56-.49.43-1.16-.53-4.04-1.69-5.69-.96-.28.12-.28.5 0 .6.38.14.87.33 1.28.58.32.19.11.67-.26.61-1.63-.3-4.82-.93-6.98-1.69-.34-.12-.63.29-.38.54.37.36.78.75 1.2 1.11.27.23 0 .67-.35.56-1.27-.4-2.83-.96-3.41-1.44.23.31.56.77.88 1.22.2.28-.15.65-.46.48-1.1-.59-2.68-1.42-3.69-1.99-.28-.15-.62.13-.5.42l.06.15c.25.61 2.11 1.96 2.03 2.13-.08.18-7.38-2.21-9.33-1.89-1.95.31.7.72.94.81s1.67.61 1.58 1.03c-.08.42-3.13.03-3.25-.16-.07-.1-1.03-.55-1.87-.93-.31-.14-.64.22-.44.49.42.59.82 1.25.66 1.49-.32.46-3.15-2.02-4.14-2.09s.99 1.32.98 1.8-3.31-1.28-4.09-.96c-.42.17.57.89 1.54 1.6.32.23 0 .72-.37.56-1.6-.71-3.81-1.57-5.14-1.63-.26-.01-.45.25-.35.47.07.15.11.29.06.35-.14.15-1.46-.22-1.88-.14-.27.05 1.53.8 2.87 1.52-.27.08-.32.45-.07.59.04.02.08.05.12.07-.06.02-.12.03-.2.01-2.22-.53-6.33-1.39-8.43-1.04-.29.05-.39.41-.17.58.2.15.53.34 1.08.55 1.68.65 2.18.88 1.2 1.09-.78.17-5.48-1.07-7.64-2.03-.3-.13-.62.21-.45.48.36.56.91 1.29 1.7 2.05.52.5 1.24 1.11 2 1.73-1.16-.41-2.5-.95-3.02-1.4.22.31.55.78.86 1.22.2.28-.13.64-.43.47-1.06-.6-2.57-1.47-3.55-2.04-.27-.16-.58.11-.47.4l.06.15c.25.61 2.05 1.98 1.98 2.16-.07.17-7.07-2.33-8.91-2.06-1.85.27.68.73.91.82.23.1 1.6.64 1.53 1.05s-2.98-.03-3.1-.22c-.07-.1-.99-.57-1.8-.96-.3-.15-.6.2-.41.48.42.59.81 1.26.66 1.49-.29.45-3.04-2.06-3.98-2.15-.95-.09.97 1.33.97 1.8 0 .48-3.17-1.34-3.91-1.04-.4.16.56.89 1.5 1.62.31.24.01.72-.34.55-1.54-.73-3.66-1.63-4.93-1.72-.25-.02-.43.24-.32.46.07.15.11.29.06.35-.13.15-1.39-.25-1.79-.18-.26.04 1.58.88 2.88 1.63.33.19.12.69-.25.6-2.13-.57-6.05-1.5-8.04-1.19-.28.04-.36.4-.15.57.19.15.51.34 1.04.56 1.47.62 1.99.87 1.38 1.05-.71-.24-2.53-.9-3.71-1.55a.326.326 0 00-.45.43c.05.11.11.22.17.33-1.3-.41-2.64-.89-3.53-1.32a.32.32 0 00-.46.29c-.86-.22-1.75-.28-2.62-.06-.28.07-.33.46-.08.6.3.17.66.39 1 .65.28.21.06.64-.28.57h-.02c-.28-.06-.49.26-.33.5.07.1.13.21.18.33.12.28-.19.55-.46.42-1.12-.55-3.88-1.75-5.43-1.06-.26.12-.26.5.01.6.36.14.83.35 1.23.6.31.2.12.67-.24.6-1.56-.33-4.61-1.02-6.67-1.82-.33-.13-.6.28-.35.53.36.36.76.76 1.16 1.12.26.24.01.66-.32.55-1.21-.42-2.71-1.01-3.28-1.49.22.31.55.78.86 1.22.2.28-.13.64-.43.47-1.06-.6-2.57-1.47-3.55-2.04-.27-.16-.58.11-.47.4l.06.15c.25.61 2.05 1.98 1.98 2.16-.07.17-7.07-2.33-8.91-2.06-1.85.27.68.73.91.82.23.1 1.6.64 1.53 1.05s-2.98-.03-3.1-.22c-.07-.1-.99-.57-1.8-.96-.3-.15-.6.2-.41.48.42.59.81 1.26.66 1.49-.29.45-3.04-2.06-3.98-2.15-.95-.09.97 1.33.97 1.8 0 .48-3.17-1.34-3.91-1.04-.4.16.56.89 1.5 1.62.31.24.01.72-.34.55-1.54-.73-3.66-1.63-4.93-1.72-.25-.02-.43.24-.32.46.07.15.11.29.06.35-.13.15-1.39-.25-1.79-.18-.24.04 1.32.76 2.59 1.46-.53-.04-1.06-.01-1.58.12-.11.03-.18.1-.21.18-2.1-.49-4.7-.96-6.2-.73-.28.04-.36.4-.15.57.19.15.51.34 1.04.57 1.61.68 2.09.92 1.17 1.1-.74.15-5.23-1.17-7.31-2.17-.29-.14-.59.19-.42.47.36.57.89 1.3 1.66 2.07l.24.24c-.32-.11-.62-.21-.9-.32-.33-.13-.6.28-.35.53.36.36.76.76 1.16 1.12.01.01.01.02.02.02-.44.06-.88.11-1.33.17-.95-.36-1.87-.77-2.29-1.13.22.31.55.78.86 1.22.02.03.03.06.04.08l-.94.12c-1.01-.57-2.24-1.28-3.08-1.78-.27-.16-.58.11-.47.4l.06.15c.15.37.84 1 1.37 1.49-.43.05-.86.11-1.3.16-2.23-.67-5.77-1.73-7.01-1.55-1.85.27.68.73.91.82s1.6.64 1.53 1.05-2.98-.03-3.1-.22c-.07-.1-.99-.57-1.8-.96-.3-.15-.6.2-.41.48.42.59.81 1.26.66 1.49-.02.03-.04.04-.08.05h-.02c-.57.07-3.01-2.12-3.89-2.2-.95-.09.97 1.33.97 1.8 0 .48-3.17-1.34-3.91-1.04-.4.16.56.89 1.5 1.62.18.14.15.36.03.49-.13.02-.27.03-.4.05-1.54-.73-3.64-1.62-4.9-1.71-.25-.02-.43.24-.32.46.07.15.11.29.06.35-.11.12-.97-.12-1.5-.18.85-1.63 1.82-3.2 2.85-4.71 3-4.38 6.53-8.41 9.23-12.98.34-.57.5-1.54-.14-1.68-8.03 5.73-16.66 12.36-18.73 21.99-.02-.01-.04-.01-.07-.02-1.35-7.76.91-15.75 4.34-22.85 3.45-7.15 8.06-13.68 11.75-20.72-13.04 8.02-20.97 23.43-20.59 38.66-.92-3.6-2.83-7.08-4.74-10.31-3.15-5.33-6.46-10.65-10.82-15.05-4.37-4.39-9.92-7.85-16.07-8.66 4.88 2.56 9.34 5.93 13.13 9.93 6.78 7.17 11.24 16.1 15.16 25.22-5.03-3.91-10.2-7.66-15.48-11.23a113.84 113.84 0 0011.52 15.5c-.16.08-.24.3-.13.47.07.1.13.21.18.33.06.13.02.26-.07.35-.14.02-.28.03-.41.05-1.13-.55-3.86-1.73-5.4-1.05-.26.12-.26.49.01.6.36.14.83.35 1.23.6.14.09.17.23.14.36l-.95.12c-1.65-.36-4.27-.98-6.1-1.69-.33-.13-.6.28-.35.53.36.36.76.76 1.16 1.12.26.24.01.66-.32.55-1.21-.42-2.71-1.01-3.28-1.49.22.31.55.78.86 1.22.2.28-.13.64-.43.47-1.06-.6-2.57-1.47-3.55-2.04-.27-.16-.58.11-.47.4l.06.15c.23.57 1.78 1.78 1.96 2.09l-.24.03c-1.28-.31-7.01-2.27-8.66-2.03-1.85.27.68.73.91.82.23.1 1.6.64 1.53 1.05s-2.98-.03-3.1-.22c-.07-.1-.99-.57-1.8-.96-.3-.15-.6.2-.41.48.42.59.81 1.26.66 1.49-.29.45-3.04-2.06-3.98-2.15-.95-.09.97 1.33.97 1.8 0 .48-3.17-1.34-3.91-1.04-.4.16.56.89 1.5 1.62.31.24.01.72-.34.55-1.54-.73-3.66-1.63-4.93-1.72-.25-.02-.43.24-.32.46.07.15.11.29.06.35-.13.15-1.39-.25-1.79-.18-.26.04 1.58.88 2.88 1.63.33.19.12.69-.25.6-2.13-.57-6.05-1.5-8.04-1.19-.28.04-.36.4-.15.57.19.15.51.34 1.04.57.98.41 1.54.66 1.62.84-.21.03-.41.05-.62.08-.85-.3-2.32-.86-3.33-1.42a.326.326 0 00-.45.43c.05.11.11.22.17.33-1.3-.41-2.64-.89-3.53-1.32a.32.32 0 00-.46.29c-.86-.22-1.75-.28-2.62-.06-.28.07-.33.46-.08.6.3.17.66.39 1 .65.28.21.06.64-.28.57h-.02c-.28-.06-.49.26-.33.5.07.1.13.21.18.33.06.14.01.27-.08.36-.13.02-.27.03-.4.05-1.13-.55-3.87-1.74-5.41-1.05-.26.12-.26.49.01.6.36.14.83.35 1.23.6.14.09.17.24.14.36l-.92.12c-1.65-.36-4.28-.98-6.12-1.7-.33-.13-.6.28-.35.53.36.36.76.76 1.16 1.12.26.24.01.66-.32.55-1.21-.42-2.71-1.01-3.28-1.49.22.31.55.78.86 1.22.2.28-.13.64-.43.47-1.06-.6-2.57-1.47-3.55-2.04-.27-.16-.58.11-.47.4l.06.15c.23.57 1.82 1.81 1.97 2.11l-.21.03c-1.2-.28-7.03-2.28-8.69-2.03-1.85.27.68.73.91.82.23.1 1.6.64 1.53 1.05s-2.98-.03-3.1-.22c-.07-.1-.99-.57-1.8-.96-.3-.15-.6.2-.41.48.42.59.81 1.26.66 1.49-.29.45-3.04-2.06-3.98-2.15-.95-.09.97 1.33.97 1.8 0 .48-3.17-1.34-3.91-1.04-.4.16.56.89 1.5 1.62.31.24.01.72-.34.55-1.54-.73-3.66-1.63-4.93-1.72-.25-.02-.43.24-.32.46.07.15.11.29.06.35-.13.15-1.39-.25-1.79-.18-.26.04 1.58.88 2.88 1.63.33.19.12.69-.25.6-2.13-.57-6.05-1.5-8.04-1.19-.28.04-.36.4-.15.57.19.15.51.34 1.04.56 1.03.44 1.6.69 1.63.86-.44.06-.87.11-1.31.17-1.6-.29-4.8-1.3-6.46-2.1-.29-.14-.59.19-.42.47.36.57.89 1.3 1.66 2.07l.2.2-2.84.36-.11-.27-.76-.21s-2.28-.58-3.54-.54c-.04 0-.07 0-.1-.01-.36-.12-2.59-.88-3.96-1.64a.326.326 0 00-.45.43c.41.85 1.03 1.99 1.69 2.72-1.09-1.06-4.78-4.32-8.13-3.48-.28.07-.33.46-.08.6.3.17.66.39 1 .65.28.21.06.64-.28.57h-.02c-.28-.06-.49.26-.33.5.07.1.13.21.18.33.12.28-.19.55-.46.42-1.12-.55-3.88-1.75-5.43-1.06-.26.12-.26.49.01.6.36.14.83.35 1.23.6.31.2.12.67-.24.6-1.56-.33-4.61-1.02-6.67-1.82-.33-.13-.6.28-.35.53.36.36.76.76 1.16 1.12.26.24.01.66-.32.55-1.21-.42-2.71-1.01-3.28-1.49.22.31.55.78.86 1.22.2.28-.13.64-.43.47-1.06-.6-2.57-1.47-3.55-2.04-.27-.16-.58.11-.47.4l.06.15c.25.61 2.05 1.98 1.98 2.16-.07.17-7.07-2.33-8.91-2.06-1.85.27.68.73.91.82.23.1 1.6.64 1.53 1.05s-2.98-.03-3.1-.22c-.07-.1-.99-.57-1.8-.96-.3-.15-.6.2-.41.48.42.59.81 1.26.66 1.49-.29.45-3.04-2.06-3.98-2.15-.95-.09.97 1.33.97 1.8 0 .48-3.17-1.34-3.91-1.04-.4.16.56.89 1.5 1.62.31.24.01.72-.34.55-1.54-.73-3.66-1.63-4.93-1.72-.25-.02-.43.24-.32.46.07.15.11.29.06.35-.13.15-1.39-.25-1.79-.18-.26.04 1.58.88 2.88 1.63.33.19.12.69-.25.6-2.13-.57-6.05-1.5-8.04-1.19-.28.04-.36.4-.15.57.19.15.51.34 1.04.57 1.61.68 2.09.92 1.17 1.1-.74.15-5.23-1.17-7.31-2.17-.29-.14-.59.19-.42.47.01.01.01.02.02.03-.34-.13-.66.23-.49.59.54 1.12 1.33 2.61 2.17 3.63h-.02c-1.55-1.57-6.27-5.88-10.45-4.87-.36.09-.41.6-.08.8.39.24.86.55 1.3.91.36.29.1.87-.34.76-.01 0-.02 0-.03-.01-.36-.09-.62.34-.41.67.09.14.18.29.24.45.16.38-.22.74-.57.55-1.45-.78-5.04-2.5-7.01-1.62-.33.15-.31.66.04.81.47.2 1.08.5 1.6.85.4.27.18.91-.28.8-2.01-.49-5.95-1.53-8.63-2.68-.42-.18-.75.36-.43.71.47.5 1 1.05 1.53 1.56.35.33.04.9-.4.73-1.57-.61-3.52-1.45-4.26-2.13.29.42.73 1.07 1.15 1.68.26.39-.14.86-.53.62-1.38-.85-3.35-2.07-4.63-2.88-.35-.22-.75.14-.59.53l.08.21c.34.84 2.7 2.75 2.61 2.98s-9.15-3.39-11.51-3.08.9 1.01 1.19 1.15c.3.14 2.07.92 2 1.47-.08.55-3.82-.14-3.99-.4-.09-.14-1.29-.8-2.34-1.36-.39-.21-.76.26-.51.64.55.82 1.08 1.73.89 2.04-.36.6-3.97-2.89-5.19-3.04-1.22-.16 1.29 1.82 1.31 2.47.02.64-4.12-1.91-5.06-1.53-.5.21.74 1.22 1.98 2.24.41.33.04.97-.42.73-2-1.04-4.75-2.33-6.38-2.49-.32-.03-.54.31-.39.62.09.2.16.39.09.47-.16.2-1.79-.38-2.31-.3-.34.05 2.06 1.24 3.75 2.3.43.27.18.94-.3.8-2.75-.84-7.82-2.24-10.37-1.88-.35.05-.45.53-.17.77.25.21.67.48 1.35.8 2.1.97 2.72 1.31 1.53 1.53-.08.02-.2.01-.35 0-.46-.19-.85-.39-1.14-.59 0 0 .17.18.43.47-2.05-.44-6.23-1.92-8.4-3.05-.38-.2-.75.24-.52.62.48.78 1.19 1.78 2.2 2.85.79.83 1.93 1.89 3.09 2.92-1.64-.42-6.89-2.11-8.45-1.86-1.84.3.69.72.92.81s1.61.62 1.54 1.03-2.98.01-3.1-.18c-.13-.19-3.04-1.5-3.04-1.5s1.79 2.08 1.5 2.54-3.06-2.02-4.01-2.1.99 1.31 1 1.79-3.19-1.3-3.92-.99c-.61.26 2.02 1.83 2.84 2.67l-.45.06c-1.56-.77-5.37-2.54-6.73-2.19 0 0 .46.62.33.77s-1.39-.23-1.79-.16c-.33.06 2.71 1.33 3.77 2.14-.29.04-.58.07-.86.11-2.21-.57-6.82-1.64-8.69-1.06 0 0-.32.38 1.3 1.04.9.37 1.45.6 1.6.77-.52.07-1.04.13-1.56.2-2.23-.44-6.71-1.89-7.21-2.6 0 0 .49 1.24 1.88 2.74-.4-.13-2.6-.85-3.96-1.58-.28-.15-.58.15-.44.43.32.64.76 1.44 1.24 2.1-.05.01-.11.01-.16.02-1.54-1.32-4.68-3.56-7.54-2.8-.28.07-.32.46-.07.6.3.16.66.38 1.01.63.28.21.07.64-.27.57h-.02c-.28-.05-.49.27-.32.5.07.1.13.21.18.33.12.28-.18.55-.45.42-1.12-.53-3.9-1.7-5.44-.99-.26.12-.25.5.02.6.36.14.84.34 1.24.58.31.19.13.67-.23.6-1.56-.31-4.62-.96-6.7-1.73-.33-.12-.59.29-.34.53.36.36.77.75 1.18 1.11.27.24.02.66-.32.55-1.22-.41-2.72-.97-3.29-1.45.23.3.56.77.88 1.21.2.28-.12.64-.42.47-1.07-.59-2.59-1.43-3.58-2a.326.326 0 00-.46.41l.06.15c.26.61 2.08 1.96 2 2.13-.07.17-7.09-2.24-8.94-1.94-1.84.3.69.72.92.81s1.61.62 1.54 1.03-2.98.01-3.1-.18c-.07-.1-1-.55-1.81-.94-.3-.14-.6.21-.4.49.42.59.82 1.25.67 1.48-.29.46-3.06-2.02-4.01-2.1s.99 1.31 1 1.79-3.19-1.3-3.92-.99c-.39.17.57.88 1.52 1.6.31.23.02.72-.33.56-1.55-.71-3.68-1.59-4.95-1.66a.325.325 0 00-.31.47c.07.15.12.29.06.35-.13.15-1.39-.23-1.79-.16-.26.05 1.6.86 2.9 1.59.33.19.13.69-.24.6-2.13-.54-6.07-1.43-8.06-1.09-.28.05-.36.4-.14.58.19.15.52.34 1.05.55 1.62.66 2.1.89 1.18 1.09-.25.05-.92-.05-1.79-.26l-.68-1.61-.85-.23s-2.53-.61-3.92-.55c-.04 0-.07 0-.11-.01-.4-.13-2.88-.94-4.4-1.75-.31-.16-.65.16-.49.48.47.93 1.16 2.17 1.89 2.97-1.23-1.17-5.34-4.7-9.03-3.73-.31.08-.36.51-.08.66.33.18.73.42 1.11.7.31.23.08.71-.3.63h-.02c-.31-.06-.54.29-.36.56.08.11.15.24.2.36.14.31-.2.61-.5.47-1.24-.59-4.31-1.88-6.02-1.1-.29.13-.28.55.02.66.4.15.93.37 1.37.65.34.21.14.74-.25.66-1.73-.34-5.11-1.06-7.41-1.91-.36-.14-.65.32-.38.59.4.4.85.83 1.3 1.23.29.26.02.73-.35.61-1.35-.45-3.01-1.08-3.64-1.6.25.34.62.85.97 1.34.22.31-.13.71-.47.52-1.18-.65-2.87-1.58-3.96-2.21-.3-.17-.64.13-.51.45l.07.17c.29.68 2.3 2.17 2.22 2.36s-7.85-2.48-9.89-2.15.76.79 1.02.9c.26.1 1.78.68 1.7 1.14-.07.46-3.29.01-3.43-.2-.08-.11-1.1-.61-2-1.04-.34-.16-.66.24-.44.54.47.65.91 1.38.75 1.64-.32.51-3.39-2.24-4.44-2.33s1.09 1.45 1.1 1.98-3.53-1.43-4.34-1.09c-.44.18.63.98 1.68 1.77.35.26.03.79-.37.61-1.71-.79-4.07-1.76-5.47-1.84a.362.362 0 00-.35.52c.08.16.13.32.07.38-.14.17-1.54-.25-1.99-.17-.29.05 1.77.95 3.21 1.76.37.21.14.77-.27.66-2.36-.6-6.71-1.58-8.91-1.21-.3.05-.4.45-.15.64.22.17.57.37 1.16.61 1.63.66 2.22.93 1.54 1.14-.79-.26-2.81-.96-4.13-1.66-.31-.16-.65.16-.49.48.06.12.12.24.19.37-1.44-.43-2.93-.95-3.92-1.41-.26-.12-.51.09-.51.33-.96-.23-1.94-.28-2.9-.03-.31.08-.36.51-.08.66.33.18.73.42 1.11.7.31.23.08.71-.3.63h-.02c-.31-.06-.54.29-.36.56.08.11.15.23.2.36.14.31-.2.61-.5.47-1.24-.59-4.31-1.88-6.02-1.1-.29.13-.28.55.02.66.4.15.93.37 1.37.65.34.21.14.74-.25.66-1.73-.34-5.11-1.06-7.41-1.91-.36-.14-.65.32-.38.59.4.4.85.83 1.3 1.23.29.26.02.73-.35.61-1.35-.45-3.01-1.08-3.64-1.6.25.34.62.85.97 1.34.22.31-.13.71-.47.52-1.18-.65-2.87-1.58-3.96-2.21-.3-.17-.64.13-.51.45l.07.17c.29.68 2.3 2.17 2.22 2.36s-7.85-2.48-9.89-2.15.76.79 1.02.9c.26.1 1.78.68 1.7 1.14s-3.29.01-3.43-.2c-.08-.11-1.1-.61-2-1.04-.34-.16-.66.24-.44.54.47.65.91 1.38.75 1.64-.32.51-3.39-2.24-4.44-2.33s1.09 1.45 1.1 1.98-3.53-1.43-4.34-1.09c-.44.18.63.98 1.68 1.77.35.26.03.79-.37.61-1.71-.79-4.07-1.76-5.47-1.84a.362.362 0 00-.35.52c.08.16.13.32.07.38-.14.17-1.54-.25-1.99-.17-.29.05 1.77.95 3.21 1.76.37.21.14.77-.27.66-2.36-.6-6.71-1.58-8.91-1.21-.3.05-.4.45-.15.64.21.17.57.37 1.16.61 1.8.73 2.33.98 1.3 1.2-.82.18-5.8-1.22-8.11-2.29-.32-.15-.65.22-.45.52.4.62 1 1.42 1.87 2.26.16.16.34.32.53.5-.71-.16-2.78-.6-4.04-.55-.04 0-.08 0-.12-.02-.44-.14-3.14-1.02-4.81-1.91-.34-.18-.7.18-.53.52.51 1.01 1.27 2.37 2.07 3.25-1.35-1.28-5.83-5.13-9.86-4.07-.34.09-.39.55-.08.72.36.2.8.46 1.22.77.34.25.08.77-.33.69-.01 0-.02 0-.03-.01a.392.392 0 00-.39.61c.08.12.16.26.22.39.15.33-.22.67-.55.51-1.36-.65-4.71-2.06-6.57-1.2-.32.15-.3.6.02.72.44.17 1.01.41 1.49.7.38.23.16.81-.28.72-1.89-.37-5.58-1.15-8.08-2.09-.4-.15-.71.35-.41.65.44.43.93.9 1.42 1.34.32.28.02.8-.38.67-1.47-.49-3.29-1.17-3.98-1.75.27.37.68.93 1.06 1.46.24.34-.14.77-.51.57-1.29-.71-3.13-1.73-4.32-2.41-.33-.19-.7.15-.56.49l.08.18c.31.74 2.51 2.36 2.42 2.57s-8.57-2.71-10.79-2.35c-2.23.36.83.87 1.11.98s1.94.75 1.86 1.25-3.59.01-3.75-.22c-.08-.12-1.2-.67-2.18-1.13-.37-.17-.72.26-.48.59.51.71.99 1.51.81 1.79-.35.55-3.7-2.44-4.84-2.54s1.19 1.59 1.2 2.16c.01.58-3.85-1.56-4.74-1.19-.48.2.69 1.07 1.83 1.93.38.28.03.87-.4.67-1.87-.86-4.44-1.92-5.98-2-.3-.02-.51.29-.38.56.09.18.14.35.08.42-.16.18-1.68-.28-2.17-.19-.32.06 1.93 1.03 3.5 1.92.4.23.15.84-.29.72-2.57-.66-7.33-1.72-9.73-1.32-.33.06-.43.49-.17.7.23.18.62.41 1.26.67 1.96.8 2.54 1.07 1.42 1.31-.89.19-6.34-1.33-8.86-2.5-.35-.16-.71.24-.49.57.15.23.33.49.53.76-.53-.22-1.06-.46-1.5-.7-.34-.18-.7.18-.53.52.51 1.01 1.27 2.37 2.07 3.25-1.35-1.28-5.83-5.13-9.86-4.07-.34.09-.39.55-.08.72.36.2.8.46 1.22.77.34.25.08.77-.33.69h-.03a.392.392 0 00-.39.61c.08.12.16.26.22.39.15.33-.22.67-.55.51-1.36-.65-4.71-2.06-6.57-1.2-.32.15-.3.6.02.72.44.17 1.01.41 1.49.7.38.23.16.81-.28.72-1.89-.37-5.58-1.15-8.08-2.09-.4-.15-.71.35-.41.65.44.43.93.9 1.42 1.34.32.28.02.8-.38.67-1.47-.49-3.29-1.17-3.98-1.75.27.37.68.93 1.06 1.46.24.34-.14.77-.51.57-1.29-.71-3.13-1.73-4.32-2.41-.33-.19-.7.15-.56.49l.08.18c.31.74 2.51 2.36 2.42 2.57s-8.57-2.71-10.79-2.35c-2.23.36.83.87 1.11.98s1.94.75 1.86 1.25-3.59.01-3.75-.22c-.08-.12-1.2-.67-2.18-1.13-.37-.17-.72.26-.48.59.51.71.99 1.51.81 1.79-.35.55-3.7-2.44-4.84-2.54s1.19 1.59 1.2 2.16c.01.58-3.85-1.56-4.74-1.19-.48.2.69 1.07 1.83 1.93.38.28.03.87-.4.67-1.87-.86-4.44-1.92-5.98-2-.3-.02-.51.29-.38.56.09.18.14.35.08.42-.16.18-1.68-.28-2.17-.19-.32.06 1.93 1.03 3.5 1.92.4.23.15.84-.29.72-2.58-.66-7.33-1.72-9.73-1.32-.33.06-.43.49-.17.69.23.18.62.41 1.26.67 1.78.72 2.42 1.02 1.68 1.25-.86-.28-3.07-1.05-4.51-1.81-.34-.18-.7.18-.53.52.06.13.13.26.2.4-1.57-.47-3.2-1.04-4.28-1.54-.28-.13-.55.1-.55.36-1.04-.25-2.12-.31-3.16-.03-.34.09-.39.55-.08.72.36.2.8.46 1.22.77.34.25.09.77-.33.69h-.03a.392.392 0 00-.39.61c.08.12.16.26.22.39.15.33-.22.67-.55.51-1.36-.65-4.71-2.06-6.57-1.2-.32.15-.3.6.02.72.44.17 1.01.41 1.49.7.38.23.16.81-.28.72-1.89-.37-5.58-1.15-8.08-2.09-.4-.15-.71.35-.41.65.44.43.93.9 1.42 1.34.32.28.02.8-.38.67-1.47-.49-3.29-1.17-3.98-1.75.27.37.68.93 1.06 1.46.24.34-.14.77-.51.57-1.29-.71-3.13-1.73-4.32-2.41-.33-.19-.7.15-.56.49l.08.18c.31.74 2.51 2.36 2.42 2.57s-8.57-2.71-10.79-2.35c-2.23.36.83.87 1.11.98s1.94.75 1.86 1.25-3.59.01-3.75-.22c-.08-.12-1.2-.67-2.18-1.13-.37-.17-.72.26-.48.59.51.71.99 1.51.81 1.79-.35.55-3.7-2.44-4.84-2.54s1.19 1.59 1.2 2.16c.01.58-3.85-1.56-4.74-1.19-.48.2.69 1.07 1.83 1.93.38.28.03.87-.4.67-1.87-.86-4.44-1.92-5.98-2-.3-.02-.51.29-.38.56.09.18.14.35.08.42-.16.18-1.68-.28-2.17-.19-.32.06 1.93 1.03 3.5 1.92.4.23.15.84-.29.72-2.57-.66-7.33-1.72-9.73-1.32-.33.06-.43.49-.17.7.23.18.62.41 1.26.67 1.68.68 2.34.98 1.8 1.21-.12-.07-.22-.14-.3-.21.06.08.12.16.19.25-.07.02-.16.04-.26.07-.39.08-1.66-.16-3.17-.56-.06-.03-.12-.07-.17-.1-.1-.06-.2-.06-.28-.03-1.84-.51-3.93-1.21-5.24-1.82-.35-.16-.71.24-.49.57.44.68 1.1 1.55 2.04 2.47.1.1.2.19.31.3-1.79-.45-3.52-.81-4.33-.67-2.01.33.75.78 1 .89.09.03.32.12.58.24l-.74.05s-1.05.09-2.14.29c-.38-.2-.9-.44-1.38-.67-.33-.16-.65.23-.44.53.12.16.23.33.33.49-.07.02-.15.05-.22.07-.04.01-.07.02-.11.02-.17 0-.69.01-1.36-.01-.88-.59-1.8-1.21-2.29-1.25-.68-.06 0 .58.55 1.18-.55-.04-1.09-.09-1.56-.17a.35.35 0 00-.39.24c-.76-.28-1.49-.49-1.8-.36-.43.18.62.97 1.66 1.74.05.04.08.08.1.12-.86-.24-1.82-.44-2.79-.5-1.14-.43-2.27-.78-3.07-.82a.355.355 0 00-.34.51c.08.16.13.31.07.38-.14.16-1.52-.25-1.96-.17-.18.03.57.4 1.51.87-.07.04-.13.08-.2.12-.26.17-.18.59.13.64.37.06.82.16 1.26.31.22.07.27.28.21.45-2.33-.59-6.62-1.56-8.79-1.19-.3.05-.39.44-.15.63.21.17.56.37 1.14.6 1.77.72 2.3.97 1.29 1.19-.81.17-5.73-1.21-8.01-2.26-.32-.15-.64.22-.45.51.4.61.99 1.4 1.84 2.23.82.8 2.11 1.88 3.31 2.84-.87.05-1.73.07-2.5.04-.38-.01-.51.5-.17.67.49.24 1.05.51 1.59.74.35.15.25.68-.14.68-1.4 0-3.15-.06-3.9-.36.34.24.84.6 1.32.95.3.22.1.7-.27.63-1.31-.24-3.17-.58-4.38-.83-.33-.07-.56.33-.34.58l.12.13c.47.54 2.81 1.3 2.8 1.51-.01.2-8.1.14-9.91 1.08s.96.5 1.23.52 1.87.08 1.94.53-3.08 1.03-3.27.89c-.11-.08-1.22-.23-2.19-.34-.36-.04-.55.43-.25.64.64.46 1.27 1 1.2 1.3-.14.57-3.85-1.03-4.86-.78-1.01.24 1.47 1.01 1.64 1.5s-3.74-.24-4.39.34c-.35.31.89.72 2.11 1.12.4.13.27.73-.16.69-1.84-.2-4.35-.37-5.68 0-.26.07-.36.4-.17.59.12.12.22.25.18.34-.08.2-1.52.25-1.91.46-.25.14 1.94.33 3.54.64.41.08.37.67-.05.7-2.39.17-6.76.62-8.7 1.66-.27.14-.23.54.05.64.25.09.65.17 1.27.21 1.9.12 2.48.19 1.59.71-.71.42-5.8.67-8.29.39-.35-.04-.54.41-.26.63.57.45 1.38 1.01 2.44 1.53.82.4 1.97.86 3.12 1.3-.44.58-.8 1.15-1.05 1.72 1.19 1.34 2.33 2.64 2.67 2.32.32-.3-.03-1.48-.45-2.55-.2-.5.4-.93.81-.59 1.1.91 2.36 1.97 2.43 2.15.12.34 4.47 2.11 4.73 1.5.27-.61-1.65-1.96-1.97-2.2-.19-.14-1.56-.76-2.06-1.2l.83-.42c.04 0 .08.01.12.01 2.98.27 12.89 6.75 13.07 6.51s-2.1-3.03-2.26-4.08l-.04-.26c-.07-.49.52-.79.88-.45 1.3 1.26 3.32 3.16 4.74 4.49.4.38 1.04-.05.84-.57-.31-.8-.65-1.65-.87-2.21.69.96 2.8 2.43 4.53 3.53.48.31 1.03-.26.71-.73-.49-.72-.97-1.48-1.38-2.17-.29-.48.28-1.01.74-.69 2.9 2.01 7.38 4.21 9.68 5.3.53.25 1-.42.59-.83-.52-.54-1.17-1.03-1.68-1.39a.514.514 0 01.21-.93c2.68-.48 6.51 2.41 8.04 3.67.37.31.95 0 .87-.47-.03-.2-.09-.39-.16-.58a.52.52 0 01.7-.65c.01 0 .02.01.03.01.5.24 1-.35.65-.77-.43-.53-.91-1-1.31-1.37-.34-.31-.12-.89.34-.89 5.52-.05 10 6.34 11.31 8.41-.74-1.38-1.26-3.36-1.58-4.82-.11-.49.48-.83.86-.49 1.84 1.68 5.02 3.69 5.54 4.01.05.03.1.05.15.06.87.18 1.99.62 2.97 1.05-.03-.07-.05-.15-.07-.21-.16-.49.42-.89.82-.56.98.8 2.39 1.76 3.87 2.69l3.64-9.06a9.978 9.978 0 019.26-6.26h8.44l12.89 5.7 1.96 6.9h8.49l9.19 5.7 1.51 3.62c.85.65 1.86 1.33 2.76 1.9.3.19.62.04.75-.21-.76-1.05-1.45-2.07-1.96-2.9-.91-1.48-1.46-2.81-1.8-3.82-.16-.49.42-.89.82-.56 2.85 2.32 9.33 6.04 10.54 6.09.17.01.3 0 .42 0 .03-.01.06-.03.1-.03.05-.01.11-.01.16-.02.47-.18-.31-.79-2.07-2.09-.73-.54-1.16-.95-1.4-1.26-.27-.35 0-.87.44-.83 3.21.26 8.96 3.17 12.05 4.85.17.09.34.08.48.02-.29-.31-.57-.59-.83-.83-.27-.25-.18-.65.09-.82-1.59-1.43-3.34-2.82-2.99-2.79.65.04 2.46 1.13 2.72.95.11-.07.09-.31.04-.56-.08-.39.29-.72.67-.6 1.94.61 4.89 2.8 7.01 4.51.48.39 1.13-.24.74-.73-1.19-1.47-2.39-2.96-1.72-3.06 1.26-.19 5.51 3.8 5.68 3.06.18-.74-2.26-3.65-.83-3.15s4.75 5.41 5.37 4.82c.32-.3-.03-1.48-.45-2.55-.2-.5.4-.93.81-.59 1.1.91 2.36 1.97 2.43 2.15.12.34 4.47 2.11 4.73 1.5.27-.61-1.65-1.96-1.97-2.2s-4.08-1.88-1.1-1.61 12.89 6.75 13.07 6.51-2.1-3.03-2.26-4.08l-.04-.26c-.07-.49.52-.79.88-.45 1.3 1.26 3.32 3.16 4.74 4.49.4.38 1.04-.05.84-.56-.23-.58-.46-1.19-.66-1.69l-6.02-5.29-7.06-11.72-.75 1.13c-1.03 1.56-3.23 1.96-4.63.74-1.32-1.15-1.2-2.92.16-2.35 2.11.89 3.88-.77 3.88-.77-1.66-3.48-9.93-10.01-9.93-10.01s-2.12 4.42-5.61 4.06c-3.49-.37-3.99-5.03-1.38-4.79s5-1.03 5-1.03l-6.11-5.55.6-.96 4.75 2.96s-1.85-9.33 1.42-7.41c3.27 1.93.42 9.4.42 9.4 4.35 2.92 11.41 11.56 11.41 11.56s-4.67-9.92.12-9.07 2.31 12.66 2.31 12.66l10.94 13.19 11.58 5.39c-2.86-2.47-4.47-9.19-4.47-9.19.87 1.56 2.62 3.6 4.41 5.47 1.12 1.17 2.24 2.26 3.18 3.14.34.03.69.1 1.04.2-.68-1.42-1.05-3-1.05-3 1.78 2.38 4.45 4.28 7.87 6.21.01-.06.01-.11 0-.18-.03-.2-.09-.39-.16-.58a.52.52 0 01.7-.65c.01 0 .02.01.03.01.5.24 1-.35.65-.77-.43-.53-.91-1-1.31-1.37-.34-.31-.12-.89.35-.89 5.52-.05 10 6.34 11.31 8.41-.74-1.38-1.26-3.36-1.58-4.82-.11-.49.48-.83.86-.49 1.84 1.68 5.02 3.69 5.54 4.01.05.03.1.05.15.06.46.1.99.27 1.54.47-.58-.8-1.11-1.58-1.49-2.2-.68-1.11-1.1-2.11-1.35-2.87-.12-.37.32-.67.62-.42 2.14 1.74 7.01 4.54 7.92 4.57 1.14.04.65-.36-1.05-1.61-.55-.41-.87-.72-1.05-.95-.2-.26 0-.65.33-.63 2.42.2 6.74 2.38 9.06 3.65.4.22.79-.31.46-.62-1.3-1.24-3.22-2.73-2.9-2.71.49.03 1.85.85 2.04.71.08-.06.07-.23.03-.42-.06-.29.22-.54.5-.45 1.46.46 3.68 2.11 5.27 3.39.36.29.85-.18.55-.55-.89-1.11-1.8-2.22-1.29-2.3.95-.14 4.14 2.86 4.27 2.3s-1.7-2.74-.62-2.37 3.57 4.07 4.04 3.62c.24-.23-.02-1.11-.34-1.92-.15-.37.3-.7.61-.44.83.68 1.77 1.48 1.82 1.62.09.25 3.36 1.58 3.56 1.13.2-.46-1.24-1.47-1.48-1.65s-3.06-1.41-.83-1.21c2.24.2 9.69 5.08 9.83 4.9.13-.18-1.58-2.28-1.7-3.06l-.03-.19c-.06-.37.39-.6.66-.34.98.94 2.5 2.37 3.57 3.37.3.28.78-.04.63-.42-.23-.6-.49-1.24-.66-1.66.52.72 2.1 1.82 3.4 2.65.36.23.77-.2.53-.55-.37-.54-.73-1.11-1.04-1.63-.22-.36.21-.76.56-.52 2.18 1.51 5.55 3.17 7.28 3.98.4.19.75-.31.45-.63-.39-.4-.88-.78-1.26-1.04a.39.39 0 01.16-.7c2.01-.36 4.9 1.81 6.04 2.76.28.23.71 0 .65-.36-.02-.15-.07-.3-.12-.43-.12-.32.22-.63.53-.49.01 0 .02.01.02.01.38.18.75-.26.49-.58-.32-.4-.68-.75-.98-1.03-.25-.24-.09-.67.26-.67 3.06-.03 5.7 2.58 7.27 4.58.22.14.45.27.67.4-.27-.78-.48-1.6-.62-2.28-.08-.37.36-.62.64-.37.5.46 1.14.95 1.77 1.4.07-.06.17-.1.28-.1 2.42.2 6.74 2.38 9.06 3.65.4.22.79-.31.46-.62-1.3-1.24-3.22-2.73-2.9-2.71.49.03 1.85.85 2.04.71.08-.06.07-.23.03-.42-.06-.29.22-.54.5-.45 1.46.46 3.68 2.1 5.27 3.39.36.29.85-.18.55-.54-.89-1.11-1.8-2.22-1.29-2.3.95-.14 4.14 2.86 4.27 2.3s-1.7-2.74-.62-2.37 3.57 4.07 4.04 3.62c.24-.23-.02-1.11-.34-1.92-.15-.37.3-.7.61-.44.83.68 1.77 1.48 1.82 1.62.09.25 3.36 1.58 3.56 1.13.2-.46-1.24-1.47-1.48-1.65s-3.06-1.41-.83-1.21c2.24.2 9.69 5.08 9.83 4.9.13-.18-1.58-2.28-1.7-3.06l-.03-.19c-.06-.37.39-.6.66-.34.98.94 2.5 2.37 3.57 3.37.3.28.78-.04.63-.42-.23-.6-.49-1.24-.66-1.66.52.72 2.1 1.82 3.4 2.66.36.23.77-.2.53-.55-.37-.54-.73-1.11-1.04-1.63-.22-.36.21-.76.56-.52 2.18 1.51 5.55 3.17 7.28 3.98.4.19.75-.31.45-.63-.39-.4-.88-.78-1.26-1.04-.28-.2-.19-.64.16-.7 2.01-.36 4.9 1.81 6.04 2.76.28.23.71 0 .65-.36-.02-.15-.07-.3-.12-.43-.12-.32.22-.63.53-.49.01 0 .02.01.02.01.38.18.75-.26.48-.58-.32-.39-.68-.75-.98-1.03-.25-.24-.09-.67.26-.67 4.16-.04 7.54 4.79 8.51 6.33-.56-1.04-.96-2.53-1.2-3.63-.08-.37.36-.62.64-.37 0 0 4.77 6.56 7.7 9.45.74.39 1.22.78 1.42 1.17.74 1.44-2.34 2.86-10.02 4.27-23.27 4.26-18.35 10.43.74 16.8-.08-.1-.09-.16 0-.15.53.04 1.65.61 2.49.96.29.09.58.18.88.27.05 0 .09-.01.11-.02.14-.09.12-.4.05-.72-.11-.5.37-.92.86-.76 1.69.53 3.98 2 6.13 3.58 1.14.31 2.31.62 3.51.94-1.43-1.77-2.75-3.47-1.94-3.59 1.61-.24 7.04 4.86 7.27 3.92s-2.89-4.66-1.06-4.03c1.83.64 6.07 6.92 6.87 6.16.41-.39-.04-1.89-.58-3.26-.25-.64.51-1.19 1.04-.75 1.41 1.16 3.02 2.52 3.1 2.76.16.43 5.71 2.69 6.05 1.92.34-.78-2.11-2.5-2.53-2.81-.41-.3-5.21-2.41-1.41-2.06 3.8.34 16.49 8.64 16.72 8.33s-2.68-3.88-2.88-5.21l-.05-.33c-.09-.63.67-1.02 1.12-.57 1.66 1.61 4.25 4.03 6.07 5.74.52.48 1.33-.07 1.07-.72-.4-1.03-.83-2.12-1.12-2.83.89 1.23 3.58 3.1 5.79 4.52.61.39 1.31-.33.91-.93a60.53 60.53 0 01-1.77-2.78c-.37-.61.36-1.29.95-.88 3.71 2.57 9.44 5.39 12.38 6.78.67.32 1.28-.53.76-1.07-.67-.69-1.5-1.32-2.15-1.77a.66.66 0 01.27-1.19c3.42-.62 8.33 3.08 10.28 4.7.48.39 1.21 0 1.11-.61-.04-.25-.12-.5-.2-.74-.2-.55.37-1.08.9-.83.01.01.03.01.04.02.64.3 1.27-.44.83-.99a19.25 19.25 0 00-1.67-1.76c-.43-.4-.15-1.14.44-1.14 7.06-.06 12.79 8.1 14.46 10.75-.94-1.76-1.61-4.29-2.02-6.16-.14-.63.62-1.06 1.1-.63 2.35 2.15 6.42 4.72 7.08 5.13.06.04.12.06.19.08.64.14 1.4.38 2.16.67-1.15-1.58-2.23-3.14-2.99-4.37-1.16-1.9-1.87-3.59-2.3-4.88-.21-.62.54-1.14 1.05-.72 3.64 2.96 11.93 7.72 13.47 7.78 1.93.07 1.1-.62-1.78-2.74-.94-.69-1.48-1.22-1.79-1.61-.35-.45 0-1.11.57-1.06 4.11.34 11.46 4.06 15.4 6.2.68.37 1.34-.52.78-1.06-2.21-2.11-5.48-4.64-4.94-4.6.83.06 3.14 1.44 3.48 1.21.14-.09.12-.4.05-.72-.11-.5.37-.92.86-.76 2.48.78 6.26 3.58 8.96 5.76.62.5 1.44-.31.94-.93-1.52-1.88-3.06-3.78-2.19-3.91 1.61-.24 7.04 4.86 7.27 3.92.22-.94-2.89-4.66-1.06-4.03 1.83.64 6.07 6.92 6.87 6.16.41-.39-.04-1.89-.58-3.26-.25-.64.51-1.19 1.04-.75 1.41 1.16 3.02 2.52 3.1 2.76.16.43 5.71 2.69 6.05 1.92.34-.78-2.11-2.5-2.53-2.81-.41-.3-5.21-2.41-1.41-2.06 3.8.34 16.49 8.64 16.72 8.33s-2.68-3.88-2.88-5.21l-.05-.33c-.09-.63.67-1.02 1.12-.57 1.66 1.61 4.25 4.03 6.07 5.74.52.48 1.33-.07 1.07-.72-.4-1.03-.83-2.12-1.12-2.83.89 1.23 3.58 3.1 5.79 4.52.61.39 1.31-.33.91-.93a60.53 60.53 0 01-1.77-2.78c-.37-.61.36-1.29.95-.88 3.71 2.57 9.44 5.39 12.38 6.78.67.32 1.28-.53.76-1.07-.67-.68-1.5-1.32-2.15-1.77a.66.66 0 01.27-1.19c3.42-.62 8.33 3.08 10.28 4.7.48.39 1.21 0 1.11-.61-.04-.25-.12-.5-.2-.74-.2-.55.37-1.08.9-.83.01.01.03.01.04.02.64.3 1.27-.44.83-.99a19.25 19.25 0 00-1.67-1.76c-.43-.4-.15-1.14.44-1.14 6.45-.05 11.79 6.75 13.93 9.94.05 0 .1.01.14.01-.74-1.67-1.29-3.77-1.64-5.37-.14-.63.62-1.06 1.1-.63 2.35 2.15 6.42 4.72 7.08 5.13.05.03.1.05.16.07-8.16-9.15-13.81-20.57-15.86-32.66 11.75 8.92 21.9 19.94 29.82 32.38a113.79 113.79 0 01-2.87-33.11c.29-4.73 1.07-9.86 4.5-13.12 10.59 13.64 10.81 32.39 10.57 49.66 8.09-2.9 16.44-5.07 24.92-6.47-2.6 3.99-5.72 7.63-9.26 10.82 59.7 11.21 95.77 29.89 74.72 36.46-7.61 2.37-8.63 6.89-2.85 12.31-.48-1.3-1.48-3.53-1.43-4.44l.02-.32c.04-.6.82-.81 1.15-.31 1.23 1.82 3.16 4.58 4.52 6.52.38.55 1.25.2 1.14-.46-.17-1.03-.35-2.13-.48-2.85-.08-.18-.13-.35-.15-.49-.06-.61.01-.27.15.49.58 1.32 2.72 3.58 4.49 5.33.49.48 1.29-.05 1.03-.69-.4-.98-.78-2-1.1-2.93-.22-.64.59-1.13 1.06-.63 2.95 3.12 7.72 6.86 10.18 8.73.56.43 1.29-.25.91-.84-.48-.77-1.14-1.52-1.65-2.07a.631.631 0 01.48-1.06c3.3.09 7.14 4.5 8.63 6.38.36.46 1.13.24 1.15-.35.01-.24-.01-.49-.04-.72a.634.634 0 011.03-.58c.53.41 1.27-.16.96-.76-.38-.73-.83-1.42-1.21-1.96-.32-.46.08-1.09.63-.98 6.57 1.33 10.3 10.04 11.33 12.82-.53-1.82-.66-4.31-.67-6.12 0-.61.78-.87 1.14-.37 1.77 2.46 5.05 5.64 5.58 6.15.05.05.1.08.16.11 1.57.69 3.74 2.31 4.92 3.23-.91-1.27-1.74-2.49-2.35-3.48-1.1-1.8-1.78-3.41-2.19-4.64-.2-.59.51-1.08 1-.68 3.46 2.81 11.33 7.33 12.8 7.39 1.84.07 1.04-.59-1.69-2.6-.89-.66-1.41-1.16-1.7-1.53-.33-.43 0-1.06.54-1.01 3.9.32 10.88 3.85 14.63 5.89.65.35 1.27-.5.74-1.01-2.1-2-5.21-4.41-4.69-4.37.79.05 2.99 1.37 3.3 1.15.13-.09.11-.38.05-.68-.1-.47.35-.87.82-.73 2.35.74 5.94 3.4 8.51 5.47.59.48 1.37-.29.89-.88-1.44-1.79-2.91-3.59-2.08-3.72 1.53-.23 6.69 4.62 6.9 3.72s-2.75-4.43-1.01-3.83 5.77 6.57 6.53 5.85c.39-.37-.04-1.8-.55-3.1-.24-.6.49-1.13.99-.72 1.34 1.1 2.87 2.39 2.95 2.62.15.41 5.43 2.56 5.75 1.82s-2.01-2.38-2.4-2.67-4.95-2.29-1.34-1.96c3.61.32 15.66 8.2 15.88 7.91s-2.55-3.68-2.74-4.95l-.05-.31c-.09-.6.63-.96 1.07-.55 1.58 1.53 4.03 3.83 5.76 5.45.49.46 1.26-.06 1.02-.69-.38-.97-.79-2.01-1.06-2.69-.12-.16-.2-.32-.25-.45-.19-.58-.04-.26.25.45.84 1.17 3.4 2.95 5.5 4.29.58.37 1.25-.32.86-.88-.6-.87-1.17-1.8-1.68-2.64-.35-.58.34-1.22.9-.84 3.53 2.44 8.97 5.12 11.76 6.44.64.3 1.21-.51.72-1.01-.63-.65-1.43-1.25-2.04-1.68a.626.626 0 01.25-1.13c3.25-.59 7.91 2.93 9.76 4.46.45.37 1.15 0 1.06-.58-.04-.24-.11-.48-.19-.7-.19-.52.35-1.03.86-.79.01.01.03.01.04.02.61.29 1.21-.42.78-.94-.52-.64-1.1-1.22-1.59-1.67-.41-.38-.14-1.08.42-1.09 6.7-.06 12.15 7.7 13.74 10.21-.75-1.4-1.32-3.32-1.71-4.95-.31-.42-.6-.83-.85-1.2a22.454 22.454 0 01-2.41-4.53c-.23-.58.46-1.1.96-.73 3.6 2.64 11.68 6.77 13.15 6.76 1.84-.02 1.01-.64-1.82-2.51-.92-.61-1.46-1.09-1.77-1.45a.632.632 0 01.49-1.04c3.91.13 11.06 3.32 14.9 5.17.66.32 1.25-.56.69-1.04-2.2-1.9-5.42-4.15-4.9-4.14.79.02 3.05 1.22 3.35.99.12-.1.09-.38.01-.68-.12-.47.31-.89.78-.76 2.39.63 6.1 3.11 8.77 5.05.61.45 1.35-.36.85-.92-1.53-1.72-3.08-3.45-2.26-3.61 1.52-.3 6.91 4.29 7.08 3.38s-2.96-4.29-1.19-3.77 6.08 6.28 6.81 5.53c.37-.39-.13-1.79-.7-3.07-.27-.59.43-1.15.95-.76 1.39 1.04 2.98 2.25 3.07 2.47.17.4 5.54 2.29 5.83 1.54s-2.12-2.28-2.53-2.55c-.4-.27-5.06-2.04-1.43-1.89s16.04 7.43 16.25 7.13c.2-.3-2.73-3.55-2.98-4.81l-.06-.31c-.12-.59.58-.99 1.04-.6 1.65 1.45 4.22 3.63 6.02 5.16.51.43 1.26-.12.99-.74-.43-.96-.88-1.97-1.19-2.63-.13-.16-.22-.31-.27-.44-.22-.57-.06-.26.27.44.9 1.13 3.54 2.78 5.7 4.02.6.34 1.23-.38.82-.92-.64-.84-1.26-1.74-1.8-2.55-.38-.56.28-1.24.86-.88 2.28 1.42 5.32 2.9 7.97 4.09l.45-330.18h.02c0-.01-.01-.01-.02 0zm-654.51 82.34c-.21.03-.43.06-.64.08l-.39-.93c.34.29.69.57 1.03.85zm-213.83 25.96c-.01.04-.04.08-.1.11l-.77-.88c.45.22.91.52.87.77zm480.01 129.23c-.14-.44-.03-.2.19.34-.09-.12-.16-.24-.19-.34zm208.34-216.02c-.6.07-1.19.15-1.79.22-.47-.11-.96-.22-1.47-.33.2-.44.41-.87.63-1.3.49.3 1.69.87 2.63 1.41z"/><path class="st1" d="M1337.2 482.78c.04.06.1.13.18.2-.23-.33-.35-.47-.18-.2zm-37 341.1l.02.13c5.64.29 11.41.54 17.32.74l-17.34-.87zM-.34 600.6c-.03-.01-.07-.01-.1-.02v25.4l.1 257.12V600.6zm664.14 61.91v.02c.59.05 1.19.11 1.78.16l-1.78-.18zm701.8 219.46v-54.79h-.1z"/><linearGradient id="b" x1="102.96" x2="111.7" y1="47.165" y2="217.07" gradientUnits="userSpaceOnUse"><stop stop-color="#030C1A" offset="0"/><stop stop-color="#0B182B" offset="1"/></linearGradient><path d="M86.14 335.89s57.96 41.23 70.62 100.61c3.36 15.77 5.79 29.72 7.53 41.71l1.79-.69 40.53-20.74c.49-.25 1.01-.4 1.54-.46l.36-.03h.24c.1 0 .21.01.31.02h.03c1.14.11 2.23.66 3.01 1.6l.32.39c.17.2.27.33.27.33 3.48 2.91 7.84 2.91 8.23 2.9.89-.18 1.77-.5 2.6-.98l2.53-1.47c-.87-1.2-1.75-2.4-2.65-3.6-19.21-25.54-25.95-58.65-43.59-85.3-21.32-32.21-53.98-57.97-65.24-94.92-11.55-37.9 2.16-79.17-4.34-118.26-8.51-51.24-46.7-104.56-56.01-155.66H-.45c-.82 107.69 32.6 157.47 38.57 232.7 3.47 43.76-4.86 89.02 8.1 130.97 7.91 25.63 23.32 48.26 33.47 73.09 8.6 21.02 13.32 43.3 17.92 65.61l41.92-16.03c-24.68-39.18-55.67-99.39-53.39-151.79z" fill="url(#b)"/><g class="st16"><path class="st11" d="M212.71 458.63l-.27-.33c-.52-.59-1.76-1.79-3.33-1.99h-.03c-.1-.01-.21-.02-.31-.02h-.24c-.12 0-.24.01-.36.03 0 0-8.45 8.58-2.01 8.92s14.81-3.71 14.81-3.71h-.03c-3 .6-6.18-.44-8.23-2.9z"/></g><path class="st3" d="M1056.5 520.12c.11.31.25.65.42 1.02 1.02.96 2.04 1.89 2.93 2.69.1-.14.29-.2.45-.09 1.64 1.17 3.79 4.59 4.9 6.49.19.33.69.12.59-.25-.4-1.45-1.13-3.34-.91-3.18.33.23.96 1.4 1.15 1.38.08-.01.15-.14.2-.29.08-.24.39-.29.55-.11.84.95 1.72 3.08 2.31 4.68.13.37.68.23.63-.16-.16-1.18-.33-2.37.06-2.2.74.3 1.73 3.82 2.06 3.48s-.04-2.7.57-1.97.8 4.45 1.33 4.33c.27-.06.46-.81.58-1.52.06-.33.51-.37.63-.06.3.84.63 1.82.61 1.94-.04.22 1.72 2.57 2.06 2.33s-.26-1.59-.35-1.82c-.1-.23-1.58-2.32-.07-1.23 1.51 1.1 4.74 7.79 4.92 7.71.17-.07-.15-2.31.1-2.92l.06-.15c.12-.29.53-.26.61.04.29 1.1.77 2.77 1.1 3.95.09.33.57.31.63-.04.09-.53.19-1.1.24-1.48-.01-.1-.01-.19.01-.27.07-.31.05-.13-.01.27.06.74.72 2.21 1.29 3.36.16.32.64.19.61-.16-.03-.55-.04-1.11-.04-1.62 0-.35.48-.45.62-.13.91 2.02 2.6 4.65 3.49 5.97.2.3.67.1.59-.26-.11-.46-.3-.93-.46-1.29-.12-.26.14-.54.41-.44 1.59.6 2.72 3.39 3.13 4.56.1.29.51.3.62.02.05-.12.08-.24.1-.36.06-.28.43-.36.59-.12 0 .01.01.01.01.02.19.29.65.13.6-.21-.06-.42-.16-.83-.26-1.16-.08-.28.22-.52.47-.37 2.17 1.27 2.94 4.22 3.22 6.32.13.09.27.18.4.26.13-.54.3-1.08.45-1.52.1-.3.53-.29.62.01.04.13.08.26.13.4.08.02.15.06.21.15.61 1.01 1.7 2.45 2.72 3.65.81.52 1.62 1.04 2.42 1.55-.15-.25-.35-.55-.6-.92-.32-.48-.48-.81-.56-1.04-.09-.27.18-.51.44-.4 1.83.84 4.6 3.78 6.06 5.42.25.28.7-.02.54-.36-.67-1.34-1.75-3.06-1.51-2.95.37.16 1.21 1.19 1.4 1.14.08-.02.12-.16.14-.32.03-.25.32-.36.52-.21 1.01.77 2.28 2.69 3.16 4.15.2.33.71.1.59-.27-.39-1.12-.78-2.26-.36-2.17.78.16 2.43 3.42 2.69 3.02s-.56-2.64.18-2.04 1.64 4.21 2.14 3.99c.25-.11.29-.88.27-1.61-.01-.34.43-.47.6-.18.46.77.97 1.66.97 1.79 0 .23 2.18 2.19 2.47 1.89s-.56-1.51-.7-1.72-2-1.98-.3-1.19c1.69.79 6.15 6.73 6.31 6.63s-.59-2.24-.46-2.89l.03-.16c.06-.31.47-.36.61-.08.5 1.02 1.28 2.57 1.84 3.66.16.31.62.19.61-.16-.01-.54-.03-1.12-.04-1.5a.915.915 0 01-.04-.26c.01-.32.02-.14.04.26.2.72 1.13 2.03 1.91 3.05.22.28.66.06.57-.28-.14-.53-.25-1.08-.35-1.58-.07-.34.38-.54.58-.25 1.28 1.8 3.45 4.06 4.57 5.19.26.26.68-.04.53-.37-.19-.43-.47-.86-.7-1.18-.17-.24.04-.56.32-.51 1.68.28 3.32 2.81 3.95 3.88.15.26.56.2.61-.1.02-.12.03-.25.03-.37 0-.29.35-.44.55-.24l.02.02c.24.25.66.01.54-.32-.14-.4-.32-.79-.48-1.09-.13-.26.12-.55.39-.46.52.18.98.45 1.4.79.12-.01.24.03.31.15.05.09.11.19.18.28.62.61 1.12 1.36 1.53 2.13.47.61.97 1.21 1.44 1.73.03-.32.06-.62.1-.9.04-.31.46-.39.61-.11.32.6.77 1.3 1.2 1.92-.14-.22-.31-.48-.51-.78-.32-.48-.48-.81-.56-1.04-.09-.27.18-.51.44-.4 1.83.84 4.6 3.78 6.06 5.42.25.28.7-.02.54-.36-.67-1.34-1.75-3.06-1.51-2.95.37.16 1.21 1.19 1.4 1.14.08-.02.12-.16.14-.32.03-.25.32-.36.52-.21 1.01.77 2.28 2.69 3.16 4.15.2.33.71.1.59-.27-.39-1.12-.78-2.26-.36-2.17.78.16 2.43 3.42 2.69 3.02s-.56-2.64.18-2.04 1.64 4.21 2.14 3.99c.25-.11.29-.88.27-1.61-.01-.34.43-.47.6-.18.46.77.97 1.66.97 1.79 0 .23 2.18 2.19 2.47 1.89s-.56-1.51-.7-1.72-2-1.98-.3-1.19c.65.3 3.03 2.48 5.63 4.95-.12-.14-.25-.27-.37-.41l.75.56c.17.13.41.06.5-.13l.06-.15c-.45-.57-.73-.97-.71-1.07l.03-.16c.06-.31.47-.36.61-.08.04.07.08.15.11.23l.26.37.62-1.49-.39-.69s-1.21-2.02-2.13-2.88a.156.156 0 01-.06-.08c-.17-.34-1.22-2.45-1.66-3.95-.09-.3-.52-.31-.62-.01-.31.89-.67 2.14-.72 3.12-.03-1.52-.35-6.43-3.32-8.2-.25-.15-.55.09-.47.37.09.33.19.74.25 1.16.05.34-.41.5-.6.21 0-.01-.01-.01-.01-.02-.04-.06-.09-.09-.14-.12a7.85 7.85 0 00-.64-.71.156.156 0 01-.06-.08c-.17-.34-1.22-2.45-1.66-3.95-.09-.3-.52-.31-.62-.01-.14.4-.28.86-.41 1.34-.15-.15-.32-.27-.48-.38-.3-2.07-1.08-4.82-3.15-6.04-.25-.15-.55.09-.47.37.09.33.19.74.25 1.16.05.34-.41.5-.6.21 0-.01-.01-.01-.01-.02-.13-.2-.4-.18-.53-.01-.19-.16-.53-.05-.53.25v.44a.31.31 0 01-.25-.22c-.41-1.18-1.52-3.97-3.11-4.58-.27-.1-.53.17-.41.43.16.35.35.83.45 1.29.02.1 0 .19-.05.26-.17-.6-.32-1.19-.45-1.66a.322.322 0 00-.61-.04l-.06.15c-.05.12-.08.29-.09.5-.9-1.41-2.08-3.36-2.78-4.94-.14-.32-.62-.22-.62.13 0 .45 0 .94.02 1.42-.57-.89-1.11-1.62-1.53-1.93-.04-.03-.07-.05-.1-.07-.14-.4-.23-.75-.25-1.01-.03.21-.08.49-.13.79-.26-.1-.22.12-.07.43-.02.09-.03.17-.05.26-.06.34-.54.37-.63.03-.33-1.18-.79-2.85-1.08-3.95a.322.322 0 00-.61-.04l-.06.15c-.26.61.06 2.85-.12 2.92-.06.03-.52-.83-1.15-1.98-.14-.67-.29-1.27-.5-1.52-.18-.21-.27-.16-.32.02-1-1.79-2.16-3.71-2.91-4.26-1.5-1.11-.03.99.06 1.23.07.17.42.99.45 1.48-.09.02-.13.15-.15.35-.42.07-2.05-2.13-2-2.35.02-.12-.3-1.1-.6-1.95-.11-.32-.57-.28-.63.05-.12.71-.31 1.46-.59 1.52-.05.01-.09-.01-.13-.05l-.07-.1c-.38-.7-.59-3.55-1.11-4.18-.61-.73-.25 1.62-.58 1.96s-1.31-3.18-2.05-3.49c-.39-.16-.24.98-.09 2.13-.32-.72-.65-1.55-.86-2.24-.09-.3-.52-.31-.62-.01l-.06.18c-.43-.97-.9-1.86-1.37-2.39a.345.345 0 00-.34-.1c-.49-1.13-1.21-2.15-2.27-2.77-.25-.15-.55.09-.47.37.09.33.19.74.25 1.16.05.34-.41.5-.6.21 0-.01-.01-.01-.01-.02a.317.317 0 00-.48-.06c-.82-1.15-1.69-2.21-2.46-2.8-.43-.58-.92-1.06-1.47-1.27-.27-.1-.53.17-.41.43.12.28.26.63.37.99-.32-.26-.64-.53-.95-.79-.57-1.1-1.09-2.24-1.39-3.08-.11-.3-.55-.28-.62.04-.02.08-.04.17-.06.26-.35-.64-.68-1.28-.94-1.86-.14-.32-.62-.22-.62.13 0 .49 0 1.03.03 1.56-.38-.31-.76-.62-1.14-.92-.38-.86-.7-1.72-.74-2.23-.06.37-.15.92-.24 1.44-.28-.22-.56-.45-.84-.67-.3-1.07-.64-2.33-.88-3.21a.322.322 0 00-.61-.04l-.06.15c-.14.33-.11 1.14-.08 1.82l-1.22-.95c-1.11-2.05-2.74-4.99-3.69-5.69-1.5-1.11-.03.99.06 1.23.1.23.68 1.58.34 1.82-.06.04-.17 0-.31-.1-.01-.01-.02-.01-.03-.02-.62-.47-1.75-2.04-1.71-2.22.02-.12-.3-1.1-.6-1.95-.11-.32-.57-.28-.63.05-.12.71-.31 1.45-.58 1.52-.07-.05-.13-.1-.2-.14-.39-.69-.59-3.55-1.11-4.19-.61-.73-.25 1.62-.58 1.96s-1.31-3.18-2.05-3.49c-.4-.16-.23 1.03-.08 2.2.05.39-.5.52-.63.15-.58-1.6-1.45-3.74-2.28-4.69a.324.324 0 00-.55.1c-.05.15-.12.28-.2.29-.2.01-.81-1.15-1.15-1.39-.22-.15.51 1.74.9 3.19.05.2-.07.35-.23.4-.15-.1-.3-.19-.45-.29-1.13-1.93-3.19-5.22-4.78-6.37a.326.326 0 00-.51.3c.03.24.12.6.34 1.13.56 1.36.77 1.93.36 1.77l-1.87-3.06c-.16-.09-.32-.18-.47-.27-.65-1.23-1.28-2.56-1.62-3.52-.11-.3-.55-.28-.62.04-.15.65-.28 1.55-.28 2.64 0 .18 0 .36.01.56-.57-.41-1.12-.82-1.56-1.14-.25-.19-.59.05-.51.35l.05.16c.18.64 1.83 2.19 1.74 2.36-.09.16-6.78-3.07-8.64-3-1.87.08.6.8.82.92s1.52.81 1.41 1.21-2.95-.35-3.06-.55c-.06-.11-.92-.67-1.68-1.15-.28-.18-.62.14-.46.43.35.63.67 1.34.49 1.55-.34.42-2.8-2.37-3.73-2.57-.93-.19.82 1.42.77 1.9-.05.47-3.01-1.67-3.78-1.45-.41.12.46.95 1.32 1.77.28.27-.06.72-.4.51-1.45-.89-3.46-2.02-4.72-2.24a.329.329 0 00-.37.43c.05.15.08.3.02.35-.15.13-1.36-.39-1.76-.37-.27.02 1.48 1.04 2.69 1.93.31.23.04.7-.31.57-2.05-.8-5.86-2.14-7.87-2.04-.28.01-.4.36-.21.55.17.17.47.4.97.67 1.53.85 1.98 1.13 1.04 1.22-.6.05-3.43-1.06-5.55-2.12-.35.32-.41.64-.1.93.07-.29.51-.32.62-.01z"/><path class="st15" d="M1060.2 526.79c.76.49.63.05.03-1.39l-.98.14c.4.65.75 1.12.95 1.25z"/><path class="st1" d="M47.03 711.45c.12-.12.2-.23.26-.34.22-.45.06-.21-.26.34z"/><path class="st1" d="M143.25 716.85c-3.15 1.88-10.07 4.63-11.27 4.5-1.5-.16-.77-.6 1.69-1.92.8-.43 1.28-.77 1.56-1.05.32-.31.13-.86-.32-.89-3.2-.2-9.29 1.85-12.58 3.06-.57.21-.97-.56-.48-.91 1.95-1.38 4.75-2.97 4.33-3.01-.65-.05-2.59.76-2.82.54-.09-.09-.05-.32.04-.56a.52.52 0 00-.57-.69c-2 .33-5.23 2.07-7.56 3.45-.53.32-1.07-.4-.62-.82 1.39-1.29 2.79-2.58 2.14-2.78-1.21-.37-5.98 2.97-6.05 2.21-.06-.76 2.76-3.28 1.28-3-1.49.29-5.47 4.67-6 4-.27-.35.25-1.46.82-2.46.27-.46-.26-.98-.72-.7-1.22.74-2.61 1.61-2.71 1.78-.07.14-.99.43-2.01.67.65-.69 1.25-1.36 1.72-1.92 1.11-1.34 1.85-2.57 2.33-3.52.23-.46-.29-.94-.73-.68-3.15 1.88-10.07 4.63-11.27 4.5-1.5-.16-.77-.6 1.69-1.92.8-.43 1.28-.77 1.56-1.05.32-.31.13-.86-.32-.89-3.2-.2-9.29 1.85-12.58 3.06-.57.21-.97-.56-.48-.91 1.95-1.38 4.75-2.97 4.33-3.01-.65-.05-2.59.76-2.82.54-.09-.09-.05-.32.04-.56a.52.52 0 00-.57-.69c-2 .33-5.23 2.07-7.56 3.45-.53.32-1.07-.4-.62-.82 1.39-1.29 2.79-2.58 2.14-2.78-1.21-.37-5.98 2.97-6.05 2.21-.06-.76 2.76-3.28 1.28-3-1.49.29-5.47 4.67-6 4-.27-.35.25-1.46.82-2.46.27-.46-.26-.98-.72-.7-1.22.74-2.61 1.61-2.71 1.78-.1.19-1.84.69-3.22.9-.33.01-.65.04-.98.09-.39.01-.65-.05-.69-.19-.17-.64 1.92-1.7 2.27-1.89s4.29-1.27 1.32-1.44-13.69 4.83-13.83 4.56c-.14-.26 2.51-2.7 2.82-3.71l.08-.25c.14-.47-.4-.86-.8-.57-1.46 1.06-3.73 2.64-5.33 3.76-.45.31-1.02-.2-.74-.68.43-.75.88-1.55 1.19-2.07-.82.85-3.11 2-4.98 2.84-.51.23-.97-.41-.59-.82.59-.64 1.17-1.33 1.68-1.95.35-.43-.13-1.04-.63-.79-3.15 1.57-7.89 3.11-10.31 3.85-.56.17-.92-.56-.46-.91.59-.46 1.31-.85 1.86-1.13.41-.21.37-.81-.07-.95-2.56-.87-6.77 1.44-8.45 2.48-.41.25-.93-.14-.79-.6.06-.19.15-.38.24-.55.22-.4-.16-.88-.6-.75-.01 0-.02.01-.03.01-.53.16-.93-.49-.52-.86.5-.46 1.04-.86 1.49-1.17.38-.26.25-.86-.21-.94-5.43-.84-10.78 4.83-12.37 6.69.93-1.26 1.74-3.14 2.26-4.54.18-.47-.36-.89-.77-.61-2.06 1.4-5.49 2.93-6.04 3.17a.75.75 0 01-.16.04c-2.01.13-5.53 1.38-5.53 1.38l-2.38.89.01 1.12h-.01l-.1 57.87c.51-.32-.08-1.78 1.77-3.45.37-.34.96.01.85.5-.2.88-.48 1.96-.83 2.97h.5c2.04-2.68 5.74-6.56 10.04-6.49.46.01.68.59.34.9-.4.37-.88.84-1.31 1.36-.35.43.14 1.01.64.78.01 0 .02-.01.03-.01.42-.19.85.23.7.66-.07.18-.13.38-.16.58-.08.47.49.79.86.48 1.53-1.26 5.37-4.12 8.03-3.62.45.09.58.67.2.93-.51.35-1.16.84-1.69 1.38-.41.41.06 1.08.58.84 2.3-1.07 6.78-3.25 9.68-5.24.46-.32 1.02.22.73.7-.42.69-.9 1.45-1.39 2.16-.32.46.22 1.03.7.73 1.73-1.1 3.84-2.55 4.54-3.5.24-.59.36-.85.21-.37-.04.11-.11.24-.21.37-.23.56-.57 1.41-.89 2.21-.2.51.43.95.83.57 1.43-1.32 3.46-3.21 4.76-4.46.36-.34.95-.03.87.46l-.04.26c-.16 1.04-2.46 3.82-2.28 4.06s10.11-6.18 13.07-6.43-.79 1.37-1.11 1.61c-.32.23-2.25 1.57-1.99 2.18s4.6-1.13 4.73-1.47c.07-.19 1.33-1.24 2.43-2.14.42-.34 1 .1.81.6-.43 1.07-.79 2.24-.47 2.55.62.6 3.96-4.3 5.39-4.78s-1.02 2.41-.85 3.15 4.43-3.22 5.68-3.03c.67.11-.54 1.58-1.74 3.05-.39.48.24 1.12.73.73 2.12-1.69 5.08-3.86 7.01-4.46.38-.12.75.21.66.6-.06.25-.07.49.03.56.26.18 2.07-.89 2.71-.93.42-.03-2.14 1.93-3.88 3.57-.18.17-.2.38-.13.56 4.46-1.64 7.57-4.2 6.41-6.7s-6.07-4.26-9.81-6.21c-3.41-1.78-5.91-4.43-3.58-6.4.23-.19.5-.38.82-.55.04-.02.09-.05.13-.07 1.67-1.08 5.11-3.2 6.58-3.5.06-.01.1-.03.15-.06.51-.32 3.7-2.31 5.55-3.97.37-.34.96.01.85.5-.29 1.3-.75 3-1.37 4.32.03-.01.06-.01.09-.02 1.64-2.43 5.9-7.91 11-7.83.46.01.68.59.34.9-.4.37-.88.84-1.31 1.36-.35.43.14 1.01.64.78.01 0 .02-.01.03-.01.42-.19.85.23.7.66-.07.18-.13.38-.16.58-.08.47.49.79.86.48 1.53-1.26 5.37-4.12 8.03-3.62.45.09.58.67.2.93-.51.35-1.16.84-1.69 1.38-.35.35-.06.88.35.89.06-.01.13-.02.19-.04.01-.01.03-.01.04-.02 2.3-1.07 6.78-3.25 9.68-5.24.46-.32 1.02.22.73.7-.42.69-.9 1.45-1.39 2.16-.18.25-.09.54.1.7.31-.06.62-.11.93-.17 1.66-1.07 3.56-2.4 4.21-3.3.24-.59.36-.85.21-.37-.04.11-.11.24-.21.37-.23.56-.57 1.41-.89 2.21-.07.17-.04.34.04.47l1.13-.21c1.4-1.29 3.22-2.99 4.42-4.14.36-.34.95-.03.87.46l-.04.26c-.1.61-.91 1.8-1.54 2.74.29-.05.59-.11.88-.16.57-.1 1.14-.21 1.7-.32 3.22-1.85 7.87-4.47 9.74-4.62 2.96-.25-.79 1.37-1.11 1.61-.23.17-1.28.9-1.77 1.53 1.91-.5 3.7-1.08 5.25-1.79.23-.1.44-.21.66-.32.33-.28.69-.57 1.03-.85.16-.13.35-.14.51-.08.79-.57 1.4-1.19 1.78-1.82.3-.36.61-.78.95-1.29.71-1.07 5.84-5.53 8.04-8.19 1.11-1.34 1.85-2.57 2.33-3.52.28-.39-.23-.87-.68-.61zm-41.66-92.09l10.17-.74c.49-.04.52-.73.04-.82-2.19-.38-5.76-.6-10.36.51-.64.17-.5 1.1.15 1.05zm19.63 1.21h-11.21c-.67 0-.76.97-.11 1.09 2.46.46 6.24.65 11.38-.49.36-.07.31-.6-.06-.6zm177.44 181.44h-22.9s.66-4.2 11.61-4.2 11.29 4.2 11.29 4.2zm-40.59 24.01h-22.9s.66-4.2 11.61-4.2 11.29 4.2 11.29 4.2zm131.6-215.41h-11.45s.33-2.1 5.8-2.1 5.65 2.1 5.65 2.1zm13.38 4.85H391.6s.33-2.1 5.8-2.1 5.65 2.1 5.65 2.1zm-254.18 61.62h-11.7s.34-2.15 5.93-2.15 5.77 2.15 5.77 2.15zm18.57 2.15h-11.7s.34-2.15 5.93-2.15c5.6 0 5.77 2.15 5.77 2.15zm23-5.93h-11.7s.34-2.15 5.93-2.15c5.6.01 5.77 2.15 5.77 2.15zm-10.33-3.96h-11.7s.34-2.15 5.93-2.15 5.77 2.15 5.77 2.15zm219.82-67.94h-9.43s.27-1.77 4.78-1.77 4.65 1.77 4.65 1.77zm14.97 1.77h-9.43s.27-1.77 4.78-1.77 4.65 1.77 4.65 1.77zm18.54-4.89h-9.43s.27-1.77 4.78-1.77 4.65 1.77 4.65 1.77zm-8.33-3.27h-9.43s.27-1.77 4.78-1.77 4.65 1.77 4.65 1.77zm374.64-135.67s-58.68 52.53-113.1 50.59l24.11-10.14s6.32 2.1 13.1-1.39l75.89-39.06zm121.02 50.64l14.11 4.48c2.14.68 4.49.12 6.09-1.45L953 506.64c.01 0-24.11 9.85-32.23 8.74zM225.4 459.02s-8.03 5.16-13.35-.46c0 0-1.74-5.74-12.81 1.59L164.3 478.2c4.27 19.87 3.8 51.26 3.8 51.26l-28.08-42.29-43.08 16.48s10.95 62.7 20.31 72.63l162.7 3.04c-.01-.01-17.31-78.78-54.55-120.3z"/><path class="st12" d="M174.53 630.89c.96-.29 1.96-.3 2.91-.42-1.83-3.06-4.07-6.5-6.76-10.16 10.57 4.01 25.8 8.1 45.61 9.27 1.71 1.47 3.42 2.92 5.13 4.35.49.1.92.2 1.27.32 1.84.6 3.76.9 5.69.86 3.45-.08 5.03-.41 10.76-.27 8.55.21 17.08 1.14 25.63 1.02 8.06-.11 16.25-1.21 23.57-4.53.56-.25.58-1.04.03-1.32l-.47-.25c-.77-.4-.68-1.53.13-1.82 1.21-.44 2.47-.75 3.75-.93 2.01-.29 2.81-2.75 1.33-4.14-12.51-11.74-26.41-23.65-41.7-35.19-5.12-18.94-12.83-32.93-19.52-42.41 15.15 6.97 26.85 8.95 26.85 8.95s-18.17-46.79-67.58-64.28a35.65 35.65 0 00-9.83 11.68c7.61 12.43 17.08 22.02 26.75 29.4 6.26 13.45 4.43 23.43 2.29 28.88a437.921 437.921 0 00-37.87-20.35c-8.91 5.59-15.78 13.76-19.69 23.39 8.69 11.31 17.78 21.92 27.11 31.88-5.86 2.56-17.06 5.39-33.24.75-8.45-6.54-18.51-12.46-30.37-16.7l-.19.15a33.901 33.901 0 00-9.43 11.2l-.11.21c12.85 20.82 30.87 33.73 46.29 41.55 8.18 1.29 13.78 1.29 21.66-1.09z"/><path class="st1" d="M301.74 625.5c.93 1.27.66 3.28-7.79 4.81-.11.02-.09.18.02.18 4.61-.33 16.73-1.58 8.16-5.44-.29-.13-.58.2-.39.45zm-99.68 8.77c10.52 3.57 42.94 11.95 97.09 3.18.37-.06.49.48.12.57-16.55 4.09-63.3 13.27-97.39-3.31-.27-.13-.11-.54.18-.44z"/><path class="st1" d="M208.39 642.34c7.94 2.98 29.79 9.05 66.28 3.74.3-.04.38.39.09.46-13.18 2.97-47.56 9.01-66.76-3.43-.43-.28-.09-.95.39-.77zm-68.53-6.03s48.59 3.11 45.35-3.03c0 0 9.53 9.23-45.35 3.03z"/><path class="st13" d="M188.61 492.09s6.76 1.37 11.62 5.11 7.52 5.82 11.46 6.52c3.94.69 9.34 4.16 11.7 8.04s5.55 8.83 8.87 10.03 6.79 4.46 7.76 7.68.42 5.03 4.58 8.49c4.16 3.47 7.63 5.82 7.76 8.04s6.38 8.21 6.38 8.21-9.1-24.7-34.5-45.5c0 0-16.93-13.85-33.09-18.78l-2.54 2.16zm-16.12 47.45s69.1 31.23 120.62 83.32c0 0 2.42 3.21-1.33 4.14s-10.56-8.27-12.99-10.88-7.84-3.08-12.31-4.85c-2.27-.9-9.79-8.09-13.84-13.03-4.04-4.94-17.73-7.98-21.74-13.5s-3.01-8.52-9.53-9.03c-6.52-.5-11.53-9.15-15.29-11.28s-8.27-7.77-14.42-9.15-12.29-10.03-14.54-10.53-4.63-5.21-4.63-5.21zm-56.18 39.32s36.27 10.48 61.13 51.62l-2.91.42s-5.44-2.19-5.44-5.57-.35-4.8-2.76-7.11-8.9-4.27-9.65-6.91-4.26-5.88-7.02-5.76-6.39-2.77-8.02-5.78-2.38-5.89-5.77-6.77c-3.38-.88-5.26-4.76-7.15-5.77-1.88-1-3.62-2.38-7.2-3.26-3.57-.9-5.21-5.11-5.21-5.11z"/><path class="st11" d="M208.07 531.01s12.44 7.61 23.82 14.25c2.97 1.73 7.27 11.67 7.27 11.67s-8.51-5.45-11.07-9.14c-2.57-3.7-5.96-2.46-9.55-5.24-3.59-2.77-5.53-3.69-7.54-3.59l-2.93-7.95z"/><path class="st3" d="M179.91 594.81s20.39 22.55 36.37 34.78c0 0-6.2-.19-13.01-1.25-2.08-.32-3.9-1.28-5.41-2.45-2.99-2.31-5.02-5.66-5.8-9.35-.72-3.4-2.61-8.91-7.47-11.67-7.34-4.16-4.68-10.06-4.68-10.06z"/><path class="st11" d="M200.22 493.5s-6.96 1.46-14.21 15.12l1.45 1.94s4.87-11.25 14.8-16.06l-2.04-1z"/><path class="st12" d="M196.95 495.12c.71.37 1.42.79 2.11 1.25 1-.69 2.07-1.33 3.2-1.88l-2.03-.99c-.01 0-1.27.26-3.28 1.62z"/><path class="st11" d="M113.85 600.75s2.71-12.01 15.15-16.46l2.45 1.32s-9.93 2.68-15.96 17.15l-1.64-2.01z"/><path class="st12" d="M131.62 585.61c-.03-.02-.06-.03-.08-.05l-2.37-1.27c-1.09.39-2.11.84-3.05 1.34.89.47 1.65.95 2.41 1.38 1.84-1.06 3.07-1.4 3.09-1.4z"/><path class="st11" d="M160.94 573.18s7.25-18.85 24.96-27.01l-5.53-2.89-7.88-3.74s-14.72 8.27-19.69 23.39l8.14 10.25z"/><path class="st12" d="M177.4 544.73c.93.21 2.52 1.8 4.5 3.7 1.35-.83 2.77-1.6 4.27-2.29-3.67-1.91-6.7-3.42-8.94-4.51l-4.47-2.12s2.38 4.72 4.64 5.22z"/><linearGradient id="a" x1="1047" x2="1047" y1="213.43" y2="287.03" gradientUnits="userSpaceOnUse"><stop stop-color="#030C1A" offset="0"/><stop stop-color="#384A66" offset="1"/></linearGradient><path d="M1047.7 360.89h.68l2.86-40.53a20.7 20.7 0 00-.31-5.21c-.35-1.87-.62-4.89.04-8.57 1.14-6.31 1.69-18.01 1.25-21.99-.32-2.89-.87-7.93-1.14-10.44-.11-1.01 0-2.03.32-2.99l.67-2.03c.32-.98.31-2.06-.12-3.01-.03-.07-.06-.14-.1-.21-.27-.52-.37-1.11-.34-1.7l.19-4.28c.02-.47-.02-.93-.14-1.38l-.47-1.91c-.15-.62-.17-1.27-.06-1.9l.53-2.87c.14-.76 0-1.55-.4-2.21l-.24-.4c-.58-.98-.82-2.12-.67-3.25l.17-1.33c.07-.52-.03-1.04-.27-1.5l-.65-1.22a5.307 5.307 0 01-.52-3.52l.47-2.4c.13-.67.07-1.37-.16-2.01l-.33-.88c-.33-.89-.48-1.84-.43-2.79l.23-4.61c.05-1.02-.25-2.02-.85-2.84-.64-.87-.76-2-.34-2.99.35-.81.28-1.74-.18-2.49l-.54-.87c-.36-.58-.4-1.3-.12-1.92l.66-1.43c.29-.64.29-1.37-.02-2l-1.64-3.41-4.14-.98 2.19 4.76c.36.79.26 1.72-.27 2.41-.45.58-.54 1.36-.25 2.04l1.06 2.45c.24.56.29 1.18.13 1.77l-.37 1.37c-.23.87-.07 1.8.45 2.53l.03.04c.58.81.86 1.79.81 2.79l-.15 2.91c-.07 1.32.25 2.64.9 3.79l.46.82c.37.66.36 1.46-.04 2.1a3.6 3.6 0 00-.45 2.68l1.18 5.28c.16.7.12 1.43-.1 2.11-.14.42-.14.88 0 1.3.49 1.5 1.64 5.06 1.64 5.06l-.14 3.72c-.02.45.09.9.3 1.3.56 1.04.65 2.26.27 3.37l-.12.33c-.17.5-.22 1.03-.15 1.55l.25 1.77c.05.32.05.65.01.97l-.57 4.44c-.12.95-.05 1.91.2 2.83.88 3.22 2.87 11.77 2.01 20.32l-1.79 16.29c-.15 1.36-.06 2.73.27 4.06l.23.92c.49 2 .69 4.05.58 6.11l-.38 7.24-1.03 19.65-1.05 12.99z" fill="url(#a)"/><path class="st3" d="M1045.3 230.55l1.7-4.13 1.6 3.08 1-10.07-5.1.81z"/><path d="M1043.6 180.97l-.43 6.06c-.02.33-.49.37-.57.05l-.2-.84c-.06-.26-.45-.22-.45.05v4.94c0 .29-.4.38-.52.11l-3.29-7.7c-.13-.3-.58-.16-.52.16l1.6 7.92c.06.3-.34.45-.5.2l-3.41-5.57c-.17-.28-.59-.08-.49.23l2.02 5.82c.1.29-.28.5-.47.26l-5.13-6.44c-.2-.25-.59-.01-.46.28l2.66 6.12c.12.27-.23.51-.44.3l-5.64-5.55c-.24-.23-.61.08-.41.35l4.94 6.76c.17.24-.1.54-.35.39l-.74-.43c-.28-.16-.56.2-.34.43l2.24 2.37c.21.22-.04.58-.32.44l-5.5-2.62c-.29-.14-.55.25-.3.46l4.9 4.2c.23.2.02.57-.27.48l-7.94-2.5c-.32-.1-.51.35-.22.51l5.66 3.08c.25.14.16.52-.13.52h-8.03c-.32 0-.39.45-.09.54l4.97 1.6c.3.1.23.54-.09.54h-.38c-.31 0-.39.44-.09.54l4.97 1.77c.38.13.33.69-.07.75l-5.12.77c-.45.07-.43.73.02.77l4.39.39c.39.04.49.57.13.73l-6.77 3.18c-.41.19-.21.82.24.73l7.02-1.37c.4-.08.63.44.31.69l-2.36 1.81c-.35.27-.04.83.37.67l4.95-1.9c.34-.13.62.28.39.55l-6.85 7.85c-.26.3.1.73.44.52l8.54-5.26c.3-.19.65.14.49.46l-3.09 5.87c-.19.37.31.71.58.38l4.02-4.85c.24-.28.69-.05.6.31l-1.19 4.77c-.1.39.43.61.64.26l2.28-3.91c.18-.31.65-.18.65.18l-.1 9.28c0 .4.56.49.68.11l2.3-7.24c.11-.36.64-.31.68.07l.24 2.18c.04.39.59.42.68.04l1.07-4.53c.08-.33.54-.36.66-.05l3.54 9.1c.16.42.79.27.75-.18l-.65-6.48c-.04-.4.47-.59.7-.26l1.41 1.98c.22.31.7.15.7-.22v-1.22c0-.39.51-.54.72-.21l3.78 5.95c.25.4.86.09.69-.35l-3.38-8.75c-.12-.3.25-.56.49-.34l2.77 2.49c.26.24.65-.08.47-.39l-1.82-3.04c-.17-.29.17-.6.44-.41l6.98 4.96c.3.21.65-.18.41-.45l-4.77-5.56c-.21-.25.06-.61.36-.48l7.37 3.19c.33.14.6-.31.31-.53l-7.15-5.45c-.26-.2-.07-.61.25-.55l3.67.78c.35.07.52-.4.21-.57l-4.25-2.37c-.25-.14-.14-.52.14-.51l11.57.32c.32.01.39-.44.08-.53l-12.75-3.67c-.27-.08-.26-.47.02-.53l5.44-1.06c.32-.06.28-.54-.05-.54h-.39c-.3 0-.38-.41-.1-.52l4.21-1.74c.52-.21.33-.99-.22-.95l-6.2.46c-.49.04-.72-.58-.34-.88l5.95-4.61c.44-.34.07-1.03-.46-.85l-4.22 1.43c-.5.17-.88-.46-.49-.82l.94-.88c.25-.24-.03-.64-.34-.48l-4.3 2.23c-.29.15-.57-.21-.36-.45l6.75-7.96c.22-.26-.1-.63-.39-.44l-8.76 5.67c-.26.17-.57-.12-.42-.39l4.65-8.4c.15-.27-.21-.54-.43-.32l-4.35 4.44c-.21.21-.56-.02-.44-.29l3-7.11c.13-.3-.29-.53-.47-.25l-5.35 8.19c-.48.74-1.63.33-1.54-.55l.57-5.62c.05-.47-.61-.64-.79-.2l-2.77 6.73c-.08.18-.35.14-.36-.06l-.18-4.97c-.01-.25-.36-.28-.42-.04l-.64 2.72c-.11.45-.76.43-.84-.03l-1.22-7.24c-.04-.51-.75-.48-.79.02z" fill="#ff5050"/><circle class="st3" cx="1045.9" cy="212.6" r="2.02"/><path class="st3" d="M1047.2 209.2h-2.6l-.7-13.49h4z"/><path class="st1" d="M1282.7 654.07c.04.07.11.14.2.21-.26-.35-.38-.5-.2-.21zm34.5-7.31c.05.08.12.15.22.24-.29-.4-.43-.57-.22-.24zm-74.3 19.36c.06.05.15.1.25.14-.35-.25-.52-.35-.25-.14zm130.9-4.93c.04.07.11.14.2.21-.26-.35-.38-.51-.2-.21zm-39.8 12.05c.06.05.15.1.25.14-.35-.25-.51-.36-.25-.14z"/></g></svg>