<svg width="800" height="220" viewBox="0 0 800 220" fill="none" xmlns="http://www.w3.org/2000/svg"><g clip-path="url(#clip0)" fill="#fff"><path d="M504.16 47.08c-25.51.76-45.48 22.36-45.48 47.89v58.29a2.5 2.5 0 00.729 1.761 2.5 2.5 0 001.761.729h14.13a2.5 2.5 0 001.761-.729 2.5 2.5 0 00.729-1.761V94.77c0-15 11.47-27.83 26.4-28.57A27.821 27.821 0 01533.38 94v59.29a2.491 2.491 0 002.49 2.49H550a2.491 2.491 0 002.49-2.49V94a46.992 46.992 0 00-48.33-46.92zm119.26.53a54.278 54.278 0 00-56.041 45.804 54.286 54.286 0 0039.301 60.779 54.288 54.288 0 0049.54-11.053v10.11a2.491 2.491 0 002.49 2.49h14.14a2.491 2.491 0 002.49-2.49v-50.3c-.01-29.25-22.7-54.09-51.92-55.34zM621.06 137a35.173 35.173 0 01-32.5-21.704 35.173 35.173 0 0125.625-47.96 35.17 35.17 0 0142.035 34.494A35.212 35.212 0 01621.06 137zm127.03-89.39a54.278 54.278 0 00-56.041 45.804 54.286 54.286 0 0039.301 60.779 54.288 54.288 0 0049.54-11.053v21.46c0 19.72-16.13 36.47-35.85 36.11a34.934 34.934 0 01-28-14.8 2.463 2.463 0 00-3.3-.64l-12 7.44a2.521 2.521 0 00-1.128 1.624 2.503 2.503 0 00.398 1.936 53.902 53.902 0 0043.69 23.55c30.43.58 55.34-24.93 55.34-55.37V103c-.04-29.3-22.73-54.14-51.95-55.39zM745.72 137a35.171 35.171 0 1135.17-35.17A35.209 35.209 0 01745.72 137zM292.47 47.61a54.278 54.278 0 00-56.032 45.81 54.266 54.266 0 002.287 26.048 54.292 54.292 0 0037.017 34.726 54.278 54.278 0 0049.538-11.054v21.46c0 19.72-16.13 36.48-35.85 36.11a34.934 34.934 0 01-28-14.8 2.463 2.463 0 00-3.3-.64l-12 7.44a2.521 2.521 0 00-1.128 1.624 2.503 2.503 0 00.398 1.936 53.905 53.905 0 0043.6 23.55c30.43.58 55.34-24.93 55.34-55.37V103c.05-29.3-22.64-54.14-51.87-55.39zM290.11 137a35.171 35.171 0 1135.17-35.17A35.209 35.209 0 01290.11 137zm-74.52-88.69l-14.14.22A2.49 2.49 0 00199 51v56.4a27.838 27.838 0 01-2.258 10.954 27.832 27.832 0 01-15.879 15.1 27.81 27.81 0 01-11.053 1.706c-14.93-.73-26.4-13.62-26.4-28.57V51.06a2.489 2.489 0 00-2.49-2.49h-14.13a2.489 2.489 0 00-2.49 2.49v55.37c0 25.52 20 47.13 45.49 47.89a46.998 46.998 0 0048.33-46.89V50.8a2.502 2.502 0 00-.743-1.775 2.497 2.497 0 00-1.787-.715zm189.56 44.41C391.3 88.87 382.89 86 382.89 78.5c0-10.85 11.87-14.79 19.85-14.79 9.1 0 14.61 2.1 21.77 6.48a2.49 2.49 0 003.38-.78l6.56-10.18a2.497 2.497 0 00-.084-2.822 2.488 2.488 0 00-.736-.668A60.86 60.86 0 00402.09 47c-18 0-36.53 11.85-36.53 31.68 0 20.24 18 25.1 33.83 29.39 15 4.05 24.08 7.19 24.08 16.64 0 8.68-8.92 15.23-20.74 15.23-11.38 0-20.69-5.14-27-10a2.471 2.471 0 00-3.44.39l-7.79 9.5a2.512 2.512 0 00.36 3.52c10.24 8.59 23.88 13.29 38.72 13.29 21.55 0 37.18-13.69 37.18-32.56.05-21.45-19.76-26.95-35.61-31.36zM60.63 47.92a54.089 54.089 0 00-41.52 12.62V2.66A2.49 2.49 0 0015.33.54L1.19 9.14A2.49 2.49 0 000 11.27v89.46c0 29.27 22.69 54.09 51.91 55.34a54.29 54.29 0 008.72-108.15zM54.28 137a35.174 35.174 0 01-32.493-21.711A35.17 35.17 0 1189.45 101.83 35.21 35.21 0 0154.28 137z"/></g><defs><clipPath id="clip0"><path fill="#fff" d="M0 0h800v220H0z"/></clipPath></defs></svg>