<svg version="1.1" id="Layer_1" xmlns="http://www.w3.org/2000/svg" x="0" y="0" viewBox="0 0 237 41" xml:space="preserve" enable-background="new 0 0 237 41"><style>.st1{fill-rule:evenodd;clip-rule:evenodd;fill:#fff}</style><g id="Group"><g id="Group-3"><defs><filter id="Adobe_OpacityMaskFilter" filterUnits="userSpaceOnUse" x=".5" y="4.5" width="30.4" height="30.5"><feColorMatrix values="1 0 0 0 0 0 1 0 0 0 0 0 1 0 0 0 0 0 1 0"/></filter></defs><mask maskUnits="userSpaceOnUse" x=".5" y="4.5" width="30.4" height="30.5" id="mask-2_1_"><g filter="url(#Adobe_OpacityMaskFilter)"><path id="path-1_1_" class="st1" d="M30.8 4.6v10.8c0 1.8 0 3.7-.1 5.5-.1 2-.7 3.9-1.6 5.7-1.5 2.9-3.7 5.1-6.6 6.6-3.1 1.6-6.4 2.1-9.8 1.4-3.9-.8-7-2.7-9.3-5.9C2 26.8 1 24.5.7 22c-.2-1.7-.2-3.5-.2-5.2V8.5c0-1.2 0-3.6.1-3.7h6.8c0 .8.1 10.5 0 14.6 0 1.7.1 3.2 1 4.6 1.4 2.3 3.4 3.8 6.2 4.2 4.2.6 8.3-2.2 9.3-6.3.3-1.2.2-2.4.2-3.6V4.6h6.7z"/></g></mask><path id="Fill-1" mask="url(#mask-2_1_)" fill-rule="evenodd" clip-rule="evenodd" fill="#fff" d="M.5 35h30.3V4.5H.5z"/></g><g id="Group-6" transform="translate(12)"><defs><filter id="Adobe_OpacityMaskFilter_1_" filterUnits="userSpaceOnUse" x="-15" y="-5.8" width="37.4" height="37.4"><feColorMatrix values="1 0 0 0 0 0 1 0 0 0 0 0 1 0 0 0 0 0 1 0"/></filter></defs><mask maskUnits="userSpaceOnUse" x="-15" y="-5.8" width="37.4" height="37.4" id="mask-4_1_"><g filter="url(#Adobe_OpacityMaskFilter_1_)"><path id="path-3_1_" class="st1" d="M.3 4.7H7v14.4c0 .9 0 1.8-.6 2.5-.9 1.3-2.3 1.8-3.8 1.4-1.4-.4-2.4-1.8-2.4-3.2V5.3"/></g></mask><path id="Fill-4" mask="url(#mask-4_1_)" fill-rule="evenodd" clip-rule="evenodd" fill="#fe0033" d="M-15 12.9L3.7-5.8l18.7 18.7L3.7 31.6"/></g></g><g id="Group-13" transform="translate(50)"><path class="st1" d="M0 2.1v29.8h19.2v-5.2H5.9V2.1z"/><g id="Group-12" transform="translate(0 .57)"><path id="Fill-2" class="st1" d="M26.3 1.2c-1.8 0-3.4 1.5-3.4 3.4S24.5 8 26.3 8c1.9 0 3.4-1.5 3.4-3.4s-1.5-3.4-3.4-3.4"/><defs><filter id="Adobe_OpacityMaskFilter_2_" filterUnits="userSpaceOnUse" x="23.5" y="10.8" width="5.5" height="20.5"><feColorMatrix values="1 0 0 0 0 0 1 0 0 0 0 0 1 0 0 0 0 0 1 0"/></filter></defs><mask maskUnits="userSpaceOnUse" x="23.5" y="10.8" width="5.5" height="20.5" id="mask-6_1_"><g filter="url(#Adobe_OpacityMaskFilter_2_)"><path id="path-5_1_" class="st1" d="M0 40h186.5V.4H0z"/></g></mask><path mask="url(#mask-6_1_)" fill-rule="evenodd" clip-rule="evenodd" fill="#fff" d="M23.5 31.3H29V10.8h-5.5z"/><defs><filter id="Adobe_OpacityMaskFilter_3_" filterUnits="userSpaceOnUse" x="34.8" y="10.5" width="19.6" height="20.8"><feColorMatrix values="1 0 0 0 0 0 1 0 0 0 0 0 1 0 0 0 0 0 1 0"/></filter></defs><mask maskUnits="userSpaceOnUse" x="34.8" y="10.5" width="19.6" height="20.8" id="mask-6_2_"><g filter="url(#Adobe_OpacityMaskFilter_3_)"><path id="path-5_2_" class="st1" d="M0 40h186.5V.4H0z"/></g></mask><path id="Fill-6" d="M47 10.5c-2.5 0-4.9 1-6.6 3h-.1v-2.6h-5.5v20.5h5.5V21c0-3.7 1.9-5.6 4.7-5.6 2.6 0 3.9 1.2 3.9 5.1v10.8h5.5V19.2c0-6.3-3-8.7-7.4-8.7" mask="url(#mask-6_2_)" fill-rule="evenodd" clip-rule="evenodd" fill="#fff"/><defs><filter id="Adobe_OpacityMaskFilter_4_" filterUnits="userSpaceOnUse" x="58.5" y="10.5" width="21.2" height="29.5"><feColorMatrix values="1 0 0 0 0 0 1 0 0 0 0 0 1 0 0 0 0 0 1 0"/></filter></defs><mask maskUnits="userSpaceOnUse" x="58.5" y="10.5" width="21.2" height="29.5" id="mask-6_3_"><g filter="url(#Adobe_OpacityMaskFilter_4_)"><path id="path-5_3_" class="st1" d="M0 40h186.5V.4H0z"/></g></mask><path id="Fill-7" d="M69.3 26c-2.9 0-5.2-2.1-5.2-5.3 0-3.1 2.1-5.2 5.2-5.2 2.9 0 5.2 2 5.2 5.2 0 3.1-2.2 5.3-5.2 5.3zm5-13.1h-.1c-1.6-1.6-3.8-2.4-6.1-2.4-5.5 0-9.5 4.3-9.5 10.4 0 6 4.1 10.1 9.8 10.1 2.5 0 4.5-.8 6-2.4h.1v2.1c0 2.5-2 4.6-5.8 4.6-2.6 0-4.6-.8-6.6-1.9l-1.3 4.7c2.2 1.2 5 1.9 8.2 1.9 7.9 0 10.7-4.6 10.7-11V10.8h-5.5v2.1z" mask="url(#mask-6_3_)" fill-rule="evenodd" clip-rule="evenodd" fill="#fff"/><defs><filter id="Adobe_OpacityMaskFilter_5_" filterUnits="userSpaceOnUse" x="84" y="10.5" width="21.8" height="21.2"><feColorMatrix values="1 0 0 0 0 0 1 0 0 0 0 0 1 0 0 0 0 0 1 0"/></filter></defs><mask maskUnits="userSpaceOnUse" x="84" y="10.5" width="21.8" height="21.2" id="mask-6_4_"><g filter="url(#Adobe_OpacityMaskFilter_5_)"><path id="path-5_4_" class="st1" d="M0 40h186.5V.4H0z"/></g></mask><path id="Fill-8" d="M94.9 26.8c-3.1 0-5.3-2.5-5.3-5.7s2.1-5.7 5.3-5.7c3.1 0 5.3 2.3 5.3 5.7 0 3.3-2.3 5.7-5.3 5.7m0-16.3C88.4 10.5 84 15 84 21.1s4.4 10.6 10.9 10.6c6.4 0 10.9-4.3 10.9-10.6s-4.5-10.6-10.9-10.6" mask="url(#mask-6_4_)" fill-rule="evenodd" clip-rule="evenodd" fill="#fff"/><defs><filter id="Adobe_OpacityMaskFilter_6_" filterUnits="userSpaceOnUse" x="110.7" y="1.5" width="24.1" height="29.8"><feColorMatrix values="1 0 0 0 0 0 1 0 0 0 0 0 1 0 0 0 0 0 1 0"/></filter></defs><mask maskUnits="userSpaceOnUse" x="110.7" y="1.5" width="24.1" height="29.8" id="mask-6_5_"><g filter="url(#Adobe_OpacityMaskFilter_6_)"><path id="path-5_5_" class="st1" d="M0 40h186.5V.4H0z"/></g></mask><path id="Fill-9" mask="url(#mask-6_5_)" fill-rule="evenodd" clip-rule="evenodd" fill="#fff" d="M128.9 14.4h-12.3V1.5h-5.9v29.8h5.9V19.7h12.3v11.6h5.9V1.5h-5.9z"/><defs><filter id="Adobe_OpacityMaskFilter_7_" filterUnits="userSpaceOnUse" x="140.5" y="10.8" width="19.2" height="20.8"><feColorMatrix values="1 0 0 0 0 0 1 0 0 0 0 0 1 0 0 0 0 0 1 0"/></filter></defs><mask maskUnits="userSpaceOnUse" x="140.5" y="10.8" width="19.2" height="20.8" id="mask-6_6_"><g filter="url(#Adobe_OpacityMaskFilter_7_)"><path id="path-5_6_" class="st1" d="M0 40h186.5V.4H0z"/></g></mask><path id="Fill-10" d="M154.2 20.8c0 3.9-2.1 6-4.5 6-2.6 0-3.7-1.3-3.7-5v-11h-5.5v12.4c0 6.3 3.1 8.5 7.5 8.5 2.3 0 4.5-1 6.1-2.9h.1v2.5h5.5V10.8h-5.5v10z" mask="url(#mask-6_6_)" fill-rule="evenodd" clip-rule="evenodd" fill="#fff"/><defs><filter id="Adobe_OpacityMaskFilter_8_" filterUnits="userSpaceOnUse" x="165.1" y=".4" width="21.5" height="31.3"><feColorMatrix values="1 0 0 0 0 0 1 0 0 0 0 0 1 0 0 0 0 0 1 0"/></filter></defs><mask maskUnits="userSpaceOnUse" x="165.1" y=".4" width="21.5" height="31.3" id="mask-6_7_"><g filter="url(#Adobe_OpacityMaskFilter_8_)"><path id="path-5_7_" class="st1" d="M0 40h186.5V.4H0z"/></g></mask><path id="Fill-11" d="M175.7 26.8c-3 0-5.4-2.2-5.4-5.6 0-3.3 2.2-5.8 5.4-5.8 2.9 0 5.3 2.2 5.3 5.8-.1 3.3-2.2 5.6-5.3 5.6m1.2-16.3c-2.5 0-4.7.9-6.2 2.6h-.1V.4h-5.5v30.9h5.3v-2.5h.1c1.4 1.8 3.5 2.8 6.3 2.8 5.7 0 9.8-4.2 9.8-10.5-.1-6.2-4.2-10.6-9.7-10.6" mask="url(#mask-6_7_)" fill-rule="evenodd" clip-rule="evenodd" fill="#fff"/></g></g></svg>