<svg viewBox="0 0 495.61 104.73" xmlns="http://www.w3.org/2000/svg"><g fill="#fff"><path d="M82.12 61.86a30.43 30.43 0 0013.46 3.7c4.72 0 6.68-1.54 6.68-4.11s-1.54-3.9-7.3-5.85c-10.48-3.5-14.49-9.15-14.38-15.11C80.58 31 88.59 24 101 24a33 33 0 0114.08 3l-2.67 10.79a25 25 0 00-10.89-2.88c-3.8 0-6 1.54-6 4s2 3.71 8.12 5.86c9.55 3.29 13.46 8.22 13.56 15.52 0 9.45-7.3 16.34-21.68 16.34A35.43 35.43 0 0179.34 73zm65.14-50.25v13.57h11.2v11.51h-11.2v18.18c0 6.07 1.54 8.84 6.17 8.84a19.09 19.09 0 004.62-.41l.11 11.82a33 33 0 01-10.08 1.33c-5 0-9.24-1.74-11.81-4.31-2.88-3-4.32-7.81-4.32-14.9V36.69h-6.68V25.18H132v-9.35zM182 55.29c.42 6.47 6.89 9.55 14.19 9.55a41.38 41.38 0 0013.87-2.16l2 10.59a47.61 47.61 0 01-18.19 3.18c-17 0-26.81-9.86-26.81-25.58 0-12.75 7.91-26.82 25.38-26.82 16.23 0 22.4 12.64 22.4 25.07a36.54 36.54 0 01-.52 6.17zm18.4-10.69c0-3.8-1.64-10.17-8.84-10.17-6.57 0-9.25 6.06-9.66 10.17zm28.66 30.82V36.69h-6.68V25.18h6.68v-1.95c0-6.07 1.85-12.75 6.27-16.85a20.59 20.59 0 0114-5 34 34 0 018.22 1l-.61 12a17 17 0 00-5-.72c-5.14 0-7.3 4-7.3 8.94v2.57h10.07v11.52h-10v38.73zm77.99-12.12a64.74 64.74 0 00.82 12.12h-14.08l-.92-5h-.31c-3.29 4-8.43 6.17-14.38 6.17-10.18 0-16.24-7.4-16.24-15.42 0-13 11.71-19.21 29.49-19.21v-.62c0-2.77-1.44-6.58-9.15-6.58a28.23 28.23 0 00-13.87 3.81l-2.87-10.07a41.25 41.25 0 0119.52-4.5c16.75 0 22 9.86 22 21.78zm-15.11-11.61c-8.22 0-14.59 2-14.59 7.91 0 4 2.67 6 6.17 6a8.63 8.63 0 008.11-5.75 11.06 11.06 0 00.31-2.68zm30.52-10.48c0-6.27-.2-11.51-.41-16h13.56l.72 7h.31a18.05 18.05 0 0115.52-8.12c10.27 0 18 6.88 18 21.68v29.65h-15.64V47.58c0-6.48-2.26-10.89-7.91-10.89-4.31 0-6.89 3-8 5.86a11 11 0 00-.52 3.9v29h-15.63zm63.2 34.21V25.18h15.62v50.24zm31.13-34.21c0-6.27-.2-11.51-.41-16h13.56l.72 7h.34a18.05 18.05 0 0115.52-8.12c10.27 0 18 6.88 18 21.68v29.65h-15.67V47.58c0-6.48-2.26-10.89-7.91-10.89-4.32 0-6.89 3-8 5.86a11.22 11.22 0 00-.51 3.9v29h-15.64zM480 75.42V25.18h15.63v50.24zM38.91 79.76c.32 0 .64.06 1 .08zM3.25 22.14S5 16.32 13.69 9.05A52.14 52.14 0 0125.46 1.3l.86-1.3-2 .24a40.59 40.59 0 00-13.83 10.18 37.42 37.42 0 00-7.24 11.72zm56.53-6.65l-9-3.5c-1.29.41-2.61.85-4 1.37C26.9 21 8.23 37.86 5.13 51.09c-.83 3.52-.47 6.43.88 8.65l.64 1a40.82 40.82 0 008 9.07c-2.34-2.27-3.25-5.61-2.22-10 3-12.75 21-29 40.16-36.34l1.74-.64zm-33.9-5.6l-5.34-1C10.26 15.91 2.25 25 .45 32.68a14.23 14.23 0 00-.32 1.92C0 36.06 0 38 0 39.49a41.62 41.62 0 00.9 7.42l.39 1.64a12.58 12.58 0 01.11-6c2.06-8.79 11.28-19.25 23.1-27.29z"/><path d="M31.56 70.31c2-8.56 13.48-19.34 26.24-25l5-8.07-9.8-2.58c-15.79 7.13-29.88 20.47-32.38 31.1-1.26 5.39.69 9.13 4.92 10.87.85.35 2 .76 2.89 1.08a46.43 46.43 0 008.36 1.88l2.08.17c-5.62-.56-8.62-3.89-7.31-9.45z"/><path d="M53.86 73.63a2.43 2.43 0 01-.25-2 .14.14 0 010-.06v-.06c.69-2.61 4.09-5.83 7.94-7.62l3.21-6.57-7.33-1.47c-7.8 4.24-14.43 10.9-15.68 16.32-1.51 6.44 5.12 8.67 14.81 5h.08c1.09-.41 1.17-.45 3.12-1.34l.26-.12c-2.97.1-5.32-.61-6.16-2.08zM134.2 104a4.6 4.6 0 01-6.24-1.21A9.56 9.56 0 01128 93a4.17 4.17 0 013.64-2 4.33 4.33 0 012.58.73l-.42 1a3.54 3.54 0 00-1.85-.52 2.71 2.71 0 00-2 .83 4.42 4.42 0 00-1.1 2 10.79 10.79 0 00-.31 2.71 8.12 8.12 0 00.85 3.92 2.73 2.73 0 002.56 1.57 3.45 3.45 0 001.85-.52zm11.21-6.11a11.67 11.67 0 01-.46 3.47 5.14 5.14 0 01-1.56 2.42 4.11 4.11 0 01-2.75.93 4 4 0 01-3.63-1.88 9.24 9.24 0 01-1.17-4.94 11.58 11.58 0 01.46-3.45 5.12 5.12 0 011.57-2.44 4.17 4.17 0 012.77-.94 4 4 0 013.6 1.89 9.25 9.25 0 011.17 4.94zm-1.79-.06a14.09 14.09 0 00-.13-2 7.85 7.85 0 00-.46-1.76 3 3 0 00-.92-1.32 2.32 2.32 0 00-1.47-.48 2.35 2.35 0 00-1.49.48 2.93 2.93 0 00-.93 1.32 8.43 8.43 0 00-.46 1.76 14.09 14.09 0 00-.13 2c0 3.72 1 5.57 3 5.57s2.99-1.85 2.99-5.57zm8.32.87h-4.35v-1.35h4.35zm9.75 5.3a4.6 4.6 0 01-6.24-1.21 9.56 9.56 0 010-9.73 4.18 4.18 0 013.64-2 4.33 4.33 0 012.58.73l-.42 1a3.54 3.54 0 00-1.85-.52 2.68 2.68 0 00-2 .83 4.34 4.34 0 00-1.11 2 10.79 10.79 0 00-.31 2.71 8.12 8.12 0 00.85 3.92 2.73 2.73 0 002.56 1.57 3.45 3.45 0 001.85-.52zm10.31.52h-2l-4.36-6.19v6.19h-1.75V91.78a6.84 6.84 0 013.3-.71 4.93 4.93 0 013.39 1 3.69 3.69 0 011.15 2.9 3.33 3.33 0 01-1.09 2.64 4.37 4.37 0 01-2.93 1zm-2.06-9.44a3.17 3.17 0 00-.69-2.25 2.82 2.82 0 00-2.14-.72 3.21 3.21 0 00-1.51.29V98a4.18 4.18 0 001.14.11q3.16-.05 3.16-3.03zm10.42 9.44h-6.15V91.26h6.15v1.2H176v4.62h3.93v1.18H176v5.06h4.37zm11.79 0h-1.83l-1.25-4h-4.55l-1.29 4h-1.62l4.49-13.26h1.58zm-3.37-5l-1.54-5a7.37 7.37 0 01-.25-.87 4.46 4.46 0 01-.12-.55v-.18a9.88 9.88 0 01-.4 1.6l-1.58 5zm11.36-7.06h-2.63v12.06h-1.78V92.46h-2.64v-1.2h7zm3.86 12.06h-1.78V91.26H204zm12.58 0H215l-5.65-9.67-.85-1.6c0 .54.05 1.08.05 1.64v9.63h-1.48V91.26H209l5.41 9.31.75 1.41c0-.43-.05-.92-.05-1.47v-9.25h1.48zM228 104a6.73 6.73 0 01-3.35.73 5.11 5.11 0 01-4-1.77 7.57 7.57 0 01-1.56-5.15 7.18 7.18 0 011.59-5 5.13 5.13 0 014-1.77 5.81 5.81 0 013.1.69l-.52 1.1a4.57 4.57 0 00-2.39-.54 3.39 3.39 0 00-2.91 1.4 7.17 7.17 0 00-1 4.23 6.84 6.84 0 001 4.07 3.18 3.18 0 002.67 1.46 3.39 3.39 0 001.66-.31v-5h-2.26v-1.06h4zm14.62-3.22a3.77 3.77 0 01-1.12 2.83 4 4 0 01-2.88 1.1 5.59 5.59 0 01-3.08-.73l.46-1.23a4.33 4.33 0 002.31.61 2.31 2.31 0 002.48-2.48 2.08 2.08 0 00-.53-1.47 5 5 0 00-1.78-1.08q-2.8-1.11-2.81-3.54a3.67 3.67 0 011-2.64 3.58 3.58 0 012.71-1.08 4.68 4.68 0 012.71.71l-.42 1.12a3.87 3.87 0 00-2.1-.62 2.1 2.1 0 00-1.62.63 2.46 2.46 0 00-.58 1.71 1.9 1.9 0 00.57 1.47 5.24 5.24 0 001.65 1c2.03.74 3.03 1.98 3.03 3.69zm11.66-2.89a11.67 11.67 0 01-.46 3.47 5.14 5.14 0 01-1.56 2.42 4.12 4.12 0 01-2.76.93 4 4 0 01-3.62-1.88 9.24 9.24 0 01-1.17-4.94 11.58 11.58 0 01.46-3.45 5.12 5.12 0 011.57-2.44 4.16 4.16 0 012.76-.94 4 4 0 013.61 1.94 9.25 9.25 0 011.17 4.89zm-1.79-.06a14 14 0 00-.14-2 8.41 8.41 0 00-.45-1.76 3 3 0 00-.92-1.32 2.52 2.52 0 00-3 0 3 3 0 00-.94 1.32 8.41 8.41 0 00-.45 1.76 14.09 14.09 0 00-.13 2c0 3.72 1 5.57 3 5.57s3.03-1.85 3.03-5.57zm10.13 6.69h-5.76V91.26h1.77v12.06h4zm10.38-3.78a3.84 3.84 0 01-1.14 2.86 4.55 4.55 0 01-6 0 3.87 3.87 0 01-1.13-2.86v-9.48h1.77v9.46a2.56 2.56 0 00.72 1.92 2.49 2.49 0 003.46 0 2.63 2.63 0 00.7-1.92v-9.46H273zm9.1-8.28h-2.64v12.06h-1.77V92.46h-2.64v-1.2h7.05zm3.9 12.06h-1.77V91.26H286zm12.17-6.63a11.65 11.65 0 01-.47 3.47 5 5 0 01-1.56 2.42 4.11 4.11 0 01-2.75.93 4 4 0 01-3.62-1.88 9.15 9.15 0 01-1.18-4.94 11.91 11.91 0 01.46-3.45 5.19 5.19 0 011.57-2.44 4.17 4.17 0 012.77-.94A3.94 3.94 0 01297 93a9.16 9.16 0 011.17 4.89zm-1.8-.06a14.09 14.09 0 00-.13-2 8.41 8.41 0 00-.45-1.76 2.93 2.93 0 00-.93-1.32 2.28 2.28 0 00-1.47-.48 2.33 2.33 0 00-1.48.48 2.88 2.88 0 00-.94 1.32 8.41 8.41 0 00-.45 1.76 14 14 0 00-.14 2c0 3.72 1 5.57 3 5.57s2.99-1.85 2.99-5.57zm13.82 6.69h-1.54L303 94.85l-.85-1.6c0 .54.05 1.08.05 1.64v9.63h-1.48V91.26h1.87l5.41 9.31.75 1.41q-.06-.65-.06-1.47v-9.25h1.49zm9.4-3.74a3.77 3.77 0 01-1.13 2.83 4 4 0 01-2.88 1.1 5.62 5.62 0 01-3.08-.73l.46-1.23a4.33 4.33 0 002.31.61 2.46 2.46 0 001.82-.67 2.49 2.49 0 00.67-1.81 2.12 2.12 0 00-.53-1.47 5.06 5.06 0 00-1.78-1.08q-2.82-1.11-2.82-3.54a3.68 3.68 0 011-2.64 3.54 3.54 0 012.7-1.08 4.71 4.71 0 012.72.71l-.43 1.12a3.86 3.86 0 00-2.09-.62 2.07 2.07 0 00-1.62.63 2.41 2.41 0 00-.58 1.71 1.9 1.9 0 00.57 1.47 5.29 5.29 0 001.64 1c2.05.74 3.05 1.98 3.05 3.69zm13.97-8.32h-4.36v4.62h3.91v1.18h-3.91v6.26h-1.77V91.26h6.13zm11.36 5.43a11.67 11.67 0 01-.46 3.47 5.14 5.14 0 01-1.56 2.42 4.11 4.11 0 01-2.75.93 4 4 0 01-3.63-1.88 9.24 9.24 0 01-1.17-4.94 11.58 11.58 0 01.46-3.45 5.12 5.12 0 011.57-2.44 4.17 4.17 0 012.77-.94 4 4 0 013.6 1.89 9.25 9.25 0 011.17 4.94zm-1.79-.06a14.09 14.09 0 00-.13-2 7.85 7.85 0 00-.46-1.76 3 3 0 00-.92-1.32 2.32 2.32 0 00-1.47-.48 2.35 2.35 0 00-1.49.48 2.93 2.93 0 00-.93 1.32 8.43 8.43 0 00-.46 1.76 14.09 14.09 0 00-.13 2c0 3.72 1 5.57 3 5.57s2.99-1.85 2.99-5.57zm12.5 6.69h-2l-4.35-6.19v6.19h-1.75V91.78a6.8 6.8 0 013.29-.71 4.93 4.93 0 013.39 1 3.7 3.7 0 011.16 2.9 3.36 3.36 0 01-1.09 2.64 4.42 4.42 0 01-2.94 1zm-2.06-9.44a3.17 3.17 0 00-.68-2.25 2.85 2.85 0 00-2.15-.72 3.19 3.19 0 00-1.5.29V98a4.13 4.13 0 001.14.11q3.2-.05 3.19-3.03zm19.06 9.44h-1.83l-1.26-4H365l-1.29 4h-1.62l4.49-13.26h1.58zm-3.37-5l-1.55-5c-.1-.31-.18-.6-.25-.87s-.1-.45-.11-.55v-.18a11.07 11.07 0 01-.4 1.6l-1.58 5zm18.95 1.41a3.26 3.26 0 01-1.31 2.85 5.89 5.89 0 01-3.49.93 7.6 7.6 0 01-3.62-.73V91.8a7 7 0 013.45-.73 5.29 5.29 0 013.3.92 3.12 3.12 0 01.4 4.49 3.33 3.33 0 01-1.81 1 4.25 4.25 0 012.1 1.12 3 3 0 01.98 2.33zM386 94.52c0-1.62-.93-2.43-2.78-2.43a5.22 5.22 0 00-1.75.29v4.72h.87a4.82 4.82 0 002.83-.62 2.28 2.28 0 00.83-1.96zm.42 6.43a2.61 2.61 0 00-1-2.26 5.36 5.36 0 00-3.1-.7h-.89v5.28a5 5 0 001.87.3 3.63 3.63 0 002.24-.62 2.33 2.33 0 00.88-1.95zm10.35 3.57h-6.15V91.26h6.15v1.2h-4.38v4.62h3.93v1.18h-3.93v5.06h4.38zm8.51-12.06h-2.64v12.06h-1.77V92.46h-2.64v-1.2h7zm8.21 0h-2.64v12.06h-1.77V92.46h-2.64v-1.2h7.05zm8.2 12.06h-6.14V91.26h6.14v1.2h-4.37v4.62h3.93v1.18h-3.93v5.06h4.37zm10.56 0h-2l-4.36-6.19v6.19h-1.79V91.78a6.84 6.84 0 013.3-.71 4.93 4.93 0 013.39 1 3.69 3.69 0 011.15 2.9 3.35 3.35 0 01-1.08 2.64 4.42 4.42 0 01-2.94 1zm-2.06-9.44a3.22 3.22 0 00-.68-2.25 2.86 2.86 0 00-2.15-.72 3.14 3.14 0 00-1.5.29V98a4.05 4.05 0 001.13.11q3.2-.05 3.2-3.03zM446 92.46h-4.36v4.62h3.92v1.18h-3.92v6.26h-1.77V91.26H446zm10.45 8.28a3.84 3.84 0 01-1.14 2.86 4.55 4.55 0 01-6 0 3.87 3.87 0 01-1.13-2.86v-9.48H450v9.46a2.56 2.56 0 00.71 1.92 2.49 2.49 0 003.46 0 2.59 2.59 0 00.7-1.92v-9.46h1.62zm9.11-8.28h-2.64v12.06h-1.77V92.46h-2.64v-1.2h7.05zm10.33 8.28a3.84 3.84 0 01-1.14 2.86 4.1 4.1 0 01-3 1.13 4 4 0 01-3-1.13 3.87 3.87 0 01-1.13-2.86v-9.48h1.77v9.46a2.56 2.56 0 00.72 1.92 2.49 2.49 0 003.46 0 2.63 2.63 0 00.7-1.92v-9.46h1.62zm11.11 3.78h-2l-4.36-6.19v6.19h-1.76V91.78a6.84 6.84 0 013.3-.71 4.93 4.93 0 013.39 1 3.69 3.69 0 011.15 2.9 3.35 3.35 0 01-1.08 2.64 4.42 4.42 0 01-2.94 1zm-2-9.44a3.22 3.22 0 00-.68-2.25 2.86 2.86 0 00-2.15-.72 3.14 3.14 0 00-1.5.29V98a4.05 4.05 0 001.13.11q3.2-.05 3.2-3.03zm10.44 9.44h-6.14V91.26h6.14v1.2h-4.37v4.62H495v1.18h-3.93v5.06h4.37z"/></g></svg>