<svg height="1596" viewBox="0 0 4134 1596" width="4134" xmlns="http://www.w3.org/2000/svg"><g fill="#fff"><path d="M1493.024 792.074c0 29.874-11.15 49.493-32.56 58.851l30.779 116.82c1.335 5.36-1.336 8.023-6.246 8.023H1438.6c-4.459 0-6.684-2.225-7.582-6.243l-29.889-113.247h-30.78v112.364c0 4.463-2.67 7.126-7.136 7.126h-46.396c-4.458 0-7.136-2.676-7.136-7.126V626.205c0-4.457 2.678-7.133 7.136-7.133h111.968c41.93 0 64.238 22.296 64.238 64.205zm-78.511 5.346c11.595 0 17.842-6.243 17.842-17.833v-83.824c0-11.59-6.247-17.826-17.842-17.826h-44.163v119.49zm114.173-114.143c0-41.909 22.3-64.205 64.237-64.205h49.964c41.93 0 64.237 22.296 64.237 64.205v228.286c0 41.902-22.307 64.198-64.237 64.198h-49.964c-41.936 0-64.237-22.296-64.237-64.198zm103.044 234.968c11.595 0 17.842-5.799 17.842-17.833V694.428c0-11.59-6.247-17.833-17.842-17.833h-25.869c-11.595 0-17.842 6.244-17.842 17.833v205.99c0 12.028 6.247 17.827 17.842 17.827zm298.857-186.817c0 4.464-2.678 7.134-7.13 7.134h-44.607c-4.911 0-7.137-2.67-7.137-7.134v-35.665c0-11.59-6.24-17.826-17.835-17.826h-23.197c-12.041 0-17.842 6.236-17.842 17.826v203.328c0 12.034 6.24 17.819 17.842 17.819h23.197c11.596 0 17.835-5.792 17.835-17.82v-35.678c0-4.464 2.226-7.134 7.137-7.134h44.607c4.473 0 7.13 2.67 7.13 7.134v48.158c0 41.902-22.752 64.198-64.23 64.198h-49.964c-41.93 0-64.682-22.296-64.682-64.198V683.277c0-41.909 22.753-64.205 64.682-64.205h49.964c41.485 0 64.23 22.296 64.23 64.205zm188.225 244.34c-5.363 0-8.472-2.225-10.267-6.681l-56.196-132.428-16.513 31.66v98.53c0 5.798-3.116 8.92-8.917 8.92h-42.828c-5.8 0-8.924-3.122-8.924-8.92V627.991c0-5.792 3.123-8.92 8.924-8.92h42.828c5.794 0 8.917 3.121 8.917 8.92V766.21l68.696-140.451c2.233-4.456 5.363-6.688 10.267-6.688h46.833c6.692 0 9.37 4.463 6.24 10.7l-75.826 155.607 80.73 180.135c3.123 5.798.445 10.254-6.685 10.254zm264.517-304.971c0 4.457-1.788 7.578-7.137 7.578h-111.523v89.17h85.202c4.473 0 7.137 2.678 7.137 7.579v44.14c0 4.909-2.678 7.585-7.137 7.585h-85.202v90.06h111.523c5.363 0 7.137 2.232 7.137 7.134v44.592c0 4.457-1.788 7.12-7.137 7.12h-164.158c-4.02 0-6.698-2.677-6.698-7.12v-342.43c0-4.457 2.678-7.133 6.698-7.133h164.158c5.363 0 7.137 2.676 7.137 7.133zm206.963-51.725c4.904 0 7.137 2.676 7.137 7.133v44.592c0 4.457-2.233 7.133-7.137 7.133h-51.744v290.705c0 4.902-2.226 7.12-7.13 7.12h-46.395c-4.473 0-7.137-2.218-7.137-7.12V677.93h-51.737c-4.473 0-7.137-2.676-7.137-7.133v-44.592c0-4.457 2.678-7.133 7.137-7.133zM2593 925.913c0-5.798 3.123-8.913 8.924-8.913h40.595c5.8 0 8.917 3.115 8.917 8.913v41.012c0 5.805-3.116 8.92-8.917 8.92h-40.595c-5.8 0-8.924-3.115-8.924-8.92zm281.856-194.485c0 4.464-2.685 7.134-7.137 7.134h-44.608c-4.904 0-7.13-2.67-7.13-7.134v-35.665c0-11.59-6.239-17.826-17.834-17.826h-23.198c-12.048 0-17.842 6.236-17.842 17.826v203.328c0 12.034 6.24 17.819 17.842 17.819h23.198c11.595 0 17.834-5.792 17.834-17.82v-35.678c0-4.464 2.226-7.134 7.13-7.134h44.608c4.472 0 7.137 2.67 7.137 7.134v48.158c0 41.902-22.753 64.198-64.238 64.198h-49.963c-41.93 0-64.683-22.296-64.683-64.198V683.277c0-41.909 22.753-64.205 64.683-64.205h49.963c41.492 0 64.238 22.296 64.238 64.205zm162.356-105.223c0-4.457 2.67-7.133 7.13-7.133h45.943c5.356 0 7.575 2.676 7.575 7.133v342.43c0 4.457-2.226 7.12-7.575 7.12h-45.944c-4.472 0-7.13-2.677-7.13-7.12V826.85h-57.1v141.793c0 4.463-2.678 7.126-7.136 7.126h-45.937c-5.363 0-7.589-2.676-7.589-7.126V626.205c0-4.457 2.226-7.133 7.59-7.133h45.936c4.472 0 7.136 2.676 7.136 7.133V767.99h57.1zm264.071 349.563c-4.014 0-6.24-2.225-7.137-6.243l-12.485-65.088h-79.408l-12.034 65.088c-.897 4.018-3.123 6.243-7.137 6.243h-47.724c-4.903 0-7.136-2.676-5.808-7.578l74.052-342.875c.897-4.456 3.569-6.243 7.582-6.243h62.011c4.014 0 6.692 1.787 7.582 6.243l74.052 342.875c.897 4.902-.89 7.578-6.24 7.578zm-59.333-278.67l-28.547 155.607h57.1zm279.68-78.026c4.904 0 7.137 2.676 7.137 7.133v44.592c0 4.457-2.233 7.133-7.137 7.133h-51.738v290.705c0 4.902-2.232 7.12-7.136 7.12h-46.396c-4.458 0-7.13-2.218-7.13-7.12V677.93h-51.737c-4.466 0-7.13-2.676-7.13-7.133v-44.592c0-4.457 2.678-7.133 7.13-7.133zM1118.351 738.49l.008.012-.004-.006-.004-.006zM770.207 554.482c18.642 10.354 36.264 23.454 51.313 38.014 24.259-4.393 49.272-6.609 74.648-6.609 75.963 0 147.984 19.928 202.781 56.1 28.377 18.743 50.933 40.98 67.033 66.1 17.93 27.99 27.018 58.091 27.018 90.345 0 31.386-9.089 61.5-27.018 89.484-16.1 25.133-38.656 47.363-67.033 66.105-54.797 36.173-126.811 56.089-202.781 56.089-25.376 0-50.383-2.216-74.648-6.604-15.055 14.555-32.67 27.66-51.313 38.015-99.606 49.884-182.207 1.173-182.207 1.173s76.797-65.2 64.309-122.356c-34.362-35.218-52.98-77.694-52.98-122.761 0-44.218 18.624-86.694 52.98-121.919 12.486-57.14-64.284-122.328-64.309-122.35.025-.014 82.616-48.71 182.207 1.174zm-59.576 342.28c9.615 30.669 3.982 65.235-16.9 103.7-.998 1.84-1.929 3.7-2.94 5.538 17.915-1.5 36.022-6.412 54.36-15.417 13.833-7.788 27.105-17.67 38.428-28.59l20.84-20.099c28.504 7.68 59.777 11.92 92.581 11.92 133.1 0 241-69.803 241-155.907C1138 711.802 1030.1 642 897 642s-241 69.802-241 155.907c0 37.523 20.492 71.951 54.63 98.855z"/><path d="M781.43 835c-19.567 0-35.43-16.118-35.43-36s15.863-36 35.43-36 35.431 16.118 35.431 36-15.863 36-35.43 36zm114.07 0c-19.568 0-35.43-16.118-35.43-36s15.862-36 35.43-36 35.43 16.118 35.43 36-15.862 36-35.43 36zm114.07 0c-19.568 0-35.431-16.118-35.431-36s15.863-36 35.43-36S1045 779.118 1045 799s-15.863 36-35.43 36z"/></g></svg>