<svg height="44" viewBox="0 0 44 44" width="44" xmlns="http://www.w3.org/2000/svg"><g fill="none" fill-rule="evenodd"><path d="M2 0h40a2 2 0 012 2v40a2 2 0 01-2 2H2a2 2 0 01-2-2V2a2 2 0 012-2z" fill="#1a1a1a"/><path d="M12.068 24.94c-.09-.093-.09-.185 0-.277.183-.185.411-.254.685-.208.274.046.434.093.48.139.32.138.673.45 1.061.933.389.485.697.819.925 1.003 1.096.922 2.215.992 3.356.208.092-.323.24-.6.446-.83.205-.23.4-.392.582-.484.182-.093.502-.23.959-.415-1.507-.139-2.729-.404-3.665-.796-.936-.392-1.678-.887-2.226-1.487-.73-.83-1.176-1.913-1.335-3.25-.16-1.338-.058-2.56.308-3.666a6.099 6.099 0 011.164-1.868c-.365-1.152-.297-2.466.206-3.942 1.46.092 2.785.6 3.972 1.522 2.283-.6 4.658-.623 7.124-.07.32-.23.81-.518 1.472-.864.662-.346 1.496-.542 2.5-.588.183.507.308 1.107.377 1.798a6.001 6.001 0 01-.103 1.937c1.05 1.106 1.598 2.582 1.644 4.426 0 1.476-.251 2.698-.753 3.666-.503.968-1.393 1.775-2.672 2.42-.867.416-2.009.67-3.424.762.639.322 1.107.657 1.404 1.002.297.346.49.888.582 1.626v2.179l.069 2.109c.137.23.296.427.479.588a2.4 2.4 0 00.48.346c.136.069.182.173.136.311-.045.138-.228.208-.547.208-.777 0-1.393-.277-1.85-.83a1.596 1.596 0 01-.205-.83v-3.32c0-.37-.092-.634-.274-.796a1.333 1.333 0 00-.548-.311v4.357c0 .784.091 1.291.274 1.522.182.23.297.461.342.692.046.046.012.08-.103.103-.114.023-.308-.011-.582-.103-.593-.139-1.004-.45-1.233-.934s-.342-1.003-.342-1.556v-4.288h-.89v4.288c0 .553-.115 1.083-.343 1.59-.32.646-.913.992-1.78 1.038-.138-.046-.206-.092-.206-.138.045-.046.182-.277.41-.692a4.056 4.056 0 00.274-1.522v-4.357a1.11 1.11 0 00-.513.311c-.16.162-.24.427-.24.796v3.32a1.6 1.6 0 01-.205.83c-.411.553-1.028.83-1.85.83-.32 0-.502-.07-.547-.208-.046-.092-.035-.173.034-.242.068-.07.171-.15.308-.242.137-.092.228-.161.274-.208.183-.138.32-.322.41-.553.138-.184.172-.668.104-1.452-.069-.784-.08-1.291-.035-1.522-1.187.415-2.397.208-3.63-.622-.365-.37-.73-.9-1.096-1.591-.274-.507-.822-1.107-1.644-1.798z" fill="#fff"/></g></svg>