<svg height="44" viewBox="0 0 44 44" width="44" xmlns="http://www.w3.org/2000/svg"><g fill="none" fill-rule="evenodd"><path d="M2 0h40a2 2 0 012 2v40a2 2 0 01-2 2H2a2 2 0 01-2-2V2a2 2 0 012-2z" fill="#cb2027"/><path d="M21.278 10.08c-4.058.445-8.102 3.672-8.27 8.281-.104 2.814.709 4.926 3.434 5.519 1.183-2.05-.381-2.503-.624-3.986-1-6.079 7.134-10.224 11.39-5.98 2.945 2.938 1.006 11.978-3.744 11.039-4.55-.898 2.227-8.094-1.404-9.507-2.952-1.148-4.52 3.513-3.121 5.828-.82 3.981-2.587 7.733-1.872 12.726 2.32-1.654 3.102-4.822 3.744-8.126 1.165.696 1.788 1.42 3.276 1.532 5.486.417 8.55-5.382 7.801-10.732-.665-4.743-5.481-7.156-10.61-6.594z" fill="#fff" fill-rule="nonzero"/></g></svg>