<svg height="44" viewBox="0 0 44 44" width="44" xmlns="http://www.w3.org/2000/svg"><g fill="none" fill-rule="evenodd"><path d="M2 0h40a2 2 0 012 2v40a2 2 0 01-2 2H2a2 2 0 01-2-2V2a2 2 0 012-2z" fill="#ef4056"/><path d="M12.924 12c-1.198.079-1.924.77-1.924 1.999v7.36c0 5.98 5.888 10.678 10.982 10.64C27.709 31.959 33 27.075 33 21.36V14c0-1.234-.772-1.93-1.98-1.999zm4.64 5.988l4.418 4.24 4.423-4.24c1.98-.84 2.843 1.442 2.03 2.11l-5.76 5.552c-.188.181-1.194.181-1.382 0l-5.76-5.552c-.776-.737.234-3.056 2.03-2.11z" fill="#fff" fill-rule="nonzero"/></g></svg>