<svg height="44" viewBox="0 0 44 44" width="44" xmlns="http://www.w3.org/2000/svg"><g fill="none" fill-rule="evenodd"><path d="M2 0h40a2 2 0 012 2v40a2 2 0 01-2 2H2a2 2 0 01-2-2V2a2 2 0 012-2z" fill="#ff4500"/><path d="M34 21.659c-.054-1.428-1.272-2.544-2.728-2.495a2.662 2.662 0 00-1.724.718A12.953 12.953 0 0022.61 17.7l1.169-5.532 3.856.798c.108.974.994 1.68 1.984 1.574.99-.106 1.707-.979 1.6-1.953a1.794 1.794 0 00-1.985-1.574 1.786 1.786 0 00-1.362.869l-4.416-.869a.558.558 0 00-.667.42v.008l-1.33 6.154c-2.508.04-4.95.797-7.028 2.182a2.657 2.657 0 00-3.717.114 2.557 2.557 0 00.116 3.659c.206.19.444.352.708.467a5.67 5.67 0 000 .78c0 3.972 4.703 7.203 10.503 7.203s10.503-3.227 10.503-7.203a5.67 5.67 0 000-.78A2.584 2.584 0 0034 21.66zm-18.02 1.776c0-.978.81-1.776 1.805-1.776.994 0 1.805.798 1.805 1.776s-.81 1.777-1.805 1.777c-.999-.01-1.805-.798-1.805-1.777zm10.467 4.875a6.995 6.995 0 01-4.452 1.367 6.995 6.995 0 01-4.452-1.367.476.476 0 01.067-.674.492.492 0 01.618 0 5.953 5.953 0 003.75 1.115 5.999 5.999 0 003.766-1.08.513.513 0 01.712.01.493.493 0 01-.009.7zm-.322-3.037c-.995 0-1.805-.798-1.805-1.776s.81-1.777 1.805-1.777 1.805.798 1.805 1.777c.04.978-.735 1.803-1.73 1.842h-.089z" fill="#fff" fill-rule="nonzero"/></g></svg>