<svg height="44" viewBox="0 0 44 44" width="44" xmlns="http://www.w3.org/2000/svg"><g fill="none" fill-rule="evenodd"><path d="M2 0h40a2 2 0 012 2v40a2 2 0 01-2 2H2a2 2 0 01-2-2V2a2 2 0 012-2z" fill="#00aced"/><path d="M11 28.66c0 .115.057.218.172.31.19.131.53.323 1.02.577 1.864.969 3.82 1.453 5.866 1.453 2.552 0 4.87-.661 6.956-1.983.993-.63 1.875-1.39 2.646-2.278a12.116 12.116 0 001.84-2.779 14.57 14.57 0 001.02-2.9c.225-.968.33-1.91.314-2.825v-.403c.894-.646 1.593-1.384 2.097-2.214A.533.533 0 0033 15.41c0-.1-.038-.188-.115-.265a.361.361 0 00-.263-.116c-.054 0-.145.031-.275.093a42.674 42.674 0 00-.682.236 2.539 2.539 0 01-.189.064c.199-.223.405-.525.619-.906.214-.38.32-.659.32-.836 0-.1-.038-.186-.114-.26s-.168-.109-.275-.109a.342.342 0 00-.183.058c-.871.469-1.685.788-2.44.957-.926-.884-2.03-1.326-3.313-1.326-1.314 0-2.433.461-3.358 1.384-.924.922-1.386 2.037-1.386 3.344 0 .23.015.419.046.565a11.915 11.915 0 01-3.736-.934 11.523 11.523 0 01-3.231-2.076c-.221-.215-.65-.665-1.283-1.349a.438.438 0 00-.321-.138c-.092 0-.187.061-.287.184-.198.3-.355.667-.47 1.101-.114.435-.171.86-.171 1.275 0 1.145.355 2.144 1.065 2.998l-.332-.162c-.19-.084-.332-.127-.424-.127a.478.478 0 00-.326.116.38.38 0 00-.132.3c0 .807.206 1.572.619 2.294.412.723.97 1.3 1.672 1.73l-.137-.023c-.09-.02-.11-.025-.126-.03-.134-.005-.22.034-.292.11s-.11.162-.11.254c0 .008.009.05.024.127.26.8.691 1.478 1.295 2.035.603.558 1.31.932 2.12 1.124-1.33.823-2.796 1.234-4.4 1.234a5.92 5.92 0 01-.516-.034 23.306 23.306 0 00-.527-.023c-.1 0-.186.038-.258.115s-.109.165-.109.265z" fill="#fff"/></g></svg>