<svg height="32" viewBox="0 0 32 32" width="32" xmlns="http://www.w3.org/2000/svg"><g fill="none" fill-rule="evenodd"><path d="M2 0h28a2 2 0 012 2v28a2 2 0 01-2 2H2a2 2 0 01-2-2V2a2 2 0 012-2z" fill="#fff"/><path d="M8.777 18.138c-.066-.067-.066-.134 0-.201a.536.536 0 01.498-.151c.2.033.316.067.349.1.232.1.49.327.772.68.282.352.506.595.672.729.798.67 1.611.72 2.441.15.067-.234.175-.435.324-.603.15-.168.29-.285.424-.352.132-.067.365-.168.697-.302-1.096-.1-1.984-.293-2.665-.578-.68-.285-1.22-.646-1.619-1.082-.531-.603-.855-1.392-.971-2.364-.117-.972-.042-1.861.224-2.666.199-.503.481-.956.847-1.358-.266-.838-.216-1.794.149-2.867a5.144 5.144 0 012.89 1.106c1.66-.436 3.386-.452 5.18-.05.232-.168.59-.377 1.07-.629.482-.251 1.088-.394 1.819-.427.133.369.224.805.274 1.308.05.503.025.972-.075 1.408.764.805 1.163 1.878 1.196 3.22 0 1.072-.183 1.961-.548 2.665-.365.704-1.013 1.291-1.943 1.76-.63.303-1.461.487-2.49.554.464.235.805.478 1.02.73.216.25.358.645.424 1.181v1.585l.05 1.534c.1.168.216.31.349.428.132.117.249.201.348.251.1.05.133.126.1.227-.033.1-.166.15-.399.15-.564 0-1.013-.2-1.345-.603a1.16 1.16 0 01-.149-.604v-2.414c0-.268-.066-.461-.2-.579a.97.97 0 00-.398-.226v3.169c0 .57.067.939.2 1.107.132.167.215.335.249.503.033.033.008.058-.075.075-.083.017-.224-.008-.424-.075-.431-.101-.73-.327-.896-.68a2.62 2.62 0 01-.25-1.131v-3.119h-.647v3.119c0 .402-.083.788-.249 1.157-.232.47-.664.72-1.295.754-.1-.033-.15-.067-.15-.1.034-.034.133-.202.3-.503a2.95 2.95 0 00.2-1.107v-3.169c-.134.034-.259.109-.375.226s-.174.31-.174.579v2.414c0 .235-.05.436-.15.604-.299.402-.747.604-1.345.604-.232 0-.365-.05-.398-.151-.034-.067-.025-.126.025-.176.05-.05.124-.11.224-.176s.166-.118.2-.151a.915.915 0 00.298-.403c.1-.134.124-.486.075-1.056-.05-.57-.058-.939-.025-1.107-.864.302-1.744.151-2.64-.452-.266-.269-.532-.654-.797-1.157-.2-.37-.598-.805-1.196-1.308z" fill="#000"/></g></svg>