<svg height="32" viewBox="0 0 32 32" width="32" xmlns="http://www.w3.org/2000/svg"><g fill="none" fill-rule="evenodd"><rect fill="#eb2626" height="32" rx="2" width="32"/><path d="M24.978 15.632c0-.902-.27-1.767-.803-2.571-.478-.722-1.148-1.36-1.991-1.9-1.629-1.038-3.769-1.611-6.026-1.611-.754 0-1.497.064-2.218.19a7.339 7.339 0 00-1.524-1.092c-2.96-1.434-5.414-.034-5.414-.034s2.282 1.873 1.91 3.515c-1.02 1.012-1.574 2.233-1.574 3.503v.024c0 1.27.554 2.491 1.575 3.503.37 1.642-1.911 3.516-1.911 3.516s2.454 1.4 5.414-.034a7.35 7.35 0 001.524-1.092c.721.126 1.464.19 2.218.19 2.258 0 4.397-.573 6.026-1.612.843-.539 1.513-1.177 1.991-1.9.533-.803.803-1.669.803-2.57v-.025z" fill="#fff" fill-rule="nonzero"/><path d="M22.974 15.674c0 2.402-3.061 4.349-6.838 4.349-.84 0-1.646-.097-2.39-.273-.756.905-2.42 2.164-4.036 1.758.526-.563 1.305-1.512 1.138-3.077-.968-.75-1.55-1.71-1.55-2.757 0-2.401 3.062-4.348 6.838-4.348 3.777 0 6.838 1.947 6.838 4.348z" fill="#db2323"/><g fill="#fff" fill-rule="nonzero"><circle cx="15.99" cy="15.783" r="1"/><circle cx="19.42" cy="15.783" r="1"/><circle cx="12.677" cy="15.783" r="1"/></g></g></svg>