<svg height="32" viewBox="0 0 32 32" width="32" xmlns="http://www.w3.org/2000/svg"><g fill="none" fill-rule="evenodd"><path d="M2 0h28a2 2 0 012 2v28a2 2 0 01-2 2H2a2 2 0 01-2-2V2a2 2 0 012-2z" fill="#00aced"/><path d="M8 20.843c0 .084.042.16.125.226.139.096.386.235.742.42a9.13 9.13 0 004.266 1.056c1.856 0 3.542-.48 5.059-1.442a8.747 8.747 0 001.925-1.656 8.811 8.811 0 001.337-2.021c.33-.702.578-1.405.742-2.11a8.43 8.43 0 00.229-2.054v-.294c.65-.47 1.158-1.006 1.525-1.61a.388.388 0 00.05-.15.266.266 0 00-.083-.194.263.263 0 00-.192-.083.57.57 0 00-.2.067 31.034 31.034 0 00-.496.172c-.07.025-.115.04-.137.046.144-.162.294-.382.45-.659.155-.276.233-.48.233-.608 0-.072-.028-.135-.083-.188s-.123-.08-.2-.08a.249.249 0 00-.134.042c-.633.34-1.225.573-1.775.696a3.363 3.363 0 00-2.408-.964c-.956 0-1.77.335-2.442 1.006a3.31 3.31 0 00-1.008 2.432c0 .168.011.305.033.41a8.666 8.666 0 01-2.716-.678 8.38 8.38 0 01-2.35-1.51 32.387 32.387 0 01-.934-.981.319.319 0 00-.233-.1c-.067 0-.136.044-.208.133a2.68 2.68 0 00-.342.801 3.624 3.624 0 00-.125.927c0 .833.258 1.56.775 2.18l-.242-.117a.874.874 0 00-.308-.092.348.348 0 00-.238.084.276.276 0 00-.095.218c0 .587.15 1.143.45 1.668.3.526.705.945 1.216 1.258l-.1-.016-.091-.021a.251.251 0 00-.213.08.263.263 0 00-.079.184l.017.092c.189.582.502 1.075.941 1.48.44.406.953.678 1.542.818a5.962 5.962 0 01-3.2.897 4.36 4.36 0 01-.375-.025 20.946 20.946 0 00-.383-.017.25.25 0 00-.188.084.273.273 0 00-.079.193z" fill="#fff"/></g></svg>